<svg width="146" height="161" viewBox="0 0 146 161" fill="none" xmlns="http://www.w3.org/2000/svg">
<path d="M90.7475 12.3526C91.7396 19.9117 86.5912 26.9872 79.2487 28.1569C71.9055 29.3259 65.1485 24.146 64.1564 16.5868C63.1639 9.02803 68.312 1.95226 75.6552 0.783238C82.9976 -0.38644 89.755 4.79347 90.7475 12.3526Z" fill="#3E0190"/>
<path d="M87.5832 12.8567C88.3393 18.6169 84.4162 24.009 78.8201 24.8999C73.2247 25.7909 68.0753 21.8434 67.3191 16.0832C66.5633 10.3227 70.4864 4.93062 76.0818 4.03967C81.6776 3.14904 86.827 7.09621 87.5832 12.8567Z" fill="#661FC6"/>
<path d="M87.5477 12.6237C87.4862 12.6359 87.382 12.1814 87.1119 11.4021C86.8385 10.6282 86.3776 9.51952 85.5123 8.36639C85.0805 7.79231 84.5507 7.20976 83.9123 6.67002C83.2703 6.13697 82.5261 5.63869 81.6792 5.25265C81.2568 5.05779 80.8118 4.88441 80.3446 4.75176C79.8783 4.61645 79.3936 4.50524 78.8923 4.44436C78.3921 4.38148 77.878 4.3463 77.3559 4.36472C76.834 4.38214 76.3054 4.43851 75.7757 4.53644C75.247 4.64168 74.7324 4.78536 74.2367 4.96312C73.7401 5.14055 73.2685 5.36498 72.8182 5.60983C72.3667 5.85403 71.9462 6.13885 71.551 6.43942C71.1539 6.738 70.7909 7.06688 70.4557 7.40683C69.7822 8.08508 69.2405 8.83035 68.8068 9.56972C68.3781 10.314 68.0645 11.0587 67.8402 11.7587C67.3926 13.1637 67.3107 14.3765 67.2986 15.205C67.2916 16.0371 67.3373 16.5031 67.2756 16.5143C67.2302 16.524 67.0809 16.0765 66.9923 15.2245C66.9094 14.3779 66.9048 13.1067 67.3071 11.6017C67.5089 10.852 67.8102 10.0489 68.242 9.24111C68.6792 8.43789 69.2379 7.62565 69.9464 6.88261C70.2988 6.51027 70.683 6.14997 71.1054 5.82191C71.5259 5.49188 71.9755 5.17954 72.4597 4.9108C72.943 4.64106 73.4508 4.39539 73.9858 4.201C74.5201 4.00596 75.0753 3.84997 75.6452 3.73673C76.2164 3.6308 76.7871 3.57108 77.3504 3.55563C77.914 3.53919 78.4691 3.58133 79.0082 3.65452C79.5479 3.72637 80.0691 3.85257 80.5683 4.00654C81.0687 4.15752 81.5441 4.35292 81.9926 4.57115C82.8928 5.0056 83.6746 5.5604 84.3396 6.15211C85 6.74983 85.5379 7.39248 85.9644 8.02112C86.8185 9.28505 87.2163 10.4804 87.4067 11.3069C87.5921 12.1397 87.5931 12.6154 87.5477 12.6237Z" fill="#3E0190"/>
<g clip-path="url(#clip0_43_682)">
<path d="M79.8785 18.5234L79.9364 19.879C79.9412 19.9475 79.9227 20.0081 79.8809 20.0607C79.8391 20.1133 79.787 20.146 79.7246 20.1586L79.6831 20.1605C79.6599 20.1681 79.6303 20.1733 79.5942 20.176C79.5581 20.1788 79.5133 20.1844 79.4598 20.1928C79.4063 20.2013 79.3464 20.2073 79.28 20.2108C79.2136 20.2144 79.1433 20.2173 79.0689 20.2196C78.9945 20.2219 78.9121 20.223 78.8217 20.2227C78.7314 20.2225 78.6399 20.2207 78.5473 20.2173C78.4547 20.2138 78.3559 20.2066 78.2509 20.1956C78.1459 20.1846 78.0427 20.171 77.9413 20.1549C76.6925 19.9566 75.6619 19.4246 74.8496 18.5589C74.0373 17.6932 73.566 16.6263 73.4358 15.358L72.6753 15.2372C72.6059 15.2262 72.5503 15.1906 72.5085 15.1303C72.4666 15.07 72.4518 15.0042 72.4639 14.9327L72.6219 14.0009C72.634 13.9295 72.6698 13.8716 72.7294 13.8275C72.7889 13.7833 72.8534 13.7667 72.9228 13.7777L73.4511 13.8616C73.4936 13.5466 73.5452 13.2584 73.6059 12.9971L73.0696 12.9119C72.9949 12.9001 72.9377 12.8656 72.8981 12.8085C72.8584 12.7514 72.8451 12.6844 72.8582 12.6074L73.0176 11.6674C73.0306 11.5904 73.0653 11.531 73.1218 11.4892C73.1782 11.4473 73.2438 11.4323 73.3185 11.4442L74.103 11.5688C74.6563 10.4712 75.4636 9.64534 76.5249 9.09128C77.5861 8.53723 78.7145 8.35512 79.91 8.54495C80.4543 8.6314 80.9613 8.77682 81.4308 8.98122C81.4867 9.00704 81.5331 9.05674 81.57 9.13033C81.5917 9.19588 81.5885 9.26312 81.5604 9.33204L80.9939 10.5884C80.9657 10.6574 80.9193 10.705 80.8545 10.7314C80.7898 10.7578 80.7246 10.7546 80.6589 10.7215L80.6283 10.7082C80.6079 10.6993 80.5784 10.6876 80.5397 10.673L80.4045 10.6219L80.2293 10.5644L80.0254 10.5066L79.7967 10.4491L79.5619 10.4034C78.8895 10.2966 78.2566 10.3768 77.6633 10.6438C77.0699 10.9109 76.5876 11.3311 76.2164 11.9044L79.9629 12.4993C80.0482 12.5129 80.1094 12.5565 80.1462 12.63C80.1884 12.7045 80.195 12.7789 80.1659 12.8533L79.8144 13.7628C79.7635 13.9015 79.6659 13.9594 79.5219 13.9365L75.6153 13.3162C75.5648 13.517 75.5158 13.8056 75.4685 14.182L79.1429 14.7655C79.2229 14.7782 79.2841 14.8218 79.3262 14.8962C79.3631 14.9698 79.3665 15.0466 79.3365 15.1265L78.9878 16.0195C78.9669 16.0782 78.9289 16.1244 78.8739 16.158C78.8188 16.1916 78.762 16.2038 78.7033 16.1945L75.6052 15.7025C75.7523 16.3863 76.0648 16.9595 76.5427 17.4221C77.0205 17.8847 77.5983 18.1698 78.2761 18.2774C78.3721 18.2927 78.4689 18.3038 78.5664 18.3108C78.6638 18.3178 78.7549 18.3224 78.8394 18.3245C78.924 18.3267 79.0048 18.3268 79.0819 18.3249C79.1589 18.3231 79.2266 18.3197 79.285 18.3149C79.3434 18.31 79.3948 18.3055 79.4394 18.3013L79.5397 18.2918L79.5825 18.2816C79.6565 18.2652 79.725 18.2817 79.7878 18.3312C79.8453 18.3798 79.8756 18.4439 79.8785 18.5234Z" fill="#3E0190"/>
</g>
<path d="M22.7801 56.7991C23.5225 62.4578 19.6686 67.755 14.1717 68.6303C8.67446 69.5056 3.61619 65.6278 2.87333 59.9686C2.13008 54.3099 5.9844 49.0131 11.4817 48.1378C16.9785 47.2625 22.0368 51.1403 22.7801 56.7991Z" fill="#3E0190"/>
<path d="M20.4105 57.1763C20.9765 61.4886 18.0395 65.5252 13.8503 66.1921C9.66141 66.8591 5.8064 63.9041 5.24043 59.5918C4.67446 55.2795 7.61148 51.2425 11.8003 50.5756C15.9896 49.909 19.8446 52.864 20.4105 57.1763Z" fill="#661FC6"/>
<path d="M20.3855 57.0015C20.3394 57.0106 20.2614 56.6701 20.0592 56.0871C19.8548 55.5077 19.5096 54.678 18.8616 53.8147C18.5383 53.385 18.1418 52.9489 17.6635 52.5449C17.183 52.1457 16.6257 51.7731 15.9917 51.4838C15.6755 51.3382 15.3424 51.2084 14.9927 51.1087C14.6437 51.0074 14.281 50.9243 13.9053 50.8784C13.5308 50.8312 13.1462 50.805 12.7552 50.8185C12.3646 50.8317 11.9687 50.8736 11.5722 50.9471C11.1765 51.026 10.7911 51.1335 10.4199 51.2666C10.048 51.3992 9.69522 51.5675 9.35785 51.7505C9.01973 51.9333 8.7053 52.1465 8.40939 52.3717C8.11198 52.5954 7.8406 52.8416 7.58931 53.096C7.08522 53.6036 6.67954 54.1615 6.3549 54.7155C6.03403 55.2726 5.79909 55.8303 5.63137 56.3542C5.29628 57.4061 5.23472 58.3136 5.22586 58.9342C5.22078 59.5571 5.25498 59.9059 5.20852 59.9141C5.17461 59.9215 5.06271 59.5864 4.99643 58.9488C4.9343 58.315 4.93086 57.3636 5.232 56.2368C5.38331 55.6756 5.60875 55.0744 5.93194 54.4696C6.25928 53.8684 6.67756 53.2604 7.20794 52.7038C7.47199 52.4249 7.75954 52.1553 8.07578 51.9098C8.39089 51.6628 8.72718 51.429 9.08979 51.2279C9.45166 51.0261 9.83162 50.8423 10.2322 50.6968C10.6319 50.551 11.0478 50.4341 11.4744 50.3494C11.9021 50.2702 12.3292 50.2252 12.751 50.2138C13.1732 50.2015 13.5885 50.233 13.9918 50.2878C14.396 50.3418 14.786 50.436 15.1599 50.5513C15.5346 50.6642 15.8904 50.8106 16.2263 50.9742C16.8999 51.2994 17.4856 51.7146 17.9833 52.1578C18.4775 52.6053 18.8801 53.0862 19.1996 53.5573C19.8389 54.5036 20.1368 55.3986 20.2793 56.0172C20.4187 56.6392 20.4194 56.9953 20.3855 57.0015Z" fill="#3E0190"/>
<path d="M14.3007 62.8946L14.4988 64.249L13.3274 64.4526L13.1349 63.1352C11.9646 63.2644 10.7969 63.0835 10.0766 62.6756L10.505 61.0885C11.1562 61.4339 12.0472 61.6136 12.9034 61.5514L12.6083 59.5321C11.2604 59.4323 9.74236 59.2376 9.48951 57.5086C9.30238 56.2271 10.0437 54.9703 11.8626 54.4308L11.6666 53.0885L12.8384 52.8845L13.0308 54.2027C13.92 54.1222 14.8106 54.2151 15.5167 54.5261L15.1485 56.1151C14.4998 55.8686 13.8603 55.7689 13.2642 55.7982L13.5646 57.8536C14.9107 57.9414 16.4054 58.1405 16.6547 59.8446C16.8375 61.1021 16.1064 62.3447 14.3007 62.8946ZM12.3484 57.7549L12.0973 56.0384C11.4977 56.2913 11.303 56.6848 11.3612 57.084C11.423 57.5069 11.8081 57.6754 12.3484 57.7549ZM14.7894 60.3179C14.7272 59.8946 14.3541 59.724 13.8238 59.63L14.0677 61.2983C14.6341 61.064 14.8458 60.7046 14.7894 60.3179Z" fill="#3E0190"/>
<path d="M117.386 81.9527L116.777 151.037C116.744 154.817 113.751 157.907 110.093 157.939L12.9794 158.772C9.32119 158.803 6.38301 155.764 6.4163 151.984L7.02479 82.8991C7.05809 79.1185 10.0506 76.0288 13.7085 75.9974L110.822 75.1646C114.48 75.1333 117.419 78.1721 117.386 81.9527Z" fill="#00DE93"/>
<path d="M117.375 81.9262C117.375 81.9262 117.368 81.8426 117.36 81.6782C117.347 81.5142 117.356 81.266 117.298 80.9461C117.217 80.3077 116.999 79.3418 116.35 78.2718C116.02 77.7455 115.59 77.191 115.011 76.6959C114.43 76.2059 113.711 75.769 112.861 75.4891C112.65 75.4151 112.426 75.372 112.203 75.3103C111.976 75.2636 111.74 75.2386 111.503 75.2006C111.262 75.191 111.018 75.1809 110.769 75.171C110.518 75.1735 110.263 75.1762 110.004 75.1788C108.968 75.1895 107.866 75.2008 106.697 75.2126C97.348 75.3025 83.8238 75.4322 67.112 75.5926C58.7555 75.6698 49.6028 75.7541 39.7766 75.845C34.8637 75.8897 29.7823 75.9359 24.5482 75.9838C21.9314 76.0075 19.2758 76.0316 16.5846 76.056C15.9119 76.0619 15.2365 76.0683 14.5592 76.0742C13.88 76.088 13.2045 76.0614 12.5427 76.2097C11.8821 76.3482 11.2354 76.5796 10.6337 76.9139C10.0381 77.2579 9.48905 77.6919 9.00957 78.2006C8.52406 78.705 8.13675 79.3063 7.82885 79.9423C7.52245 80.5802 7.30517 81.2696 7.21679 81.9782C7.11857 82.6822 7.14199 83.4099 7.13088 84.1375C7.12432 84.8646 7.11812 85.5941 7.11153 86.3252C7.08552 89.2507 7.05958 92.21 7.03299 95.2003C6.9798 101.182 6.92547 107.289 6.87015 113.506C6.75875 125.94 6.64339 138.814 6.52483 152C6.51243 153.627 7.08181 155.229 8.10386 156.433C9.11483 157.645 10.5649 158.45 12.1036 158.636C12.8677 158.732 13.6604 158.682 14.4438 158.685C15.2286 158.678 16.0117 158.671 16.7934 158.664C18.3571 158.651 19.9155 158.637 21.4679 158.624C27.6779 158.57 33.7973 158.517 39.81 158.464C51.8353 158.361 63.4351 158.261 74.4847 158.166C85.5344 158.072 96.0343 157.983 105.861 157.9C107.09 157.889 108.308 157.879 109.514 157.869C110.121 157.869 110.712 157.851 111.296 157.732C111.873 157.6 112.445 157.423 112.967 157.136C113.238 157.015 113.478 156.834 113.732 156.682C113.963 156.494 114.213 156.332 114.421 156.118C114.869 155.726 115.236 155.25 115.566 154.76C116.198 153.757 116.59 152.603 116.651 151.436C116.734 146.728 116.749 142.194 116.799 137.875C116.968 120.592 117.105 106.605 117.2 96.9373C117.251 92.1055 117.292 88.3534 117.319 85.8072C117.334 84.5362 117.347 83.5667 117.355 82.9126C117.365 82.2604 117.375 81.9262 117.375 81.9262C117.375 81.9262 117.379 82.2603 117.376 82.9124C117.372 83.5665 117.367 84.5359 117.36 85.8068C117.341 88.353 117.314 92.1049 117.278 96.9366C117.198 106.604 117.083 120.591 116.94 137.874C116.895 142.197 116.884 146.718 116.805 151.444C116.743 152.638 116.343 153.82 115.697 154.847C115.359 155.349 114.984 155.837 114.526 156.238C114.313 156.457 114.057 156.624 113.82 156.816C113.561 156.973 113.315 157.158 113.038 157.283C112.503 157.577 111.917 157.758 111.326 157.894C110.73 158.016 110.114 158.036 109.514 158.036C108.308 158.047 107.09 158.058 105.861 158.069C96.0343 158.159 85.5343 158.254 74.4845 158.354C63.4345 158.453 51.835 158.557 39.8097 158.664C33.797 158.718 27.6776 158.772 21.4675 158.827C19.9148 158.841 18.3568 158.854 16.7931 158.868C16.0114 158.875 15.2279 158.882 14.4435 158.889C13.6604 158.886 12.8734 158.938 12.0768 158.839C10.4914 158.646 8.99673 157.817 7.95572 156.569C6.90286 155.33 6.31534 153.677 6.32894 152.001C6.44863 138.816 6.56552 125.942 6.67806 113.507C6.73489 107.29 6.79074 101.183 6.84545 95.2019C6.8728 92.2112 6.90025 89.2524 6.92702 86.3268C6.93362 85.5954 6.94058 84.8662 6.94714 84.1391C6.95899 83.4142 6.93443 82.6858 7.03593 81.9539C7.12716 81.2252 7.35069 80.5161 7.66598 79.8605C7.9824 79.2064 8.38124 78.5889 8.88054 78.0706C9.37343 77.548 9.93775 77.1022 10.5502 76.7493C11.1683 76.4059 11.8332 76.168 12.5125 76.0262L13.0253 75.9412L13.5415 75.9072C13.886 75.8842 14.2219 75.8958 14.5617 75.8885C15.2389 75.8825 15.9143 75.877 16.587 75.8711C19.2786 75.8483 21.9338 75.8257 24.5506 75.8036C29.7847 75.7596 34.8661 75.7166 39.7789 75.675C49.605 75.5931 58.7576 75.5171 67.1141 75.4477C83.8252 75.3148 97.3496 75.2071 106.698 75.1329C107.867 75.1242 108.97 75.1161 110.006 75.1086C110.265 75.1067 110.519 75.1048 110.77 75.103C111.021 75.1142 111.268 75.125 111.511 75.1354C111.75 75.1745 111.988 75.2007 112.217 75.2486C112.442 75.3114 112.668 75.3557 112.881 75.4312C113.737 75.7169 114.461 76.1605 115.043 76.6563C115.625 77.1577 116.056 77.7181 116.385 78.2495C117.032 79.3298 117.243 80.302 117.318 80.9432C117.373 81.2647 117.361 81.5137 117.371 81.6777C117.375 81.8426 117.375 81.9262 117.375 81.9262Z" fill="#3E0190"/>
<path d="M113.906 81.3888C113.907 81.3315 114.423 81.2842 115.059 81.2827C115.696 81.2812 116.212 81.3266 116.212 81.3835C116.212 81.4403 115.695 81.4881 115.059 81.4896C114.422 81.4914 113.906 81.4461 113.906 81.3888Z" fill="#3E0190"/>
<path d="M104.487 81.3889C104.487 81.3316 105.541 81.2841 106.84 81.2826C108.139 81.2811 109.193 81.3264 109.192 81.3833C109.192 81.4402 108.139 81.488 106.839 81.4896C105.54 81.4915 104.487 81.4462 104.487 81.3889Z" fill="#3E0190"/>
<path d="M95.0674 81.3889C95.0674 81.3316 96.1212 81.2841 97.4201 81.2826C98.7199 81.2811 99.7731 81.3264 99.773 81.3833C99.773 81.4402 98.7197 81.488 97.4199 81.4896C96.1205 81.4915 95.0673 81.4462 95.0674 81.3889Z" fill="#3E0190"/>
<path d="M85.6475 81.3889C85.6475 81.3316 86.7012 81.2841 88.0006 81.2826C89.3004 81.2811 90.3536 81.3264 90.3535 81.3833C90.3534 81.4402 89.3001 81.488 88.0004 81.4896C86.701 81.4915 85.6474 81.4462 85.6475 81.3889Z" fill="#3E0190"/>
<path d="M76.2275 81.3889C76.2276 81.3316 77.2813 81.2841 78.5803 81.2826C79.8801 81.2811 80.9333 81.3264 80.9332 81.3833C80.9331 81.4402 79.8798 81.488 78.58 81.4896C77.2811 81.4915 76.2275 81.4462 76.2275 81.3889Z" fill="#3E0190"/>
<path d="M66.808 81.3889C66.8081 81.3316 67.8617 81.2841 69.1607 81.2826C70.4605 81.2811 71.5137 81.3264 71.5136 81.3833C71.5136 81.4402 70.4603 81.488 69.1605 81.4896C67.8611 81.4915 66.8079 81.4462 66.808 81.3889Z" fill="#3E0190"/>
<path d="M57.3881 81.3889C57.3881 81.3316 58.4418 81.2841 59.7408 81.2826C61.0406 81.2811 62.0938 81.3264 62.0937 81.3833C62.0937 81.4402 61.0403 81.488 59.7406 81.4896C58.4416 81.4915 57.388 81.4462 57.3881 81.3889Z" fill="#3E0190"/>
<path d="M47.9684 81.3889C47.9685 81.3316 49.0222 81.2841 50.3215 81.2826C51.6213 81.2811 52.6745 81.3264 52.6744 81.3833C52.6744 81.4402 51.621 81.488 50.3213 81.4896C49.0219 81.4915 47.9683 81.4462 47.9684 81.3889Z" fill="#3E0190"/>
<path d="M38.5491 81.3889C38.5491 81.3316 39.6028 81.2841 40.9022 81.2826C42.202 81.2811 43.2552 81.3264 43.2551 81.3833C43.255 81.4402 42.2017 81.488 40.902 81.4896C39.6022 81.4915 38.549 81.4462 38.5491 81.3889Z" fill="#3E0190"/>
<path d="M29.129 81.3889C29.1291 81.3316 30.1828 81.2841 31.4818 81.2826C32.7816 81.2811 33.8348 81.3264 33.8347 81.3833C33.8346 81.4402 32.7813 81.488 31.4815 81.4896C30.1826 81.4915 29.129 81.4462 29.129 81.3889Z" fill="#3E0190"/>
<path d="M19.7096 81.3889C19.7097 81.3316 20.7634 81.2841 22.0624 81.2826C23.3621 81.2811 24.4153 81.3264 24.4153 81.3833C24.4152 81.4402 23.3619 81.488 22.0621 81.4896C20.7631 81.4915 19.7095 81.4462 19.7096 81.3889Z" fill="#3E0190"/>
<path d="M12.6954 83.7256C12.6409 83.726 12.6068 82.6752 12.6187 81.379C12.8177 81.1734 12.6745 81.3221 12.7192 81.276L12.7199 81.276L12.7218 81.2759L12.7256 81.2759L12.7328 81.2758L12.7475 81.2757L12.7767 81.2755L12.8349 81.2749L12.9503 81.2743C13.0264 81.274 13.1013 81.2741 13.1758 81.2738C13.3207 81.2745 13.4622 81.2752 13.6018 81.2759C13.8499 81.2811 14.0897 81.2864 14.323 81.2913C14.7337 81.306 14.9874 81.3292 14.9871 81.3573C14.9869 81.3855 14.7328 81.4132 14.3217 81.4353C14.0882 81.4444 13.8483 81.454 13.6 81.4637C13.4604 81.4669 13.3189 81.4701 13.174 81.4734C13.0994 81.4744 13.0245 81.4759 12.9485 81.477L12.8331 81.4784L12.7748 81.4789L12.7457 81.4792L12.7309 81.4793L12.7237 81.4794L12.7199 81.4794L12.718 81.4794L12.7173 81.4794C12.7612 81.4336 12.6172 81.582 12.8158 81.3768C12.8039 82.6734 12.7499 83.7251 12.6954 83.7256Z" fill="#3E0190"/>
<path d="M12.6857 92.3293C12.6321 92.3294 12.5902 91.3622 12.5917 90.1696C12.5931 88.9766 12.6379 88.0097 12.6911 88.0096C12.7447 88.0096 12.7867 88.9764 12.7852 90.1694C12.7841 91.362 12.7393 92.3293 12.6857 92.3293Z" fill="#3E0190"/>
<path d="M12.6853 100.961C12.6318 100.961 12.5898 99.994 12.5913 98.8014C12.5928 97.6085 12.6375 96.6415 12.6908 96.6415C12.7443 96.6414 12.7863 97.6082 12.7848 98.8012C12.7837 99.9942 12.7389 100.961 12.6853 100.961Z" fill="#3E0190"/>
<path d="M12.6853 109.593C12.6318 109.593 12.5898 108.626 12.5913 107.434C12.5928 106.241 12.6375 105.274 12.6908 105.274C12.7443 105.274 12.7863 106.24 12.7848 107.433C12.7837 108.626 12.7389 109.593 12.6853 109.593Z" fill="#3E0190"/>
<path d="M12.6857 118.225C12.6321 118.225 12.5902 117.258 12.5917 116.065C12.5931 114.872 12.6379 113.905 12.6911 113.905C12.7447 113.905 12.7867 114.872 12.7852 116.065C12.7841 117.258 12.7393 118.225 12.6857 118.225Z" fill="#3E0190"/>
<path d="M12.6856 126.857C12.632 126.857 12.59 125.89 12.5915 124.697C12.593 123.504 12.6378 122.538 12.691 122.537C12.7446 122.537 12.7865 123.504 12.7851 124.697C12.7839 125.89 12.7392 126.857 12.6856 126.857Z" fill="#3E0190"/>
<path d="M12.6857 135.489C12.6321 135.489 12.5902 134.522 12.5917 133.329C12.5931 132.136 12.6379 131.169 12.6911 131.169C12.7447 131.169 12.7867 132.136 12.7852 133.329C12.7841 134.522 12.7393 135.489 12.6857 135.489Z" fill="#3E0190"/>
<path d="M12.6858 144.121C12.6322 144.121 12.5903 143.154 12.5918 141.961C12.5933 140.768 12.638 139.801 12.6912 139.801C12.7448 139.801 12.7868 140.768 12.7853 141.961C12.7842 143.154 12.7394 144.121 12.6858 144.121Z" fill="#3E0190"/>
<path d="M14.9666 150.752C14.9661 150.808 13.9494 150.863 12.6955 150.874C12.5002 150.672 12.6415 150.818 12.5977 150.772L12.5977 150.771L12.5977 150.769L12.5977 150.765L12.5978 150.758L12.5979 150.742L12.5982 150.712L12.5988 150.652L12.6003 150.533C12.6014 150.454 12.6028 150.377 12.6039 150.3C12.6072 150.15 12.6104 150.003 12.6137 149.859C12.6232 149.602 12.6327 149.354 12.6417 149.113C12.6634 148.687 12.6905 148.425 12.7177 148.424C12.745 148.424 12.7671 148.687 12.781 149.111C12.7856 149.353 12.7905 149.601 12.7953 149.857C12.7958 150.002 12.7964 150.148 12.7969 150.298C12.7966 150.375 12.7966 150.452 12.7962 150.531L12.7955 150.65L12.795 150.711L12.7947 150.741L12.7945 150.756L12.7945 150.763L12.7944 150.767L12.7944 150.769L12.7944 150.77C12.7509 150.725 12.8918 150.872 12.697 150.67C13.9513 150.659 14.9671 150.696 14.9666 150.752Z" fill="#3E0190"/>
<path d="M24.279 150.741C24.2789 150.799 23.2406 150.846 21.9601 150.848C20.6792 150.849 19.6414 150.804 19.6415 150.747C19.6415 150.69 20.6795 150.642 21.9604 150.641C23.2409 150.639 24.2791 150.684 24.279 150.741Z" fill="#3E0190"/>
<path d="M33.5621 150.741C33.562 150.799 32.5237 150.846 31.2432 150.848C29.9623 150.849 28.9241 150.804 28.9242 150.747C28.9243 150.69 29.9626 150.642 31.2435 150.641C32.524 150.639 33.5622 150.684 33.5621 150.741Z" fill="#3E0190"/>
<path d="M42.8451 150.742C42.845 150.799 41.8067 150.846 40.5262 150.848C39.2453 150.85 38.2074 150.804 38.2075 150.747C38.2076 150.69 39.2455 150.643 40.5264 150.641C41.8069 150.639 42.8451 150.684 42.8451 150.742Z" fill="#3E0190"/>
<path d="M52.1289 150.742C52.1288 150.799 51.0905 150.846 49.81 150.848C48.5291 150.849 47.4913 150.804 47.4913 150.747C47.4914 150.69 48.5293 150.642 49.8102 150.641C51.0907 150.639 52.1289 150.684 52.1289 150.742Z" fill="#3E0190"/>
<path d="M61.4117 150.742C61.4117 150.799 60.3733 150.846 59.0928 150.848C57.8119 150.849 56.7737 150.804 56.7738 150.747C56.7739 150.69 57.8118 150.642 59.0931 150.641C60.3736 150.639 61.4118 150.684 61.4117 150.742Z" fill="#3E0190"/>
<path d="M70.6955 150.741C70.6955 150.799 69.6572 150.846 68.3766 150.848C67.0957 150.849 66.0575 150.804 66.0576 150.747C66.0577 150.69 67.0956 150.642 68.3769 150.641C69.6574 150.639 70.6956 150.684 70.6955 150.741Z" fill="#3E0190"/>
<path d="M79.979 150.741C79.9789 150.799 78.9406 150.846 77.6601 150.848C76.3792 150.849 75.3414 150.804 75.3414 150.747C75.3415 150.69 76.3794 150.642 77.6603 150.641C78.9408 150.639 79.979 150.684 79.979 150.741Z" fill="#3E0190"/>
<path d="M89.2622 150.742C89.2621 150.799 88.2238 150.846 86.9433 150.848C85.6624 150.849 84.6242 150.804 84.6243 150.747C84.6243 150.69 85.6626 150.642 86.9435 150.641C88.2241 150.639 89.2623 150.684 89.2622 150.742Z" fill="#3E0190"/>
<path d="M98.5456 150.741C98.5456 150.799 97.5073 150.846 96.2267 150.848C94.9458 150.849 93.9076 150.804 93.9077 150.747C93.9078 150.69 94.9457 150.642 96.227 150.641C97.5075 150.639 98.5457 150.684 98.5456 150.741Z" fill="#3E0190"/>
<path d="M107.828 150.741C107.828 150.799 106.79 150.846 105.51 150.848C104.229 150.849 103.19 150.804 103.191 150.747C103.191 150.69 104.229 150.642 105.51 150.641C106.79 150.639 107.829 150.684 107.828 150.741Z" fill="#3E0190"/>
<path d="M114.78 150.742C114.779 150.799 114.263 150.846 113.627 150.848C112.99 150.849 112.474 150.804 112.474 150.747C112.475 150.69 112.991 150.642 113.627 150.641C114.264 150.639 114.78 150.684 114.78 150.742Z" fill="#3E0190"/>
<g opacity="0.3">
<path d="M44.4781 121.088C44.4781 121.088 44.4751 125.035 43.3037 127.43C42.1322 129.824 41.7378 130.745 39.3048 131.679C36.8717 132.613 6.07128 136.308 6.07128 136.308L6.1448 125.568L44.4781 121.088Z" fill="black"/>
</g>
<g opacity="0.3">
<path d="M43.8964 106.929C43.8964 106.929 44.2702 102.884 34.4698 101.434C23.2605 99.7744 6.09741 97.756 6.09741 97.756L6.05668 105.407L43.8964 106.929Z" fill="black"/>
</g>
<path d="M7.07553 129.115L38.7661 128.85C41.7738 128.825 44.2336 126.282 44.2603 123.172L44.3862 108.5C44.4129 105.389 41.9964 102.887 38.9887 102.912L7.29813 103.177C4.29045 103.202 1.83102 105.745 1.80432 108.856L1.6784 123.528C1.65132 126.639 4.06786 129.14 7.07553 129.115Z" fill="#00DE93"/>
<path d="M7.07637 129.118C7.07637 129.118 6.96643 129.12 6.7512 129.114C6.53592 129.115 6.21558 129.08 5.80597 128.989C5.39402 128.905 4.90155 128.72 4.36406 128.419C3.83042 128.112 3.26159 127.655 2.77277 127.004C2.29155 126.354 1.86445 125.516 1.71261 124.516C1.61802 124.02 1.63406 123.486 1.63419 122.945C1.63776 122.401 1.64114 121.835 1.64507 121.25C1.66118 118.908 1.67935 116.242 1.69918 113.295C1.71386 111.82 1.71162 110.279 1.74196 108.666C1.79713 107.04 2.58052 105.343 3.96471 104.279C4.64599 103.745 5.45577 103.348 6.32586 103.191C6.75716 103.104 7.20881 103.084 7.6447 103.084C8.08442 103.08 8.52718 103.076 8.97299 103.072C10.7574 103.055 12.5938 103.039 14.4771 103.021C22.0109 102.955 30.2925 102.882 38.9857 102.806C39.5387 102.813 40.0881 102.887 40.615 103.045C41.1373 103.216 41.633 103.458 42.0872 103.766C42.5336 104.085 42.9323 104.467 43.2759 104.896C43.6144 105.33 43.8802 105.817 44.0877 106.327C44.2894 106.842 44.4014 107.388 44.4602 107.936C44.4941 108.492 44.475 109.029 44.473 109.569C44.4633 110.648 44.4536 111.718 44.4444 112.778C44.4253 114.899 44.4065 116.983 44.388 119.023C44.3788 120.043 44.3693 121.053 44.3603 122.051C44.3476 122.552 44.3692 123.04 44.3283 123.545C44.325 123.796 44.2654 124.042 44.2325 124.289C44.1718 124.531 44.1229 124.776 44.0372 125.009C43.4164 126.906 41.8125 128.343 40.0406 128.771C39.8224 128.842 39.5945 128.855 39.3731 128.899C39.1496 128.92 38.924 128.931 38.7026 128.94C38.2628 128.944 37.8269 128.947 37.3941 128.95C36.5283 128.957 35.6767 128.963 34.8391 128.969C31.4895 128.993 28.3689 129.015 25.5195 129.035C19.8254 129.069 15.2168 129.097 12.0251 129.116C10.436 129.121 9.20057 129.125 8.35655 129.128C7.94121 129.127 7.62286 129.126 7.40265 129.126C7.18624 129.124 7.07637 129.118 7.07637 129.118C7.07637 129.118 7.18636 129.11 7.40168 129.105C7.62194 129.101 7.94035 129.094 8.35577 129.087C9.20024 129.075 10.4354 129.058 12.0247 129.036C15.2161 129.002 19.8253 128.952 25.5197 128.89C28.3691 128.862 31.4894 128.832 34.8394 128.799C35.677 128.791 36.5287 128.782 37.3945 128.774C38.26 128.745 39.147 128.833 40.0006 128.596C41.7155 128.179 43.2661 126.785 43.8635 124.95C44.2012 124.039 44.1641 123.051 44.1731 122.052C44.1814 121.054 44.1894 120.044 44.1979 119.024C44.2148 116.984 44.2321 114.9 44.2497 112.78C44.2585 111.719 44.2678 110.649 44.2767 109.57C44.2787 109.032 44.2968 108.485 44.2641 107.957C44.2067 107.428 44.099 106.902 43.9044 106.406C43.704 105.914 43.4476 105.444 43.1211 105.025C42.7896 104.612 42.4048 104.243 41.9746 103.935C41.5364 103.639 41.0588 103.405 40.5555 103.241C40.0475 103.089 39.5183 103.018 38.9843 103.011C30.2916 103.081 22.0096 103.148 14.4759 103.21C12.5926 103.224 10.7562 103.238 8.97181 103.252C8.52563 103.255 8.08287 103.258 7.64354 103.262C7.2012 103.261 6.77656 103.28 6.35441 103.363C5.51102 103.513 4.72531 103.897 4.0632 104.414C2.71772 105.443 1.95342 107.088 1.89522 108.669C1.86116 110.272 1.85878 111.82 1.83955 113.293C1.80868 116.24 1.78063 118.906 1.75576 121.249C1.74917 121.834 1.74313 122.399 1.73727 122.944C1.73445 123.489 1.71586 124.009 1.80633 124.498C1.94957 125.482 2.36458 126.31 2.83444 126.954C3.31189 127.6 3.86932 128.057 4.39419 128.366C4.92291 128.669 5.40888 128.859 5.81621 128.949C6.22121 129.046 6.53921 129.086 6.75329 129.093C6.96617 129.107 7.07637 129.118 7.07637 129.118Z" fill="#3E0190"/>
<path d="M31.5078 126.344C36.5154 126.299 40.6136 122.065 40.6614 116.887C40.7091 111.709 36.6883 107.548 31.6807 107.592C26.6731 107.637 22.5749 111.871 22.5272 117.05C22.4795 122.228 26.5002 126.389 31.5078 126.344Z" fill="#3E0190"/>
<path d="M33.981 124.578C33.9589 124.527 34.9076 124.323 36.1314 123.401C36.7401 122.945 37.3948 122.295 37.9599 121.449C38.5254 120.607 38.981 119.557 39.1758 118.396C39.3546 117.232 39.2505 116.093 38.9769 115.119C38.7048 114.142 38.2862 113.323 37.8503 112.702C36.9761 111.449 36.1386 110.963 36.1752 110.922C36.179 110.917 36.2294 110.946 36.3226 111.008C36.4129 111.074 36.5577 111.156 36.7186 111.297C37.0544 111.559 37.5051 111.993 37.9619 112.616C38.4199 113.237 38.8613 114.067 39.1494 115.064C39.4389 116.058 39.5521 117.228 39.3679 118.426C39.1672 119.622 38.6934 120.698 38.1065 121.554C37.5199 122.414 36.8404 123.067 36.2104 123.516C35.5807 123.968 35.0161 124.243 34.6147 124.389C34.4177 124.472 34.254 124.506 34.1477 124.541C34.0399 124.572 33.9828 124.584 33.981 124.578Z" fill="#FAFAFA"/>
<path d="M107.444 41.0652C107.932 47.3966 103.348 53.0348 97.2053 53.6592C91.0621 54.2834 85.6867 49.657 85.1985 43.3255C84.7101 36.9943 89.2943 31.3559 95.4375 30.7319C101.581 30.1075 106.956 34.7339 107.444 41.0652Z" fill="#00DE93"/>
<g opacity="0.3">
<path d="M104.787 41.1503C104.735 41.1576 104.669 40.7746 104.479 40.1137C104.286 39.4572 103.953 38.5131 103.285 37.5128C102.952 37.015 102.538 36.5053 102.032 36.026C101.522 35.552 100.927 35.1026 100.241 34.741C99.899 34.5589 99.5374 34.3935 99.1552 34.2608C98.7741 34.126 98.3767 34.0105 97.9634 33.9361C97.551 33.86 97.1258 33.8062 96.6916 33.7967C96.2576 33.7865 95.8163 33.8083 95.3724 33.8642C94.9289 33.9267 94.4954 34.0217 94.0762 34.1459C93.656 34.2699 93.2548 34.4341 92.8701 34.6163C92.4845 34.7979 92.1231 35.0148 91.7819 35.246C91.4391 35.4755 91.1233 35.7319 90.8299 35.9986C90.2409 36.5307 89.7584 37.1246 89.3654 37.7193C88.9766 38.3179 88.6834 38.9222 88.4662 39.4939C88.0326 40.6413 87.9109 41.6459 87.8643 42.3342C87.8216 43.026 87.8393 43.4157 87.7875 43.4219C87.7494 43.4277 87.6452 43.0484 87.6093 42.3359C87.5779 41.6277 87.6304 40.5704 88.0307 39.3378C88.2315 38.724 88.517 38.0701 88.9111 37.419C89.3094 36.7718 89.8091 36.1229 90.43 35.5384C90.7391 35.2453 91.0739 34.9641 91.4391 34.7112C91.8029 34.4566 92.1898 34.2182 92.6038 34.0179C93.0168 33.8166 93.4493 33.6364 93.9018 33.5004C94.3537 33.3635 94.8219 33.2602 95.2996 33.1932C95.7783 33.1322 96.2546 33.1096 96.723 33.1234C97.1917 33.1366 97.6503 33.1978 98.0945 33.2843C98.5392 33.3697 98.9663 33.4994 99.374 33.6511C99.7829 33.8003 100.168 33.9855 100.531 34.1884C101.259 34.5926 101.884 35.0911 102.409 35.6148C102.931 36.1433 103.349 36.7034 103.676 37.2466C104.329 38.3384 104.606 39.3517 104.728 40.0478C104.845 40.75 104.825 41.1458 104.787 41.1503Z" fill="black"/>
</g>
<g opacity="0.3">
<path d="M97.6879 47.2952L97.8274 48.8111L96.5173 48.9626L96.382 47.488C95.0777 47.5572 93.7947 47.2824 93.0208 46.7839L93.5892 45.0491C94.2905 45.474 95.267 45.7297 96.2192 45.7151L96.0112 43.4549C94.5236 43.2589 92.8532 42.9466 92.6754 41.0111C92.5438 39.5766 93.4391 38.2282 95.4864 37.7446L95.3486 36.2422L96.6586 36.0901L96.7942 37.5656C97.7842 37.5327 98.7652 37.6921 99.529 38.0822L99.0272 39.8228C98.323 39.508 97.6208 39.3569 96.9582 39.3514L97.1696 41.6523C98.6558 41.8351 100.3 42.1508 100.476 44.0585C100.605 45.466 99.721 46.7993 97.6879 47.2952ZM95.8286 41.4657L95.6518 39.5442C94.9725 39.787 94.7335 40.2115 94.7745 40.6584C94.818 41.1317 95.2348 41.3436 95.8286 41.4657ZM98.3815 44.4659C98.3377 43.9921 97.9345 43.7793 97.3524 43.6413L97.5239 45.5088C98.1654 45.284 98.4214 44.8988 98.3815 44.4659Z" fill="black"/>
</g>
<path d="M87.8284 42.9852C87.8307 42.9849 87.8361 43.0087 87.8443 43.0554C87.8532 43.1099 87.864 43.1778 87.8778 43.2625C87.892 43.3568 87.9085 43.4688 87.9279 43.5993C87.9479 43.7322 87.9641 43.8869 88.0119 44.0548C88.1517 44.7355 88.4514 45.7107 89.0776 46.7698C89.3828 47.3043 89.8022 47.831 90.2879 48.3563C90.4182 48.4786 90.5506 48.603 90.6852 48.7292C90.7535 48.7911 90.8181 48.8588 90.8909 48.9175C90.965 48.9746 91.0396 49.032 91.1147 49.0899C91.2669 49.2028 91.4132 49.3294 91.576 49.436C91.741 49.5391 91.9083 49.6437 92.0776 49.7494C92.7721 50.1376 93.5439 50.4801 94.3919 50.6629C95.2376 50.8459 96.1391 50.9072 97.0575 50.8249C97.9741 50.7176 98.8514 50.4723 99.6542 50.119C100.459 49.7653 101.164 49.2703 101.785 48.7458C101.934 48.607 102.082 48.4698 102.228 48.3345C102.371 48.1963 102.495 48.0418 102.627 47.8995C102.691 47.8273 102.755 47.7554 102.819 47.684C102.881 47.6113 102.934 47.5316 102.991 47.4566C103.104 47.3048 103.214 47.1553 103.323 47.0085C103.717 46.3921 104.045 45.7881 104.26 45.2C104.707 44.03 104.845 43.0094 104.874 42.3113C104.895 42.1364 104.886 41.981 104.884 41.8462C104.882 41.7139 104.881 41.6003 104.88 41.5047C104.88 41.4189 104.88 41.3496 104.88 41.2942C104.88 41.2467 104.882 41.2223 104.884 41.222C104.886 41.2217 104.889 41.2459 104.893 41.2931C104.897 41.3482 104.901 41.4172 104.906 41.5029C104.911 41.5987 104.917 41.7126 104.923 41.845C104.929 41.9804 104.942 42.1367 104.926 42.3127C104.913 43.0152 104.787 44.0469 104.347 45.2345C104.135 45.8315 103.808 46.4454 103.413 47.0723C103.304 47.222 103.192 47.3741 103.08 47.5286C103.022 47.6049 102.969 47.6859 102.907 47.7599C102.842 47.8326 102.778 47.9056 102.713 47.9794C102.58 48.1243 102.455 48.2817 102.311 48.4226C102.163 48.5605 102.014 48.7001 101.863 48.8417C101.235 49.3763 100.521 49.8808 99.7046 50.2419C98.8903 50.6024 97.9994 50.8523 97.0688 50.9612C96.1364 51.045 95.2204 50.9817 94.3624 50.7938C93.502 50.6064 92.7194 50.2564 92.0165 49.8594C91.8455 49.7513 91.6762 49.6443 91.5094 49.5389C91.3449 49.43 91.1969 49.301 91.0434 49.1855C90.9675 49.1263 90.8922 49.0676 90.8176 49.0094C90.7443 48.9494 90.6791 48.8807 90.6102 48.8174C90.4745 48.6886 90.3412 48.5617 90.2101 48.437C89.7212 47.9014 89.3014 47.3648 88.998 46.8211C88.375 45.7436 88.0869 44.7546 87.9618 44.0662C87.9176 43.8965 87.9052 43.7402 87.8896 43.6057C87.875 43.474 87.8622 43.361 87.8516 43.2656C87.8432 43.1801 87.8365 43.1114 87.8311 43.0565C87.8269 43.0096 87.8261 42.9855 87.8284 42.9852Z" fill="#3E0190"/>
<path d="M143.228 94.3029C140.853 99.3205 135.024 101.468 130.207 99.0985C125.389 96.7291 123.409 90.7408 125.783 85.7231C128.157 80.7055 133.987 78.5585 138.804 80.9279C143.621 83.2969 145.601 89.2852 143.228 94.3029Z" fill="#00DE93"/>
<g opacity="0.3">
<path d="M141.259 93.1269C141.218 93.1084 141.334 92.7889 141.479 92.203C141.62 91.619 141.78 90.753 141.719 89.6907C141.687 89.1613 141.601 88.586 141.434 87.9911C141.262 87.3986 141.016 86.7851 140.665 86.1962C140.491 85.9013 140.295 85.6097 140.07 85.3334C139.847 85.0562 139.603 84.7859 139.33 84.539C139.058 84.2917 138.767 84.0548 138.45 83.8476C138.134 83.6396 137.799 83.4525 137.446 83.2904C137.092 83.133 136.73 83.0047 136.367 82.9054C136.004 82.8054 135.636 82.7439 135.274 82.7044C134.91 82.6637 134.55 82.6606 134.198 82.6779C133.845 82.6933 133.502 82.7407 133.17 82.8069C132.505 82.9369 131.893 83.1623 131.346 83.4299C130.8 83.7022 130.323 84.0229 129.916 84.3544C129.101 85.0202 128.578 85.7218 128.247 86.2199C127.917 86.7223 127.762 87.024 127.721 87.0052C127.69 86.9921 127.777 86.658 128.058 86.1038C128.34 85.5551 128.835 84.7815 129.662 84.0363C130.075 83.6658 130.568 83.3041 131.14 82.9947C131.714 82.69 132.362 82.4309 133.073 82.2761C133.428 82.1975 133.796 82.1397 134.175 82.1174C134.554 82.0928 134.942 82.0917 135.335 82.131C135.727 82.1695 136.124 82.2331 136.517 82.3387C136.91 82.4439 137.3 82.5814 137.682 82.7511C138.062 82.926 138.423 83.1285 138.764 83.3548C139.104 83.5806 139.417 83.8385 139.707 84.1084C139.999 84.3779 140.259 84.6728 140.494 84.975C140.732 85.276 140.937 85.5938 141.117 85.9137C141.481 86.554 141.727 87.2181 141.889 87.8559C142.047 88.4953 142.114 89.1103 142.121 89.6706C142.133 90.7954 141.9 91.6876 141.69 92.2686C141.475 92.8517 141.289 93.1411 141.259 93.1269Z" fill="black"/>
</g>
<g opacity="0.3">
<path d="M133.302 94.5067L132.748 95.7213L131.71 95.2292L132.249 94.0475C131.25 93.4953 130.416 92.692 130.057 91.9551L131.232 90.9024C131.569 91.5497 132.183 92.1964 132.897 92.6266L133.722 90.8155C132.702 89.9772 131.597 88.9658 132.305 87.4151C132.829 86.2656 134.079 85.6579 135.809 86.2402L136.358 85.0362L137.397 85.5283L136.858 86.7104C137.608 87.1442 138.267 87.7202 138.665 88.37L137.537 89.4582C137.151 88.893 136.695 88.4526 136.205 88.1415L135.364 89.9852C136.389 90.8129 137.473 91.8147 136.776 93.3431C136.262 94.471 135.027 95.0731 133.302 94.5067ZM134.449 89.222L135.151 87.6823C134.541 87.5515 134.179 87.7629 134.016 88.1206C133.843 88.5003 134.061 88.8541 134.449 89.222ZM135.044 92.6814C135.217 92.3018 135.01 91.9533 134.637 91.5786L133.955 93.0752C134.529 93.202 134.886 93.0285 135.044 92.6814Z" fill="black"/>
</g>
<path d="M127.843 86.7031C127.862 86.7116 127.723 87.0221 127.532 87.5993C127.347 88.1772 127.153 89.0487 127.163 90.1308C127.159 90.6721 127.244 91.2593 127.376 91.876C127.541 92.4837 127.755 93.1255 128.097 93.7399C128.442 94.3488 128.862 94.9585 129.407 95.4836C129.95 96.0074 130.585 96.4661 131.295 96.8252C132.014 97.1646 132.763 97.3824 133.504 97.4861C134.247 97.5902 134.977 97.5425 135.658 97.4351C136.342 97.3222 136.967 97.0902 137.535 96.8402C138.089 96.5597 138.591 96.2585 139.003 95.9168C139.836 95.2464 140.381 94.5464 140.706 94.0372C141.028 93.524 141.179 93.2197 141.197 93.2293C141.203 93.2324 141.169 93.3096 141.099 93.4551C141.023 93.5967 140.937 93.822 140.771 94.0794C140.462 94.6069 139.926 95.332 139.087 96.0299C138.673 96.3853 138.166 96.7003 137.601 96.9935C137.024 97.2557 136.387 97.4993 135.686 97.6201C134.989 97.7359 134.24 97.7885 133.477 97.6846C132.716 97.5815 131.946 97.3587 131.208 97.0101C130.48 96.6417 129.827 96.1695 129.272 95.6296C128.715 95.0886 128.286 94.4604 127.938 93.834C127.591 93.2016 127.378 92.5425 127.217 91.919C127.088 91.287 127.011 90.686 127.023 90.1344C127.031 89.0306 127.25 88.1509 127.46 87.5744C127.552 87.2812 127.67 87.0713 127.731 86.922C127.798 86.7754 127.836 86.7001 127.843 86.7031Z" fill="#3E0190"/>
<path d="M73.6436 47.3886C75.1673 59.0041 67.2569 69.8768 55.976 71.6747C44.6941 73.4715 34.313 65.5123 32.7894 53.8968C31.2652 42.2817 39.1751 31.4085 50.457 29.6117C61.7384 27.8138 72.12 35.7735 73.6436 47.3886Z" fill="#00DE93"/>
<g opacity="0.3">
<path d="M68.7295 47.806C68.6351 47.8247 68.4749 47.1262 68.0599 45.9289C67.64 44.7397 66.9318 43.0366 65.6023 41.2643C64.9388 40.3822 64.1248 39.4871 63.1439 38.6577C62.157 37.8387 61.0142 37.073 59.7129 36.4799C59.064 36.181 58.3802 35.9141 57.6623 35.7103C56.946 35.5024 56.2012 35.3315 55.431 35.238C54.6624 35.1413 53.8726 35.0873 53.0703 35.1156C52.2684 35.1424 51.4562 35.229 50.6424 35.3795C49.8301 35.5412 49.0394 35.762 48.2778 36.0352C47.5148 36.3078 46.7901 36.6527 46.0983 37.0289C45.4045 37.4042 44.7585 37.8418 44.1512 38.3037C43.5411 38.7625 42.9833 39.2679 42.4684 39.7902C41.4335 40.8324 40.6012 41.9771 39.9347 43.1137C39.2761 44.2574 38.7942 45.4017 38.4496 46.4773C37.7618 48.6362 37.6359 50.4997 37.6173 51.7728C37.6065 53.0514 37.6772 53.7675 37.5818 53.7846C37.5121 53.7995 37.2827 53.1119 37.1466 51.8028C37.0193 50.5019 37.0123 48.5491 37.6303 46.2366C37.9406 45.0846 38.4035 43.8506 39.067 42.6093C39.7387 41.3751 40.5972 40.127 41.6857 38.9847C42.2272 38.4126 42.8175 37.859 43.4666 37.3549C44.1127 36.8477 44.8035 36.3678 45.5475 35.9548C46.29 35.5404 47.0703 35.1628 47.8922 34.8641C48.7133 34.5644 49.5663 34.3247 50.442 34.1507C51.3195 33.9879 52.1965 33.8961 53.0619 33.8724C53.9284 33.8471 54.7808 33.9118 55.609 34.0243C56.4383 34.1347 57.2391 34.3286 58.0061 34.5652C58.775 34.7972 59.5054 35.0974 60.1944 35.4327C61.5775 36.1003 62.7789 36.9527 63.8005 37.8619C64.8152 38.7804 65.6416 39.7678 66.297 40.7338C67.6092 42.6759 68.2204 44.5131 68.5128 45.7825C68.7983 47.0622 68.7997 47.7931 68.7295 47.806Z" fill="black"/>
</g>
<path d="M37.6264 53.0097C37.6309 53.0092 37.6433 53.052 37.6633 53.1371C37.6852 53.2376 37.7128 53.3615 37.746 53.5151C37.7816 53.688 37.8238 53.8925 37.8726 54.1297C37.9223 54.3725 37.9678 54.6557 38.0724 54.9599C38.3975 56.1988 39.047 57.9628 40.3069 59.8463C40.9224 60.7982 41.7481 61.7233 42.6958 62.6396C42.9483 62.8511 43.2047 63.0661 43.4656 63.2841C43.5975 63.3909 43.7234 63.5089 43.8633 63.6094C44.0056 63.7068 44.149 63.8047 44.2933 63.9031C44.585 64.0949 44.8676 64.3127 45.1782 64.492C45.4927 64.6646 45.8112 64.8393 46.1342 65.0164C47.4536 65.6578 48.9107 66.2072 50.4928 66.454C52.0705 66.7013 53.74 66.7195 55.4256 66.4714C57.1062 66.1768 58.7001 65.633 60.146 64.8979C61.5963 64.1622 62.8473 63.1763 63.9421 62.1457C64.2047 61.8742 64.4638 61.6064 64.7194 61.3421C64.9697 61.0728 65.1831 60.7751 65.4121 60.4993C65.5245 60.3594 65.6358 60.2205 65.7466 60.0826C65.854 59.9423 65.9437 59.7897 66.0417 59.6459C66.2339 59.3545 66.423 59.0678 66.6091 58.7858C67.2756 57.6096 67.8227 56.463 68.1612 55.357C68.8715 53.1554 69.0285 51.2615 69.014 49.973C69.0345 49.6489 69.0029 49.3635 68.9868 49.1153C68.9711 48.8723 68.9576 48.6634 68.9458 48.4867C68.9377 48.3294 68.9309 48.2017 68.9259 48.099C68.9227 48.0112 68.9236 47.9662 68.9275 47.9651C68.932 47.9646 68.94 48.0085 68.9516 48.0947C68.9636 48.1968 68.9788 48.3234 68.9972 48.4801C69.0154 48.6568 69.0373 48.8656 69.0629 49.1086C69.0869 49.3572 69.1264 49.6435 69.1137 49.9696C69.1589 51.265 69.0298 53.1791 68.333 55.4138C68.0014 56.5361 67.4575 57.7021 66.7899 58.8992C66.6032 59.1864 66.413 59.4787 66.2204 59.7752C66.1218 59.9216 66.0311 60.0767 65.9232 60.2201C65.8119 60.3606 65.6995 60.5025 65.5867 60.645C65.3561 60.9264 65.1412 61.2292 64.8884 61.5042C64.6303 61.7736 64.3682 62.0471 64.1031 62.3237C62.9967 63.3753 61.7282 64.3808 60.2561 65.1315C58.7883 65.8821 57.1682 66.4368 55.4604 66.7352C53.7476 66.9877 52.0504 66.9677 50.4476 66.7124C48.8409 66.4576 47.3617 65.8952 46.0256 65.2375C45.6988 65.0563 45.3763 64.8771 45.0578 64.701C44.7434 64.5176 44.4579 64.2952 44.1632 64.0989C44.0174 63.9979 43.8726 63.898 43.7293 63.798C43.5879 63.695 43.4611 63.5749 43.3277 63.4657C43.0649 63.2426 42.8061 63.023 42.5516 62.8069C41.5967 61.8717 40.7692 60.9267 40.1563 59.9569C38.9012 58.0371 38.2732 56.2448 37.9753 54.9898C37.8772 54.6815 37.8392 54.3947 37.7974 54.1492C37.7579 53.9089 37.7237 53.7017 37.6951 53.5267C37.6717 53.3711 37.6525 53.245 37.6371 53.1435C37.626 53.0552 37.622 53.0108 37.6264 53.0097Z" fill="#3E0190"/>
<g clip-path="url(#clip1_43_682)">
<path d="M60.0739 54.1402L61.2686 55.7915C61.3315 55.8733 61.3566 55.9653 61.344 56.0674C61.3313 56.1695 61.2884 56.2554 61.2151 56.3251L61.1612 56.3632C61.1363 56.3928 61.1008 56.4249 61.0547 56.4594C61.0086 56.494 60.9532 56.5396 60.8885 56.5963C60.8237 56.6531 60.7483 56.7123 60.6623 56.774C60.5763 56.8358 60.4844 56.9001 60.3866 56.9672C60.2888 57.0342 60.1793 57.1065 60.0579 57.1842C59.9366 57.2618 59.8125 57.3385 59.6856 57.414C59.5587 57.4896 59.4203 57.5657 59.2705 57.6424C59.1207 57.7192 58.9712 57.7911 58.822 57.8584C56.9849 58.6865 55.1653 58.9077 53.3632 58.5218C51.5611 58.136 50.0502 57.2034 48.8305 55.7241L47.7118 56.2284C47.6097 56.2744 47.5058 56.2777 47.4 56.2381C47.2943 56.1986 47.2201 56.1287 47.1774 56.0286L46.6213 54.723C46.5787 54.6229 46.5791 54.5194 46.6225 54.4126C46.6659 54.3058 46.7386 54.2294 46.8407 54.1834L47.618 53.833C47.4152 53.4011 47.2469 52.9949 47.113 52.6146L46.324 52.9703C46.2141 53.0198 46.109 53.0258 46.0088 52.9884C45.9086 52.9509 45.8356 52.8782 45.7896 52.7704L45.2286 51.4533C45.1827 51.3454 45.1803 51.2409 45.2214 51.1398C45.2626 51.0386 45.3381 50.9632 45.448 50.9137L46.6021 50.3934C46.4391 48.5388 46.8405 46.8062 47.8063 45.1956C48.7721 43.585 50.1342 42.3833 51.8929 41.5906C52.6937 41.2296 53.493 40.9749 54.2907 40.8265C54.3869 40.8106 54.49 40.833 54.6001 40.8936C54.6833 40.9571 54.7344 41.0442 54.7535 41.155L55.0296 43.2203C55.0487 43.331 55.0257 43.4309 54.9607 43.5199C54.8956 43.6089 54.8055 43.661 54.6904 43.6762L54.6383 43.6859C54.6036 43.6923 54.5544 43.7031 54.4906 43.7181L54.2673 43.7705L53.9851 43.8495L53.6641 43.9529L53.3103 44.0779L52.958 44.223C51.9687 44.6689 51.1866 45.3153 50.6114 46.1622C50.0363 47.0091 49.7362 47.9523 49.7111 48.992L55.2225 46.5075C55.3481 46.4509 55.466 46.4529 55.576 46.5135C55.6939 46.5705 55.764 46.6582 55.7864 46.7767L56.0648 48.2212C56.1108 48.4392 56.0278 48.596 55.8159 48.6915L50.0689 51.2821C50.1668 51.5777 50.339 51.9821 50.5856 52.4953L55.9911 50.0586C56.1088 50.0055 56.2267 50.0075 56.3445 50.0645C56.4546 50.1251 56.5224 50.2185 56.5481 50.3446L56.8166 51.7661C56.837 51.8579 56.8242 51.9486 56.7781 52.0382C56.7321 52.1278 56.6659 52.1921 56.5795 52.231L52.022 54.2855C52.7827 55.0168 53.6739 55.4667 54.6955 55.6351C55.7171 55.8035 56.7264 55.663 57.7235 55.2135C57.8648 55.1498 58.0037 55.0803 58.1401 55.0051C58.2765 54.9298 58.4023 54.857 58.5174 54.7868C58.6325 54.7165 58.7409 54.647 58.8426 54.5782C58.9444 54.5094 59.0323 54.4468 59.1066 54.3904C59.1808 54.3339 59.246 54.2839 59.3023 54.2401L59.4288 54.1418L59.4779 54.0921C59.5635 54.0076 59.6689 53.9693 59.7939 53.9772C59.9111 53.9887 60.0044 54.043 60.0739 54.1402Z" fill="#00BC7D"/>
</g>
<defs>
<clipPath id="clip0_43_682">
<rect width="8.35167" height="11.7095" fill="white" transform="matrix(0.98153 0.155864 -0.168126 0.991495 73.7139 7.56104)"/>
</clipPath>
<clipPath id="clip1_43_682">
<rect width="13.0715" height="17.8949" fill="white" transform="matrix(0.922555 -0.415868 0.387213 0.909073 42.7778 45.6995)"/>
</clipPath>
</defs>
</svg>
