<svg width="169" height="156" viewBox="0 0 169 156" fill="none" xmlns="http://www.w3.org/2000/svg">
<path d="M84.5 155.727C131.168 155.727 169 153.517 169 150.792C169 148.067 131.168 145.857 84.5 145.857C37.8319 145.857 0 148.067 0 150.792C0 153.517 37.8319 155.727 84.5 155.727Z" fill="#ECE6F4"/>
<path d="M12.7977 96.8742L7.43585 3.58112C7.32864 1.71757 8.75246 0.207031 10.616 0.207031H117.013C118.877 0.207031 120.474 1.71757 120.581 3.58112L125.943 96.8742C126.051 98.7377 124.627 100.248 122.763 100.248H16.3657C14.5022 100.248 12.9049 98.7377 12.7977 96.8742Z" fill="#263238"/>
<path d="M122.762 100.455H16.3653C14.3972 100.455 12.704 98.8536 12.5907 96.8859L7.22842 3.59287C7.17351 2.6332 7.49645 1.73063 8.13797 1.05119C8.77819 0.37306 9.6581 0 10.6156 0H117.013C118.981 0 120.674 1.60119 120.787 3.5689L126.15 96.8615C126.205 97.8212 125.882 98.7237 125.241 99.4032C124.6 100.082 123.72 100.455 122.762 100.455ZM13.0039 96.8619C13.1045 98.6148 14.6125 100.041 16.3653 100.041H122.762C123.605 100.041 124.378 99.7139 124.939 99.1199C125.502 98.5241 125.785 97.7305 125.736 96.8859L120.374 3.59287C120.274 1.84002 118.766 0.413592 117.013 0.413592H10.6156C9.77272 0.413592 9.00001 0.740889 8.43868 1.33491C7.87648 1.93067 7.5932 2.72429 7.64158 3.5689L13.0039 96.8619Z" fill="#263238"/>
<path d="M14.1009 96.8742L8.73908 3.58112C8.63187 1.71757 10.0557 0.207031 11.9192 0.207031H118.316C120.18 0.207031 121.777 1.71757 121.884 3.58112L127.247 96.8742C127.354 98.7377 125.93 100.248 124.067 100.248H17.669C15.8058 100.248 14.2081 98.7377 14.1009 96.8742Z" fill="white"/>
<path d="M124.066 100.455H17.6686C15.7005 100.455 14.0073 98.8536 13.894 96.8859L8.53173 3.59287C8.47638 2.6332 8.79975 1.73063 9.44084 1.05119C10.0811 0.37306 10.9605 0 11.9185 0H118.316C120.284 0 121.977 1.60119 122.091 3.5689L127.453 96.8615C127.508 97.8212 127.185 98.7237 126.544 99.4032C125.904 100.082 125.024 100.455 124.066 100.455ZM11.9189 0.413592C11.0765 0.413592 10.3033 0.740889 9.74242 1.33491C9.17978 1.93067 8.89694 2.72429 8.94531 3.5689L14.3072 96.8619C14.4078 98.6148 15.9158 100.041 17.6686 100.041H124.066C124.909 100.041 125.682 99.7139 126.243 99.1199C126.805 98.5241 127.088 97.7305 127.04 96.8859L121.677 3.59287C121.576 1.84002 120.068 0.413592 118.316 0.413592H11.9189Z" fill="#263238"/>
<path d="M49.8673 13.6794H20.1333C19.0324 13.6794 18.0797 12.7785 18.0165 11.6772C17.9533 10.5764 18.8023 9.67554 19.9031 9.67554H49.6371C50.738 9.67554 51.6907 10.5764 51.7539 11.6772C51.8175 12.7781 50.9681 13.6794 49.8673 13.6794Z" fill="#00DE93"/>
<path d="M44.4008 20.6154H20.5316C19.4307 20.6154 18.478 19.7146 18.4148 18.6133C18.3516 17.5124 19.2006 16.6116 20.3015 16.6116H44.1707C45.2716 16.6116 46.2243 17.5124 46.2874 18.6133C46.3511 19.7146 45.5021 20.6154 44.4008 20.6154Z" fill="#00DE93"/>
<path d="M56.0798 29.5654H20.3367C19.6229 29.5654 19.0105 28.9866 18.9696 28.2723C18.9286 27.5584 19.4742 26.9792 20.1881 26.9792H55.9312C56.645 26.9792 57.2573 27.558 57.2983 28.2723C57.3393 28.9866 56.7936 29.5654 56.0798 29.5654Z" fill="#E0E0E0"/>
<path d="M62.5265 33.6882H24.5085C23.7946 33.6882 23.1823 33.1094 23.1413 32.3951C23.1004 31.6812 23.646 31.1021 24.3599 31.1021H62.3779C63.0922 31.1021 63.7041 31.6808 63.745 32.3951C63.786 33.1094 63.2408 33.6882 62.5265 33.6882Z" fill="#E0E0E0"/>
<path d="M55.8031 37.8115H24.7459C24.032 37.8115 23.4197 37.2327 23.3788 36.5184C23.3378 35.8045 23.8834 35.2253 24.5973 35.2253H55.6544C56.3683 35.2253 56.9806 35.8041 57.0216 36.5184C57.0626 37.2327 56.5169 37.8115 55.8031 37.8115Z" fill="#E0E0E0"/>
<path d="M52.5327 41.9348H24.9826C24.2687 41.9348 23.6564 41.356 23.6154 40.6417C23.5745 39.9278 24.1201 39.3486 24.834 39.3486H52.3841C53.098 39.3486 53.7103 39.9274 53.7513 40.6417C53.7922 41.3556 53.2466 41.9348 52.5327 41.9348Z" fill="#E0E0E0"/>
<path d="M43.7512 48.6433H21.4339C20.72 48.6433 20.1077 48.0645 20.0667 47.3502C20.0258 46.6359 20.5714 46.0571 21.2853 46.0571H43.6026C44.3164 46.0571 44.9288 46.6359 44.9697 47.3502C45.0111 48.0645 44.4655 48.6433 43.7512 48.6433Z" fill="#E0E0E0"/>
<path d="M50.0798 58.4268H25.9303C25.2164 58.4268 24.6708 59.0055 24.7118 59.7198C24.7527 60.4341 25.365 61.0129 26.0789 61.0129H50.2284C50.9422 61.0129 51.4879 60.4341 51.4469 59.7198C51.4059 59.0055 50.7936 58.4268 50.0798 58.4268Z" fill="#E0E0E0"/>
<path d="M45.2596 54.3037H25.6936C24.9797 54.3037 24.4341 54.8825 24.4751 55.5968C24.516 56.3106 25.1284 56.8898 25.8422 56.8898H45.4082C46.1221 56.8898 46.6677 56.3111 46.6267 55.5968C46.5858 54.8825 45.9739 54.3037 45.2596 54.3037Z" fill="#E0E0E0"/>
<path d="M47.2683 50.1807H25.457C24.7432 50.1807 24.1975 50.7594 24.2385 51.4737C24.2795 52.188 24.8918 52.7668 25.6056 52.7668H47.417C48.1308 52.7668 48.6765 52.188 48.6355 51.4737C48.5945 50.7594 47.9822 50.1807 47.2683 50.1807Z" fill="#E0E0E0"/>
<path d="M45.5583 80.0904H23.241C22.5272 80.0904 21.9148 79.5116 21.8739 78.7973C21.8329 78.0835 22.3785 77.5043 23.0924 77.5043H45.4097C46.124 77.5043 46.7359 78.083 46.7768 78.7973C46.8178 79.5116 46.2722 80.0904 45.5583 80.0904Z" fill="#E0E0E0"/>
<path d="M51.8877 89.874H27.7383C27.0244 89.874 26.4788 90.4528 26.5197 91.1671C26.5607 91.8809 27.173 92.4602 27.8869 92.4602H52.0364C52.7502 92.4602 53.2959 91.8814 53.2549 91.1671C53.2139 90.4528 52.602 89.874 51.8877 89.874Z" fill="#E0E0E0"/>
<path d="M47.0676 85.7509H27.5016C26.7877 85.7509 26.2421 86.3296 26.283 87.0439C26.324 87.7578 26.9363 88.337 27.6502 88.337H47.2162C47.93 88.337 48.4757 87.7582 48.4347 87.0439C48.3938 86.3301 47.7814 85.7509 47.0676 85.7509Z" fill="#E0E0E0"/>
<path d="M49.0755 81.6279H27.2642C26.5503 81.6279 26.0047 82.2067 26.0456 82.921C26.0866 83.6349 26.6989 84.2141 27.4128 84.2141H49.2241C49.9379 84.2141 50.4836 83.6353 50.4426 82.921C50.4017 82.2067 49.7893 81.6279 49.0755 81.6279Z" fill="#E0E0E0"/>
<path d="M50.7906 70.7957H26.6411C25.9272 70.7957 25.3816 71.3744 25.4226 72.0887C25.4635 72.8026 26.0759 73.3818 26.7897 73.3818H50.9392C51.6535 73.3818 52.1987 72.803 52.1577 72.0887C52.1168 71.3749 51.5044 70.7957 50.7906 70.7957Z" fill="#E0E0E0"/>
<path d="M45.9704 66.6729H26.4044C25.6906 66.6729 25.1449 67.2516 25.1859 67.9659C25.2268 68.6798 25.8392 69.259 26.553 69.259H46.119C46.8329 69.259 47.3785 68.6802 47.3376 67.9659C47.2966 67.2516 46.6843 66.6729 45.9704 66.6729Z" fill="#E0E0E0"/>
<path d="M47.979 62.5496H26.1677C25.4534 62.5496 24.9082 63.1283 24.9492 63.8426C24.9902 64.5565 25.6025 65.1357 26.3163 65.1357H48.1276C48.8415 65.1357 49.3872 64.5569 49.3462 63.8426C49.3052 63.1283 48.6929 62.5496 47.979 62.5496Z" fill="#E0E0E0"/>
<path d="M88.8847 28.7034H78.1056C72.1524 28.7034 67.0494 23.8776 66.7073 17.9243C66.3652 11.9711 70.9138 7.14526 76.8666 7.14526C82.8199 7.14526 87.9229 11.9711 88.265 17.9243L88.8847 28.7034Z" fill="#00DE93"/>
<path d="M77.9985 26.8362C73.0768 26.8362 68.8573 22.8463 68.5744 17.9242C68.2916 13.0025 72.0522 9.01221 76.9739 9.01221C81.8956 9.01221 86.1152 13.0021 86.398 17.9242C86.6808 22.8459 82.9202 26.8362 77.9985 26.8362Z" fill="white"/>
<path d="M78.5481 14.3159L78.963 21.5326H76.9687L76.6968 16.8035C76.3882 17.0489 76.0875 17.2472 75.7946 17.3988C75.5018 17.5505 75.1318 17.6956 74.6846 17.8342L74.5918 16.2178C75.2508 16.0016 75.7567 15.7419 76.1106 15.4385C76.4641 15.1352 76.733 14.7608 76.9173 14.3154L78.5481 14.3159Z" fill="#263238"/>
<path d="M95.5373 50.2615H106.316C112.27 50.2615 116.818 45.4357 116.476 39.4824C116.134 33.5292 111.03 28.7034 105.077 28.7034C99.1241 28.7034 94.5759 33.5292 94.918 39.4824L95.5373 50.2615Z" fill="#00DE93"/>
<path d="M106.209 48.3938C111.131 48.3938 114.891 44.4039 114.608 39.4818C114.326 34.5597 110.106 30.5698 105.184 30.5698C100.263 30.5698 96.502 34.5597 96.7849 39.4818C97.0681 44.4039 101.287 48.3938 106.209 48.3938Z" fill="white"/>
<path d="M109.052 43.0905H103.137C103.172 42.5066 103.346 41.957 103.66 41.4423C103.974 40.9276 104.584 40.3201 105.489 39.6197C106.042 39.1904 106.392 38.8644 106.541 38.6422C106.69 38.4195 106.758 38.2081 106.747 38.0081C106.734 37.7919 106.644 37.6071 106.475 37.4537C106.306 37.3003 106.101 37.2236 105.859 37.2236C105.607 37.2236 105.406 37.3025 105.256 37.4607C105.105 37.6189 105.014 37.8978 104.982 38.2979L102.998 38.1379C103.043 37.5831 103.161 37.1495 103.349 36.8383C103.538 36.5267 103.816 36.2883 104.182 36.1218C104.548 35.9558 105.064 35.8726 105.729 35.8726C106.422 35.8726 106.967 35.9514 107.361 36.1096C107.756 36.2678 108.073 36.5106 108.313 36.8383C108.553 37.1656 108.684 37.533 108.708 37.9396C108.733 38.372 108.63 38.7851 108.399 39.1787C108.169 39.5722 107.733 40.0045 107.092 40.4761C106.711 40.7502 106.456 40.9424 106.329 41.0522C106.201 41.1621 106.052 41.3054 105.882 41.4828H108.96L109.052 43.0905Z" fill="#263238"/>
<g opacity="0.4">
<path d="M91.3626 71.8191H80.5836C74.6303 71.8191 69.5273 66.9933 69.1852 61.04C68.8431 55.0872 73.3917 50.261 79.3445 50.261C85.2978 50.261 90.4008 55.0868 90.7429 61.04L91.3626 71.8191Z" fill="#00DE93"/>
</g>
<path d="M80.4764 69.9519C75.5547 69.9519 71.3352 65.9621 71.0523 61.0399C70.7695 56.1178 74.5301 52.1279 79.4518 52.1279C84.3735 52.1279 88.593 56.1178 88.8759 61.0399C89.1587 65.9621 85.3985 69.9519 80.4764 69.9519Z" fill="white"/>
<path d="M78.9174 59.5448L77.0347 59.211C77.1554 58.6174 77.4269 58.1624 77.8492 57.846C78.2715 57.5296 78.886 57.3718 79.6927 57.3718C80.6188 57.3718 81.2983 57.5444 81.731 57.8896C82.1638 58.2347 82.3952 58.6688 82.4253 59.1914C82.4427 59.4977 82.3752 59.7754 82.2213 60.0238C82.0679 60.2722 81.8269 60.4901 81.4987 60.6771C81.7768 60.745 81.9912 60.8239 82.1416 60.9141C82.3856 61.0593 82.5796 61.2506 82.7238 61.4877C82.8681 61.7248 82.9496 62.008 82.9687 62.3371C82.9927 62.7502 82.9073 63.1464 82.7129 63.5256C82.5185 63.9047 82.2239 64.1967 81.8291 64.4015C81.4342 64.6064 80.906 64.7088 80.2445 64.7088C79.599 64.7088 79.0856 64.633 78.7043 64.4813C78.3229 64.3296 78.0035 64.1078 77.7464 63.8158C77.4892 63.5238 77.2831 63.1569 77.1288 62.7145L79.0839 62.453C79.1841 62.85 79.3201 63.125 79.4918 63.2784C79.6635 63.4319 79.8753 63.5081 80.1268 63.5081C80.3913 63.5081 80.6062 63.4114 80.7709 63.2179C80.9357 63.0244 81.0089 62.7664 80.9901 62.4434C80.9714 62.1144 80.872 61.8594 80.692 61.6786C80.5125 61.4977 80.2771 61.4075 79.9869 61.4075C79.8322 61.4075 79.6212 61.4463 79.3545 61.5239L79.375 60.1153C79.4857 60.1314 79.5716 60.1393 79.633 60.1393C79.891 60.1393 80.1019 60.0569 80.2649 59.8926C80.4279 59.7278 80.5033 59.5326 80.4903 59.3069C80.4776 59.0907 80.4035 58.9181 80.2667 58.7891C80.1303 58.6601 79.949 58.5956 79.7232 58.5956C79.4909 58.5956 79.3061 58.6658 79.1689 58.8061C79.0316 58.9464 78.9488 59.1931 78.9174 59.5448Z" fill="#263238"/>
<path d="M98.0151 93.3772H108.794C114.747 93.3772 119.296 88.5514 118.953 82.5981C118.611 76.6453 113.508 71.8191 107.555 71.8191C101.602 71.8191 97.0537 76.6449 97.3958 82.5981L98.0151 93.3772Z" fill="#E0E0E0"/>
<path d="M108.687 91.5102C113.609 91.5102 117.369 87.5203 117.086 82.5986C116.804 77.6769 112.584 73.687 107.662 73.687C102.741 73.687 98.98 77.6769 99.2629 82.5986C99.5457 87.5203 103.765 91.5102 108.687 91.5102Z" fill="white"/>
<path d="M108.648 84.8805H105.057L104.964 83.2592L108.31 78.99H110.028L110.279 83.3512H111.17L111.258 84.8805H110.367L110.443 86.2067H108.725L108.648 84.8805ZM108.56 83.3508L108.432 81.1176L106.663 83.3508H108.56Z" fill="#E0E0E0"/>
<path d="M94.0686 72.2008C93.8677 72.2008 93.6995 72.0443 93.6877 71.8408L91.2096 28.7246C91.1974 28.5145 91.3582 28.3341 91.5692 28.3215C91.7779 28.3049 91.9601 28.4701 91.9723 28.681L94.4504 71.7972C94.4626 72.0073 94.3017 72.1877 94.0908 72.2003C94.0838 72.2008 94.0764 72.2008 94.0686 72.2008Z" fill="#00DE93"/>
<path d="M95.3083 93.759C95.1074 93.759 94.9392 93.6025 94.9274 93.399L93.6884 71.8409C93.6762 71.6309 93.837 71.4504 94.0479 71.4378C94.2545 71.4243 94.4389 71.5864 94.4511 71.7973L95.6901 93.3554C95.7023 93.5655 95.5415 93.7464 95.3305 93.7586C95.3231 93.759 95.3157 93.759 95.3083 93.759Z" fill="#E0E0E0"/>
<path d="M92.3978 28.7032C92.4235 29.1486 92.0831 29.5095 91.6377 29.5095C91.1923 29.5095 90.8105 29.1486 90.7848 28.7032C90.7591 28.2578 91.0995 27.897 91.5449 27.897C91.9903 27.897 92.3721 28.2578 92.3978 28.7032Z" fill="white"/>
<path d="M91.6371 29.8914C90.9938 29.8914 90.4404 29.3684 90.4033 28.7252C90.3846 28.4035 90.494 28.0998 90.711 27.8705C90.9276 27.6413 91.2235 27.5149 91.5451 27.5149C92.1888 27.5149 92.7423 28.0379 92.7794 28.6811C92.7977 29.0028 92.6887 29.3065 92.4717 29.5358C92.2547 29.7654 91.9587 29.8914 91.6371 29.8914ZM91.5447 28.2789C91.4358 28.2789 91.3368 28.3203 91.2662 28.3952C91.1952 28.4702 91.1595 28.5717 91.166 28.6816C91.1799 28.9235 91.3957 29.1279 91.6371 29.1279C91.7461 29.1279 91.845 29.0864 91.9156 29.0115C91.9866 28.9365 92.0224 28.8345 92.0158 28.7247C92.0023 28.4833 91.7866 28.2789 91.5447 28.2789Z" fill="#00DE93"/>
<path d="M93.6371 50.2613C93.6629 50.7067 93.3225 51.0676 92.8771 51.0676C92.4317 51.0676 92.0499 50.7067 92.0242 50.2613C91.9985 49.8159 92.3388 49.4551 92.7843 49.4551C93.2297 49.4546 93.6114 49.8159 93.6371 50.2613Z" fill="white"/>
<path d="M92.8768 51.4495C92.2331 51.4495 91.6797 50.9265 91.6426 50.2828C91.6243 49.9616 91.7333 49.6574 91.9503 49.4282C92.1669 49.199 92.4628 49.073 92.784 49.073C93.4273 49.073 93.9808 49.596 94.0178 50.2392V50.2397C94.0361 50.5613 93.9272 50.8651 93.7106 51.0943C93.4944 51.3236 93.198 51.4495 92.8768 51.4495ZM92.784 49.8365C92.6751 49.8365 92.5761 49.8779 92.5055 49.9529C92.4345 50.0283 92.3987 50.1299 92.4053 50.2397C92.4192 50.4816 92.6349 50.6859 92.8768 50.6859C92.9858 50.6859 93.0847 50.6445 93.1553 50.5696C93.2264 50.4946 93.2621 50.3927 93.2556 50.2828C93.2416 50.0414 93.0259 49.8365 92.784 49.8365Z" fill="#00DE93"/>
<path d="M94.8764 71.819C94.9021 72.2644 94.5617 72.6252 94.1163 72.6252C93.6709 72.6252 93.2892 72.2644 93.2635 71.819C93.2377 71.3736 93.5781 71.0127 94.0235 71.0127C94.4689 71.0127 94.8507 71.374 94.8764 71.819Z" fill="white"/>
<path d="M94.1163 73.0074C93.4726 73.0074 92.9191 72.4844 92.8821 71.8407C92.8633 71.5195 92.9723 71.2158 93.1893 70.9865C93.4059 70.7573 93.7018 70.6313 94.0235 70.6313C94.6672 70.6313 95.2202 71.1543 95.2573 71.7972C95.276 72.1188 95.1666 72.423 94.95 72.6522C94.7339 72.8815 94.4375 73.0074 94.1163 73.0074ZM94.0235 71.3949C93.9145 71.3949 93.8156 71.4363 93.745 71.5113C93.674 71.5862 93.6387 71.6878 93.6452 71.7972C93.6591 72.0395 93.8749 72.2439 94.1167 72.2439C94.2257 72.2439 94.3246 72.2025 94.3952 72.1275C94.4663 72.0525 94.5016 71.9506 94.495 71.8412V71.8407C94.4811 71.5989 94.2654 71.3949 94.0235 71.3949Z" fill="#E0E0E0"/>
<path d="M96.1149 93.3771C96.1407 93.8225 95.8003 94.1833 95.3549 94.1833C94.9095 94.1833 94.5277 93.8225 94.502 93.3771C94.4763 92.9317 94.8166 92.5708 95.262 92.5708C95.7075 92.5708 96.0892 92.9317 96.1149 93.3771Z" fill="white"/>
<path d="M95.3547 94.5656C94.7114 94.5656 94.1575 94.0426 94.1205 93.3994C94.1017 93.0777 94.2111 92.7735 94.4282 92.5443C94.6448 92.315 94.9407 92.1891 95.2619 92.1891C95.9056 92.1891 96.4591 92.7121 96.4961 93.3558C96.5144 93.677 96.4055 93.9812 96.1884 94.2104C95.9718 94.4396 95.6759 94.5656 95.3547 94.5656ZM95.2619 92.9522C95.1529 92.9522 95.054 92.9936 94.9834 93.0686C94.9124 93.144 94.8766 93.2455 94.8832 93.3553C94.8971 93.5972 95.1128 93.8016 95.3547 93.8016C95.4637 93.8016 95.5622 93.7602 95.6328 93.6853C95.7038 93.6099 95.7395 93.5083 95.733 93.3985C95.7195 93.157 95.5038 92.9522 95.2619 92.9522Z" fill="#E0E0E0"/>
<path d="M160.137 36.7297C160.429 37.1852 160.665 37.5722 160.902 37.9997C161.137 38.4181 161.364 38.8382 161.584 39.2618C162.026 40.1077 162.424 40.9746 162.8 41.8523C163.539 43.6135 164.159 45.436 164.607 47.3227L164.759 48.0361L164.834 48.3926L164.853 48.482L164.884 48.6624C164.904 48.7849 164.91 48.896 164.919 49.0123C164.949 49.9136 164.718 50.5512 164.487 51.1012C164.007 52.1903 163.401 52.9953 162.773 53.7641C161.503 55.2789 160.12 56.5289 158.587 57.6838L157.195 56.2203C158.264 54.8253 159.341 53.3653 160.21 51.9271C160.636 51.2132 161.021 50.4684 161.201 49.8543C161.292 49.5562 161.297 49.29 161.27 49.2769C161.265 49.2804 161.266 49.2769 161.262 49.2878C161.262 49.2921 161.261 49.2965 161.262 49.3004L161.239 49.2242L161.149 48.9173L160.969 48.3046C160.453 46.6755 159.812 45.0673 159.083 43.4923C158.723 42.7026 158.328 41.9277 157.934 41.1537C157.735 40.768 157.53 40.3854 157.319 40.0093C157.112 39.6406 156.887 39.2413 156.698 38.9228L160.137 36.7297Z" fill="#FF8B7B"/>
<path d="M158.19 55.4397L154.912 55.5748L156.231 58.3889C156.231 58.3889 158.564 58.2564 159.438 56.8422L158.19 55.4397Z" fill="#FF8B7B"/>
<path d="M154.101 56.8408L154.911 59.3589L156.231 58.3888L154.912 55.5747L154.101 56.8408Z" fill="#FF8B7B"/>
<path d="M152.082 146.965C152.451 146.965 152.855 146.889 153.138 146.822C153.175 146.813 153.203 146.784 153.21 146.747C153.217 146.71 153.201 146.672 153.171 146.651C153.035 146.561 151.835 145.779 151.368 145.99C151.294 146.023 151.201 146.096 151.176 146.255C151.143 146.466 151.193 146.636 151.325 146.757C151.493 146.912 151.776 146.965 152.082 146.965ZM152.872 146.687C152.176 146.826 151.654 146.802 151.454 146.617C151.369 146.539 151.339 146.429 151.362 146.281C151.375 146.201 151.412 146.175 151.443 146.161C151.689 146.049 152.383 146.388 152.872 146.687Z" fill="#00DE93"/>
<path d="M153.116 146.825C153.132 146.825 153.149 146.82 153.163 146.812C153.192 146.795 153.211 146.764 153.211 146.731C153.211 146.682 153.222 145.533 152.794 145.149C152.68 145.047 152.546 145.005 152.396 145.023C152.158 145.052 152.092 145.2 152.074 145.286C151.978 145.736 152.691 146.597 153.068 146.812C153.084 146.821 153.1 146.825 153.116 146.825ZM152.459 145.208C152.537 145.208 152.605 145.235 152.667 145.291C152.922 145.52 153.003 146.164 153.019 146.547C152.644 146.244 152.201 145.597 152.26 145.323C152.269 145.278 152.296 145.225 152.416 145.21C152.431 145.209 152.445 145.208 152.459 145.208Z" fill="#00DE93"/>
<path d="M121.891 145.187C121.924 145.189 121.957 145.174 121.976 145.147C121.998 145.115 121.997 145.072 121.972 145.04C121.849 144.884 120.777 143.537 120.197 143.499C120.184 143.499 120.171 143.499 120.159 143.499C120.049 143.503 119.96 143.555 119.902 143.65C119.804 143.808 119.79 143.968 119.86 144.127C120.091 144.655 121.219 145.016 121.872 145.185C121.878 145.186 121.885 145.186 121.891 145.187ZM120.194 143.684C120.513 143.704 121.183 144.383 121.64 144.929C120.758 144.673 120.167 144.354 120.038 144.059C119.993 143.955 120.003 143.853 120.069 143.746C120.095 143.704 120.126 143.685 120.171 143.683C120.178 143.683 120.186 143.683 120.194 143.684Z" fill="#00DE93"/>
<path d="M121.891 145.187C121.898 145.187 121.905 145.187 121.912 145.186C121.946 145.181 121.974 145.159 121.986 145.129C122.002 145.088 122.383 144.107 122.101 143.522C122.014 143.343 121.875 143.218 121.688 143.151C121.434 143.06 121.306 143.145 121.243 143.231C120.979 143.594 121.475 144.758 121.822 145.153C121.839 145.173 121.864 145.185 121.891 145.187ZM121.51 143.298C121.539 143.3 121.576 143.308 121.623 143.325C121.762 143.374 121.861 143.463 121.926 143.597C122.112 143.981 121.954 144.602 121.861 144.897C121.541 144.428 121.244 143.557 121.403 143.339C121.412 143.326 121.436 143.293 121.51 143.298Z" fill="#00DE93"/>
<path d="M150.607 23.1409C150.156 25.5148 149.143 30.694 150.809 32.2398C150.809 32.2398 150.175 34.6512 145.774 34.7379C140.934 34.833 143.447 32.3845 143.447 32.3845C146.085 31.7029 146.006 29.7478 145.535 27.9192L150.607 23.1409Z" fill="#FF8B7B"/>
<path d="M151.467 30.0276C151.215 29.3717 150.495 29.0423 149.827 29.2584C148.304 29.7518 146.464 30.0307 145.168 30.1004C144.596 30.1309 144.083 30.4587 143.801 30.9559L141.931 34.2524L152.592 32.962L151.467 30.0276Z" fill="#00DE93"/>
<path d="M140.859 19.2065C140.887 19.2004 140.914 19.1877 140.937 19.1686C141.019 19.1028 141.033 18.9833 140.968 18.9023C140.322 18.089 139.454 18.1697 139.417 18.1736C139.314 18.1836 139.237 18.2778 139.247 18.3815C139.256 18.4852 139.347 18.5606 139.451 18.5501C139.479 18.5475 140.157 18.4917 140.672 19.1407C140.718 19.1982 140.791 19.2209 140.859 19.2065Z" fill="#263238"/>
<path d="M139.867 21.5415C139.867 21.5415 139.435 22.9749 138.891 23.6979C139.345 24.0535 140.049 23.8047 140.049 23.8047L139.867 21.5415Z" fill="#FF5652"/>
<path d="M140.109 20.9631C140.135 21.2843 139.986 21.5602 139.777 21.5802C139.568 21.5998 139.377 21.3558 139.351 21.035C139.325 20.7143 139.474 20.4379 139.683 20.4179C139.893 20.3979 140.083 20.6419 140.109 20.9631Z" fill="#263238"/>
<path d="M139.777 20.4266L138.99 20.2771C138.99 20.2771 139.433 20.8419 139.777 20.4266Z" fill="#263238"/>
<path d="M125.696 147.705L121.833 146.372L124.558 137.775L128.422 139.107L125.696 147.705Z" fill="#FF8B7B"/>
<path d="M157.576 146.851H153.587L153.226 137.614H157.215L157.576 146.851Z" fill="#FF8B7B"/>
<path d="M153.458 146.269H157.939C158.102 146.269 158.233 146.382 158.254 146.541L158.715 150.087C158.763 150.455 158.442 150.802 158.066 150.796C156.504 150.769 155.752 150.678 153.781 150.678C152.569 150.678 150.796 150.804 149.121 150.804C147.483 150.804 147.381 149.148 148.08 148.998C151.215 148.326 151.722 147.399 152.788 146.514C152.98 146.354 153.219 146.269 153.458 146.269Z" fill="#263238"/>
<path d="M122.337 144.803L126.483 146.752C126.634 146.823 126.707 146.98 126.659 147.13L125.591 150.46C125.48 150.805 125.036 150.973 124.691 150.803C123.257 150.1 122.601 149.692 120.777 148.835C119.655 148.307 117.28 147.327 115.73 146.599C114.215 145.886 114.818 144.38 115.528 144.552C118.713 145.323 120.254 145.045 121.613 144.728C121.858 144.671 122.116 144.699 122.337 144.803Z" fill="#263238"/>
<path opacity="0.2" d="M124.559 137.778L123.098 142.383L127.018 143.542L128.424 139.11L124.559 137.778Z" fill="#3E0190"/>
<path opacity="0.2" d="M157.216 137.616H153.225L153.413 142.378H157.404L157.216 137.616Z" fill="#3E0190"/>
<path d="M158.611 32.744C160.272 33.0743 162.077 38.9958 162.077 38.9958L157.417 44.0652C157.417 44.0652 153.494 38.5478 154.275 36.475C155.088 34.3164 156.649 32.3535 158.611 32.744Z" fill="#00DE93"/>
<path opacity="0.4" d="M158.611 32.744C160.272 33.0743 162.077 38.9958 162.077 38.9958L157.417 44.0652C157.417 44.0652 153.494 38.5478 154.275 36.475C155.088 34.3164 156.649 32.3535 158.611 32.744Z" fill="white"/>
<path opacity="0.4" d="M156.005 36.5862C155.161 35.8366 154.596 36.0763 154.213 36.6926C153.842 38.4703 156.122 42.132 157.041 43.5179C157.45 41.8348 157.911 38.2903 156.005 36.5862Z" fill="#00DE93"/>
<path d="M137.301 34.1184C137.001 35.8638 136.936 41.1768 139.662 57.2872L155.875 56.9691C155.566 50.387 155.535 46.3247 158.611 32.7438C158.611 32.7438 155.209 32.0726 151.721 31.9733C148.992 31.8957 146.755 31.8526 144.358 32.118C142.003 32.379 139.414 32.8915 138.247 33.1356C137.758 33.238 137.385 33.6263 137.301 34.1184Z" fill="#00DE93"/>
<path opacity="0.4" d="M137.301 34.1184C137.001 35.8638 136.936 41.1768 139.662 57.2872L155.875 56.9691C155.566 50.387 155.535 46.3247 158.611 32.7438C158.611 32.7438 155.209 32.0726 151.721 31.9733C148.992 31.8957 146.755 31.8526 144.358 32.118C142.003 32.379 139.414 32.8915 138.247 33.1356C137.758 33.238 137.385 33.6263 137.301 34.1184Z" fill="white"/>
<path d="M150.782 18.8434C150.859 22.808 150.975 24.4837 149.153 26.6946C146.412 30.0208 141.543 29.313 140.287 25.4665C139.158 22.0048 139.223 16.1025 142.945 14.1697C146.611 12.2656 150.706 14.8783 150.782 18.8434Z" fill="#FF8B7B"/>
<path d="M139.777 17.8126C142.924 17.1833 147.061 16.1177 147.886 13.8175C148.711 11.5177 139.384 9.71993 139.777 17.8126Z" fill="#263238"/>
<path d="M142.198 18.8538C141.753 18.6315 140.938 17.2478 141.447 14.8425C141.956 12.4372 145.757 10.2826 148.735 11.9774C145.587 13.1881 142.198 18.8538 142.198 18.8538Z" fill="#00DE93"/>
<path d="M141.931 16.36C141.398 18.5875 141.95 20.1795 142.799 20.9988C142.799 20.9988 140.601 35.3555 151.531 33.7927C162.46 32.2298 156.078 15.9072 153.53 13.5342C150.982 11.1616 144.135 9.96048 141.931 16.36Z" fill="#263238"/>
<path d="M141.999 19.8269C141.456 20.6789 141.357 21.602 141.404 22.2191C141.484 23.2821 142.314 23.2829 142.926 22.6475C143.476 22.0757 144.072 20.7007 143.764 19.8892C143.46 19.09 142.483 19.0651 141.999 19.8269Z" fill="#FF8B7B"/>
<path d="M143.944 57.2035C143.944 57.2035 146.417 84.5118 148.91 99.8804C150.923 112.294 152.626 141.335 152.626 141.335H158.065C158.065 141.335 159.839 112.989 158.783 100.693C156.111 69.5785 160.925 66.6729 155.876 56.9695L143.944 57.2035Z" fill="#00DE93"/>
<path opacity="0.4" d="M149.478 66.333C148.06 68.4162 146.167 70.8158 145.557 73.3549C146.046 77.961 146.619 83.0557 147.238 87.9543C148.73 83.8323 151.295 75.6002 149.478 66.333Z" fill="#3E0190"/>
<path d="M139.662 57.2876C139.662 57.2876 133.164 86.6713 130.939 98.6449C128.624 111.099 123.25 139.321 123.25 139.321L128.674 142.111C128.674 142.111 138.702 108.132 140.042 101.852C143.578 88.7496 154.912 57.0061 154.912 57.0061L139.662 57.2876Z" fill="#00DE93"/>
<path d="M122.125 140.486L128.72 143.112L130 140.816L122.943 137.998L122.125 140.486Z" fill="#263238"/>
<path d="M151.88 141.442H158.808L159.206 139.012L151.878 138.764L151.88 141.442Z" fill="#263238"/>
<path d="M156.113 56.0149L156.853 57.4496C156.91 57.5607 156.777 57.678 156.59 57.6819L139.586 58.0153C139.44 58.0183 139.319 57.9491 139.309 57.8575L139.154 56.4115C139.143 56.3113 139.269 56.2241 139.429 56.2206L155.848 55.8985C155.969 55.8959 156.076 55.943 156.113 56.0149Z" fill="#263238"/>
<path d="M153.918 57.8907L154.358 57.882C154.446 57.8802 154.512 57.834 154.506 57.7791L154.289 55.9008C154.282 55.8458 154.205 55.8023 154.118 55.804L153.678 55.8127C153.59 55.8145 153.524 55.8607 153.53 55.9156L153.747 57.7939C153.754 57.8489 153.831 57.8924 153.918 57.8907Z" fill="#00DE93"/>
<path d="M143.259 58.0999L143.699 58.0912C143.787 58.0894 143.853 58.0432 143.847 57.9879L143.63 56.1095C143.623 56.0546 143.547 56.011 143.459 56.0127L143.019 56.0215C142.932 56.0232 142.865 56.0694 142.871 56.1248L143.089 58.0031C143.095 58.058 143.172 58.1016 143.259 58.0999Z" fill="#00DE93"/>
<path d="M140.006 37.8803C139.097 39.7979 138.103 41.5704 136.98 43.3359C136.421 44.2149 135.846 45.0878 135.205 45.9311C134.897 46.3578 134.555 46.7731 134.226 47.1915C133.872 47.6008 133.531 48.0126 133.144 48.4101C132.8 48.794 132.306 49.2647 131.854 49.6173C131.388 49.9812 130.913 50.3002 130.434 50.5857C129.478 51.1649 128.495 51.612 127.513 52.0147C125.53 52.797 123.547 53.3418 121.463 53.6948L120.938 51.7436C122.72 50.9936 124.525 50.1451 126.181 49.2141C127.012 48.7509 127.805 48.2436 128.525 47.7115C128.887 47.4452 129.22 47.1628 129.521 46.876C129.836 46.5796 130.055 46.3369 130.358 45.9508C131.51 44.5304 132.544 42.8857 133.539 41.2283C134.038 40.3972 134.499 39.5364 134.971 38.6831C135.441 37.8367 135.899 36.9446 136.327 36.1174L140.006 37.8803Z" fill="#FF8B7B"/>
<path d="M138.487 33.0753C134.656 33.9038 133.364 39.5079 133.364 39.5079L138.256 43.7205C138.256 43.7205 143.232 38.6058 143.059 35.532C142.93 33.2492 140.575 32.6238 138.487 33.0753Z" fill="#00DE93"/>
<path opacity="0.4" d="M138.487 33.0753C134.656 33.9038 133.364 39.5079 133.364 39.5079L138.256 43.7205C138.256 43.7205 143.232 38.6058 143.059 35.532C142.93 33.2492 140.575 32.6238 138.487 33.0753Z" fill="white"/>
<path d="M122.925 53.3888L119.05 55.3552L117.613 52.0421C117.613 52.0421 121.041 51.2498 122.515 51.9872L122.925 53.3888Z" fill="#FF8B7B"/>
<path d="M117.576 56.033L116.073 53.7885L117.614 52.0417L119.05 55.3548L117.576 56.033Z" fill="#FF8B7B"/>
</svg>
