<svg width="148" height="161" viewBox="0 0 148 161" fill="none" xmlns="http://www.w3.org/2000/svg">
<path d="M95.0528 64.7142C74.6934 64.8308 58.2971 81.4602 58.4137 101.82C58.5303 122.179 75.1597 138.575 95.5191 138.459C115.878 138.342 132.275 121.713 132.158 101.353C132.042 80.994 115.412 64.5977 95.0528 64.7142Z" fill="#661FC6"/>
<path opacity="0.1" fill-rule="evenodd" clip-rule="evenodd" d="M135.461 101.353C135.616 123.539 117.705 141.645 95.5191 141.761C73.3335 141.917 55.2277 124.005 55.1111 101.82C54.9557 79.6341 72.8284 61.5282 95.0528 61.4117C117.238 61.2562 135.344 79.129 135.461 101.353ZM128.7 101.392C128.623 82.8978 113.547 68.0168 95.0917 68.1334C76.5973 68.2499 61.7163 83.3252 61.8328 101.781C61.9494 120.236 77.0247 135.117 95.4802 135.001C113.936 134.923 128.817 119.848 128.7 101.392Z" fill="#661FC6"/>
<path fill-rule="evenodd" clip-rule="evenodd" d="M139.579 101.315C139.735 125.793 120.036 145.725 95.5579 145.88C71.08 146.035 51.1092 126.337 50.9926 101.859C50.8372 77.3807 70.5361 57.4098 95.014 57.2544C119.492 57.1379 139.424 76.8367 139.579 101.315ZM132.158 101.353C132.042 80.9941 115.412 64.5978 95.0528 64.7144C74.6934 64.8309 58.2971 81.4604 58.4137 101.82C58.5302 122.179 75.1597 138.575 95.5191 138.459C115.878 138.342 132.275 121.713 132.158 101.353Z" fill="#3E0190"/>
<path d="M83.2411 112.777C82.3086 111.223 82.1144 108.619 84.8341 108.309C87.0877 108.037 89.38 109.746 91.4393 110.717C93.1229 111.52 94.975 111.922 96.9954 111.922C99.1712 111.922 100.92 111.391 102.241 110.329C103.536 109.267 104.183 107.881 104.183 106.172C104.183 104.41 103.665 103.167 102.629 102.442C101.567 101.69 99.754 101.315 97.1896 101.315H95.5189C91.3227 101.315 88.1367 100.447 85.9609 98.7116C83.7592 96.9502 82.6583 94.4118 82.6583 91.0963C82.6583 87.8585 83.7333 85.3459 85.8832 83.5586C88.0072 81.7455 91.0119 80.8389 94.8973 80.8389C96.4773 80.8389 98.0833 81.1108 99.7151 81.6548C103.134 82.7427 108.496 85.4236 107.564 88.8816C106.087 94.36 100.259 87.172 98.161 86.2395C96.9177 85.7215 95.4671 85.4625 93.8094 85.4625C91.8926 85.4625 90.3384 85.9676 89.1469 86.9778C87.9813 88.0139 87.3985 89.3219 87.3985 90.902C87.3985 92.4303 87.9942 93.5311 89.1858 94.2046C90.4032 94.878 93.0064 95.2666 96.9954 95.3702C101.269 95.4738 104.391 96.3545 106.359 98.0122C108.328 99.67 109.312 102.234 109.312 105.705C109.312 109.021 108.224 111.676 106.048 113.67C103.873 115.665 100.946 116.662 97.2674 116.662C96.1017 116.662 94.7937 116.533 93.3431 116.274C90.3514 115.768 85.8832 115.768 83.7462 113.398C83.539 113.191 83.3706 112.984 83.2411 112.777Z" fill="#3E0190"/>
<path d="M96.0632 125.404H95.9855C94.7422 125.404 93.6931 124.239 93.6931 122.762V77.3032C93.6931 75.8268 94.7422 74.6223 95.9855 74.6223H96.0632C97.3065 74.6223 98.3556 75.8268 98.3556 77.3032V122.762C98.3556 124.239 97.3065 125.404 96.0632 125.404Z" fill="#3E0190"/>
<path opacity="0.1" d="M46.33 4.02459C21.8521 4.18001 2.15324 24.1509 2.30865 48.5899C2.46407 73.0678 22.3961 92.8055 46.874 92.6501C71.3519 92.4947 91.0508 72.5239 90.9342 48.0848C90.7788 23.6069 70.8079 3.86918 46.33 4.02459Z" fill="#661FC6"/>
<path d="M44.776 9.15321C24.4166 9.26977 8.02029 25.8992 8.13685 46.2586C8.25341 66.618 24.8828 83.0143 45.2422 82.8977C65.6016 82.7423 81.998 66.1517 81.8814 45.7923C81.7648 25.4329 65.1354 9.03664 44.776 9.15321Z" fill="#1CCA8F"/>
<path opacity="0.1" fill-rule="evenodd" clip-rule="evenodd" d="M85.1838 45.7536C85.3392 67.9779 67.4665 86.0838 45.2421 86.2004C23.0566 86.3558 4.9507 68.4442 4.83413 46.2587C4.67872 24.0731 22.5903 5.96726 44.7759 5.81185C66.9614 5.69528 85.0673 23.568 85.1838 45.7536ZM78.4621 45.8313C78.3456 27.3369 63.2703 12.4558 44.8147 12.5724C26.3591 12.689 11.4781 27.7642 11.5559 46.2198C11.6724 64.6754 26.7477 79.5564 45.2032 79.4398C63.6977 79.3233 78.5398 64.2868 78.4621 45.8313Z" fill="#661FC6"/>
<path fill-rule="evenodd" clip-rule="evenodd" d="M89.3025 45.7536C89.4579 70.2315 69.759 90.1635 45.2811 90.3189C20.8032 90.4743 0.832319 70.7755 0.715757 46.2976C0.560342 21.8197 20.2592 1.8488 44.7371 1.69339C69.215 1.57682 89.1859 21.2757 89.3025 45.7536ZM81.8814 45.7925C81.7648 25.4331 65.1354 9.03676 44.776 9.15332C24.4166 9.26988 8.02028 25.8993 8.13684 46.2587C8.2534 66.6181 24.8828 83.0144 45.2422 82.8979C65.6016 82.7424 81.9979 66.1519 81.8814 45.7925Z" fill="#00DE93"/>
<path fill-rule="evenodd" clip-rule="evenodd" d="M61.4053 53.6798C61.4053 55.5447 60.952 57.2543 60.0455 58.8085C59.113 60.3626 57.8049 61.6448 56.1212 62.655C55.111 63.2248 53.9972 63.6393 52.7798 63.8983C51.5365 64.1832 49.7751 64.3257 47.4957 64.3257L44.8536 64.3646H44.0377C44.0636 65.8151 44.0765 67.2786 44.0765 68.755C44.0765 70.1149 41.6288 70.1149 41.6288 68.755C41.6288 67.3045 41.6158 65.841 41.5899 64.3646H39.9969C40.0228 65.841 40.0357 67.3174 40.0357 68.7939C40.0357 70.1149 37.6268 70.1538 37.588 68.7939C37.588 67.3174 37.588 65.8539 37.588 64.4034L30.9828 64.4423C30.2575 64.4423 29.7136 64.2609 29.3509 63.8983C28.9883 63.5098 28.807 62.9529 28.807 62.2276C28.807 61.3987 29.0272 60.8288 29.4675 60.518C29.9337 60.2331 31.0217 60.0777 32.7312 60.0518H33.7414L33.586 32.1547H32.537C30.9569 32.1806 29.9337 32.0252 29.4675 31.6885C29.0272 31.3777 28.807 30.8078 28.807 29.9789C28.7811 29.2537 28.9624 28.6968 29.3509 28.3082C29.7136 27.9197 30.2446 27.7254 30.944 27.7254L37.3548 27.6866C37.3548 26.2101 37.3419 24.7466 37.316 23.2961C37.316 21.9362 39.7638 21.8973 39.7638 23.2572C39.7638 24.7337 39.7767 26.1972 39.8026 27.6477H41.3956C41.3697 26.1972 41.3568 24.7337 41.3568 23.2572C41.3568 21.8973 43.8046 21.8973 43.8046 23.2572C43.8046 24.7078 43.8046 26.1713 43.8046 27.6477H45.3976C49.7751 27.6218 53.1165 28.4507 55.4218 30.1343C57.7272 31.818 58.8798 34.2788 58.8798 37.5166C58.9057 39.1484 58.569 40.5731 57.8697 41.7905C57.1703 43.0079 56.1342 44.0181 54.7613 44.8211C56.989 45.5982 58.6467 46.712 59.7346 48.1625C60.8225 49.5872 61.3794 51.4262 61.4053 53.6798ZM43.8434 32.1159C43.8693 35.8977 43.8952 39.6924 43.9211 43.5001H44.9702C47.8972 43.4742 50.06 42.9949 51.4588 42.0625C52.8834 41.13 53.5828 39.6924 53.5569 37.7497C53.5569 35.9106 52.9093 34.4989 51.6142 33.5146C50.3449 32.5562 48.5059 32.077 46.0969 32.077L43.8434 32.1159ZM39.8415 32.1547C39.8415 35.9365 39.8544 39.7312 39.8803 43.5389H41.4733C41.4474 39.7312 41.4215 35.9365 41.3956 32.1547H39.8415ZM41.6288 60.0129C41.6028 55.7908 41.5769 51.5687 41.551 47.3466H39.958C39.9839 51.5687 40.0098 55.7908 40.0357 60.0129H41.6288ZM56.0824 53.602C56.0565 51.2967 55.2794 49.6649 53.7511 48.7065C52.2229 47.7481 49.5549 47.2818 45.7473 47.3077H43.9988C44.0247 51.5557 44.0506 55.7908 44.0765 60.0129H45.5141C49.3995 59.987 52.1322 59.4819 53.7123 58.4976C55.2923 57.4874 56.0824 55.8556 56.0824 53.602Z" fill="#00DE93"/>
<path d="M4.8732 96.2247C3.12477 108.813 6.62161 121.363 14.7032 131.543C15.8688 132.98 17.151 134.418 18.472 135.739C22.0077 139.275 26.0485 142.266 30.4779 144.598C34.5964 146.774 38.9868 148.367 43.6104 149.377L40.3079 157.73L39.3754 160.062L41.6289 158.896L59.424 149.61L60.5896 148.988L59.6182 148.056L44.9315 134.379L43.0276 132.553L43.3773 135.195L44.3875 142.81C36.2671 140.945 28.9237 136.905 23.0956 131.115C21.93 129.95 20.8421 128.706 19.8319 127.424C12.8771 118.682 9.88534 107.92 11.3618 97.1183L11.4783 96.1858L10.5847 96.0304L5.92225 95.4088L5.53372 95.3311L5.22288 95.603L4.91205 95.8362L4.8732 96.2247Z" fill="#3E0190"/>
<path d="M146.651 63.9372C148.399 51.3486 144.903 38.7988 136.821 28.6191C135.655 27.1426 134.373 25.7439 133.052 24.384C129.516 20.8872 125.476 17.8954 121.046 15.5642C116.928 13.3884 112.498 11.7954 107.914 10.7852L111.177 2.43161L112.11 0.0615234L109.895 1.26599L92.1002 10.5521L90.9346 11.1737L91.8671 12.0674L106.554 25.7827L108.496 27.57L108.147 24.9668L107.098 17.3515C115.257 19.2165 122.6 23.2573 128.428 29.0465C129.555 30.2121 130.643 31.4165 131.692 32.6987C138.647 41.4797 141.639 52.2422 140.162 63.0435L140.007 63.9761L140.939 64.0926L145.563 64.7531L145.99 64.8308L146.301 64.5589L146.612 64.3257L146.651 63.9372Z" fill="#00DE93"/>
</svg>
