<svg width="198" height="170" viewBox="0 0 198 170" fill="none" xmlns="http://www.w3.org/2000/svg">
<path d="M27.2655 116.386C16.371 113.709 7.71999 104.141 5.30927 93.1848C2.89855 82.2286 6.44497 70.3326 13.8102 61.8705C21.1754 53.4085 32.0533 48.3295 43.2133 47.1853C57.5977 45.7098 73.1685 50.2041 86.0015 43.5412C95.2807 38.7232 100.869 29.1374 107.78 21.292C117.11 10.7013 129.792 2.75996 143.735 0.577066C157.679 -1.60583 172.797 2.41966 182.784 12.392C191.4 20.9945 196.045 33.0772 197.411 45.1759C202.663 91.7065 169.075 126.004 150.781 136.209C137.31 143.724 116.992 143.5 101.578 142.911C84.1121 142.244 66.5102 140.271 50.0486 134.398C33.587 128.525 18.2319 118.477 8.3121 104.087" fill="#3E0190" fill-opacity="0.1"/>
<path d="M35.3791 133.566L18.1375 116.25L26.8062 100.329C35.475 89.2327 53.8237 89.9475 53.8237 89.9475C53.8237 89.9475 66.3107 88.745 80.8852 91.5811C95.4598 94.4172 94.2864 104.063 94.2864 104.063L96.2392 139.791L98.3324 168.882L44.5749 169.966L35.3791 133.566Z" fill="#00DE93"/>
<path d="M64.3372 168.291L16.1885 168.881C4.61799 169.023 -3.10065 156.994 1.84926 146.535L22.4369 108.355L41.1893 121.032L28.398 147.579L67.3766 148.275L64.3372 168.291Z" fill="#00DE93"/>
<path d="M92.5645 98.2635L131.204 157.919L108.662 159.394C108.662 159.394 95.2001 138.18 95.5045 138.619C96.0549 139.413 92.5645 98.2635 92.5645 98.2635Z" fill="#00DE93"/>
<path d="M40.2229 124.459C40.2132 124.456 40.232 124.35 40.2765 124.152C40.3314 123.922 40.3987 123.636 40.4815 123.288C40.6602 122.537 40.9195 121.452 41.1918 120.102C41.4625 118.752 41.7508 117.136 41.9478 115.329C42.13 113.524 42.2447 111.515 41.9684 109.446C41.6612 107.383 40.8864 105.514 39.9739 103.954C39.0626 102.387 38.0366 101.102 37.1058 100.093C36.1746 99.0833 35.3523 98.3284 34.7665 97.83C34.1824 97.3286 33.8489 97.062 33.8638 97.042C33.87 97.034 33.9603 97.0911 34.1264 97.2082C34.2897 97.3286 34.5415 97.4942 34.8402 97.7403C35.4517 98.2137 36.3002 98.9491 37.2594 99.9489C38.2176 100.948 39.2722 102.233 40.2103 103.815C41.1484 105.389 41.9484 107.291 42.263 109.403C42.5445 111.514 42.4183 113.541 42.2202 115.358C42.0066 117.177 41.6955 118.796 41.3974 120.145C41.0976 121.494 40.8064 122.574 40.5934 123.316C40.4867 123.687 40.3987 123.974 40.3342 124.167C40.2708 124.361 40.2326 124.462 40.2229 124.459Z" fill="#263238"/>
<path d="M38.6744 126.516C38.6932 126.524 38.5739 126.831 38.3432 127.379C38.1125 127.926 37.7665 128.714 37.3303 129.683C36.4578 131.62 35.2159 134.28 33.7878 137.191C32.3587 140.103 31.0145 142.713 30.0153 144.588C29.5163 145.526 29.1052 146.281 28.8128 146.799C28.521 147.316 28.3515 147.598 28.3332 147.589C28.3149 147.579 28.4502 147.279 28.7106 146.745C28.9978 146.167 29.3741 145.408 29.8286 144.492C30.7959 142.545 32.0903 139.94 33.5212 137.06C34.9235 134.167 36.1917 131.55 37.1396 129.594C37.5861 128.674 37.9555 127.912 38.2376 127.331C38.5008 126.798 38.6555 126.508 38.6744 126.516Z" fill="#263238"/>
<path d="M64.3373 168.292C64.3333 168.291 64.3339 168.257 64.3379 168.191C64.3441 168.112 64.3521 168.016 64.3619 167.898C64.3898 167.621 64.4275 167.242 64.476 166.76C64.5874 165.745 64.7473 164.297 64.9477 162.476C65.3742 158.785 65.9743 153.586 66.6818 147.46L66.8165 147.611C62.485 147.615 57.6653 147.619 52.5938 147.624C42.8835 147.607 34.0948 147.591 27.71 147.581C24.541 147.561 21.9699 147.545 20.1695 147.533C19.2948 147.521 18.6079 147.512 18.1197 147.505C17.8987 147.499 17.7228 147.494 17.5864 147.49C17.4665 147.485 17.4048 147.48 17.4048 147.475C17.4048 147.47 17.4665 147.465 17.5864 147.46C17.7228 147.456 17.8981 147.451 18.1197 147.445C18.6084 147.438 19.2953 147.429 20.1695 147.417C21.9704 147.405 24.541 147.389 27.71 147.369C34.0948 147.358 42.8835 147.342 52.5938 147.326C57.6653 147.33 62.485 147.335 66.8165 147.338H66.9701L66.9513 147.49C66.1999 153.611 65.5626 158.807 65.1098 162.494C64.8769 164.312 64.6919 165.757 64.5623 166.769C64.496 167.249 64.4441 167.626 64.4058 167.902C64.3875 168.019 64.3727 168.114 64.3601 168.192C64.3487 168.259 64.3413 168.292 64.3373 168.292Z" fill="#263238"/>
<path d="M28.7373 147.986C28.6967 148.011 28.3684 147.521 27.7763 146.783C27.1859 146.044 26.3072 145.072 25.2074 144.14C24.1043 143.211 22.9988 142.508 22.1709 142.049C21.3435 141.589 20.8057 141.347 20.8239 141.303C20.8359 141.271 21.4046 141.444 22.2685 141.862C23.1313 142.279 24.2767 142.967 25.3993 143.912C26.5196 144.861 27.3892 145.874 27.9442 146.655C28.5003 147.437 28.7664 147.969 28.7373 147.986Z" fill="#263238"/>
<path d="M97.0372 151.764C97.027 151.765 97.0013 151.595 96.9607 151.271C96.9208 150.92 96.8671 150.446 96.7997 149.85C96.6678 148.615 96.4908 146.827 96.3001 144.615C95.9095 140.192 95.459 134.074 95.0576 127.311C94.6574 120.546 94.3781 114.418 94.2171 109.98C94.1349 107.762 94.0824 105.966 94.0544 104.725C94.0447 104.125 94.0367 103.649 94.0304 103.295C94.0281 102.969 94.0321 102.797 94.0424 102.796C94.0527 102.796 94.0687 102.967 94.0904 103.293C94.1098 103.645 94.1366 104.121 94.1697 104.72C94.232 105.989 94.3193 107.775 94.4267 109.971C94.6408 114.405 94.9537 120.53 95.3534 127.293C95.7548 134.054 96.1722 140.172 96.5085 144.598C96.6781 146.79 96.8157 148.573 96.9139 149.839C96.9579 150.438 96.9933 150.913 97.0195 151.265C97.0418 151.591 97.0475 151.763 97.0372 151.764Z" fill="#263238"/>
<path d="M54.057 119.304C54.0405 119.302 54.0628 119.028 54.1181 118.524C54.1838 117.979 54.2717 117.255 54.3791 116.365C54.6297 114.479 54.9729 111.897 55.3703 108.908L55.5919 109.044C54.4413 109.85 53.1931 110.723 51.8976 111.631C50.5786 112.548 49.3087 113.431 48.1393 114.245L47.8687 114.433L47.9183 114.108C48.3717 111.144 48.7634 108.585 49.0489 106.718C49.1939 105.839 49.3121 105.124 49.4012 104.586C49.4886 104.091 49.5434 103.823 49.5599 103.826C49.5765 103.828 49.5525 104.1 49.4948 104.6C49.4263 105.141 49.3355 105.86 49.2242 106.743C48.965 108.615 48.6098 111.178 48.1987 114.149L47.9777 114.013C49.1448 113.196 50.4118 112.308 51.728 111.387C53.0264 110.483 54.2774 109.614 55.4303 108.812L55.6992 108.624L55.6518 108.947C55.2122 111.931 54.8324 114.508 54.5555 116.389C54.4145 117.275 54.2991 117.996 54.2129 118.537C54.1273 119.037 54.073 119.306 54.057 119.304Z" fill="#E0E0E0"/>
<path d="M75.5449 121.62C75.5329 121.631 75.3359 121.439 74.9842 121.074C74.6073 120.675 74.106 120.145 73.4899 119.493C72.2006 118.095 70.434 116.18 68.3893 113.964L68.6354 113.881C68.5194 115.281 68.3938 116.799 68.2631 118.375C68.1255 119.976 67.993 121.518 67.8708 122.936L67.8428 123.265L67.6247 123.019C65.6348 120.776 63.9178 118.84 62.6639 117.426C62.081 116.752 61.6065 116.204 61.2496 115.793C60.9241 115.409 60.754 115.196 60.766 115.185C60.778 115.174 60.9721 115.366 61.3198 115.729C61.6915 116.127 62.1866 116.657 62.7947 117.308C64.068 118.703 65.813 120.615 67.8343 122.83L67.5882 122.912C67.7058 121.493 67.8331 119.951 67.9662 118.35C68.1015 116.774 68.2322 115.257 68.3521 113.857L68.3801 113.531L68.5982 113.774C70.6115 116.019 72.3508 117.958 73.6207 119.374C74.2116 120.049 74.6924 120.598 75.0538 121.01C75.3845 121.395 75.5569 121.609 75.5449 121.62Z" fill="#E0E0E0"/>
<path d="M86.3619 120.855C86.3756 120.864 86.2392 121.102 85.9742 121.535C85.683 121.999 85.2948 122.617 84.818 123.377C83.7885 124.976 82.3781 127.166 80.7451 129.701L80.6029 129.484C81.987 129.245 83.4887 128.986 85.0469 128.717C86.6314 128.449 88.1566 128.191 89.5606 127.953L89.8861 127.898L89.7028 128.171C88.0298 130.66 86.5863 132.807 85.5323 134.375C85.0264 135.109 84.6153 135.705 84.3058 136.154C84.0157 136.565 83.8524 136.783 83.8382 136.774C83.8245 136.765 83.9615 136.529 84.2264 136.102C84.5182 135.641 84.9071 135.03 85.3844 134.278C86.4162 132.695 87.8288 130.527 89.4664 128.015L89.608 128.232C88.2045 128.474 86.68 128.738 85.0966 129.011C83.5373 129.274 82.035 129.529 80.6503 129.764L80.3271 129.819L80.5076 129.546C82.176 127.034 83.6172 124.865 84.6695 123.28C85.1749 122.539 85.5854 121.935 85.8943 121.483C86.1844 121.067 86.3477 120.846 86.3619 120.855Z" fill="#E0E0E0"/>
<path d="M71.9795 131.919C71.9932 131.928 71.8567 132.166 71.5917 132.598C71.3005 133.063 70.9123 133.681 70.4355 134.441C69.406 136.04 67.9957 138.229 66.3626 140.765L66.2199 140.547C67.604 140.309 69.1057 140.05 70.6639 139.781C72.2478 139.512 73.7735 139.254 75.1776 139.016L75.503 138.961L75.3197 139.234C73.6467 141.723 72.2033 143.871 71.1492 145.439C70.6433 146.172 70.2322 146.768 69.9228 147.217C69.6327 147.628 69.4694 147.847 69.4551 147.838C69.4414 147.829 69.5784 147.593 69.8434 147.165C70.1357 146.705 70.524 146.094 71.0013 145.342C72.0331 143.759 73.4463 141.59 75.0834 139.078L75.225 139.296C73.8215 139.538 72.2969 139.801 70.7136 140.074C69.1542 140.338 67.6519 140.593 66.2673 140.827L65.9441 140.882L66.1245 140.61C67.793 138.098 69.2341 135.928 70.2865 134.344C70.7918 133.603 71.2023 132.999 71.5112 132.546C71.8024 132.131 71.9657 131.91 71.9795 131.919Z" fill="#E0E0E0"/>
<path d="M103.054 120.698C103.067 120.708 102.931 120.946 102.666 121.378C102.374 121.843 101.986 122.461 101.51 123.221C100.48 124.819 99.0699 127.009 97.4368 129.545L97.2941 129.327C98.6782 129.089 100.18 128.829 101.738 128.56C103.323 128.292 104.848 128.034 106.252 127.796L106.577 127.741L106.394 128.014C104.721 130.503 103.278 132.65 102.223 134.218C101.718 134.952 101.306 135.548 100.997 135.997C100.707 136.408 100.544 136.627 100.529 136.618C100.516 136.609 100.653 136.373 100.918 135.945C101.21 135.485 101.598 134.873 102.076 134.121C103.107 132.539 104.521 130.37 106.158 127.858L106.299 128.076C104.896 128.318 103.371 128.581 101.788 128.854C100.228 129.118 98.7261 129.372 97.3415 129.607L97.0183 129.662L97.1987 129.39C98.8672 126.878 100.308 124.708 101.361 123.124C101.866 122.383 102.277 121.779 102.585 121.327C102.876 120.91 103.04 120.69 103.054 120.698Z" fill="#E0E0E0"/>
<path d="M30.2815 111.559C30.2952 111.568 30.1587 111.806 29.8938 112.238C29.6025 112.703 29.2143 113.321 28.7375 114.081C27.708 115.679 26.2977 117.87 24.6646 120.405L24.5219 120.188C25.906 119.949 27.4077 119.69 28.9659 119.421C30.5504 119.153 32.0755 118.895 33.4796 118.657L33.805 118.602L33.6217 118.875C31.9487 121.364 30.5053 123.511 29.4512 125.08C28.9453 125.813 28.5342 126.41 28.2247 126.858C27.9347 127.269 27.7714 127.488 27.7571 127.479C27.7434 127.47 27.8804 127.234 28.1454 126.806C28.4377 126.346 28.826 125.735 29.3034 124.983C30.3351 123.4 31.7478 121.231 33.3854 118.719L33.527 118.937C32.1235 119.179 30.5989 119.442 29.0156 119.715C27.4562 119.979 25.9539 120.234 24.5693 120.468L24.2461 120.523L24.4265 120.251C26.095 117.739 27.5361 115.569 28.5885 113.985C29.0938 113.244 29.5043 112.64 29.8132 112.187C30.1044 111.77 30.2678 111.549 30.2815 111.559Z" fill="#E0E0E0"/>
<path d="M7.70797 154.253C7.7211 154.243 7.90496 154.447 8.23328 154.833C8.58444 155.255 9.05151 155.815 9.62535 156.504C10.825 157.98 12.4683 160.001 14.3709 162.341L14.1202 162.409C14.3235 161.019 14.5439 159.512 14.7723 157.947C15.0098 156.358 15.2382 154.828 15.4483 153.419L15.4968 153.093L15.699 153.351C17.5444 155.715 19.1375 157.755 20.3006 159.243C20.8407 159.952 21.2798 160.528 21.6099 160.962C21.9108 161.365 22.0672 161.589 22.0541 161.599C22.041 161.609 21.8594 161.406 21.5356 161.02C21.189 160.6 20.7283 160.041 20.1618 159.353C18.9782 157.881 17.356 155.864 15.4769 153.527L15.7275 153.459C15.5214 154.869 15.2981 156.399 15.0657 157.99C14.8322 159.554 14.6072 161.061 14.4 162.45L14.3514 162.774L14.1493 162.518C12.2799 160.152 10.6657 158.108 9.4866 156.615C8.93902 155.905 8.49308 155.326 8.15848 154.893C7.85414 154.488 7.69541 154.263 7.70797 154.253Z" fill="#E0E0E0"/>
<path d="M59.2645 126.609C59.2656 126.626 58.9927 126.66 58.4885 126.709C57.9421 126.757 57.2152 126.819 56.321 126.896C54.4248 127.038 51.8268 127.232 48.8199 127.456L48.9073 127.212C49.9316 128.173 51.0428 129.215 52.1968 130.297C53.3656 131.4 54.4904 132.461 55.5262 133.439L55.766 133.666L55.4377 133.683C52.4434 133.847 49.8591 133.989 47.9726 134.093C47.0824 134.131 46.3584 134.162 45.8142 134.185C45.3112 134.202 45.0383 134.202 45.0371 134.186C45.036 134.169 45.3072 134.137 45.808 134.09C46.351 134.046 47.0733 133.988 47.9612 133.916C49.846 133.785 52.428 133.607 55.4194 133.4L55.3315 133.644C54.2923 132.67 53.164 131.612 51.9923 130.513C50.8424 129.427 49.7341 128.381 48.7126 127.417L48.4739 127.192L48.7999 127.173C51.8102 126.991 54.4099 126.834 56.3085 126.719C57.2043 126.676 57.9335 126.641 58.4811 126.614C58.9887 126.595 59.2633 126.593 59.2645 126.609Z" fill="#E0E0E0"/>
<path d="M46.6128 155.388C46.6254 155.378 46.8138 155.578 47.1495 155.958C47.5087 156.372 47.9866 156.924 48.5741 157.602C49.8023 159.054 51.485 161.042 53.4327 163.344L53.1832 163.417C53.359 162.024 53.5497 160.512 53.7479 158.943C53.954 157.349 54.1527 155.815 54.3354 154.402L54.3777 154.075L54.585 154.33C56.4766 156.657 58.1091 158.665 59.3008 160.131C59.8546 160.829 60.3046 161.396 60.6437 161.823C60.9521 162.221 61.1131 162.441 61.1005 162.452C61.088 162.462 60.9024 162.262 60.5706 161.883C60.2161 161.47 59.7444 160.92 59.1649 160.243C57.9521 158.795 56.2911 156.81 54.3668 154.51L54.6164 154.438C54.4382 155.851 54.2441 157.386 54.0431 158.98C53.8404 160.549 53.6445 162.06 53.4647 163.453L53.4224 163.778L53.2152 163.526C51.3001 161.196 49.6459 159.184 48.4377 157.715C47.8764 157.016 47.4196 156.446 47.0759 156.019C46.7635 155.62 46.5997 155.399 46.6128 155.388Z" fill="#E0E0E0"/>
<path d="M23.9996 134.282C24.0007 134.299 23.7278 134.333 23.2236 134.382C22.6772 134.429 21.9503 134.492 21.0561 134.569C19.1599 134.711 16.5619 134.905 13.555 135.129L13.6424 134.885C14.6667 135.846 15.7779 136.888 16.9319 137.97C18.1007 139.073 19.2255 140.134 20.2613 141.112L20.5011 141.338L20.1728 141.356C17.1785 141.52 14.5942 141.662 12.7077 141.766C11.8175 141.804 11.0935 141.835 10.5493 141.858C10.0463 141.874 9.77336 141.875 9.77222 141.859C9.77108 141.842 10.0423 141.81 10.5431 141.763C11.0861 141.719 11.8084 141.661 12.6963 141.589C14.5811 141.458 17.1631 141.28 20.1545 141.073L20.066 141.317C19.0268 140.343 17.8985 139.285 16.7269 138.185C15.5763 137.1 14.4686 136.054 13.4471 135.09L13.2084 134.865L13.5345 134.845C16.5447 134.664 19.1444 134.507 21.043 134.392C21.9389 134.348 22.668 134.313 23.2156 134.286C23.7238 134.268 23.9984 134.266 23.9996 134.282Z" fill="#E0E0E0"/>
<path d="M43.4273 154.74C43.4285 154.757 43.1555 154.791 42.6513 154.84C42.1049 154.887 41.378 154.95 40.4839 155.027C38.5876 155.169 35.9896 155.363 32.9828 155.587L33.0701 155.343C34.0945 156.303 35.2056 157.346 36.3596 158.428C37.5284 159.53 38.6533 160.592 39.689 161.57L39.9289 161.796L39.6005 161.814C36.6063 161.978 34.022 162.12 32.1354 162.224C31.2452 162.262 30.5212 162.293 29.9771 162.316C29.474 162.333 29.2011 162.333 29.2 162.317C29.1988 162.3 29.47 162.267 29.9708 162.221C30.5138 162.177 31.2361 162.118 32.124 162.047C34.0088 161.916 36.5908 161.738 39.5823 161.531L39.4943 161.775C38.4551 160.801 37.3269 159.743 36.1552 158.643C35.0046 157.558 33.8969 156.512 32.8754 155.548L32.6367 155.323L32.9628 155.304C35.973 155.122 38.5728 154.965 40.4713 154.85C41.3672 154.807 42.0963 154.772 42.6445 154.745C43.151 154.726 43.4262 154.724 43.4273 154.74Z" fill="#E0E0E0"/>
<path d="M87.2847 102.69C87.2859 102.706 87.0129 102.741 86.5088 102.79C85.9623 102.837 85.2355 102.9 84.3413 102.977C82.445 103.119 79.847 103.312 76.8402 103.536L76.9275 103.292C77.9519 104.253 79.063 105.295 80.217 106.377C81.3858 107.479 82.5107 108.541 83.5465 109.519L83.7863 109.745L83.458 109.763C80.4637 109.927 77.8794 110.069 75.9928 110.172C75.1027 110.21 74.3787 110.241 73.8345 110.265C73.3315 110.281 73.0585 110.282 73.0574 110.265C73.0562 110.249 73.3275 110.216 73.8282 110.17C74.3712 110.126 75.0935 110.067 75.9814 109.995C77.8663 109.865 80.4483 109.686 83.4397 109.48L83.3512 109.724C82.312 108.749 81.1837 107.691 80.012 106.592C78.8621 105.507 77.7538 104.461 76.7323 103.497L76.4936 103.272L76.8196 103.252C79.8299 103.071 82.4296 102.914 84.3281 102.799C85.224 102.756 85.9532 102.72 86.5008 102.693C87.0084 102.676 87.2836 102.673 87.2847 102.69Z" fill="#E0E0E0"/>
<path d="M65.9516 154.74C65.9516 154.74 75.5591 151.973 78.7378 151.162C79.9768 150.846 85.2836 153.645 88.9482 155.973C88.9482 155.973 93.9958 158.965 93.5875 159.887C93.1381 160.902 91.2761 160.694 88.3087 159.299C88.3087 159.299 89.3439 162.306 87.3112 162.241C87.3112 162.241 88.3195 165.491 86.4147 165.827C84.5093 166.164 84.0611 162.016 82.3801 161.793C80.6991 161.568 77.2246 161.344 77.2246 161.344C77.2246 161.344 74.3314 166.136 72.0897 166.472C69.848 166.808 64.6543 166.202 64.6543 166.202L65.9516 154.74Z" fill="#FFBE9D"/>
<path d="M82.3489 155.403C82.3929 155.333 83.5942 156.012 85.032 156.919C86.4703 157.826 87.6009 158.618 87.5569 158.688C87.5129 158.757 86.3121 158.078 84.8732 157.171C83.4355 156.264 82.3049 155.472 82.3489 155.403Z" fill="#EB996E"/>
<path d="M81.7804 157.25C81.8147 157.176 83.241 157.761 84.966 158.557C86.6915 159.353 88.0613 160.059 88.0271 160.133C87.9928 160.208 86.5665 159.623 84.8415 158.827C83.1165 158.031 81.7456 157.325 81.7804 157.25Z" fill="#EB996E"/>
<path d="M82.8089 161.73C82.8204 161.648 83.791 161.714 84.9776 161.876C86.1641 162.039 87.1171 162.237 87.1056 162.318C87.0942 162.399 86.1241 162.334 84.937 162.171C83.7505 162.009 82.7975 161.811 82.8089 161.73Z" fill="#EB996E"/>
<path d="M53.4548 55.6433C53.678 56.3782 53.4234 57.2352 52.8352 57.7291C52.2471 58.223 51.3587 58.3252 50.6735 57.9781C49.3716 57.318 49.2066 55.5222 49.463 54.0851C49.7188 52.6484 50.2076 51.1148 49.6052 49.7855C49.1444 48.7686 48.1457 48.1245 47.3669 47.324C46.0102 45.9296 45.2873 43.8975 45.6174 41.9806C45.9474 40.0633 47.3852 38.34 49.2586 37.8164C51.1714 37.2814 53.5279 37.8689 54.9519 36.4849C55.9837 35.4816 56.0471 33.8372 56.8459 32.6398C58.0855 30.7807 60.7058 30.4855 62.9201 30.7881C65.1338 31.0907 67.3881 31.801 69.5567 31.2615C71.3679 30.8109 72.8542 29.5462 74.5511 28.7697C78.23 27.0869 82.9321 27.9982 85.7163 30.9337C88.5004 33.8692 89.1616 38.6129 87.2865 42.1976C86.6133 43.4852 85.5992 44.6552 84.2517 45.1999" fill="#263238"/>
<path d="M64.4726 102.806C70.6067 102.8 75.552 97.7805 75.4675 91.647L75.3225 81.1499C75.3225 81.1499 84.1409 80.2665 84.725 71.5304C85.3091 62.7937 84.8877 42.636 84.8877 42.636C75.0045 37.7352 63.2432 38.5672 54.1479 44.8104L52.7981 45.7371L53.4547 91.9559C53.5404 97.9775 58.4498 102.813 64.4726 102.806Z" fill="#FFBE9D"/>
<path d="M82.5707 58.4599C81.0187 58.1533 81.0302 56.1492 82.5855 55.8597C82.6541 55.8471 82.73 55.8477 82.7979 55.8608C84.3499 56.1674 84.3385 58.1722 82.7831 58.4611C82.7146 58.4737 82.6386 58.4737 82.5707 58.4599Z" fill="#263238"/>
<path d="M84.2854 55.6705C84.1404 55.8144 83.3176 55.1069 82.1139 55.0355C80.9108 54.9465 80.0024 55.5386 79.8773 55.377C79.8162 55.3045 79.9676 55.039 80.3644 54.77C80.7544 54.5022 81.4122 54.2596 82.1619 54.3092C82.9116 54.3589 83.5311 54.6867 83.8823 55.0041C84.2408 55.3233 84.355 55.6065 84.2854 55.6705Z" fill="#263238"/>
<path d="M70.3555 55.9649C70.9328 56.3646 71.0767 57.1566 70.677 57.7338C70.2773 58.3111 69.4853 58.455 68.908 58.0553C68.3308 57.6556 68.1869 56.8637 68.5866 56.2864C68.9863 55.7085 69.7782 55.5646 70.3555 55.9649Z" fill="#263238"/>
<path d="M71.1486 56.0182C71.003 56.1621 70.1808 55.4547 68.9771 55.3833C67.7741 55.2942 66.8656 55.8863 66.7406 55.7242C66.6789 55.6516 66.8302 55.3861 67.2276 55.1172C67.6176 54.8494 68.2754 54.6067 69.0251 54.6564C69.7748 54.7067 70.3944 55.0344 70.7449 55.3513C71.1041 55.6716 71.2189 55.9548 71.1486 56.0182Z" fill="#263238"/>
<path d="M75.4354 66.2152C75.4325 66.1204 76.1851 66.0102 77.4047 65.9085C77.7216 65.8914 77.9729 65.8337 78.0049 65.6653C78.0717 65.478 77.9683 65.1348 77.8284 64.7511C77.5618 63.938 77.2923 63.1147 77.0096 62.2525C75.8842 58.6952 75.1179 55.7655 75.2989 55.7084C75.4794 55.6513 76.538 58.4879 77.664 62.0452C77.9289 62.9131 78.1813 63.7416 78.4314 64.5598C78.5273 64.9304 78.7232 65.3678 78.5324 65.8783C78.4314 66.1335 78.1733 66.3082 77.9626 66.3516C77.7508 66.4036 77.5726 66.3939 77.4213 66.3927C76.1971 66.371 75.4388 66.3099 75.4354 66.2152Z" fill="#263238"/>
<path d="M71.4515 67.3318C72.9943 68.0455 74.8346 68.9357 77.263 69.3691C77.263 69.3691 75.7345 71.5394 73.2644 70.4797C70.7 69.3799 71.4515 67.3318 71.4515 67.3318Z" fill="white"/>
<path d="M75.3436 81.0244C75.3436 81.0244 69.7942 81.1729 64.1226 77.1646C64.1226 77.1646 66.4739 83.603 75.2403 83.2907L75.3436 81.0244Z" fill="#EB996E"/>
<path d="M84.9476 44.8446C84.9476 44.8446 79.6711 47.5265 72.6719 44.2017C68.0789 42.0199 62.755 41.0138 61.6038 41.9508C60.4527 42.8884 60.2968 47.5802 55.8174 49.0362C55.8174 49.0362 56.3011 57.9728 52.7289 57.7233C49.1574 57.4738 51.1165 43.5799 51.1165 43.5799L59.7561 39.1501L69.2397 37.1665L78.2333 38.2565L85.2097 40.0215L84.9476 44.8446Z" fill="#263238"/>
<path d="M53.3818 54.8509C53.2362 54.7784 47.4714 52.7468 47.3367 58.7342C47.2019 64.7216 53.2407 63.6219 53.255 63.4506C53.2698 63.2793 53.3818 54.8509 53.3818 54.8509Z" fill="#FFBE9D"/>
<path d="M51.4773 61.1411C51.4517 61.1211 51.3711 61.2119 51.1936 61.2884C51.02 61.3632 50.7231 61.4106 50.4136 61.2867C49.7861 61.04 49.2762 60.0242 49.2716 58.9445C49.2682 58.3992 49.3944 57.8825 49.5971 57.4576C49.7895 57.0237 50.0801 56.7245 50.3999 56.6748C50.7185 56.6086 50.9395 56.8044 51.0091 56.9746C51.0856 57.1436 51.0451 57.2624 51.0765 57.2732C51.0931 57.2886 51.2073 57.1761 51.165 56.9278C51.1428 56.8084 51.0759 56.6657 50.9378 56.5475C50.7967 56.4276 50.5866 56.3631 50.3645 56.3819C49.902 56.4036 49.4772 56.8187 49.2539 57.2858C49.0055 57.754 48.8514 58.3341 48.8548 58.9468C48.8662 60.1539 49.4583 61.297 50.3182 61.5665C50.7368 61.6858 51.0914 61.5671 51.2758 61.4294C51.4636 61.2856 51.4979 61.1525 51.4773 61.1411Z" fill="#EB996E"/>
<path d="M50.3341 36.1062C50.3009 36.0365 51.2842 35.755 52.4108 36.1833C53.5425 36.5978 54.1015 37.4543 54.0307 37.4851C53.965 37.5468 53.3506 36.8399 52.3068 36.4619C51.2705 36.0645 50.3432 36.1958 50.3341 36.1062Z" fill="#263238"/>
<path d="M53.935 32.5206C54.0401 32.5275 53.8757 33.7831 54.0846 35.2808C54.2879 36.791 55.0005 37.8422 54.9206 37.8896C54.892 37.9096 54.6733 37.6766 54.4187 37.2284C54.1697 36.7808 53.8996 36.1059 53.7906 35.3247C53.5747 33.7568 53.8785 32.5075 53.935 32.5206Z" fill="#263238"/>
<path d="M78.5372 52.7954C78.5058 52.7251 78.7622 52.519 79.2476 52.3203C79.7306 52.1216 80.4495 51.9526 81.2546 51.9594C82.0597 51.9686 82.7757 52.1513 83.2548 52.3597C83.7361 52.5681 83.9885 52.7788 83.9554 52.8485C83.8817 53.0072 82.7289 52.5567 81.2489 52.5538C79.7694 52.5281 78.6075 52.9552 78.5372 52.7954Z" fill="#263238"/>
<path d="M65.1864 51.5358C65.155 51.4656 65.4114 51.2595 65.8967 51.0608C66.3798 50.8621 67.0987 50.6931 67.9038 50.6999C68.7088 50.709 69.4249 50.8918 69.9039 51.1002C70.3858 51.3086 70.6377 51.5193 70.6051 51.5889C70.5314 51.7477 69.3786 51.2972 67.8986 51.2943C66.4186 51.2686 65.2566 51.6957 65.1864 51.5358Z" fill="#263238"/>
<path d="M77.5066 53.736C77.5141 53.7434 77.5209 53.8656 77.5295 54.09C77.5369 54.3435 77.5466 54.6633 77.5586 55.0561C77.5677 55.4804 77.578 55.9811 77.59 56.555C77.5923 57.1334 77.6271 57.8066 77.8749 58.4969C78.1136 59.185 78.5264 59.8918 79.1374 60.4919C79.7535 61.0818 80.5597 61.5734 81.4973 61.7881C81.9626 61.8983 82.4571 61.952 82.9573 61.916C83.4575 61.8926 83.9662 61.7915 84.451 61.6008C85.4291 61.2422 86.3147 60.5365 86.9137 59.6086C87.487 58.7225 87.7439 57.6895 87.7165 56.6857C87.7193 55.6642 87.7216 54.6776 87.7245 53.7354L87.8627 53.8736C84.8713 53.8462 82.3109 53.8234 80.4529 53.8062C79.5616 53.7908 78.8399 53.7783 78.3014 53.7685C78.0708 53.7617 77.8795 53.7566 77.7196 53.7514C77.5843 53.7474 77.5118 53.7417 77.5066 53.736C77.4958 53.7251 77.7522 53.7143 78.2404 53.7029C78.7714 53.6937 79.4823 53.6812 80.3604 53.6652C82.2413 53.6481 84.833 53.6252 87.8615 53.5978L87.9991 53.5967L87.9997 53.736C88.002 54.6776 88.0048 55.6648 88.0077 56.6863C88.0414 57.7232 87.7707 58.8367 87.1632 59.7702C86.5294 60.7529 85.5896 61.498 84.5532 61.8743C84.0393 62.0736 83.5003 62.1781 82.9721 62.2004C82.4434 62.2352 81.9221 62.1758 81.4322 62.0553C80.4449 61.8206 79.6016 61.2948 78.9632 60.6684C78.3306 60.0312 77.9097 59.2849 77.6745 58.5637C77.4301 57.8391 77.4084 57.1425 77.4233 56.5418C77.4353 55.9531 77.4455 55.4393 77.4547 55.0042C77.4667 54.617 77.4758 54.3013 77.4838 54.0512C77.4918 53.8371 77.4992 53.7291 77.5066 53.736Z" fill="#263238"/>
<path d="M63.5079 53.4409C63.5153 53.4483 63.5222 53.5705 63.5307 53.7949C63.5381 54.0485 63.5479 54.3682 63.5599 54.761C63.5684 55.1853 63.5793 55.686 63.5913 56.2599C63.5935 56.8383 63.6284 57.5115 63.8762 58.2018C64.1143 58.8899 64.5277 59.5968 65.1386 60.1974C65.7547 60.7873 66.561 61.2789 67.4985 61.4936C67.9639 61.6038 68.4584 61.6575 68.9586 61.6215C69.4587 61.5981 69.9675 61.497 70.4523 61.3063C71.4304 60.9477 72.316 60.242 72.9149 59.3141C73.4882 58.4279 73.7452 57.395 73.7178 56.3912C73.7206 55.3697 73.7229 54.383 73.7257 53.4409L73.8639 53.5791C70.8719 53.5517 68.3122 53.5289 66.4542 53.5117C65.5629 53.4963 64.8411 53.4837 64.3027 53.474C64.072 53.4672 63.8807 53.462 63.7209 53.4569C63.5861 53.4518 63.5136 53.4466 63.5079 53.4409C63.497 53.4301 63.7534 53.4192 64.2416 53.4072C64.7726 53.3981 65.4835 53.3855 66.3617 53.3695C68.2425 53.3524 70.8343 53.3296 73.8628 53.3022L74.0004 53.301L74.001 53.4403C74.0033 54.3819 74.0061 55.3691 74.009 56.3906C74.0426 57.4276 73.772 58.541 73.1645 59.4746C72.5307 60.4572 71.5908 61.2024 70.5545 61.5787C70.0406 61.7779 69.5016 61.8824 68.9734 61.9047C68.4447 61.9395 67.9234 61.8801 67.4334 61.7597C66.4462 61.525 65.6028 60.9991 64.9645 60.3727C64.3318 59.7355 63.911 58.9892 63.6758 58.2681C63.4308 57.5435 63.4097 56.8469 63.4245 56.2462C63.4365 55.6575 63.4468 55.1436 63.4559 54.7085C63.4679 54.3214 63.477 54.0056 63.485 53.7555C63.4936 53.542 63.501 53.4335 63.5079 53.4409Z" fill="#263238"/>
<path d="M77.6321 54.1524C77.6321 54.2346 76.7494 54.3008 75.6611 54.3008C74.5722 54.3008 73.6895 54.234 73.6895 54.1524C73.6895 54.0701 74.5722 54.0039 75.6611 54.0039C76.75 54.0039 77.6321 54.0701 77.6321 54.1524Z" fill="#263238"/>
<path d="M52.5898 54.2304C52.5898 54.1482 55.0337 54.0745 58.0485 54.0654C61.0639 54.0562 63.5083 54.1156 63.5083 54.1973C63.5089 54.2795 61.065 54.3532 58.0491 54.3623C55.0348 54.372 52.5898 54.3126 52.5898 54.2304Z" fill="#263238"/>
<path d="M162.298 61.3239L145.3 55.2195L128.467 61.2411C126.319 62.2564 124.434 62.8639 124.434 64.8658V74.833C124.434 81.7545 126.247 88.6138 129.979 94.6692C133.119 99.7647 137.981 105.012 145.465 108.347C152.346 106.112 157.482 100.154 160.621 95.058C164.353 89.0027 166.166 82.1434 166.166 75.2218V66.259C166.166 63.4046 164.653 62.0103 162.298 61.3239Z" fill="#00DE93"/>
<g opacity="0.3">
<path d="M145.465 102.563C139.543 99.9246 135.696 95.685 133.212 91.6532C130.26 86.862 128.826 81.4353 128.826 75.959V68.9672C128.826 67.3833 129.781 65.8998 131.678 65.0142L145.303 59.9199L145.3 55.2195L128.468 61.2411C126.701 62.0131 124.434 62.8639 124.434 64.8658V74.833C124.434 81.7545 126.248 88.6138 129.979 94.6692C133.119 99.7647 137.981 105.012 145.465 108.347V102.563H145.465Z" fill="black"/>
</g>
<g opacity="0.4">
<path d="M145.465 108.347C146.658 107.948 147.753 107.488 148.804 106.915C151.626 105.378 154.034 103.267 155.871 101.356C157.926 99.2188 159.457 96.9092 160.787 94.752C164.518 88.6966 166.332 81.8373 166.167 74.7245L166.177 66.4954C166.167 62.398 164.065 62.0953 162.298 61.3239L145.3 55.2195L145.303 59.9199L159.087 65.0965C160.984 65.9821 161.94 67.4655 161.94 69.0494V76.0412C161.94 81.5176 160.505 86.9443 157.553 91.7354C155.068 95.7672 151.387 99.9246 145.465 102.563V108.347Z" fill="black"/>
</g>
<path opacity="0.5" d="M149.809 75.5106L149.828 74.1654C149.828 71.7318 147.848 69.7522 145.415 69.7522C142.981 69.7522 141.001 71.7318 141.001 74.1585L140.982 75.5289C139.791 75.7053 138.876 76.7286 138.876 77.9687V85.9032C138.876 87.2673 139.982 88.3728 141.346 88.3728H149.583C150.947 88.3728 152.052 87.2673 152.052 85.9032V77.9687C152.053 76.6812 151.067 75.6248 149.809 75.5106ZM146.591 83.9282H144.437L144.773 82.3722C144.401 82.1404 144.151 81.7281 144.151 81.2571C144.151 80.5319 144.739 79.9438 145.465 79.9438C146.19 79.9438 146.778 80.5319 146.778 81.2571C146.778 81.7116 146.547 82.1118 146.197 82.3477C146.349 82.9506 146.591 83.9282 146.591 83.9282ZM148.858 75.4992H141.934L141.953 74.1654C141.953 72.2566 143.506 70.7029 145.415 70.7029C147.325 70.7029 148.878 72.256 148.878 74.1585L148.858 75.4992Z" fill="white"/>
<path d="M131.58 75.4135C131.542 75.4186 131.424 74.8945 131.325 74.0328C131.223 73.1724 131.148 71.9727 131.187 70.6492C131.206 69.9874 131.25 69.3576 131.31 68.7872C131.365 68.2173 131.469 67.6829 131.689 67.2832C131.905 66.8812 132.207 66.6414 132.434 66.5352C132.665 66.4278 132.809 66.433 132.81 66.4495C132.839 66.4866 132.236 66.6054 131.877 67.378C131.7 67.7514 131.622 68.2481 131.583 68.8129C131.538 69.3793 131.503 70.0034 131.484 70.6583C131.446 71.9687 131.487 73.1564 131.535 74.0157C131.58 74.875 131.624 75.4078 131.58 75.4135Z" fill="white"/>
<path d="M131.83 79.7526C131.748 79.7544 131.673 79.345 131.663 78.8379C131.653 78.3309 131.712 77.9192 131.794 77.9175C131.876 77.9158 131.95 78.3252 131.961 78.8322C131.97 79.3387 131.912 79.7509 131.83 79.7526Z" fill="white"/>
<path d="M113.896 120.855L94.9421 167.727H60.7661V169.842H162.56L183.381 120.855H113.896Z" fill="#263238"/>
<path d="M142.868 148.528C142.181 150.887 140.181 152.379 138.401 151.861C136.621 151.342 135.734 149.01 136.421 146.651C137.108 144.292 139.108 142.8 140.888 143.318C142.668 143.836 143.555 146.169 142.868 148.528Z" fill="#FAFAFA"/>
</svg>
