<svg width="167" height="208" viewBox="0 0 167 208" fill="none" xmlns="http://www.w3.org/2000/svg">
<path d="M90.2453 52.2291C88.9497 55.3785 81.3388 55.1673 73.3592 51.8664C65.3797 48.5655 59.9609 43.3363 61.2565 40.1875C61.5567 39.4574 62.3941 36.7317 63.2917 36.352C66.2656 35.0944 71.9209 37.9264 78.0507 40.4621C83.7562 42.8223 90.2769 44.3392 91.2899 47.4476C91.9031 49.3325 90.6146 51.3318 90.2453 52.2291Z" fill="#39D24E"/>
<path opacity="0.2" d="M91.2917 47.447C91.7762 49.9181 90.7088 51.1012 90.2448 52.2284C89.7679 53.3909 88.4331 54.0934 86.5417 54.3545C86.3141 54.3921 86.0748 54.4149 85.829 54.4337C84.5609 54.5282 83.0903 54.4543 81.4893 54.2066C81.2839 54.1814 81.0808 54.1427 80.8719 54.1063C79.3059 53.8352 77.6323 53.4015 75.9054 52.8252C75.7188 52.763 75.5303 52.695 75.3425 52.6269C74.6888 52.3963 74.0223 52.1457 73.3593 51.8687C72.6986 51.5976 72.0561 51.3077 71.4288 51.0067C71.248 50.9239 71.0707 50.8336 70.8957 50.7491C69.3239 49.9674 67.8966 49.12 66.6396 48.2474C66.474 48.1354 66.319 48.0192 66.1604 47.9106C64.8525 46.9558 63.75 45.9712 62.919 45.0088C62.7739 44.8462 62.6417 44.686 62.5147 44.5241C61.2548 42.9238 60.7591 41.401 61.2571 40.1886C61.5801 39.404 62.2865 36.734 63.2883 36.3502C64.2919 35.9723 65.5834 36.0245 67.0785 36.3437C67.2711 36.386 67.47 36.4318 67.6719 36.4828C70.6247 37.2322 74.2839 38.9046 78.0478 40.4621C82.487 42.2988 87.7367 44.2036 90.3062 46.4054C90.4666 46.538 90.6099 46.6765 90.748 46.8162C90.9575 47.0257 91.1354 47.2328 91.2917 47.447Z" fill="black"/>
<g opacity="0.2">
<path d="M67.9428 35.993L67.6713 36.483L62.919 45.0089C62.7739 44.8464 62.6416 44.6862 62.5146 44.5242L67.0779 36.3445L67.4314 35.7101L67.9428 35.993Z" fill="black"/>
</g>
<g opacity="0.2">
<path d="M71.5358 39.465L66.6395 48.248C66.4739 48.1359 66.3189 48.0197 66.1603 47.9112L71.029 39.1746L71.5358 39.465Z" fill="black"/>
</g>
<g opacity="0.2">
<path d="M80.5413 44.51L75.9049 52.8247C75.7182 52.7625 75.5298 52.6944 75.3419 52.6263L80.0287 44.2207L80.5413 44.51Z" fill="black"/>
</g>
<g opacity="0.2">
<path d="M76.3545 42.165L71.4279 51.0072C71.2471 50.9245 71.0697 50.8341 70.8948 50.7496L75.8419 41.8763L76.3545 42.165Z" fill="black"/>
</g>
<g opacity="0.2">
<path d="M86.0016 46.1174L81.4887 54.2067C81.2833 54.1815 81.0802 54.1428 80.8713 54.1064L85.489 45.8287L86.0016 46.1174Z" fill="black"/>
</g>
<path d="M91.2564 49.4593C89.9608 52.6088 82.4418 52.4855 74.4622 49.1847C66.4826 45.8838 61.0638 40.6552 62.3588 37.5057C63.6544 34.3563 71.1735 34.4795 79.153 37.7804C87.1326 41.0818 92.5514 46.3104 91.2564 49.4593Z" fill="#39D24E"/>
<path opacity="0.2" d="M88.5435 48.3373C87.6283 50.5625 81.7671 50.2486 75.4518 47.6361C69.1365 45.0235 64.7593 41.1024 65.6746 38.8772C66.5898 36.6519 72.451 36.9659 78.7663 39.5784C85.0816 42.1909 89.4588 46.1121 88.5435 48.3373Z" fill="white"/>
<path d="M130.576 23.746C132.657 26.4395 128.688 32.9555 121.864 38.2557C115.039 43.5559 107.82 45.669 105.74 42.9761C105.258 42.3517 103.316 40.2673 103.434 39.2979C103.826 36.0851 109.089 32.5741 114.331 28.5027C119.211 24.713 123.767 19.7949 126.959 20.4597C128.895 20.8629 129.984 22.9784 130.576 23.746Z" fill="#00DE93"/>
<path opacity="0.2" d="M126.96 20.4568C129.338 21.2643 129.831 22.7818 130.575 23.746C131.343 24.7395 131.287 26.25 130.573 28.0251C130.492 28.2422 130.392 28.4611 130.286 28.6847C129.737 29.8349 128.942 31.0777 127.931 32.3476C127.807 32.5137 127.672 32.6716 127.537 32.8347C126.524 34.0617 125.317 35.3029 123.958 36.5182C123.811 36.6496 123.659 36.7793 123.507 36.9096C122.982 37.3638 122.433 37.8186 121.865 38.2575C121.301 38.6976 120.731 39.1119 120.159 39.508C119.997 39.6242 119.831 39.7334 119.671 39.8437C118.212 40.8225 116.769 41.6423 115.389 42.3019C115.21 42.3905 115.032 42.4674 114.86 42.5513C113.383 43.2144 111.983 43.6839 110.737 43.9274C110.525 43.9732 110.32 44.0084 110.117 44.0377C108.106 44.3376 106.542 44.0119 105.741 42.9756C105.222 42.3042 103.264 40.3613 103.431 39.2991C103.603 38.2381 104.29 37.1408 105.31 35.9988C105.442 35.8527 105.581 35.7013 105.726 35.5517C107.842 33.3558 111.109 31.0038 114.329 28.5045C118.126 25.5557 122.385 21.9368 125.568 20.796C125.762 20.7227 125.954 20.6663 126.143 20.6165C126.429 20.5384 126.697 20.4862 126.96 20.4568Z" fill="black"/>
<g opacity="0.2">
<path d="M105.437 35.0723L105.726 35.5523L110.738 43.9274C110.525 43.9732 110.321 44.0084 110.118 44.0377L105.311 35.9994L104.938 35.3762L105.437 35.0723Z" fill="black"/>
</g>
<g opacity="0.2">
<path d="M110.228 33.6733L115.391 42.3014C115.211 42.39 115.034 42.4669 114.861 42.5508L109.724 33.9697L110.228 33.6733Z" fill="black"/>
</g>
<g opacity="0.2">
<path d="M119.072 28.3484L123.959 36.5176C123.812 36.6491 123.66 36.7787 123.507 36.909L118.567 28.6507L119.072 28.3484Z" fill="black"/>
</g>
<g opacity="0.2">
<path d="M114.96 30.8243L120.159 39.5081C119.998 39.6243 119.831 39.7334 119.671 39.8437L114.455 31.1265L114.96 30.8243Z" fill="black"/>
</g>
<g opacity="0.2">
<path d="M123.178 24.3978L127.932 32.3475C127.807 32.5136 127.673 32.6714 127.538 32.8346L122.673 24.7L123.178 24.3978Z" fill="black"/>
</g>
<path d="M120.089 35.961C126.913 30.6608 130.759 24.1808 128.679 21.4876C126.599 18.7944 119.381 20.9078 112.556 26.208C105.732 31.5082 101.886 37.9881 103.966 40.6813C106.046 43.3745 113.264 41.2611 120.089 35.961Z" fill="#00DE93"/>
<path opacity="0.2" d="M126.363 23.2907C127.833 25.1937 124.646 30.1366 119.245 34.3312C113.845 38.5258 108.275 40.3831 106.805 38.48C105.335 36.5769 108.522 31.6341 113.923 27.4395C119.324 23.2449 124.893 21.3876 126.363 23.2907Z" fill="white"/>
<path d="M102.325 11.1268C101.64 14.9886 93.0256 16.6271 83.239 14.8807C73.4529 13.1337 66.0749 8.587 66.7602 4.72454C66.9194 3.82904 67.1932 0.555749 68.1096 -0.0921029C71.1467 -2.23987 78.2035 -0.447131 85.7207 0.894345C92.7178 2.1431 100.426 2.24286 102.326 5.49034C103.48 7.45913 102.521 10.0259 102.325 11.1268Z" fill="#455A64"/>
<path opacity="0.2" d="M102.33 5.48877C103.481 8.14942 102.57 9.74323 102.325 11.1258C102.073 12.5512 100.743 13.6702 98.68 14.4302C98.4331 14.5288 98.1697 14.6133 97.8976 14.6948C96.4938 15.1132 94.8213 15.3926 92.9593 15.5088C92.7223 15.5311 92.4841 15.5375 92.2401 15.5481C90.412 15.6291 88.4229 15.5539 86.3385 15.331C86.1132 15.3069 85.885 15.277 85.6562 15.2465C84.8644 15.1485 84.0528 15.0305 83.2399 14.882C82.43 14.7394 81.6365 14.5722 80.8571 14.3885C80.6335 14.3398 80.4117 14.2823 80.1941 14.2301C78.2343 13.7383 76.4208 13.1362 74.7928 12.4643C74.5786 12.3786 74.3762 12.2865 74.1713 12.2032C72.4655 11.4521 70.9844 10.6158 69.8141 9.73736C69.611 9.59066 69.4226 9.44278 69.2406 9.29138C67.4312 7.80202 66.5002 6.21114 66.7629 4.72414C66.9338 3.76175 67.0748 0.584105 68.1077 -0.0942616C69.144 -0.76676 70.6093 -1.02613 72.3696 -1.03552C72.596 -1.03552 72.8319 -1.03318 73.0712 -1.02555C76.5764 -0.909943 81.1034 0.0688783 85.7194 0.893951C91.1639 1.86573 97.5366 2.71486 100.967 4.55865C101.18 4.66839 101.375 4.78869 101.564 4.91251C101.851 5.09736 102.102 5.28631 102.33 5.48877Z" fill="black"/>
<g opacity="0.2">
<path d="M73.2559 -1.64232L73.071 -1.0244L69.8138 9.73851C69.6108 9.5918 69.4223 9.44392 69.2404 9.29252L72.3693 -1.03437L72.6116 -1.83539L73.2559 -1.64232Z" fill="black"/>
</g>
<g opacity="0.2">
<path d="M78.1483 1.37805L74.7922 12.4655C74.5781 12.3798 74.3756 12.2877 74.1708 12.2043L77.5069 1.1756L78.1483 1.37805Z" fill="black"/>
</g>
<g opacity="0.2">
<path d="M89.5161 4.83437L86.338 15.3314C86.1127 15.3074 85.8844 15.2775 85.6556 15.2469L88.8683 4.63544L89.5161 4.83437Z" fill="black"/>
</g>
<g opacity="0.2">
<path d="M84.232 3.22781L80.8566 14.3892C80.6331 14.3405 80.4113 14.2829 80.1936 14.2307L83.5842 3.02887L84.232 3.22781Z" fill="black"/>
</g>
<g opacity="0.2">
<path d="M96.0533 5.29677L92.9588 15.5092C92.7218 15.5315 92.4836 15.538 92.2396 15.5486L95.4061 5.09784L96.0533 5.29677Z" fill="black"/>
</g>
<path d="M102.778 7.76262C103.463 3.9006 96.0857 -0.645937 86.2994 -2.39235C76.5132 -4.13877 68.0243 -2.42373 67.339 1.43829C66.6536 5.3003 74.0313 9.84684 83.8175 11.5933C93.6038 13.3397 102.093 11.6246 102.778 7.76262Z" fill="#455A64"/>
<path opacity="0.2" d="M99.4571 7.16757C98.9726 9.8963 92.3021 10.9878 84.5572 9.60523C76.8123 8.22268 70.9271 4.89012 71.411 2.16139C71.895 -0.56733 78.566 -1.65882 86.311 -0.276852C94.0559 1.10629 99.9416 4.43885 99.4571 7.16757Z" fill="white"/>
<path d="M153.415 109.706L93.1947 113.219C91.06 113.344 88.9644 113.857 87.0134 114.733L21.6004 144.096C19.2257 145.162 17.9126 147.716 18.4445 150.235L29.2669 201.489C30.0095 205.005 33.9191 206.857 37.1686 205.23L101.732 172.909L161.347 170.888C164.479 170.781 166.816 167.973 166.319 164.914L158.34 115.833C157.928 113.298 156.01 109.629 153.415 109.706Z" fill="#00DE93"/>
<path opacity="0.1" d="M153.415 109.706L93.1947 113.219C91.06 113.344 88.9644 113.857 87.0134 114.733L21.6004 144.096C19.2257 145.162 17.9126 147.716 18.4445 150.235L29.2669 201.489C30.0095 205.005 33.9191 206.857 37.1686 205.23L101.732 172.909L161.347 170.888C164.479 170.781 166.816 167.973 166.319 164.914L158.34 115.833C157.928 113.298 156.01 109.629 153.415 109.706Z" fill="black"/>
<path d="M32.5304 76.3415L0.925903 105.552L57.6315 167.249L89.236 138.039L32.5304 76.3415Z" fill="#00DE93"/>
<path opacity="0.5" d="M89.2435 138.035L57.6395 167.245L0.932861 105.551L21.6724 86.3798L32.5369 76.3357L34.3486 78.3051L89.2435 138.035Z" fill="#FAFAFA"/>
<path d="M32.7361 80.1141L4.84753 105.89L57.8916 163.604L85.7801 137.828L32.7361 80.1141Z" stroke="#00DE93" stroke-miterlimit="10"/>
<path d="M51.6028 128.676C54.8005 125.72 54.3961 120.064 50.6995 116.042C47.0029 112.021 41.414 111.157 38.2163 114.113C35.0186 117.069 35.4231 122.725 39.1197 126.747C42.8162 130.768 48.4051 131.632 51.6028 128.676Z" fill="#00DE93"/>
<path opacity="0.1" d="M57.3022 142.208L46.0725 146.098L21.6721 86.3798L32.5366 76.3357L34.3484 78.3051L57.3022 142.208Z" fill="black"/>
<path d="M59.4811 52.1654L19.074 66.8546L47.59 145.736L87.9971 131.047L59.4811 52.1654Z" fill="#00DE93"/>
<path opacity="0.5" d="M59.4811 52.1654L19.074 66.8546L47.59 145.736L87.9971 131.047L59.4811 52.1654Z" fill="#FAFAFA"/>
<path d="M58.2164 55.7243L22.5602 68.6864L49.2348 142.475L84.891 129.513L58.2164 55.7243Z" stroke="#00DE93" stroke-miterlimit="10"/>
<path d="M56.88 107.824C60.9684 106.338 62.7759 100.965 60.9172 95.8238C59.0586 90.6823 54.2376 87.7191 50.1493 89.2054C46.0609 90.6916 44.2534 96.0644 46.1121 101.206C47.9708 106.347 52.7917 109.311 56.88 107.824Z" fill="#00DE93"/>
<path d="M153.807 111.79L94.411 115.145C92.3056 115.264 90.2393 115.771 88.3175 116.642L23.866 145.821C21.5264 146.88 20.2373 149.43 20.7686 151.948L31.5769 203.205C32.319 206.722 36.18 208.583 39.3815 206.965L102.987 174.827L161.79 172.962C164.879 172.864 167.178 170.063 166.679 167.005L158.681 117.927C158.269 115.392 156.367 111.719 153.807 111.79Z" fill="#00DE93"/>
<path opacity="0.2" d="M96.8274 124.127L147.789 120.978" stroke="black" stroke-width="2" stroke-miterlimit="10" stroke-linecap="round" stroke-linejoin="round"/>
<path opacity="0.2" d="M90.7223 125.447L100.035 168.332" stroke="black" stroke-width="2" stroke-miterlimit="10" stroke-linecap="round" stroke-linejoin="round"/>
<path opacity="0.2" d="M28.6478 164.164L35.213 197.153C35.213 197.153 40.2462 184.062 28.6478 164.164Z" fill="#FAFAFA"/>
<path opacity="0.2" d="M29.5093 164.552C29.7346 165.153 87.8252 140.141 87.8252 140.141C87.8252 140.141 89.2952 158.121 71.8134 167.955C54.3316 177.787 29.5093 164.552 29.5093 164.552Z" fill="#FAFAFA"/>
<path d="M68.0962 165.524C69.486 165.524 70.6125 164.394 70.6125 163.001C70.6125 161.607 69.486 160.477 68.0962 160.477C66.7065 160.477 65.58 161.607 65.58 163.001C65.58 164.394 66.7065 165.524 68.0962 165.524Z" fill="#00DE93"/>
<path opacity="0.2" d="M87.8557 140.142C87.8557 140.142 95.0605 151.011 93.3178 169.535Z" fill="black"/>
<g opacity="0.2">
<path d="M25.8683 151.207L27.2066 150.614" stroke="#FAFAFA" stroke-linecap="round" stroke-linejoin="round"/>
<path d="M29.9886 149.381L84.2352 125.337" stroke="#FAFAFA" stroke-linecap="round" stroke-linejoin="round" stroke-dasharray="5.2 5.2"/>
<path d="M85.6262 124.72L86.9639 124.127" stroke="#FAFAFA" stroke-linecap="round" stroke-linejoin="round"/>
</g>
<path opacity="0.2" d="M98.5367 133.766L149.498 130.617" stroke="black" stroke-width="2" stroke-miterlimit="10" stroke-linecap="round" stroke-linejoin="round"/>
<path opacity="0.2" d="M100.83 145.788L151.791 142.64" stroke="black" stroke-width="2" stroke-miterlimit="10" stroke-linecap="round" stroke-linejoin="round"/>
<path d="M143.975 71.738L131.62 114.85C130.747 117.897 128.124 119.961 125.17 120.256C124.252 120.346 123.298 120.269 122.35 119.998L98.7046 113.183C94.7294 112.034 92.4308 107.873 93.5713 103.888L105.931 60.7685C106.595 58.4623 108.261 56.7165 110.327 55.8809C111.822 55.2723 113.527 55.1432 115.203 55.6262L138.846 62.4345C142.822 63.5841 145.12 67.7458 143.975 71.738Z" fill="#182125"/>
<path opacity="0.2" d="M143.975 71.738L131.62 114.85C130.747 117.897 128.124 119.961 125.17 120.256C124.252 120.346 123.298 120.269 122.35 119.998L98.7046 113.183C94.7294 112.034 92.4308 107.873 93.5713 103.888L105.931 60.7685C106.595 58.4623 108.261 56.7165 110.327 55.8809C111.822 55.2723 113.527 55.1432 115.203 55.6262L138.846 62.4345C142.822 63.5841 145.12 67.7458 143.975 71.738Z" fill="black"/>
<path d="M141.919 72.2508L129.564 115.363C128.901 117.675 127.23 119.422 125.17 120.256C124.252 120.346 123.298 120.27 122.35 119.998L98.7043 113.184C94.7292 112.035 92.4306 107.873 93.5711 103.888L105.931 60.7691C106.595 58.4629 108.26 56.7171 110.327 55.8814C111.245 55.7916 112.199 55.8679 113.147 56.1396L136.79 62.9479C140.766 64.0969 143.064 68.2587 141.919 72.2508Z" fill="#182125"/>
<path opacity="0.5" d="M141.919 72.2508L129.564 115.363C128.901 117.675 127.23 119.422 125.17 120.256C124.252 120.346 123.298 120.27 122.35 119.998L98.7043 113.184C94.7292 112.035 92.4306 107.873 93.5711 103.888L105.931 60.7691C106.595 58.4629 108.26 56.7171 110.327 55.8814C111.245 55.7916 112.199 55.8679 113.147 56.1396L136.79 62.9479C140.766 64.0969 143.064 68.2587 141.919 72.2508Z" fill="#FAFAFA"/>
<path d="M108.7 75.9047L106.17 75.1898L97.0702 107.574L99.6003 108.289L108.7 75.9047Z" fill="#FAFAFA"/>
<path d="M103.222 109.329L100.695 108.6L109.792 76.2224L112.319 76.9507L103.222 109.329Z" fill="#FAFAFA"/>
<path d="M106.898 110.389L104.372 109.66L113.469 77.2823L115.996 78.0106L106.898 110.389Z" fill="#FAFAFA"/>
<path opacity="0.5" d="M130.726 82.2489L128.196 81.5341L119.096 113.918L121.626 114.633L130.726 82.2489Z" fill="black"/>
<path d="M130.394 73.1012L129.136 77.4965L127.638 77.074C126.128 76.6456 125.25 75.0729 125.671 73.5589L126.491 70.6424L129.516 71.5109C130.195 71.7104 130.587 72.4205 130.394 73.1012Z" fill="#FAFAFA"/>
<path d="M129.674 70.9475L126.649 70.079L127.556 66.8632C127.977 65.3492 129.551 64.469 131.061 64.8915L132.617 65.3316L131.26 70.0673C131.067 70.7539 130.359 71.1471 129.674 70.9475Z" fill="#FAFAFA"/>
<path d="M132.541 72.3852L135.584 73.2596L134.777 76.1292C134.355 77.6432 132.787 78.5293 131.277 78.1009L129.697 77.6549L130.955 73.2655C131.149 72.5848 131.857 72.1916 132.541 72.3852Z" fill="#FAFAFA"/>
<path d="M136.661 69.4335L135.742 72.6962L132.699 71.8219C132.021 71.6223 131.628 70.9123 131.822 70.2316L133.179 65.4959L134.695 65.9243C136.205 66.3468 137.082 67.9195 136.661 69.4335Z" fill="#FAFAFA"/>
</svg>
