<svg width="366" height="339" viewBox="0 0 366 339" fill="none" xmlns="http://www.w3.org/2000/svg">
<path d="M189.657 142.16C184.622 145.915 172.744 138.362 163.205 125.569C153.665 112.777 150.012 99.3623 155.046 95.6084C156.213 94.738 160.12 91.219 161.904 91.4697C167.813 92.3006 174.108 102.146 181.436 111.973C188.258 121.12 197.17 129.705 195.837 135.585C195.027 139.149 191.092 141.091 189.657 142.16Z" fill="#39D24E"/>
<path opacity="0.2" d="M195.841 135.586C194.272 139.956 191.459 140.815 189.657 142.159C187.8 143.546 185.018 143.392 181.769 142.011C181.373 141.854 180.971 141.664 180.564 141.46C178.462 140.407 176.198 138.895 173.892 136.984C173.59 136.75 173.304 136.496 173.007 136.24C170.779 134.326 168.533 132.052 166.338 129.502C166.101 129.226 165.866 128.94 165.632 128.654C164.813 127.669 163.993 126.64 163.202 125.573C162.411 124.517 161.665 123.449 160.954 122.378C160.746 122.075 160.55 121.764 160.352 121.465C158.597 118.737 157.134 116.042 155.965 113.469C155.808 113.135 155.672 112.804 155.523 112.481C154.351 109.73 153.533 107.126 153.124 104.815C153.048 104.42 152.989 104.041 152.941 103.664C152.456 99.937 153.109 97.0572 155.046 95.6111C156.301 94.6759 159.948 91.1208 161.9 91.4638C163.85 91.8177 165.85 93.1254 167.921 95.0488C168.186 95.2983 168.459 95.5594 168.731 95.8317C172.708 99.8184 176.932 105.936 181.432 111.97C186.739 119.088 193.267 127.082 195.262 133.003C195.391 133.365 195.488 133.72 195.575 134.072C195.709 134.602 195.795 135.099 195.841 135.586Z" fill="black"/>
<g opacity="0.2">
<path d="M169.624 95.3134L168.73 95.8312L153.124 104.815C153.047 104.42 152.989 104.041 152.941 103.664L167.919 95.0492L169.08 94.3806L169.624 95.3134Z" fill="black"/>
</g>
<g opacity="0.2">
<path d="M172.041 104.216L155.964 113.47C155.807 113.135 155.671 112.804 155.522 112.482L171.512 103.275L172.041 104.216Z" fill="black"/>
</g>
<g opacity="0.2">
<path d="M181.559 120.741L166.337 129.5C166.1 129.225 165.865 128.938 165.632 128.652L181.02 119.797L181.559 120.741Z" fill="black"/>
</g>
<g opacity="0.2">
<path d="M177.134 113.059L160.953 122.378C160.744 122.075 160.548 121.764 160.35 121.465L176.594 112.116L177.134 113.059Z" fill="black"/>
</g>
<g opacity="0.2">
<path d="M188.704 128.464L173.891 136.984C173.589 136.749 173.303 136.495 173.006 136.239L188.164 127.521L188.704 128.464Z" fill="black"/>
</g>
<path d="M193.881 138.737C188.846 142.492 177.031 135.164 167.491 122.372C157.951 109.58 154.298 96.1661 159.333 92.4107C164.367 88.6559 176.182 95.983 185.722 108.775C195.262 121.569 198.915 134.982 193.881 138.737Z" fill="#39D24E"/>
<path opacity="0.2" d="M190.638 134.388C187.081 137.041 178.077 130.985 170.527 120.86C162.977 110.736 159.74 100.379 163.297 97.7259C166.854 95.0729 175.858 101.129 183.408 111.254C190.958 121.378 194.195 131.735 190.638 134.388Z" fill="white"/>
<path d="M280.598 135.345C281.351 141.58 268.89 148.127 253.048 150.04C237.205 151.954 223.751 148.451 222.997 142.216C222.823 140.771 221.713 135.631 222.818 134.209C226.478 129.496 238.15 128.932 250.32 127.462C261.648 126.094 273.529 122.633 277.967 126.714C280.657 129.188 280.383 133.568 280.598 135.345Z" fill="#00DE93"/>
<path opacity="0.2" d="M277.97 126.709C280.981 130.243 280.326 133.111 280.595 135.343C280.875 137.644 279.357 139.981 276.544 142.112C276.211 142.379 275.846 142.631 275.466 142.884C273.506 144.183 271.069 145.396 268.264 146.447C267.91 146.592 267.547 146.714 267.178 146.844C264.409 147.824 261.319 148.643 258.015 149.278C257.657 149.346 257.293 149.407 256.928 149.469C255.666 149.69 254.365 149.889 253.047 150.044C251.736 150.206 250.44 150.321 249.157 150.405C248.791 150.435 248.424 150.45 248.065 150.473C244.825 150.639 241.76 150.567 238.947 150.302C238.578 150.272 238.224 150.225 237.87 150.194C234.9 149.843 232.234 149.258 230.027 148.461C229.646 148.332 229.288 148.194 228.938 148.047C225.464 146.615 223.29 144.616 222.999 142.216C222.811 140.662 221.542 135.73 222.81 134.207C224.087 132.691 226.216 131.607 228.915 130.767C229.262 130.661 229.626 130.554 229.997 130.454C235.433 128.987 242.842 128.364 250.315 127.463C259.129 126.398 269.31 124.711 275.441 125.926C275.818 125.994 276.175 126.086 276.523 126.187C277.05 126.335 277.525 126.506 277.97 126.709Z" fill="black"/>
<g opacity="0.2">
<path d="M229.993 129.422L229.997 130.456L230.028 148.462C229.647 148.333 229.289 148.194 228.939 148.048L228.915 130.769L228.913 129.429L229.993 129.422Z" fill="black"/>
</g>
<g opacity="0.2">
<path d="M238.918 131.752L238.949 150.302C238.58 150.272 238.226 150.225 237.873 150.194L237.838 131.743L238.918 131.752Z" fill="black"/>
</g>
<g opacity="0.2">
<path d="M257.989 131.715L258.016 149.277C257.659 149.346 257.295 149.407 256.929 149.468L256.902 131.714L257.989 131.715Z" fill="black"/>
</g>
<g opacity="0.2">
<path d="M249.122 131.733L249.158 150.405C248.792 150.436 248.425 150.451 248.066 150.474L248.035 131.732L249.122 131.733Z" fill="black"/>
</g>
<g opacity="0.2">
<path d="M268.241 129.358L268.265 146.447C267.911 146.592 267.548 146.714 267.179 146.844L267.154 129.358L268.241 129.358Z" fill="black"/>
</g>
<path d="M252.401 144.726C268.244 142.812 280.477 136.206 279.724 129.972C278.971 123.737 265.517 120.234 249.674 122.148C233.831 124.061 221.599 130.667 222.352 136.902C223.105 143.136 236.559 146.639 252.401 144.726Z" fill="#00DE93"/>
<path opacity="0.2" d="M274.343 130.628C274.875 135.033 265.142 139.832 252.605 141.347C240.067 142.861 229.472 140.517 228.94 136.111C228.408 131.706 238.14 126.907 250.678 125.393C263.217 123.879 273.811 126.222 274.343 130.628Z" fill="white"/>
<path d="M247.704 88.5786C242.964 94.0397 227.745 88.4611 213.867 76.4145C199.99 64.3676 192.583 50.1745 197.324 44.7125C198.424 43.4465 201.955 38.5266 204.022 38.3707C210.873 37.8529 220.375 47.3833 231.034 56.6366C240.956 65.2496 253.093 72.7189 253.038 79.6606C253.007 83.8706 249.056 87.022 247.704 88.5786Z" fill="#455A64"/>
<path opacity="0.2" d="M253.046 79.6617C252.354 84.9632 249.402 86.6216 247.704 88.5762C245.957 90.5931 242.788 91.1028 238.795 90.3481C238.31 90.2699 237.812 90.1538 237.304 90.0248C234.68 89.3553 231.762 88.2109 228.697 86.6285C228.3 86.439 227.916 86.2233 227.519 86.0085C224.541 84.4026 221.456 82.3971 218.359 80.067C218.025 79.8152 217.691 79.5514 217.357 79.2861C216.193 78.38 215.016 77.4235 213.867 76.4175C212.717 75.4237 211.616 74.4063 210.553 73.3763C210.244 73.0872 209.947 72.7858 209.65 72.4967C207.006 69.8596 204.698 67.1867 202.75 64.5793C202.491 64.2405 202.257 63.9027 202.011 63.5765C200.014 60.7699 198.455 58.0418 197.429 55.5415C197.245 55.1168 197.086 54.704 196.941 54.2918C195.478 50.2188 195.506 46.8183 197.329 44.7144C198.511 43.3536 201.74 38.4591 204.021 38.3653C206.301 38.2842 208.872 39.2637 211.674 40.9185C212.033 41.1333 212.405 41.3607 212.778 41.5998C218.231 45.1076 224.489 50.9506 231.033 56.6346C238.753 63.3367 248.062 70.7251 251.762 76.8966C251.996 77.2723 252.191 77.6475 252.375 78.0233C252.655 78.5878 252.875 79.1249 253.046 79.6617Z" fill="black"/>
<g opacity="0.2">
<path d="M213.654 40.7989L212.776 41.6013L197.427 55.5431C197.244 55.1183 197.085 54.7056 196.939 54.2934L211.672 40.92L212.814 39.8823L213.654 40.7989Z" fill="black"/>
</g>
<g opacity="0.2">
<path d="M218.561 50.2191L202.748 64.5805C202.489 64.2418 202.255 63.9039 202.009 63.5778L217.735 49.2903L218.561 50.2191Z" fill="black"/>
</g>
<g opacity="0.2">
<path d="M233.33 66.4713L218.358 80.0673C218.023 79.8155 217.69 79.5517 217.355 79.2864L232.491 65.542L233.33 66.4713Z" fill="black"/>
</g>
<g opacity="0.2">
<path d="M226.465 58.9167L210.551 73.3768C210.243 73.0877 209.945 72.7864 209.649 72.4972L225.625 57.9875L226.465 58.9167Z" fill="black"/>
</g>
<g opacity="0.2">
<path d="M243.266 73.4038L228.696 86.6288C228.299 86.4393 227.915 86.2236 227.518 86.0088L242.427 72.4751L243.266 73.4038Z" fill="black"/>
</g>
<path d="M251.605 83.6845C256.346 78.2233 248.939 64.0308 235.062 51.9845C221.185 39.9383 206.092 34.6001 201.351 40.0613C196.611 45.5225 204.017 59.715 217.894 71.7612C231.772 83.8074 246.864 89.1457 251.605 83.6845Z" fill="#455A64"/>
<path opacity="0.2" d="M246.898 79.5928C243.548 83.4511 231.931 78.851 220.949 69.3169C209.967 59.7827 203.78 48.9269 207.129 45.068C210.478 41.2091 222.096 45.8098 233.079 55.343C244.061 64.8781 250.248 75.7345 246.898 79.5928Z" fill="white"/>
<path d="M235.529 293.032L136.647 241.469C133.142 239.641 129.331 238.465 125.407 238.001L-6.16787 222.419C-10.9441 221.853 -15.4441 224.649 -16.9824 229.139L-48.2897 320.509C-50.4379 326.778 -45.9852 333.416 -39.2895 333.924L93.7342 344.02L190.245 397.369C195.315 400.172 201.68 397.946 203.785 392.634L237.549 307.398C239.293 302.996 239.72 295.372 235.529 293.032Z" fill="#00DE93"/>
<path opacity="0.1" d="M235.529 293.032L136.647 241.469C133.142 239.641 129.331 238.465 125.407 238.001L-6.16787 222.419C-10.9441 221.853 -15.4441 224.649 -16.9824 229.139L-48.2897 320.509C-50.4379 326.778 -45.9852 333.416 -39.2895 333.924L93.7342 344.02L190.245 397.369C195.315 400.172 201.68 397.946 203.785 392.634L237.549 307.398C239.293 302.996 239.72 295.372 235.529 293.032Z" fill="black"/>
<path d="M75.265 125.571L-2.51599 141.815L29.107 293.233L106.888 276.989L75.265 125.571Z" fill="#00DE93"/>
<path opacity="0.5" d="M106.904 276.989L29.1235 293.234L-2.50464 141.821L48.5398 131.156L75.2806 125.568L76.2927 130.403L106.904 276.989Z" fill="#FAFAFA"/>
<path d="M72.023 131.736L3.38721 146.07L32.9683 287.711L101.604 273.377L72.023 131.736Z" stroke="#00DE93" stroke-miterlimit="10"/>
<path d="M56.0269 226.476C63.8971 224.832 68.6055 215.498 66.5435 205.628C64.4814 195.758 56.4298 189.09 48.5596 190.734C40.6895 192.379 35.9811 201.713 38.0431 211.582C40.1051 221.452 48.1568 228.121 56.0269 226.476Z" fill="#00DE93"/>
<path opacity="0.1" d="M52.2707 253.296L30.7715 248.8L48.5396 131.156L75.2805 125.568L76.2926 130.403L52.2707 253.296Z" fill="black"/>
<path d="M140.9 112.879L62.8856 97.795L33.5217 249.667L111.536 264.751L140.9 112.879Z" fill="#00DE93"/>
<path opacity="0.5" d="M140.9 112.879L62.8856 97.795L33.5217 249.667L111.536 264.751L140.9 112.879Z" fill="#FAFAFA"/>
<path d="M135.526 117.311L66.6851 104L39.2172 246.065L108.059 259.376L135.526 117.311Z" stroke="#00DE93" stroke-miterlimit="10"/>
<path d="M84.1244 198.486C92.0177 200.012 99.968 193.225 101.882 183.326C103.796 173.427 98.9486 164.165 91.0553 162.639C83.162 161.113 75.2116 167.9 73.2977 177.799C71.3838 187.698 76.231 196.96 84.1244 198.486Z" fill="#00DE93"/>
<path d="M234.181 296.701L136.755 245.671C133.301 243.862 129.543 242.704 125.67 242.259L-4.20412 227.297C-8.91853 226.754 -13.376 229.566 -14.9152 234.055L-46.2476 325.416C-48.3973 331.686 -44.03 338.292 -37.4193 338.768L93.9111 348.246L188.986 401.072C193.981 403.848 200.278 401.596 202.38 396.283L236.11 311.035C237.854 306.633 238.31 299.018 234.181 296.701Z" fill="#00DE93"/>
<path opacity="0.2" d="M132.094 262.176L215.94 305.531" stroke="black" stroke-width="2" stroke-miterlimit="10" stroke-linecap="round" stroke-linejoin="round"/>
<path opacity="0.2" d="M121.157 258.474L95.3696 335.169" stroke="black" stroke-width="2" stroke-miterlimit="10" stroke-linecap="round" stroke-linejoin="round"/>
<path opacity="0.2" d="M-13.9666 260.858L-34.7527 319.287C-34.7527 319.287 -14.3839 303.348 -13.9666 260.858Z" fill="#FAFAFA"/>
<path opacity="0.2" d="M-12.9665 262.289C-13.1779 263.455 102.661 278.978 102.661 278.978C102.661 278.978 87.9864 308.823 50.9443 307.802C13.9028 306.779 -12.9665 262.289 -12.9665 262.289Z" fill="#FAFAFA"/>
<path d="M47.3447 300.429C49.5499 301.748 52.4062 301.029 53.7244 298.823C55.0426 296.618 54.3235 293.762 52.1183 292.444C49.9131 291.125 47.0568 291.844 45.7386 294.05C44.4204 296.255 45.1394 299.111 47.3447 300.429Z" fill="#00DE93"/>
<path opacity="0.2" d="M102.709 279.007C102.709 279.007 103.86 303.041 83.5729 330.701L102.709 279.007Z" fill="black"/>
<g opacity="0.2">
<path d="M2.14375 238.738L110.968 252.145" stroke="#FAFAFA" stroke-linecap="round" stroke-linejoin="round" stroke-dasharray="5.2 5.2"/>
<path d="M113.758 252.489L116.442 252.82" stroke="#FAFAFA" stroke-linecap="round" stroke-linejoin="round"/>
</g>
<path opacity="0.2" d="M125.688 279.05L209.535 322.406" stroke="black" stroke-width="2" stroke-miterlimit="10" stroke-linecap="round" stroke-linejoin="round"/>
<path opacity="0.2" d="M117.956 300.249L201.801 343.606" stroke="black" stroke-width="2" stroke-miterlimit="10" stroke-linecap="round" stroke-linejoin="round"/>
<path d="M256.463 223.996L196.078 280.498C191.811 284.492 185.696 285.268 180.73 282.934C179.188 282.205 177.747 281.18 176.5 279.851L145.424 246.639C140.202 241.05 140.492 232.284 146.071 227.06L206.47 170.552C209.705 167.532 213.999 166.35 218.069 166.987C221.017 167.443 223.844 168.855 226.047 171.209L257.125 204.41C262.346 210 262.056 218.765 256.463 223.996Z" fill="#182125"/>
<path opacity="0.2" d="M256.463 223.996L196.078 280.498C191.811 284.492 185.696 285.268 180.73 282.934C179.188 282.205 177.747 281.18 176.5 279.851L145.424 246.639C140.202 241.05 140.492 232.284 146.071 227.06L206.47 170.552C209.705 167.532 213.999 166.35 218.069 166.987C221.017 167.443 223.844 168.855 226.047 171.209L257.125 204.41C262.346 210 262.056 218.765 256.463 223.996Z" fill="black"/>
<path d="M252.716 222.858L192.331 279.359C189.092 282.389 184.787 283.568 180.729 282.935C179.188 282.206 177.746 281.18 176.499 279.851L145.423 246.64C140.202 241.051 140.491 232.285 146.07 227.061L206.469 170.553C209.705 167.533 213.999 166.35 218.068 166.988C219.61 167.717 221.051 168.742 222.299 170.071L253.377 203.272C258.598 208.861 258.308 217.626 252.716 222.858Z" fill="#182125"/>
<path opacity="0.5" d="M252.716 222.858L192.331 279.359C189.092 282.389 184.787 283.568 180.729 282.935C179.188 282.206 177.746 281.18 176.499 279.851L145.423 246.64C140.202 241.051 140.491 232.285 146.07 227.061L206.469 170.553C209.705 167.533 213.999 166.35 218.068 166.988C219.61 167.717 221.051 168.742 222.299 170.071L253.377 203.272C258.598 208.861 258.308 217.626 252.716 222.858Z" fill="#FAFAFA"/>
<path d="M196.546 197.13L193.208 193.599L148.136 236.212L151.475 239.744L196.546 197.13Z" fill="#FAFAFA"/>
<path d="M156.238 244.824L152.918 241.275L197.98 198.669L201.3 202.218L156.238 244.824Z" fill="#FAFAFA"/>
<path d="M161.069 249.988L157.749 246.44L202.811 203.834L206.132 207.383L161.069 249.988Z" fill="#FAFAFA"/>
<path opacity="0.5" d="M225.497 228.062L222.159 224.531L177.087 267.144L180.426 270.676L225.497 228.062Z" fill="black"/>
<path d="M233.623 213.271L227.469 219.033L225.492 216.943C223.501 214.833 223.596 211.512 225.697 209.516L229.755 205.678L233.735 209.922C234.623 210.882 234.574 212.377 233.623 213.271Z" fill="#FAFAFA"/>
<path d="M234.518 209.181L230.539 204.937L235.02 200.708C237.12 198.712 240.451 198.812 242.447 200.913L244.501 203.086L237.867 209.292C236.911 210.195 235.416 210.146 234.518 209.181Z" fill="#FAFAFA"/>
<path d="M237.708 214.175L241.71 218.445L237.714 222.22C235.613 224.216 232.286 224.131 230.296 222.021L228.211 219.816L234.359 214.064C235.309 213.17 236.805 213.219 237.708 214.175Z" fill="#FAFAFA"/>
<path d="M247.038 213.412L242.493 217.704L238.492 213.434C237.603 212.474 237.653 210.979 238.603 210.085L245.237 203.879L247.237 205.994C249.233 208.095 249.138 211.416 247.038 213.412Z" fill="#FAFAFA"/>
</svg>
