<svg width="192" height="163" viewBox="0 0 192 163" fill="none" xmlns="http://www.w3.org/2000/svg">
<path d="M144.476 149.134C144.476 149.134 141.932 143.584 144.839 138.113C147.745 132.642 148.587 131.353 146.735 130.232C144.882 129.112 144.032 134.609 144.032 134.609C144.032 134.609 142.47 130.827 143.76 126.869C145.05 122.911 145.858 116.464 144.097 115.772C142.336 115.081 143.761 123.815 142.233 126.792C142.233 126.792 140.949 123.478 140.738 120.299C140.527 117.119 140.857 112.043 139.466 110.741C138.075 109.439 137.185 110.34 138.551 117.355C139.918 124.371 139.908 130.074 139.908 130.074C139.908 130.074 136.889 120.871 134.863 120.603C132.838 120.334 132.84 123.315 134.574 125.9C136.308 128.485 139.652 133.116 140.201 135.499C140.201 135.499 136.888 128.573 133.907 130.696C130.927 132.818 136.501 137.001 138.986 138.513C141.471 140.025 143.196 149.501 143.196 149.501L144.476 149.134Z" fill="#00DE93"/>
<path opacity="0.2" d="M144.476 149.134C144.476 149.134 141.932 143.584 144.839 138.113C147.745 132.642 148.587 131.353 146.735 130.232C144.882 129.112 144.032 134.609 144.032 134.609C144.032 134.609 142.47 130.827 143.76 126.869C145.05 122.911 145.858 116.464 144.097 115.772C142.336 115.081 143.761 123.815 142.233 126.792C142.233 126.792 140.949 123.478 140.738 120.299C140.527 117.119 140.857 112.043 139.466 110.741C138.075 109.439 137.185 110.34 138.551 117.355C139.918 124.371 139.908 130.074 139.908 130.074C139.908 130.074 136.889 120.871 134.863 120.603C132.838 120.334 132.84 123.315 134.574 125.9C136.308 128.485 139.652 133.116 140.201 135.499C140.201 135.499 136.888 128.573 133.907 130.696C130.927 132.818 136.501 137.001 138.986 138.513C141.471 140.025 143.196 149.501 143.196 149.501L144.476 149.134Z" fill="black"/>
<path d="M142.468 151.41C142.468 151.41 144.945 145.823 141.974 140.395C139.002 134.968 138.144 133.692 139.983 132.544C141.822 131.395 142.738 136.88 142.738 136.88C142.738 136.88 144.254 133.075 142.917 129.136C141.58 125.198 140.694 118.763 142.447 118.046C144.2 117.328 142.88 126.083 144.444 129.037C144.444 129.037 145.687 125.704 145.86 122.522C146.033 119.34 145.642 114.269 147.017 112.946C148.392 111.623 149.294 112.511 148.011 119.547C146.729 126.582 146.808 132.285 146.808 132.285C146.808 132.285 149.716 123.037 151.738 122.739C153.76 122.44 153.793 125.42 152.09 128.031C150.387 130.642 147.099 135.323 146.58 137.713C146.58 137.713 149.81 130.739 152.815 132.817C155.821 134.895 150.297 139.161 147.831 140.71C145.364 142.258 143.753 151.758 143.753 151.758L142.468 151.41Z" fill="#00DE93"/>
<path d="M153.892 147.427H133.431L135.086 162.069H152.236L153.892 147.427Z" fill="#263238"/>
<path d="M189.893 98.6H81.7512C81.0481 98.6 80.4785 98.0304 80.4785 97.3273V1.27267C80.4785 0.569567 81.0481 0 81.7512 0H189.893C190.595 0 191.165 0.569567 191.165 1.27267V97.3273C191.165 98.0299 190.595 98.6 189.893 98.6Z" fill="#00DE93"/>
<path opacity="0.6" d="M80.4785 8.77722V97.3274C80.4785 98.03 80.951 98.6 81.5339 98.6H190.11C190.693 98.6 191.165 98.0305 191.165 97.3274V8.77722H80.4785Z" fill="white"/>
<path d="M189.853 13.9978H81.7908V92.2002H189.853V13.9978Z" fill="white"/>
<path opacity="0.6" d="M187.551 5.68877C188.446 5.68877 189.173 4.99451 189.173 4.13809C189.173 3.28167 188.446 2.5874 187.551 2.5874C186.655 2.5874 185.929 3.28167 185.929 4.13809C185.929 4.99451 186.655 5.68877 187.551 5.68877Z" fill="white"/>
<path opacity="0.6" d="M182.234 5.68877C183.13 5.68877 183.856 4.99451 183.856 4.13809C183.856 3.28167 183.13 2.5874 182.234 2.5874C181.338 2.5874 180.612 3.28167 180.612 4.13809C180.612 4.99451 181.338 5.68877 182.234 5.68877Z" fill="white"/>
<path opacity="0.6" d="M178.539 4.13815C178.539 4.99453 177.813 5.68884 176.918 5.68884C176.022 5.68884 175.296 4.99453 175.296 4.13815C175.296 3.28177 176.022 2.58746 176.918 2.58746C177.813 2.58746 178.539 3.28177 178.539 4.13815Z" fill="white"/>
<path d="M104.814 23.1268V43.2994L99.6256 49.5555H88.1387V23.1268H104.814Z" fill="#00DE93"/>
<path opacity="0.7" d="M104.814 23.1268V43.2994L99.6256 49.5555H88.1387V23.1268H104.814Z" fill="white"/>
<path opacity="0.3" d="M104.814 43.2994L99.6255 49.5554V43.2994H104.814Z" fill="#00DE93"/>
<path opacity="0.3" d="M102.23 26.9381H90.7236V27.6957H102.23V26.9381Z" fill="#00DE93"/>
<path opacity="0.3" d="M102.23 29.8086H90.7236V30.5661H102.23V29.8086Z" fill="#00DE93"/>
<path opacity="0.3" d="M102.23 32.679H90.7236V33.4366H102.23V32.679Z" fill="#00DE93"/>
<path opacity="0.3" d="M102.23 35.5494H90.7236V36.307H102.23V35.5494Z" fill="#00DE93"/>
<path opacity="0.3" d="M99.2538 38.4204H90.7236V39.178H99.2538V38.4204Z" fill="#00DE93"/>
<path d="M131.263 23.1267V43.2994L126.074 49.5554H114.587V23.1267H131.263Z" fill="#00DE93"/>
<path opacity="0.7" d="M131.263 23.1267V43.2994L126.074 49.5554H114.587V23.1267H131.263Z" fill="white"/>
<path opacity="0.3" d="M131.262 43.2994L126.074 49.5554V43.2994H131.262Z" fill="#00DE93"/>
<path opacity="0.3" d="M128.678 26.938H117.172V27.6956H128.678V26.938Z" fill="#00DE93"/>
<path opacity="0.3" d="M128.678 29.8085H117.172V30.5661H128.678V29.8085Z" fill="#00DE93"/>
<path opacity="0.3" d="M128.678 32.679H117.172V33.4365H128.678V32.679Z" fill="#00DE93"/>
<path opacity="0.3" d="M128.678 35.5494H117.172V36.3069H128.678V35.5494Z" fill="#00DE93"/>
<path opacity="0.3" d="M125.703 38.4203H117.172V39.1779H125.703V38.4203Z" fill="#00DE93"/>
<path d="M157.711 23.1267V43.2994L152.523 49.5554H141.036V23.1267H157.711Z" fill="#00DE93"/>
<path opacity="0.7" d="M157.711 23.1267V43.2994L152.523 49.5554H141.036V23.1267H157.711Z" fill="white"/>
<path opacity="0.3" d="M157.711 43.2994L152.523 49.5554V43.2994H157.711Z" fill="#00DE93"/>
<path opacity="0.3" d="M155.126 26.938H143.62V27.6956H155.126V26.938Z" fill="#00DE93"/>
<path opacity="0.3" d="M155.126 29.8085H143.62V30.5661H155.126V29.8085Z" fill="#00DE93"/>
<path opacity="0.3" d="M155.126 32.679H143.62V33.4365H155.126V32.679Z" fill="#00DE93"/>
<path opacity="0.3" d="M155.126 35.5494H143.62V36.3069H155.126V35.5494Z" fill="#00DE93"/>
<path opacity="0.3" d="M152.151 38.4203H143.62V39.1779H152.151V38.4203Z" fill="#00DE93"/>
<path d="M184.16 23.1267V43.2994L178.971 49.5554H167.485V23.1267H184.16Z" fill="#00DE93"/>
<path opacity="0.7" d="M184.16 23.1267V43.2994L178.971 49.5554H167.485V23.1267H184.16Z" fill="white"/>
<path opacity="0.3" d="M184.16 43.2994L178.971 49.5554V43.2994H184.16Z" fill="#00DE93"/>
<path opacity="0.3" d="M181.575 26.938H170.069V27.6956H181.575V26.938Z" fill="#00DE93"/>
<path opacity="0.3" d="M181.575 29.8085H170.069V30.5661H181.575V29.8085Z" fill="#00DE93"/>
<path opacity="0.3" d="M181.575 32.679H170.069V33.4365H181.575V32.679Z" fill="#00DE93"/>
<path opacity="0.3" d="M181.575 35.5494H170.069V36.3069H181.575V35.5494Z" fill="#00DE93"/>
<path opacity="0.3" d="M178.6 38.4203H170.069V39.1779H178.6V38.4203Z" fill="#00DE93"/>
<path d="M104.814 58.0507V78.2234L99.6256 84.4794H88.1387V58.0507H104.814Z" fill="#00DE93"/>
<path opacity="0.7" d="M104.814 58.0507V78.2234L99.6256 84.4794H88.1387V58.0507H104.814Z" fill="white"/>
<path opacity="0.3" d="M104.814 78.2234L99.6255 84.4794V78.2234H104.814Z" fill="#00DE93"/>
<path opacity="0.3" d="M102.23 61.8621H90.7236V62.6196H102.23V61.8621Z" fill="#00DE93"/>
<path opacity="0.3" d="M102.23 64.7325H90.7236V65.4901H102.23V64.7325Z" fill="#00DE93"/>
<path opacity="0.3" d="M102.23 67.603H90.7236V68.3605H102.23V67.603Z" fill="#00DE93"/>
<path opacity="0.3" d="M102.23 70.4734H90.7236V71.2309H102.23V70.4734Z" fill="#00DE93"/>
<path opacity="0.3" d="M99.2538 73.3444H90.7236V74.102H99.2538V73.3444Z" fill="#00DE93"/>
<path d="M131.263 58.0507V78.2234L126.074 84.4794H114.587V58.0507H131.263Z" fill="#00DE93"/>
<path opacity="0.7" d="M131.263 58.0507V78.2234L126.074 84.4794H114.587V58.0507H131.263Z" fill="white"/>
<path opacity="0.3" d="M131.262 78.2234L126.074 84.4794V78.2234H131.262Z" fill="#00DE93"/>
<path opacity="0.3" d="M128.678 61.8621H117.172V62.6196H128.678V61.8621Z" fill="#00DE93"/>
<path opacity="0.3" d="M128.678 64.7325H117.172V65.4901H128.678V64.7325Z" fill="#00DE93"/>
<path opacity="0.3" d="M128.678 67.603H117.172V68.3605H128.678V67.603Z" fill="#00DE93"/>
<path opacity="0.3" d="M128.678 70.4734H117.172V71.2309H128.678V70.4734Z" fill="#00DE93"/>
<path opacity="0.3" d="M125.703 73.3444H117.172V74.102H125.703V73.3444Z" fill="#00DE93"/>
<path d="M157.711 58.0507V78.2234L152.523 84.4794H141.036V58.0507H157.711Z" fill="#00DE93"/>
<path opacity="0.7" d="M157.711 58.0507V78.2234L152.523 84.4794H141.036V58.0507H157.711Z" fill="white"/>
<path opacity="0.3" d="M157.711 78.2234L152.523 84.4794V78.2234H157.711Z" fill="#00DE93"/>
<path opacity="0.3" d="M155.126 61.8621H143.62V62.6196H155.126V61.8621Z" fill="#00DE93"/>
<path opacity="0.3" d="M155.126 64.7325H143.62V65.4901H155.126V64.7325Z" fill="#00DE93"/>
<path opacity="0.3" d="M155.126 67.603H143.62V68.3605H155.126V67.603Z" fill="#00DE93"/>
<path opacity="0.3" d="M155.126 70.4734H143.62V71.2309H155.126V70.4734Z" fill="#00DE93"/>
<path opacity="0.3" d="M152.151 73.3444H143.62V74.102H152.151V73.3444Z" fill="#00DE93"/>
<path d="M184.16 58.0507V78.2234L178.971 84.4794H167.485V58.0507H184.16Z" fill="#00DE93"/>
<path opacity="0.7" d="M184.16 58.0507V78.2234L178.971 84.4794H167.485V58.0507H184.16Z" fill="white"/>
<path opacity="0.3" d="M184.16 78.2234L178.971 84.4794V78.2234H184.16Z" fill="#00DE93"/>
<path opacity="0.3" d="M181.575 61.8621H170.069V62.6196H181.575V61.8621Z" fill="#00DE93"/>
<path opacity="0.3" d="M181.575 64.7325H170.069V65.4901H181.575V64.7325Z" fill="#00DE93"/>
<path opacity="0.3" d="M181.575 67.603H170.069V68.3605H181.575V67.603Z" fill="#00DE93"/>
<path opacity="0.3" d="M181.575 70.4734H170.069V71.2309H181.575V70.4734Z" fill="#00DE93"/>
<path opacity="0.3" d="M178.6 73.3444H170.069V74.102H178.6V73.3444Z" fill="#00DE93"/>
<path opacity="0.1" d="M143.186 65.7597H116.57C115.335 65.7597 114.334 64.7593 114.334 63.5246V43.5769C114.334 42.3427 115.335 41.3417 116.57 41.3417H143.186C144.42 41.3417 145.421 42.3422 145.421 43.5769V63.5246C145.421 64.7593 144.42 65.7597 143.186 65.7597Z" fill="black"/>
<g opacity="0.1">
<path d="M141.284 40.2052H138.202V36.8725C138.202 32.4942 134.64 28.9319 130.261 28.9319C125.883 28.9319 122.321 32.4942 122.321 36.8725V40.2052H119.239V36.8725C119.239 30.7947 124.184 25.8504 130.261 25.8504C136.339 25.8504 141.284 30.7952 141.284 36.8725V40.2052Z" fill="black"/>
</g>
<path d="M130.346 64.7325H103.73C102.496 64.7325 101.495 63.732 101.495 62.4974V42.5496C101.495 41.3155 102.495 40.3145 103.73 40.3145H130.346C131.58 40.3145 132.581 41.315 132.581 42.5496V62.4974C132.581 63.732 131.58 64.7325 130.346 64.7325Z" fill="#263238"/>
<path opacity="0.2" d="M124.725 64.7325H103.73C102.496 64.7325 101.495 63.732 101.495 62.4974V42.5496C101.495 41.3155 102.495 40.3145 103.73 40.3145H124.725C125.959 40.3145 126.96 41.315 126.96 42.5496V62.4974C126.96 63.732 125.959 64.7325 124.725 64.7325Z" fill="white"/>
<path d="M115.788 49.4754C115.788 47.7919 114.763 46.4273 113.499 46.4273C112.235 46.4273 111.21 47.7919 111.21 49.4754C111.21 50.7558 111.803 51.8498 112.643 52.3012L112.219 58.6681H114.777L114.353 52.3012C115.195 51.8503 115.788 50.7558 115.788 49.4754Z" fill="#263238"/>
<path d="M128.444 39.178H125.363V35.8453C125.363 31.467 121.801 27.9048 117.422 27.9048C113.043 27.9048 109.481 31.467 109.481 35.8453V39.178H106.4V35.8453C106.4 29.7675 111.344 24.8232 117.422 24.8232C123.5 24.8232 128.444 29.7681 128.444 35.8453V39.178Z" fill="#263238"/>
<g opacity="0.4">
<path d="M128.444 39.178H125.363V35.8453C125.363 31.467 121.801 27.9048 117.422 27.9048C113.043 27.9048 109.481 31.467 109.481 35.8453V39.178H106.4V35.8453C106.4 29.7675 111.344 24.8232 117.422 24.8232C123.5 24.8232 128.444 29.7681 128.444 35.8453V39.178Z" fill="white"/>
</g>
<path opacity="0.2" d="M128.443 35.8459V39.179H126.352V35.4658C126.352 29.9037 121.843 25.3995 116.281 25.3995C114.18 25.3995 112.234 26.0517 110.637 27.1714C112.511 25.7025 114.869 24.8243 117.421 24.8243C123.497 24.8243 128.443 29.765 128.443 35.8459Z" fill="white"/>
<path d="M84.8942 94.8981H72.4438V94.4179H75.2557C75.6466 94.4179 75.9778 94.1334 76.0456 93.7508L77.3029 86.2621L77.5494 84.7881H81.8143L85.6287 93.7893C85.85 94.3162 85.4638 94.8981 84.8942 94.8981Z" fill="#00DE93"/>
<path opacity="0.4" d="M84.8942 94.8981H72.4438V94.4179H75.2557C75.6466 94.4179 75.9778 94.1334 76.0456 93.7508L77.3029 86.2621L77.5494 84.7881H81.8143L85.6287 93.7893C85.85 94.3162 85.4638 94.8981 84.8942 94.8981Z" fill="white"/>
<path opacity="0.2" d="M84.9113 94.4184H75.2563C75.6472 94.4184 75.9785 94.1339 76.0462 93.7512L77.3035 86.2626H81.7722L85.1706 94.0234C85.2513 94.2058 85.1152 94.4184 84.9113 94.4184Z" fill="black"/>
<path d="M91.5893 87.5481H66.6865C66.4379 87.5481 66.2741 87.3463 66.3214 87.0977L69.8589 68.3867C69.9062 68.1381 70.146 67.9363 70.3946 67.9363H95.2974C95.546 67.9363 95.7098 68.1381 95.6626 68.3867L92.125 87.0977C92.0777 87.3463 91.8379 87.5481 91.5893 87.5481Z" fill="#00DE93"/>
<path opacity="0.4" d="M91.5893 87.5481H66.6865C66.4379 87.5481 66.2741 87.3463 66.3214 87.0977L69.8589 68.3867C69.9062 68.1381 70.146 67.9363 70.3946 67.9363H95.2974C95.546 67.9363 95.7098 68.1381 95.6626 68.3867L92.125 87.0977C92.0777 87.3463 91.8379 87.5481 91.5893 87.5481Z" fill="white"/>
<path d="M91.0759 87.5481H66.1731C65.9245 87.5481 65.7607 87.3463 65.8079 87.0977L69.3455 68.3867C69.3928 68.1381 69.6326 67.9363 69.8812 67.9363H94.784C95.0326 67.9363 95.1964 68.1381 95.1492 68.3867L91.6116 87.0977C91.5643 87.3463 91.3245 87.5481 91.0759 87.5481Z" fill="#263238"/>
<path d="M90.7456 86.4007H66.9373L70.2114 69.0836H94.0197L90.7456 86.4007Z" fill="#00DE93"/>
<path d="M49.2463 94.8977V94.3137L58.833 92.3765H77.5804C78.2763 92.3765 78.8403 92.9404 78.8403 93.6363C78.8403 94.3322 78.2763 94.8961 77.5804 94.8961L49.2463 94.8977Z" fill="#00DE93"/>
<path opacity="0.4" d="M78.8385 93.6382C78.8385 93.9823 78.6998 94.3008 78.4738 94.5267C78.2427 94.7527 77.9295 94.8965 77.5802 94.8965H49.2456V94.3162L58.8343 92.3748H77.5802C78.2787 92.3748 78.8385 92.9398 78.8385 93.6382Z" fill="white"/>
<path opacity="0.4" d="M78.8386 93.6382C78.8386 93.9823 78.6999 94.3007 78.474 94.5267C78.2428 94.7527 77.9296 94.8965 77.5803 94.8965H66.1941V94.3161L75.7828 92.3748H77.5803C78.2788 92.3748 78.8386 92.9397 78.8386 93.6382Z" fill="white"/>
<path d="M85.6921 162.069H88.257L92.8664 97.9009H89.4629L85.6921 162.069Z" fill="#263238"/>
<path opacity="0.1" d="M85.6909 162.069H88.2578L92.6418 101.088L92.8678 98.0041H89.4637L89.2794 101.088L85.6909 162.069Z" fill="white"/>
<path opacity="0.2" d="M89.2793 100.935H92.6418L92.8677 98.0041H89.4637L89.2793 100.935Z" fill="black"/>
<path d="M66.8666 162.069H69.432L69.8505 97.9009H66.4475L66.8666 162.069Z" fill="#263238"/>
<path opacity="0.1" d="M66.4463 98.0041L66.5131 108.357L66.8649 162.069H69.4318L69.7836 108.357L69.8503 98.0041H66.4463Z" fill="white"/>
<path opacity="0.2" d="M66.4463 98.0041L66.5131 108.472H69.7836L69.8503 98.0041H66.4463Z" fill="black"/>
<path d="M39.6323 162.069H42.1977L46.8066 97.9009H43.4036L39.6323 162.069Z" fill="#263238"/>
<path opacity="0.1" d="M39.6309 162.069H42.1978L46.5817 101.088L46.8077 98.0041H43.4037L43.2193 101.088L39.6309 162.069Z" fill="white"/>
<path opacity="0.2" d="M43.2192 100.935H46.5817L46.8077 98.0041H43.4036L43.2192 100.935Z" fill="black"/>
<path d="M115.038 162.069H117.603L113.832 97.9009H110.429L115.038 162.069Z" fill="#263238"/>
<path opacity="0.1" d="M110.429 98.0041L110.655 101.088L115.039 162.069H117.602L114.018 101.088L113.833 98.0041H110.429Z" fill="white"/>
<path opacity="0.2" d="M113.833 98.0041H110.429L110.655 100.935H114.018L113.833 98.0041Z" fill="black"/>
<path d="M41.8162 99.508H115.419C116.032 99.508 116.529 99.0108 116.529 98.3976V96.2939H40.7058V98.3976C40.7058 99.0108 41.203 99.508 41.8162 99.508Z" fill="#00DE93"/>
<path opacity="0.4" d="M41.8162 99.508H115.419C116.032 99.508 116.529 99.0108 116.529 98.3976V96.2939H40.7058V98.3976C40.7058 99.0108 41.203 99.508 41.8162 99.508Z" fill="white"/>
<path opacity="0.2" d="M40.7058 97.9007L116.529 97.9007V96.2937L40.7058 96.2937V97.9007Z" fill="black"/>
<path d="M39.1157 96.7131H118.119C118.619 96.7131 119.025 96.3078 119.025 95.8076C119.025 95.3079 118.619 94.9022 118.119 94.9022H39.1157C38.6154 94.9022 38.2102 95.3074 38.2102 95.8076C38.2107 96.3073 38.6159 96.7131 39.1157 96.7131Z" fill="#00DE93"/>
<path opacity="0.4" d="M39.1157 96.7131H118.119C118.619 96.7131 119.025 96.3078 119.025 95.8076C119.025 95.3079 118.619 94.9022 118.119 94.9022H39.1157C38.6154 94.9022 38.2102 95.3074 38.2102 95.8076C38.2107 96.3073 38.6159 96.7131 39.1157 96.7131Z" fill="white"/>
<path opacity="0.3" d="M71.5344 78.7846C71.3048 78.7846 71.0896 78.6835 70.9437 78.5063C70.7974 78.3286 70.7393 78.098 70.783 77.8725L71.1035 76.2326C71.1928 75.7735 71.597 75.4407 72.0649 75.4407H85.4213C85.6508 75.4407 85.866 75.5419 86.0119 75.719C86.1582 75.8967 86.2163 76.1273 86.1726 76.3528L85.8527 77.9927C85.7633 78.4518 85.3591 78.7846 84.8912 78.7846H71.5344Z" fill="white"/>
<path d="M84.8907 78.5275H71.5344C71.2144 78.5275 70.9741 78.2357 71.0352 77.9214L71.3551 76.281C71.4214 75.9415 71.7188 75.6971 72.0644 75.6971H85.4207C85.7407 75.6971 85.9811 75.9888 85.92 76.3031L85.6 77.9435C85.5337 78.283 85.2364 78.5275 84.8907 78.5275Z" fill="white"/>
<path d="M73.961 77.1125C73.8773 77.5408 73.4952 77.8885 73.1074 77.8885C72.7197 77.8885 72.4726 77.5414 72.5563 77.1125C72.6401 76.6842 73.0222 76.3365 73.4099 76.3365C73.7982 76.3365 74.0447 76.6842 73.961 77.1125Z" fill="#263238"/>
<path d="M76.0487 77.1126C75.965 77.5409 75.5829 77.8886 75.1952 77.8886C74.8074 77.8886 74.5609 77.5414 74.6441 77.1126C74.7278 76.6842 75.1099 76.3365 75.4977 76.3365C75.8854 76.3365 76.1319 76.6842 76.0487 77.1126Z" fill="#263238"/>
<path d="M78.136 77.1126C78.0523 77.5409 77.6702 77.8886 77.2825 77.8886C76.8947 77.8886 76.6477 77.5414 76.7314 77.1126C76.8151 76.6842 77.1972 76.3365 77.585 76.3365C77.9732 76.3365 78.2198 76.6842 78.136 77.1126Z" fill="#263238"/>
<path d="M80.2237 77.1126C80.14 77.5409 79.7579 77.8886 79.3701 77.8886C78.9824 77.8886 78.7353 77.5414 78.819 77.1126C78.9027 76.6842 79.2849 76.3365 79.6726 76.3365C80.0604 76.3365 80.3069 76.6842 80.2237 77.1126Z" fill="#263238"/>
<path d="M82.3109 77.1126C82.2272 77.5409 81.8451 77.8886 81.4574 77.8886C81.0696 77.8886 80.8231 77.5414 80.9063 77.1126C80.99 76.6842 81.3721 76.3365 81.7599 76.3365C82.1481 76.3365 82.3947 76.6842 82.3109 77.1126Z" fill="#263238"/>
<path d="M84.3987 77.1126C84.315 77.5409 83.9329 77.8886 83.5452 77.8886C83.1574 77.8886 82.9104 77.5414 82.9941 77.1126C83.0778 76.6842 83.4599 76.3365 83.8477 76.3365C84.2354 76.3365 84.4825 76.6842 84.3987 77.1126Z" fill="#263238"/>
<path opacity="0.3" d="M86.7565 78.7848C86.5757 78.7848 86.4103 78.7088 86.3014 78.5768C86.1915 78.4427 86.1489 78.2614 86.1854 78.0791L86.5901 76.0458C86.6574 75.7063 86.9778 75.4403 87.3194 75.4403H89.3527C89.5334 75.4403 89.6993 75.5163 89.8077 75.6483C89.9176 75.7824 89.9602 75.9636 89.9238 76.146L89.5191 78.1793C89.4518 78.5187 89.1313 78.7848 88.7898 78.7848H86.7565Z" fill="white"/>
<path d="M86.7566 78.5275H88.7899C89.0102 78.5275 89.2239 78.3492 89.2675 78.1289L89.6717 76.0956C89.7154 75.8753 89.5726 75.6971 89.3523 75.6971H87.319C87.0986 75.6971 86.885 75.8753 86.8413 76.0956L86.4366 78.1289C86.3935 78.3492 86.5363 78.5275 86.7566 78.5275Z" fill="#263238"/>
<path d="M87.7996 78.0113C87.7667 78.0113 87.7364 77.999 87.7164 77.9738C87.6763 77.9235 87.6923 77.8423 87.7524 77.792L88.5669 77.1125L88.023 76.4331C87.983 76.3827 87.9989 76.3016 88.059 76.2512C88.1191 76.2009 88.2002 76.2009 88.2408 76.2512L88.8576 77.0216C88.8977 77.072 88.8817 77.1531 88.8217 77.2034L87.8982 77.9738C87.8679 77.9985 87.8325 78.0113 87.7996 78.0113Z" fill="#00DE93"/>
<path d="M88.7231 77.241H87.3348C87.264 77.241 87.2177 77.1835 87.2321 77.1126C87.246 77.0417 87.3153 76.9842 87.3862 76.9842H88.7744C88.8453 76.9842 88.8915 77.0417 88.8771 77.1126C88.8628 77.183 88.7939 77.241 88.7231 77.241Z" fill="#00DE93"/>
<path d="M43.7115 45.8833H54.7819C55.9513 45.8833 56.8994 44.9352 56.8994 43.7658V32.6954C56.8994 31.526 55.9513 30.5779 54.7819 30.5779H43.7115C42.5421 30.5779 41.594 31.526 41.594 32.6954V43.7658C41.594 44.9352 42.5421 45.8833 43.7115 45.8833Z" fill="#00DE93"/>
<path d="M48.0496 45.3116L49.2467 50.4588L50.4434 45.3116H48.0496Z" fill="#00DE93"/>
<path opacity="0.3" d="M49.1128 42.8218C44.6035 40.0669 44.6862 35.3989 44.6878 35.3522L44.6929 35.1878L49.2469 33.2485L53.8009 35.1878L53.806 35.3522C53.8075 35.3989 53.8902 40.0669 49.3809 42.8218L49.2469 42.9035L49.1128 42.8218Z" fill="white"/>
<path opacity="0.6" d="M49.2468 33.5274L53.5491 35.3599C53.5491 35.3599 53.6811 39.8938 49.2468 42.603V33.5274Z" fill="white"/>
<path opacity="0.4" d="M49.2468 33.5274L44.9445 35.3599C44.9445 35.3599 44.8125 39.8938 49.2468 42.603V33.5274Z" fill="white"/>
<path d="M45.1121 91.55L48.7015 92.0877C48.7015 92.0877 49.9208 91.6851 51.2073 91.55C52.4938 91.4144 53.9843 91.55 53.9843 91.55C53.9843 91.55 55.6098 92.1596 55.6098 93.7173C55.6098 93.7173 51.8169 94.7332 50.3609 94.1236L45.1121 93.7173V91.55Z" fill="#E4897B"/>
<path opacity="0.2" d="M45.1121 91.55L48.7015 92.0877C48.7015 92.0877 49.9208 91.6851 51.2073 91.55C52.4938 91.4144 53.9843 91.55 53.9843 91.55C53.9843 91.55 55.6098 92.1596 55.6098 93.7173C55.6098 93.7173 51.8169 94.7332 50.3609 94.1236L45.1121 93.7173V91.55Z" fill="black"/>
<path d="M55.4187 66.2472C55.2811 66.5795 55.0346 66.7932 54.8682 66.7243C54.7018 66.6555 54.6792 66.3304 54.8168 65.9981C54.9545 65.6658 55.201 65.4522 55.3669 65.521C55.5333 65.5898 55.5564 65.9149 55.4187 66.2472Z" fill="#263238"/>
<path d="M56.2653 64.9099C56.2653 64.9099 55.2047 64.2658 54.2612 64.7471" stroke="#263238" stroke-width="0.7247" stroke-miterlimit="10" stroke-linecap="round" stroke-linejoin="round"/>
<path d="M53.0152 70.0658C52.8997 70.2101 52.7805 70.3488 52.6547 70.4761C51.9074 71.2506 50.9676 71.7416 49.9876 71.9404C49.7308 71.9943 49.4694 72.0277 49.2085 72.0415C47.8306 72.1114 46.4552 71.6189 45.4917 70.5547C45.0947 70.1248 44.7639 69.5912 44.5359 68.9636C43.6202 66.4989 44.5539 64.5545 45.8682 61.1422C46.1404 60.4026 46.5779 59.736 47.1547 59.2029C49.171 57.3149 52.3368 57.4238 54.2206 59.4386C56.882 62.2449 55.0912 67.3972 53.0152 70.0658Z" fill="#E4897B"/>
<path opacity="0.2" d="M49.9881 71.9403C49.7313 71.9942 49.4699 72.0276 49.209 72.0415C47.8311 72.1113 46.4557 71.6188 45.4922 70.5547C46.0171 70.0174 46.5974 69.6944 46.5974 69.6944C46.5974 69.6944 48.7232 70.2871 49.9881 71.9403Z" fill="black"/>
<path d="M38.9167 72.0682C39.2531 74.4749 44.5113 75.3732 44.5113 75.3732C44.5113 75.3732 47.1064 76.555 47.2127 75.5247C46.1393 74.2823 46.0202 73.1992 46.3905 72.2485C46.6067 71.6954 46.9909 71.19 47.4485 70.7216C47.6857 70.4731 47.9482 70.2394 48.2142 70.0149L46.6103 63.4292C45.4542 65.9319 41.5052 71.7118 38.9167 72.0682Z" fill="#E4897B"/>
<path d="M53.9228 57.5758C53.9228 57.5758 55.0455 57.4361 55.9068 59.5305C56.6325 61.2957 54.9248 61.6773 54.9982 63.5545C55.0717 65.4317 53.3583 66.4717 53.3583 66.4717C53.3583 66.4717 51.9167 67.714 50.6913 67.0402C50.6913 67.0402 49.0879 67.8265 48.6657 69.1988C48.2435 70.5711 45.7629 68.0925 43.5278 68.468C43.5278 68.468 42.0163 67.0551 42.1282 63.6238C42.2022 61.3594 43.2047 59.3215 43.2047 59.3215C43.2047 59.3215 43.857 57.2779 46.4121 56.1368C48.9682 54.9951 53.4415 55.863 53.9228 57.5758Z" fill="#263238"/>
<path d="M50.3842 66.0295C50.2558 66.843 50.4135 67.5548 50.8233 68.0083C51.3708 68.602 52.2475 67.8486 52.6019 66.8045C52.91 65.8764 53.0153 64.4209 52.2156 64.2576C51.4155 64.0943 50.5526 65.028 50.3842 66.0295Z" fill="#E4897B"/>
<path d="M50.9474 74.0557C50.2129 76.0998 49.5556 78.0719 48.9752 79.962C48.6054 81.1329 48.2664 82.2782 47.9532 83.3824C47.6912 84.312 47.4498 85.2108 47.2239 86.0839C47.116 86.505 47.0082 86.9211 46.9054 87.3319C46.3405 89.5969 45.8834 91.6615 45.5239 93.4796C44.4454 98.8928 44.1937 102.144 44.1937 102.144L24.0354 99.6221C24.7339 96.1605 25.2783 93.1355 26.0384 89.8742C26.4595 88.0869 26.9372 86.2277 27.5535 84.1888C27.9849 82.7251 28.4882 81.1689 29.084 79.4792C31.1075 73.6756 32.9718 72.0681 32.9718 72.0681C40.727 70.8252 50.9474 74.0557 50.9474 74.0557Z" fill="#263238"/>
<path d="M57.6504 91.924L61.2399 92.4617C61.2399 92.4617 62.4591 92.059 63.7457 91.924C65.0327 91.7884 66.5226 91.924 66.5226 91.924C66.5226 91.924 68.1481 92.5336 68.1481 94.0913C68.1481 94.0913 64.3553 95.1072 62.8993 94.4976L57.6504 94.0913V91.924Z" fill="#E4897B"/>
<path d="M35.3987 158.316L39.1525 158.384L41.0219 149.727L37.2728 149.664L35.3987 158.316Z" fill="#EBB376"/>
<path opacity="0.2" d="M37.2727 149.664L41.0219 149.732L39.9521 154.68L36.2363 154.431L37.2727 149.664Z" fill="black"/>
<path d="M47.4608 137.125C44.9858 146.534 41.9931 153.272 41.9931 153.272L35.1434 152.749C35.1434 152.749 37.9543 141.772 38.9722 131.719C39.6029 125.513 39.5464 120.377 37.7304 119.98C36.5866 119.728 33.9108 119.737 30.4836 119.817V107.041C40.1026 109.017 49.6743 112.743 50.4031 115.731C51.4205 119.938 49.6415 128.842 47.4608 137.125Z" fill="#00DE93"/>
<path d="M34.416 153.069L42.5718 153.611L43.772 150.086L34.7868 149.665L34.416 153.069Z" fill="#00DE93"/>
<path opacity="0.2" d="M34.416 153.069L42.5718 153.611L43.772 150.086L34.7868 149.665L34.416 153.069Z" fill="white"/>
<path d="M39.7158 158.197C39.7158 158.201 39.7934 158.203 39.7944 158.207C39.7985 158.221 39.8781 158.233 39.8889 158.242C39.8951 158.251 39.8956 158.262 39.9048 158.269C39.9156 158.272 39.9264 158.27 39.9367 158.266C40.2546 158.366 40.5822 158.431 40.914 158.46C41.1616 158.504 41.4158 158.454 41.6279 158.319C41.7625 158.199 41.8149 158.012 41.764 157.839C41.7512 157.726 41.6782 157.628 41.5755 157.578C41.3346 157.468 40.9022 157.607 40.536 157.77C40.7671 157.482 40.9387 157.145 40.9053 156.913C40.8822 156.76 40.7399 156.644 40.5869 156.629C40.4518 156.604 40.2761 156.64 40.1698 156.727C39.779 157.064 39.7158 158.125 39.7158 158.191C39.7158 158.192 39.7158 158.193 39.7158 158.194V158.195V158.197ZM40.119 157.98C40.0902 157.996 40.0661 158.009 40.042 158.023C40.0563 157.667 40.1231 157.075 40.3588 156.875C40.4102 156.827 40.4795 156.802 40.5499 156.807L40.5925 156.813C40.7163 156.835 40.7451 156.898 40.7492 156.95C40.7707 157.204 40.4374 157.705 40.119 157.98ZM40.1729 158.166C40.6249 157.917 41.2674 157.642 41.5062 157.753C41.557 157.777 41.5914 157.825 41.5966 157.881C41.6253 157.991 41.594 158.107 41.5149 158.188C41.3269 158.349 40.8339 158.34 40.1729 158.166Z" fill="#00DE93"/>
<path d="M39.626 157.739L35.4238 157.477C35.2779 157.461 35.1465 157.567 35.1305 157.713C35.1305 157.715 35.13 157.717 35.13 157.718L34.7176 161.033C34.695 161.395 34.9682 161.708 35.3303 161.735C36.7982 161.803 37.5023 161.762 39.3522 161.863C40.4873 161.93 42.7244 162.172 44.2909 162.02C45.8573 161.869 45.6652 160.325 44.9888 160.251C43.3849 160.068 41.2602 158.889 40.2567 157.995C40.0805 157.842 39.8586 157.752 39.626 157.739Z" fill="#263238"/>
<path opacity="0.2" d="M47.4608 137.125C44.9021 135.505 41.9089 133.6 38.9717 131.718C39.6024 125.513 39.5459 120.377 37.7299 119.98C36.5861 119.728 33.9103 119.737 30.4832 119.816V107.041C40.1021 109.016 49.6739 112.742 50.4026 115.73C51.4206 119.938 49.6415 128.842 47.4608 137.125Z" fill="black"/>
<path d="M57.3442 158.316L61.098 158.384L62.9675 149.727L59.2183 149.664L57.3442 158.316Z" fill="#EBB376"/>
<path opacity="0.2" d="M59.2183 149.664L62.9675 149.732L61.8977 154.68L58.1824 154.431L59.2183 149.664Z" fill="black"/>
<path d="M43.713 105.786L44.317 100.935L24.7118 97.7079C24.7118 97.7079 18.3002 110.412 21.4387 116.637C24.3174 122.349 54.959 118.946 59.6758 119.978C64.4404 121.019 57.0889 152.747 57.0889 152.747L63.9386 153.27C63.9386 153.27 74.5226 124.714 72.3465 115.732C71.3969 111.813 55.2446 106.624 43.713 105.786Z" fill="#00DE93"/>
<path d="M56.3618 153.069L64.5181 153.611L65.7178 150.086L56.7326 149.665L56.3618 153.069Z" fill="#00DE93"/>
<path opacity="0.2" d="M56.3618 153.069L64.5181 153.611L65.7178 150.086L56.7326 149.665L56.3618 153.069Z" fill="white"/>
<path d="M61.6614 158.197C61.6614 158.201 61.7389 158.203 61.74 158.207C61.7441 158.221 61.8237 158.233 61.8345 158.242C61.8406 158.251 61.8411 158.262 61.8504 158.269C61.8612 158.272 61.872 158.27 61.8822 158.266C62.2001 158.366 62.5278 158.431 62.8596 158.46C63.1066 158.504 63.3614 158.454 63.5735 158.319C63.708 158.199 63.7609 158.012 63.7096 157.839C63.6967 157.726 63.6238 157.628 63.5211 157.578C63.2802 157.468 62.8478 157.607 62.4816 157.77C62.7127 157.482 62.8842 157.145 62.8508 156.913C62.8277 156.76 62.6855 156.644 62.5324 156.629C62.3974 156.604 62.2217 156.64 62.1154 156.727C61.7245 157.064 61.6614 158.125 61.6614 158.191C61.6614 158.192 61.6614 158.193 61.6614 158.194V158.195V158.197ZM62.0645 157.98C62.0363 157.996 62.0116 158.009 61.9875 158.023C62.0019 157.667 62.0687 157.075 62.3044 156.875C62.3558 156.827 62.4251 156.802 62.4954 156.807L62.5381 156.813C62.6618 156.835 62.6906 156.898 62.6947 156.95C62.7163 157.204 62.383 157.705 62.0645 157.98ZM62.1185 158.166C62.5709 157.917 63.2129 157.642 63.4517 157.753C63.5026 157.777 63.537 157.825 63.5421 157.881C63.5709 157.991 63.5396 158.107 63.4605 158.188C63.273 158.349 62.78 158.34 62.1185 158.166Z" fill="#00DE93"/>
<path d="M61.5715 157.739L57.3694 157.477C57.2235 157.461 57.092 157.567 57.0761 157.713C57.0761 157.715 57.0756 157.717 57.0756 157.718L56.6632 161.033C56.6406 161.395 56.9138 161.708 57.2759 161.735C58.7437 161.803 59.4478 161.762 61.2978 161.863C62.4328 161.93 64.67 162.172 66.2364 162.02C67.8029 161.869 67.6108 160.325 66.9344 160.251C65.3305 160.068 63.2058 158.889 62.2022 157.995C62.0266 157.842 61.8042 157.752 61.5715 157.739Z" fill="#263238"/>
<path d="M23.9929 99.9159L33.0767 101.106L33.3705 99.7674L24.2708 98.4434L23.9929 99.9159Z" fill="black"/>
<path d="M34.1265 99.7751L34.0166 101.106L42.4117 102.261V100.945L34.1265 99.7751Z" fill="black"/>
<path d="M42.9324 101.018V102.261L44.1506 102.424V101.222L42.9324 101.018Z" fill="black"/>
<path opacity="0.2" d="M48.9753 79.962C48.6056 81.133 48.2666 82.2783 47.9533 83.3825C47.6914 84.3121 47.45 85.2109 47.224 86.084C46.5923 82.6429 47.7376 78.5342 47.7376 78.5342L48.9753 79.962Z" fill="black"/>
<path d="M50.9459 74.0532C52.5858 74.3849 53.1271 87.1178 53.1949 88.4721C53.2627 89.8265 61.2398 92.4622 61.2398 92.4622V94.3183C61.2398 94.3183 52.6916 93.7205 50.6963 92.9039C48.701 92.0873 48.2131 80.2768 48.2131 80.2768L50.9459 74.0532Z" fill="#E4897B"/>
<path d="M50.9461 74.0532C52.4504 74.5205 53.1951 82.9187 53.1951 82.9187L48.5435 84.7928L47.389 80.1227C47.389 80.1227 47.0587 79.1747 47.7094 77.1701C48.6493 74.275 50.9461 74.0532 50.9461 74.0532Z" fill="#263238"/>
<path d="M57.4074 122.135H12.1758V119.962C12.1758 117.718 13.9949 115.899 16.2393 115.899H53.3439C55.5883 115.899 57.4074 117.718 57.4074 119.962V122.135Z" fill="#00DE93"/>
<path d="M28.3062 100.458H53.2095C54.4904 100.458 55.4379 101.65 55.1493 102.898L50.697 122.136H49.6688L53.4622 105.276C53.7421 104.031 52.7955 102.847 51.5198 102.847H28.8146L28.3062 100.458Z" fill="#263238"/>
<path d="M37.7309 122.809V139.064C37.7309 139.588 37.3046 140.009 36.7859 140.009H32.8005C32.2766 140.009 31.8555 139.588 31.8555 139.064V122.809H37.7309Z" fill="#263238"/>
<path d="M15.7317 160.342C15.7317 159.389 14.9583 158.615 14.0045 158.615C13.0508 158.615 12.2773 159.388 12.2773 160.342C12.2773 161.296 13.0508 162.07 14.0045 162.07C14.9583 162.069 15.7317 161.296 15.7317 160.342Z" fill="#263238"/>
<path opacity="0.2" d="M14.868 160.342C14.868 159.865 14.4813 159.479 14.0047 159.479C13.5281 159.479 13.1414 159.866 13.1414 160.342C13.1414 160.819 13.5281 161.206 14.0047 161.206C14.4818 161.206 14.868 160.819 14.868 160.342Z" fill="white"/>
<path d="M57.3052 160.342C57.3052 159.389 56.5318 158.615 55.578 158.615C54.6243 158.615 53.8508 159.388 53.8508 160.342C53.8508 161.296 54.6238 162.07 55.578 162.07C56.5323 162.07 57.3052 161.296 57.3052 160.342Z" fill="#263238"/>
<path opacity="0.2" d="M56.4418 160.342C56.4418 159.865 56.055 159.479 55.5784 159.479C55.1013 159.479 54.7151 159.866 54.7151 160.342C54.7151 160.819 55.1018 161.206 55.5784 161.206C56.055 161.206 56.4418 160.819 56.4418 160.342Z" fill="white"/>
<path d="M36.2204 152.764V134.185H33.3628V152.764C22.236 153.05 15.4751 156.939 14.1218 157.792C13.9641 157.892 13.8696 158.066 13.8696 158.252V159.796C13.8696 160.097 14.1141 160.342 14.4156 160.342C14.6118 160.342 14.7931 160.237 14.8901 160.066L15.5501 158.909C15.5501 158.909 23.2036 156.18 33.3623 155.959V159.013C33.3623 159.403 33.6787 159.719 34.069 159.719H35.5132C35.9035 159.719 36.2199 159.403 36.2199 159.013V155.959C46.3787 156.179 54.0322 158.909 54.0322 158.909L54.6921 160.066C54.7892 160.237 54.9705 160.342 55.1667 160.342C55.4681 160.342 55.7131 160.097 55.7131 159.796V158.252C55.7131 158.066 55.6191 157.892 55.4609 157.792C54.1082 156.939 47.3473 153.05 36.2204 152.764Z" fill="#263238"/>
<path d="M35.7288 158.615H33.8542V162.069H35.7288V158.615Z" fill="#263238"/>
<path opacity="0.2" d="M37.7309 122.809H31.8555V129.563H37.7309V122.809Z" fill="black"/>
<path d="M58.6441 121.135V123.076C58.6441 123.626 58.1973 124.067 57.6478 124.067H11.9334C11.3838 124.067 10.9421 123.626 10.9421 123.076V121.135C10.9421 120.59 11.3838 120.143 11.9334 120.143H57.6478C58.1973 120.143 58.6441 120.59 58.6441 121.135Z" fill="#263238"/>
<path d="M37.6128 122.136H10.9422C10.9422 122.136 2.46802 108.043 2.46802 84.7574V76.2061C2.46802 72.6932 5.31843 69.8428 8.8365 69.8428H20.1457C23.5919 69.8428 26.4115 72.5802 26.509 76.0264C26.8377 88.0238 28.6045 114.006 37.6128 122.136Z" fill="#263238"/>
<path opacity="0.2" d="M31.7456 122.136H12.1476C11.3901 122.136 10.6947 121.719 10.346 121.046C8.41692 117.325 2.46753 104.269 2.46753 84.7574V76.2061C2.46753 72.6916 5.3164 69.8428 8.83088 69.8428H18.6044C22.0506 69.8428 24.8702 72.5802 24.9678 76.0264C25.2616 86.7449 26.7027 108.626 33.4307 118.966C34.3192 120.331 33.3747 122.136 31.7456 122.136Z" fill="white"/>
<path opacity="0.2" d="M58.6441 121.135V123.076C58.6441 123.624 58.2004 124.067 57.6529 124.067H37.1659C36.4258 124.067 35.8254 123.467 35.8254 122.727V121.483C35.8254 120.743 36.4253 120.143 37.1659 120.143H57.6478C58.1973 120.143 58.6441 120.59 58.6441 121.135Z" fill="black"/>
<path d="M10.9343 69.0872L12.6276 66.867C12.6276 66.867 19.8682 67.1962 20.0402 69.8422C20.2128 72.4887 10.9343 69.0872 10.9343 69.0872Z" fill="#00DE93"/>
<path d="M6.178 75.7264C6.178 75.7264 6.61968 87.4845 6.178 117.844C6.1631 118.867 2.34561 118.833 2.08214 117.844C1.16179 114.39 2.08214 86.7871 2.08214 86.7871" fill="#00DE93"/>
<path d="M2.15723 117.996L6.05587 118.129V120.075L2.15723 119.875V117.996Z" fill="#00DE93"/>
<path opacity="0.2" d="M6.178 75.7264C6.178 75.7264 6.61968 87.4845 6.178 117.844C6.1631 118.867 2.34561 118.833 2.08214 117.844C1.16179 114.39 2.08214 86.7871 2.08214 86.7871" fill="white"/>
<path d="M0.231824 111.634C0.0222806 106.038 -0.745019 80.3101 2.46747 71.7825C2.46747 71.7825 5.49404 67.9399 15.7314 67.9399C25.9687 67.9399 29.0487 75.2056 29.0487 75.2056C29.0487 75.2056 29.4904 86.9637 29.0487 117.323C29.0338 118.346 25.2163 118.313 24.9528 117.323C24.0325 113.869 24.9528 86.2662 24.9528 86.2662L22.9036 111.377C22.8743 111.733 22.5492 111.991 22.1959 111.936C18.967 111.439 4.72109 109.425 0.969849 111.994C0.662724 112.205 0.245691 112.007 0.231824 111.634Z" fill="#00DE93"/>
<path d="M25.0288 117.475L28.9269 117.608V119.555L25.0288 119.355V117.475Z" fill="#00DE93"/>
<path d="M22.3863 111.966L22.0782 114.016C22.0782 114.016 6.19343 110.551 1.04626 114.242L0.741699 111.967C0.741699 111.967 4.71584 108.302 22.3863 111.966Z" fill="#00DE93"/>
<path opacity="0.4" d="M0.231824 111.634C0.0222806 106.038 -0.745019 80.3101 2.46747 71.7825C2.46747 71.7825 5.49404 67.9399 15.7314 67.9399C25.9687 67.9399 29.0487 75.2056 29.0487 75.2056C29.0487 75.2056 29.4904 86.9637 29.0487 117.323C29.0338 118.346 25.2163 118.313 24.9528 117.323C24.0325 113.869 24.9528 86.2662 24.9528 86.2662L22.9036 111.377C22.8743 111.733 22.5492 111.991 22.1959 111.936C18.967 111.439 4.72109 109.425 0.969849 111.994C0.662724 112.205 0.245691 112.007 0.231824 111.634Z" fill="white"/>
<path opacity="0.2" d="M24.9534 86.2667C24.9534 86.2667 25.1794 78.2943 29.0492 75.2061C29.0492 75.2061 24.2087 77.2887 24.9534 86.2667Z" fill="black"/>
<path opacity="0.2" d="M13.3046 68.8587C13.3046 68.8587 8.63147 71.4046 7.88677 106.419C7.88677 106.419 5.8545 71.1211 13.3046 68.8587Z" fill="black"/>
</svg>
