<svg width="235" height="210" viewBox="0 0 235 210" fill="none" xmlns="http://www.w3.org/2000/svg">
<path d="M191.241 67.0736L179.607 39.5525C178.937 37.9659 176.798 37.7059 175.766 39.0842L170.679 45.8798C141.684 27.4301 116.514 50.0532 116.514 50.0532L126.178 62.0316C145.181 45.4047 162.098 57.3435 162.098 57.3435L157.652 63.2828C156.618 64.6641 157.476 66.6466 159.191 66.8382L188.94 70.1624C190.632 70.3498 191.905 68.6442 191.241 67.0736Z" fill="#00DE93"/>
<path d="M156.555 146.762C139.16 161.044 124.144 152.699 121.085 150.715L127.156 143.115C127.651 142.495 127.285 141.572 126.5 141.459L92.7468 136.611C91.971 136.5 91.3617 137.265 91.6438 137.996L103.907 169.747C104.191 170.485 105.17 170.637 105.665 170.018L112.161 161.887C140.328 180.535 165.839 159.037 165.839 159.037L156.555 146.762Z" fill="#661FC6"/>
<path d="M55.2933 132.967C80.8192 140.241 107.279 125.899 114.394 100.933C121.508 75.9681 106.582 49.8329 81.0563 42.5589C55.5303 35.2849 29.0702 49.6266 21.9559 74.592C14.8416 99.5574 29.7673 125.693 55.2933 132.967Z" fill="#00DE93"/>
<path opacity="0.4" d="M55.2933 132.967C80.8192 140.241 107.279 125.899 114.394 100.933C121.508 75.9681 106.582 49.8329 81.0563 42.5589C55.5303 35.2849 29.0702 49.6266 21.9559 74.592C14.8416 99.5574 29.7673 125.693 55.2933 132.967Z" fill="black"/>
<path d="M53.8362 127.414C79.3622 134.688 105.822 120.346 112.937 95.3806C120.051 70.4152 105.125 44.28 79.5992 37.006C54.0733 29.732 27.6131 44.0737 20.4989 69.0391C13.3846 94.0045 28.3102 120.14 53.8362 127.414Z" fill="#00DE93"/>
<path opacity="0.2" d="M58.7826 115.73C78.4906 120.263 97.9728 108.698 102.297 89.8972C106.622 71.0969 94.1507 52.1812 74.4427 47.648C54.7346 43.1148 35.2524 54.6807 30.928 73.481C26.6036 92.2814 39.0745 111.197 58.7826 115.73Z" fill="white"/>
<path d="M60.4158 115.918C40.8853 112.307 27.7502 94.1328 30.6334 75.0357C30.5635 75.3689 30.4873 75.6991 30.426 76.0359C26.9139 95.4977 40.1782 114.253 60.0532 117.927C79.9281 121.601 98.8867 108.804 102.399 89.3418C102.459 89.0047 102.503 88.669 102.554 88.3327C98.5818 107.228 79.947 119.529 60.4158 115.918Z" fill="#2A9538"/>
<path opacity="0.3" d="M72.7709 47.4518C92.3014 51.0621 105.437 69.2366 102.553 88.3337C102.623 88.0005 102.699 87.6703 102.761 87.3335C106.273 67.8717 93.0082 49.1176 73.1335 45.4425C53.2586 41.7686 34.3 54.5658 30.788 74.0276C30.7277 74.3647 30.6833 74.7004 30.6328 75.0367C34.6061 56.1417 53.2408 43.8403 72.7709 47.4518Z" fill="black"/>
<path d="M83.5444 95.1833C84.437 90.2343 82.6045 86.5808 79.2936 84.6198C82.1314 83.5151 84.3543 80.9469 85.0606 77.0327C85.9393 72.1657 83.7921 68.2018 78.763 66.0792L79.8471 60.073L74.1824 59.0254L73.1747 64.6084L69.9587 64.014L70.9664 58.431L65.3017 57.3834L64.2941 62.9664L59.1347 62.0127L55.5401 61.3486L54.5392 66.8954L58.1338 67.5594L53.2663 94.5319L49.2935 93.797L48.2926 99.3438L52.2654 100.079L57.4259 101.033L56.2541 107.527L61.9188 108.574L63.0906 102.08L66.3066 102.675L65.1348 109.169L70.7994 110.216L72.0099 103.511C78.5567 103.812 82.5272 100.821 83.5444 95.1833ZM65.3138 68.8862L72.9819 70.3043C77.2381 71.0913 79.3359 73.278 78.6974 76.8119C78.0694 80.2927 75.3435 81.5867 71.0873 80.7997L62.3857 79.1909L64.2802 68.6954L65.3138 68.8862ZM69.3453 97.5035L60.0692 95.7881L59.4153 95.6674L61.3979 84.683L71.3291 86.5193C75.9638 87.376 78.1653 89.5255 77.479 93.332C76.7905 97.1379 73.98 98.3602 69.3453 97.5035Z" fill="#00DE93"/>
<path opacity="0.3" d="M83.5444 95.1833C84.437 90.2343 82.6045 86.5808 79.2936 84.6198C82.1314 83.5151 84.3543 80.9469 85.0606 77.0327C85.9393 72.1657 83.7921 68.2018 78.763 66.0792L79.8471 60.073L74.1824 59.0254L73.1747 64.6084L69.9587 64.014L70.9664 58.431L65.3017 57.3834L64.2941 62.9664L59.1347 62.0127L55.5401 61.3486L54.5392 66.8954L58.1338 67.5594L53.2663 94.5319L49.2935 93.797L48.2926 99.3438L52.2654 100.079L57.4259 101.033L56.2541 107.527L61.9188 108.574L63.0906 102.08L66.3066 102.675L65.1348 109.169L70.7994 110.216L72.0099 103.511C78.5567 103.812 82.5272 100.821 83.5444 95.1833ZM65.3138 68.8862L72.9819 70.3043C77.2381 71.0913 79.3359 73.278 78.6974 76.8119C78.0694 80.2927 75.3435 81.5867 71.0873 80.7997L62.3857 79.1909L64.2802 68.6954L65.3138 68.8862ZM69.3453 97.5035L60.0692 95.7881L59.4153 95.6674L61.3979 84.683L71.3291 86.5193C75.9638 87.376 78.1653 89.5255 77.479 93.332C76.7905 97.1379 73.98 98.3602 69.3453 97.5035Z" fill="black"/>
<path d="M80.7929 94.6748C81.6855 89.7258 79.8529 86.0723 76.542 84.1112C79.3798 83.0065 81.6028 80.4383 82.309 76.5241C83.1878 71.6571 81.0405 67.6932 76.0114 65.5706L77.0955 59.5644L71.4308 58.5168L70.4232 64.0998L67.2072 63.5055L68.2148 57.9225L62.5501 56.8748L61.5425 62.4579L56.382 61.5038L52.7874 60.8397L51.7865 66.3865L55.3811 67.0506L50.5137 94.023L46.5408 93.2882L45.54 98.8349L49.5128 99.5698L54.6722 100.524L53.5003 107.018L59.165 108.065L60.3368 101.571L63.5528 102.166L62.381 108.66L68.0457 109.707L69.2561 103.002C75.8051 103.303 79.7746 100.312 80.7929 94.6748ZM62.5625 68.3765L70.2306 69.7947C74.4868 70.5817 76.5849 72.7673 75.9462 76.3023C75.3181 79.783 72.5922 81.0771 68.3361 80.2901L59.6344 78.6812L61.529 68.1858L62.5625 68.3765ZM66.5937 96.9949L57.3176 95.2796L56.6637 95.1589L58.6464 84.1744L68.5775 86.0107C73.2122 86.8674 75.4137 89.0169 74.7274 92.8234C74.0378 96.629 71.2274 97.8513 66.5937 96.9949Z" fill="#00DE93"/>
<path d="M114.037 74.6614C114.027 74.6633 113.988 74.5376 113.921 74.2918C113.849 74.015 113.756 73.6531 113.637 73.1971C113.515 72.7029 113.368 72.1088 113.196 71.4144C113.023 70.7103 112.853 69.8888 112.504 69.0105C112.191 68.1183 111.845 67.131 111.466 66.0522C111.09 64.9703 110.484 63.8743 109.944 62.6529C109.432 61.4144 108.668 60.203 107.897 58.8989C107.495 58.2583 107.152 57.5522 106.671 56.9118C106.199 56.2667 105.714 55.6037 105.219 54.9258C103.254 52.1947 100.664 49.5503 97.7108 46.9315C96.9281 46.3291 96.1316 45.7169 95.3223 45.095C94.9147 44.788 94.5168 44.4598 94.093 44.1637C93.6541 43.8872 93.2119 43.6097 92.767 43.329C91.8701 42.78 90.9882 42.1744 90.0441 41.6489C89.0787 41.1602 88.1007 40.6656 87.1105 40.164C86.1403 39.6167 85.0605 39.2828 84.0125 38.8457C82.9529 38.4364 81.898 37.9688 80.7671 37.6931C79.6505 37.3749 78.5204 37.0541 77.3808 36.7293C76.2153 36.5117 75.0385 36.292 73.8525 36.071C69.0814 35.3746 64.0358 35.2442 58.9637 36.014C53.9047 36.8388 49.1055 38.3759 44.7547 40.4785C40.4365 42.6596 36.653 45.438 33.387 48.4391C32.6127 49.2347 31.8477 50.0188 31.0936 50.794L30.5302 51.373L30.0284 51.9994C29.6949 52.4161 29.3638 52.8287 29.0345 53.2395C27.6463 54.8288 26.6193 56.6035 25.5199 58.2429C24.9821 59.0714 24.5912 59.9656 24.1306 60.7994C23.7126 61.6548 23.1982 62.447 22.8959 63.3152C22.2435 65.0272 21.4545 66.6155 21.0588 68.2551C20.5828 69.867 20.0939 71.3942 19.8778 72.8976C19.6037 74.387 19.283 75.7843 19.2296 77.123C19.1399 78.4549 18.9509 79.6918 18.9633 80.8369C18.9789 81.9793 18.9932 83.026 19.0066 83.971C18.9819 84.9159 19.1035 85.745 19.1855 86.4661C19.263 87.1777 19.3306 87.7863 19.3859 88.2911C19.4324 88.76 19.4685 89.1318 19.497 89.4167C19.5188 89.671 19.5253 89.8029 19.5156 89.8036C19.5055 89.8055 19.4788 89.6775 19.4371 89.4259C19.3938 89.1427 19.3379 88.7737 19.2668 88.3073C19.1951 87.8014 19.1094 87.1936 19.009 86.4827C18.9081 85.7609 18.7679 84.93 18.7747 83.9812C18.7461 83.0307 18.7142 81.979 18.6787 80.8309C18.6504 79.6789 18.8233 78.4315 18.8972 77.0879C18.9363 75.7368 19.2426 74.327 19.5044 72.8223C19.7082 71.3034 20.1876 69.7592 20.6548 68.128C21.0425 66.4706 21.8254 64.8615 22.4733 63.128C22.774 62.2486 23.2868 61.4453 23.7046 60.5778C24.1637 59.7328 24.5555 58.827 25.0943 57.9868C26.1948 56.3226 27.2273 54.5245 28.6223 52.9109C28.9533 52.4946 29.2862 52.0754 29.6227 51.6524L30.1284 51.0163L30.6958 50.4277C31.4567 49.6413 32.2276 48.8447 33.0079 48.0364C36.3008 44.9869 40.1241 42.165 44.4939 39.9497C48.8959 37.814 53.7543 36.2532 58.8746 35.4184C64.0079 34.6386 69.1177 34.7742 73.9445 35.4888C75.1455 35.7154 76.3353 35.9399 77.5137 36.1624C78.666 36.4931 79.8084 36.821 80.9375 37.1452C82.0819 37.4284 83.1468 37.9024 84.218 38.321C85.277 38.7659 86.3674 39.1088 87.3473 39.6636C88.347 40.174 89.3341 40.6783 90.3076 41.1764C91.2597 41.7114 92.1494 42.3275 93.0532 42.8857C93.5015 43.1709 93.9469 43.4541 94.3892 43.7352C94.8162 44.037 95.2176 44.3697 95.6275 44.681C96.4421 45.3139 97.243 45.9357 98.0309 46.5491C101.002 49.21 103.597 51.8977 105.558 54.6693C106.053 55.3577 106.535 56.0297 107.006 56.685C107.485 57.3346 107.824 58.0491 108.223 58.6996C108.988 60.021 109.744 61.2503 110.245 62.5038C110.776 63.7404 111.368 64.8505 111.732 65.9453C112.094 67.035 112.426 68.0339 112.726 68.9365C113.058 69.8245 113.212 70.6544 113.367 71.3654C113.518 72.0669 113.647 72.668 113.754 73.1673C113.848 73.6294 113.923 73.9954 113.98 74.2765C114.028 74.53 114.047 74.6595 114.037 74.6614Z" fill="#2A9538"/>
<path d="M68.2152 57.9213C68.2055 57.9722 67.638 57.9167 66.644 57.7754C65.6486 57.6349 64.2268 57.4086 62.5061 57.1175L62.7944 56.9181C62.509 58.5808 62.1838 60.4754 61.8346 62.5088L61.7844 62.8023L61.4886 62.7478C60.9999 62.6586 60.4854 62.5633 59.9627 62.4681C57.3176 61.9589 54.8624 61.487 52.744 61.0802L53.0308 60.8816C52.7012 62.5531 52.4165 63.9333 52.2 64.8939C51.9839 65.8534 51.8382 66.394 51.7872 66.3842C51.7374 66.3748 51.7887 65.8181 51.9222 64.8433C52.0556 63.8686 52.27 62.4756 52.5465 60.7937L52.5859 60.5508L52.8334 60.5951C54.9577 60.9726 57.4183 61.409 60.0707 61.8797C60.5928 61.9772 61.1083 62.0728 61.5964 62.1642L61.2504 62.4032C61.6347 60.3763 61.9918 58.4871 62.3056 56.8289L62.3524 56.581L62.5939 56.6296C64.3045 56.9727 65.7143 57.2707 66.693 57.4947C67.675 57.7197 68.225 57.8704 68.2152 57.9213Z" fill="#2A9538"/>
<path d="M78.2686 59.8808C78.2391 60.0429 76.6804 59.891 74.789 59.5417C72.8965 59.1921 71.3878 58.7765 71.4185 58.6146C71.448 58.4525 73.0056 58.6041 74.8981 58.9537C76.7891 59.3041 78.2981 59.7186 78.2686 59.8808Z" fill="#2A9538"/>
<path d="M50.2901 93.5775C50.1279 93.548 51.0641 87.6047 52.3825 80.303C53.7005 72.9988 54.9007 67.1045 55.0629 67.134C55.225 67.1635 54.2892 73.1057 52.9701 80.4096C51.6519 87.7102 50.4523 93.607 50.2901 93.5775Z" fill="#2A9538"/>
<path d="M71.1966 80.869C71.1671 81.0311 68.6963 80.71 65.6784 80.153C62.6597 79.5946 60.2387 79.0108 60.2682 78.8486C60.2977 78.6865 62.7688 79.0065 65.7875 79.5649C68.804 80.1227 71.2261 80.7068 71.1966 80.869Z" fill="#2A9538"/>
<path d="M68.4352 97.3776C68.4057 97.5398 65.9346 97.2197 62.917 96.6616C59.8983 96.1032 57.4773 95.5195 57.5068 95.3573C57.5363 95.1951 60.0071 95.5163 63.0261 96.0736C66.0434 96.6328 68.4658 97.2158 68.4352 97.3776Z" fill="#2A9538"/>
<path d="M46.1424 129.335C45.9829 129.376 45.5369 128.174 45.1479 126.651C44.7581 125.126 44.5721 123.858 44.7315 123.817C44.8909 123.777 45.3369 124.979 45.7267 126.503C46.1158 128.026 46.3029 129.295 46.1424 129.335Z" fill="#263238"/>
<path d="M39.2126 124.794C39.0529 124.835 38.62 123.684 38.2476 122.224C37.874 120.763 37.7008 119.546 37.8605 119.504C38.02 119.464 38.4532 120.614 38.8256 122.075C39.2003 123.535 39.3735 124.752 39.2126 124.794Z" fill="#263238"/>
<path d="M33.1728 119.542C33.0134 119.582 32.5802 118.432 32.2078 116.971C31.8342 115.511 31.661 114.294 31.8208 114.252C31.9802 114.212 32.4123 115.362 32.7858 116.822C33.1601 118.284 33.3334 119.501 33.1728 119.542Z" fill="#263238"/>
<path d="M53.907 132.586C53.7476 132.626 53.3016 131.424 52.9125 129.901C52.5227 128.377 52.3364 127.109 52.4961 127.068C52.6556 127.027 53.1016 128.229 53.4903 129.753C53.8804 131.277 54.0664 132.545 53.907 132.586Z" fill="#263238"/>
<path d="M61.4746 134.308C61.3149 134.35 60.8692 133.147 60.4802 131.624C60.0903 130.099 59.904 128.831 60.0638 128.79C60.2232 128.749 60.6692 129.951 61.0579 131.476C61.4483 132.998 61.6344 134.267 61.4746 134.308Z" fill="#263238"/>
<path d="M69.2469 134.833C69.0875 134.873 68.6415 133.671 68.2514 132.148C67.8616 130.623 67.6755 129.355 67.8361 129.314C67.9955 129.274 68.4415 130.476 68.8302 132C69.2207 133.523 69.4067 134.791 69.2469 134.833Z" fill="#263238"/>
<path d="M76.6314 134.34C76.4719 134.381 76.0259 133.179 75.6369 131.655C75.2471 130.131 75.0607 128.863 75.2205 128.822C75.38 128.781 75.826 129.983 76.2147 131.508C76.6048 133.031 76.7908 134.3 76.6314 134.34Z" fill="#263238"/>
<path d="M84.0818 132.492C83.9221 132.534 83.4764 131.331 83.0874 129.808C82.6976 128.283 82.5112 127.015 82.6709 126.974C82.8304 126.933 83.2764 128.135 83.6662 129.66C84.0552 131.183 84.2413 132.452 84.0818 132.492Z" fill="#263238"/>
<path d="M90.9281 129.581C90.7683 129.622 90.3226 128.419 89.9325 126.896C89.5427 125.371 89.3564 124.104 89.5172 124.063C89.6767 124.022 90.1227 125.224 90.5114 126.748C90.9015 128.272 91.0875 129.54 90.9281 129.581Z" fill="#263238"/>
<path d="M96.5671 125.746C96.4076 125.786 95.9831 124.668 95.6205 123.249C95.257 121.829 95.0933 120.645 95.253 120.604C95.4125 120.563 95.8362 121.68 96.1996 123.1C96.562 124.521 96.7265 125.705 96.5671 125.746Z" fill="#263238"/>
<path d="M102.132 121.42C101.973 121.46 101.548 120.34 101.185 118.918C100.821 117.495 100.655 116.309 100.815 116.267C100.975 116.227 101.4 117.346 101.764 118.769C102.128 120.192 102.293 121.379 102.132 121.42Z" fill="#263238"/>
<path d="M107.061 115.807C106.901 115.847 106.496 114.803 106.156 113.473C105.816 112.143 105.671 111.033 105.83 110.992C105.989 110.952 106.395 111.995 106.735 113.326C107.075 114.655 107.221 115.765 107.061 115.807Z" fill="#263238"/>
<path d="M111.099 109.319C110.939 109.36 110.541 108.343 110.21 107.048C109.879 105.752 109.739 104.668 109.9 104.627C110.059 104.587 110.458 105.603 110.789 106.899C111.12 108.196 111.259 109.279 111.099 109.319Z" fill="#263238"/>
<path d="M114.103 101.972C113.943 102.012 113.491 100.783 113.092 99.2256C112.694 97.6675 112.5 96.3717 112.66 96.3302C112.82 96.2897 113.272 97.5185 113.67 99.0777C114.069 100.635 114.262 101.93 114.103 101.972Z" fill="#263238"/>
<path d="M116.128 91.6712C115.969 91.7117 115.494 90.3941 115.067 88.7266C114.64 87.059 114.424 85.6745 114.585 85.6333C114.744 85.5928 115.22 86.9104 115.646 88.5779C116.073 90.2455 116.289 91.63 116.128 91.6712Z" fill="#263238"/>
<path d="M202.962 177.281C228.488 184.555 254.948 170.213 262.062 145.248C269.176 120.283 254.251 94.1475 228.725 86.8735C203.199 79.5994 176.739 93.9412 169.624 118.907C162.51 143.872 177.436 170.007 202.962 177.281Z" fill="#263238"/>
<path d="M201.505 171.728C227.031 179.002 253.491 164.661 260.605 139.695C267.72 114.73 252.794 88.5946 227.268 81.3206C201.742 74.0466 175.282 88.3883 168.168 113.354C161.053 138.319 175.979 164.454 201.505 171.728Z" fill="#661FC6"/>
<path opacity="0.2" d="M206.457 160.04C226.165 164.573 245.647 153.008 249.972 134.207C254.296 115.407 241.825 96.4914 222.117 91.9582C202.409 87.4249 182.927 98.9908 178.603 117.791C174.278 136.591 186.749 155.507 206.457 160.04Z" fill="white"/>
<path d="M208.084 160.233C188.553 156.623 175.418 138.448 178.301 119.351C178.232 119.685 178.155 120.015 178.094 120.352C174.582 139.813 187.846 158.569 207.721 162.243C227.596 165.918 246.555 153.119 250.067 133.657C250.127 133.32 250.171 132.985 250.222 132.648C246.249 151.542 227.614 163.844 208.084 160.233Z" fill="#515D63"/>
<path opacity="0.3" d="M220.438 91.766C239.969 95.3764 253.104 113.551 250.221 132.648C250.291 132.315 250.367 131.985 250.428 131.648C253.94 112.186 240.676 93.4307 220.801 89.7568C200.926 86.0817 181.967 98.8801 178.455 118.342C178.395 118.679 178.351 119.015 178.3 119.351C182.273 100.456 200.908 88.1557 220.438 91.766Z" fill="black"/>
<path d="M231.211 139.498C232.104 134.55 230.271 130.896 226.96 128.935C229.798 127.83 232.021 125.262 232.727 121.348C233.606 116.481 231.459 112.517 226.43 110.394L227.514 104.388L221.849 103.341L220.841 108.924L217.625 108.329L218.633 102.746L212.968 101.699L211.961 107.282L206.8 106.328L203.206 105.663L202.205 111.21L205.799 111.875L200.932 138.848L196.959 138.113L195.958 143.66L199.931 144.395L205.09 145.348L203.918 151.842L209.583 152.89L210.755 146.396L213.971 146.99L212.799 153.484L218.464 154.532L219.674 147.827C226.224 148.127 230.194 145.135 231.211 139.498ZM212.982 113.201L220.65 114.619C224.906 115.406 227.004 117.591 226.365 121.126C225.737 124.607 223.012 125.901 218.755 125.114L210.054 123.505L211.947 113.009L212.982 113.201ZM217.012 141.818L207.736 140.102L207.082 139.981L209.065 128.997L218.996 130.833C223.631 131.69 225.832 133.84 225.146 137.646C224.46 141.453 221.647 142.675 217.012 141.818Z" fill="#263238"/>
<path d="M228.46 138.989C229.353 134.04 227.52 130.386 224.209 128.425C227.047 127.321 229.27 124.754 229.976 120.838C230.855 115.971 228.708 112.007 223.679 109.885L224.763 103.879L219.098 102.831L218.091 108.414L214.875 107.82L215.882 102.237L210.217 101.189L209.21 106.772L204.05 105.818L200.456 105.154L199.455 110.701L203.049 111.366L198.182 138.339L194.209 137.604L193.208 143.151L197.181 143.885L202.34 144.839L201.168 151.333L206.833 152.381L208.005 145.887L211.221 146.481L210.049 152.975L215.714 154.023L216.924 147.318C223.472 147.619 227.443 144.627 228.46 138.989ZM210.231 112.692L217.899 114.11C222.155 114.897 224.253 117.083 223.614 120.618C222.986 124.099 220.26 125.393 216.004 124.606L207.303 122.997L209.197 112.501L210.231 112.692ZM214.261 141.309L204.984 139.593L204.33 139.473L206.313 128.488L216.244 130.325C220.878 131.181 223.08 133.331 222.394 137.137C221.707 140.944 218.896 142.166 214.261 141.309Z" fill="#661FC6"/>
<path d="M261.705 118.976C261.695 118.978 261.655 118.852 261.588 118.606C261.517 118.329 261.423 117.967 261.305 117.511C261.182 117.017 261.035 116.423 260.863 115.729C260.691 115.025 260.52 114.203 260.172 113.325C259.858 112.433 259.512 111.445 259.134 110.366C258.757 109.285 258.151 108.189 257.612 106.967C257.1 105.729 256.335 104.517 255.564 103.213C255.162 102.573 254.82 101.866 254.339 101.226C253.867 100.58 253.382 99.9179 252.886 99.24C250.921 96.5089 248.331 93.8646 245.378 91.2458C244.596 90.6434 243.799 90.0311 242.99 89.4093C242.582 89.1022 242.184 88.7741 241.76 88.478C241.321 88.2014 240.879 87.9239 240.434 87.6432C239.538 87.0942 238.656 86.4875 237.711 85.9631C236.746 85.4745 235.768 84.9799 234.778 84.4782C233.809 83.9313 232.728 83.597 231.68 83.16C230.62 82.7507 229.565 82.2831 228.434 82.0073C227.317 81.6888 226.188 81.3672 225.048 81.0435C223.883 80.8259 222.707 80.6066 221.52 80.3853C216.749 79.6889 211.703 79.5585 206.631 80.3283C201.573 81.1534 196.774 82.6905 192.422 84.7928C188.104 86.9739 184.32 89.7523 181.055 92.7537C180.282 93.5482 179.516 94.3334 178.761 95.1083L178.198 95.6873L177.696 96.3137C177.362 96.7304 177.031 97.143 176.702 97.5538C175.314 99.1431 174.287 100.918 173.187 102.557C172.649 103.386 172.259 104.28 171.798 105.114C171.38 105.969 170.866 106.761 170.563 107.629C169.911 109.341 169.122 110.93 168.726 112.569C168.25 114.181 167.761 115.708 167.545 117.212C167.271 118.701 166.95 120.099 166.897 121.437C166.807 122.769 166.618 124.007 166.631 125.151C166.646 126.294 166.661 127.34 166.674 128.285C166.649 129.23 166.771 130.059 166.853 130.78C166.93 131.492 166.998 132.101 167.053 132.607C167.1 133.075 167.137 133.447 167.164 133.732C167.186 133.986 167.192 134.118 167.182 134.12C167.172 134.122 167.146 133.994 167.104 133.742C167.061 133.459 167.005 133.09 166.934 132.624C166.862 132.118 166.776 131.51 166.676 130.799C166.575 130.077 166.435 129.247 166.441 128.298C166.413 127.347 166.381 126.296 166.346 125.147C166.317 123.995 166.49 122.748 166.564 121.404C166.603 120.053 166.909 118.643 167.171 117.139C167.375 115.62 167.854 114.076 168.322 112.445C168.71 110.786 169.492 109.178 170.14 107.443C170.441 106.564 170.954 105.761 171.372 104.893C171.831 104.047 172.223 103.142 172.761 102.302C173.862 100.638 174.894 98.8399 176.289 97.2263C176.62 96.81 176.953 96.3908 177.29 95.9678L177.795 95.3317L178.363 94.7431C179.124 93.9567 179.895 93.16 180.675 92.3528C183.968 89.3034 187.791 86.4815 192.161 84.2662C196.563 82.1304 201.421 80.5697 206.541 79.7349C211.675 78.9551 216.784 79.0907 221.611 79.8053C222.812 80.0319 224.002 80.2564 225.18 80.4788C226.333 80.8096 227.475 81.1375 228.604 81.4617C229.749 81.7448 230.814 82.2189 231.885 82.6375C232.944 83.0824 234.035 83.4256 235.014 83.9812C236.013 84.4915 237.001 84.9959 237.974 85.4929C238.926 86.0278 239.816 86.644 240.72 87.2022C241.168 87.4874 241.614 87.7706 242.056 88.0517C242.483 88.3535 242.884 88.6862 243.294 88.9985C244.109 89.6314 244.909 90.2533 245.698 90.8656C248.667 93.5262 251.264 96.2142 253.225 98.9858C253.719 99.6742 254.202 100.346 254.674 101.002C255.153 101.651 255.492 102.366 255.891 103.016C256.656 104.338 257.412 105.567 257.913 106.821C258.444 108.057 259.036 109.167 259.4 110.262C259.761 111.353 260.094 112.351 260.394 113.253C260.726 114.141 260.88 114.971 261.035 115.682C261.186 116.384 261.315 116.985 261.422 117.484C261.516 117.946 261.591 118.312 261.648 118.593C261.695 118.845 261.715 118.974 261.705 118.976Z" fill="#515D63"/>
<path d="M215.883 102.236C215.873 102.287 215.306 102.231 214.312 102.09C213.317 101.948 211.894 101.723 210.174 101.432L210.462 101.232C210.177 102.895 209.851 104.79 209.502 106.823L209.452 107.117L209.156 107.062C208.667 106.973 208.153 106.878 207.63 106.782C204.985 106.274 202.531 105.802 200.412 105.395L200.698 105.196C200.37 106.868 200.084 108.248 199.868 109.208C199.651 110.168 199.506 110.708 199.455 110.699C199.405 110.689 199.456 110.132 199.59 109.158C199.723 108.183 199.938 106.79 200.214 105.108L200.254 104.865L200.501 104.909C202.625 105.287 205.086 105.723 207.738 106.194C208.26 106.292 208.776 106.387 209.264 106.479L208.918 106.717C209.302 104.691 209.659 102.801 209.973 101.143L210.02 100.895L210.261 100.944C211.972 101.287 213.382 101.585 214.361 101.809C215.343 102.034 215.892 102.186 215.883 102.236Z" fill="#515D63"/>
<path d="M225.936 104.196C225.906 104.358 224.348 104.206 222.456 103.857C220.564 103.507 219.055 103.092 219.086 102.93C219.115 102.768 220.673 102.919 222.565 103.269C224.457 103.618 225.967 104.033 225.936 104.196Z" fill="#515D63"/>
<path d="M197.958 137.892C197.795 137.862 198.732 131.919 200.05 124.617C201.368 117.313 202.568 111.419 202.73 111.448C202.893 111.478 201.957 117.42 200.638 124.724C199.321 132.025 198.12 137.921 197.958 137.892Z" fill="#515D63"/>
<path d="M218.864 125.184C218.834 125.347 216.362 125.026 213.346 124.468C210.327 123.91 207.906 123.326 207.935 123.164C207.965 123.002 210.436 123.323 213.455 123.88C216.471 124.438 218.894 125.023 218.864 125.184Z" fill="#515D63"/>
<path d="M216.103 141.693C216.074 141.855 213.603 141.535 210.585 140.977C207.566 140.419 205.145 139.835 205.175 139.673C205.204 139.511 207.675 139.832 210.694 140.389C213.711 140.947 216.133 141.531 216.103 141.693Z" fill="#515D63"/>
<path d="M231.749 176.806C231.59 176.847 231.144 175.645 230.755 174.122C230.365 172.597 230.178 171.33 230.338 171.288C230.498 171.248 230.944 172.449 231.332 173.974C231.722 175.497 231.91 176.766 231.749 176.806Z" fill="#263238"/>
</svg>
