<svg width="170" height="171" viewBox="0 0 170 171" fill="none" xmlns="http://www.w3.org/2000/svg">
<path d="M169.222 117.443H0.919922V136.496H169.222V117.443Z" fill="#00DE93"/>
<path opacity="0.3" d="M169.222 117.443H133.12V136.496H169.222V117.443Z" fill="black"/>
<path d="M19.4993 136.497H0.919922V170.499H19.4993V136.497Z" fill="#00DE93"/>
<path opacity="0.3" d="M0.919922 136.497V138.397L14.0802 142.371V170.499H19.4993V136.497H0.919922Z" fill="black"/>
<path d="M169.221 136.497H150.642V170.499H169.221V136.497Z" fill="#00DE93"/>
<path opacity="0.2" d="M169.221 136.497H150.642V170.499H169.221V136.497Z" fill="black"/>
<path opacity="0.3" d="M150.642 136.497V138.397L163.802 142.371V170.499H169.221V136.497H150.642Z" fill="black"/>
<path d="M133.12 136.497H114.54V170.499H133.12V136.497Z" fill="#00DE93"/>
<path opacity="0.3" d="M114.54 136.497V138.397L127.701 142.371V170.499H133.12V136.497H114.54Z" fill="black"/>
<path d="M55.6004 136.497H37.021V170.499H55.6004V136.497Z" fill="#00DE93"/>
<path opacity="0.2" d="M55.6004 136.497H37.021V170.499H55.6004V136.497Z" fill="black"/>
<path opacity="0.3" d="M37.021 136.497V138.397L50.1819 142.371V170.499H55.601V136.497H37.021Z" fill="black"/>
<path d="M146.023 113.695H43.1283C41.7589 113.695 40.7092 112.575 40.7959 111.206L45.0353 43.9566C45.1214 42.5872 46.3126 41.467 47.6814 41.467H150.575C151.945 41.467 152.994 42.5872 152.908 43.9566L148.668 111.206C148.583 112.574 147.391 113.695 146.023 113.695Z" fill="#263238"/>
<path opacity="0.6" d="M146.023 113.695H43.1283C41.7589 113.695 40.7092 112.575 40.7959 111.206L45.0353 43.9566C45.1214 42.5872 46.3126 41.467 47.6814 41.467H150.575C151.945 41.467 152.994 42.5872 152.908 43.9566L148.668 111.206C148.583 112.574 147.391 113.695 146.023 113.695Z" fill="black"/>
<path d="M145.255 113.695H42.3605C40.9911 113.695 39.9414 112.575 40.0281 111.206L44.2674 43.9566C44.3536 42.5872 45.5447 41.467 46.9136 41.467H149.807C151.177 41.467 152.226 42.5872 152.14 43.9566L147.9 111.206C147.815 112.574 146.624 113.695 145.255 113.695Z" fill="#263238"/>
<path d="M145.124 114.542H22.6896C21.5061 114.542 20.4786 115.231 20.0055 116.219C19.7335 116.788 20.1497 117.443 20.7913 117.443H147.023C147.664 117.443 148.081 116.788 147.808 116.219C147.335 115.23 146.308 114.542 145.124 114.542Z" fill="#263238"/>
<path opacity="0.6" d="M145.124 114.542H127.713C126.529 114.542 125.502 115.231 125.028 116.219C124.756 116.788 125.173 117.443 125.814 117.443H147.023C147.664 117.443 148.08 116.788 147.808 116.219C147.335 115.23 146.308 114.542 145.124 114.542Z" fill="black"/>
<path d="M134.328 116.664H129.835C129.617 116.664 129.44 116.487 129.44 116.269C129.44 116.052 129.617 115.874 129.835 115.874H134.328C134.545 115.874 134.723 116.052 134.723 116.269C134.723 116.487 134.545 116.664 134.328 116.664Z" fill="#00DE93"/>
<path opacity="0.7" d="M76.4911 116.664H71.9976C71.7803 116.664 71.6025 116.487 71.6025 116.269C71.6025 116.052 71.7803 115.874 71.9976 115.874H76.4911C76.7084 115.874 76.8862 116.052 76.8862 116.269C76.8862 116.487 76.7084 116.664 76.4911 116.664Z" fill="white"/>
<path d="M138.981 116.664H136.042C135.863 116.664 135.717 116.518 135.717 116.339V116.2C135.717 116.02 135.863 115.874 136.042 115.874H138.981C139.16 115.874 139.307 116.021 139.307 116.2V116.339C139.307 116.517 139.16 116.664 138.981 116.664Z" fill="#00DE93"/>
<path d="M42.348 108.774L46.2807 46.3882C46.3142 45.8549 46.7781 45.4187 47.3114 45.4187H148.911C149.444 45.4187 149.853 45.8549 149.819 46.3882L145.887 108.774C145.853 109.307 145.389 109.743 144.856 109.743H43.2568C42.7235 109.743 42.3144 109.307 42.348 108.774Z" fill="white"/>
<path opacity="0.1" d="M100.147 43.4976L66.3042 107.822H41.3384C40.8019 107.822 40.3955 107.389 40.428 106.852L44.3623 44.4676C44.3948 43.9366 44.8608 43.4976 45.3919 43.4976H100.147Z" fill="#00DE93"/>
<path opacity="0.1" d="M129.784 43.4976L95.9414 107.822H88.0511L121.894 43.4976H129.784Z" fill="#00DE93"/>
<path opacity="0.1" d="M147.9 44.4676L143.966 106.852C143.933 107.389 143.467 107.822 142.936 107.822H104.476L138.319 43.4976H146.989C147.526 43.4976 147.932 43.9366 147.9 44.4676Z" fill="#00DE93"/>
<path opacity="0.4" d="M98.9587 43.5518C98.9332 43.9544 98.5859 44.2812 98.1832 44.2812C97.7801 44.2812 97.4744 43.9544 97.4993 43.5518C97.5248 43.1486 97.8722 42.8224 98.2748 42.8224C98.678 42.8218 98.9842 43.1486 98.9587 43.5518Z" fill="white"/>
<path d="M43.3798 35.7109H87.2746C90.8512 35.7109 93.5982 38.6372 93.3793 42.2138L92.1627 62.0835C91.9437 65.6601 88.838 68.5865 85.2614 68.5865H80.1783L82.2549 75.4075L72.3222 68.5865H41.3666C37.79 68.5865 35.0431 65.6601 35.262 62.0835L36.4786 42.2138C36.6975 38.6372 39.8032 35.7109 43.3798 35.7109Z" fill="#00DE93"/>
<path d="M83.252 46.1188H46.1278C45.4542 46.1188 44.9367 45.5677 44.9779 44.8941C45.0191 44.2205 45.6043 43.6694 46.2779 43.6694H83.4021C84.0757 43.6694 84.5932 44.2205 84.552 44.8941C84.5108 45.5677 83.9261 46.1188 83.252 46.1188Z" fill="white"/>
<path d="M61.2791 53.3739H45.6835C45.0099 53.3739 44.4924 52.8228 44.5335 52.1492C44.5747 51.4756 45.16 50.9245 45.8336 50.9245H61.4293C62.1028 50.9245 62.6204 51.4756 62.5792 52.1492C62.538 52.8222 61.9533 53.3739 61.2791 53.3739Z" fill="white"/>
<path d="M74.6074 60.6285H45.2396C44.566 60.6285 44.0485 60.0773 44.0897 59.4037C44.1309 58.7301 44.7162 58.179 45.3897 58.179H74.7575C75.4311 58.179 75.9487 58.7301 75.9075 59.4037C75.8663 60.0773 75.281 60.6285 74.6074 60.6285Z" fill="white"/>
<path d="M72.6968 53.3739H66.5618C65.8882 53.3739 65.3707 52.8228 65.4118 52.1492C65.453 51.4756 66.0383 50.9245 66.7119 50.9245H72.8469C73.5205 50.9245 74.038 51.4756 73.9968 52.1492C73.9551 52.8222 73.3704 53.3739 72.6968 53.3739Z" fill="white"/>
<path d="M104.499 0H80.5675C77.7842 0 75.3678 2.27711 75.1977 5.05982L74.251 20.5211C74.0808 23.3043 76.2181 25.5809 79.0013 25.5809H82.9568L80.691 30.8884L89.0695 25.5809H102.933C105.715 25.5809 108.132 23.3038 108.302 20.5211L109.249 5.05982C109.42 2.27657 107.282 0 104.499 0Z" fill="#00DE93"/>
<g opacity="0.5">
<path d="M104.499 0H80.5675C77.7842 0 75.3678 2.27711 75.1977 5.05982L74.251 20.5211C74.0808 23.3043 76.2181 25.5809 79.0013 25.5809H82.9568L80.691 30.8884L89.0695 25.5809H102.933C105.715 25.5809 108.132 23.3038 108.302 20.5211L109.249 5.05982C109.42 2.27657 107.282 0 104.499 0Z" fill="#FAFAFA"/>
</g>
<path d="M92.9598 15.3209C92.8108 16.0205 92.1497 16.5207 91.4425 16.5207H90.0302C90.0476 16.1186 90.059 15.8737 90.0644 15.7859C90.1197 14.8793 90.3153 14.1336 90.6507 13.5483C90.9862 12.9636 91.6262 12.3052 92.5707 11.5742C93.5147 10.8431 94.0816 10.3641 94.2712 10.1375C94.5633 9.77935 94.7232 9.38429 94.7497 8.95293C94.7866 8.35358 94.578 7.83985 94.1255 7.41174C93.6724 6.98417 93.04 6.77011 92.2288 6.77011C91.4463 6.77011 90.7781 6.99338 90.2242 7.43937C89.9029 7.69841 89.6319 8.03602 89.4114 8.45275C89.0992 9.04289 88.4793 9.41247 87.8377 9.33227C86.8471 9.20817 86.3171 8.12327 86.8406 7.23345C87.1489 6.70888 87.5629 6.22929 88.0815 5.79413C89.1719 4.87993 90.5581 4.4231 92.2402 4.4231C94.01 4.4231 95.3892 4.88589 96.3782 5.81039C97.3672 6.73543 97.824 7.81221 97.7487 9.04072C97.707 9.72082 97.4756 10.3641 97.0545 10.971C96.6334 11.578 95.762 12.4044 94.4403 13.4497C93.7564 13.9911 93.3256 14.4257 93.1484 14.7552C93.0731 14.8961 93.0102 15.0847 92.9598 15.3209ZM89.8655 19.2113L89.8758 19.0406C89.9251 18.2364 90.6166 17.5845 91.4208 17.5845H91.5915C92.3957 17.5845 93.0075 18.2364 92.9582 19.0406L92.9479 19.2113C92.8986 20.0155 92.2071 20.6674 91.4029 20.6674H91.2322C90.428 20.6669 89.8162 20.015 89.8655 19.2113Z" fill="white"/>
</svg>
