<svg width="164" height="202" viewBox="0 0 164 202" fill="none" xmlns="http://www.w3.org/2000/svg">
<path d="M151.839 38.9102L150.886 37.3404C142.857 24.1082 128.339 16.1314 113.032 17.0997C111.065 17.224 109.106 17.4906 107.173 17.9041C93.2558 20.8829 81.1464 31.407 76.1273 44.8858C73.1753 52.8128 72.3508 61.9392 66.7487 68.2312C59.4581 76.4196 47.0807 76.677 36.1985 76.3374C25.3164 75.9984 12.9307 76.2876 5.67555 84.5084C1.13212 89.657 -0.312331 96.9789 0.0544316 103.874C1.02425 122.129 13.7448 138.452 29.9219 146.565C46.099 154.678 65.1455 155.405 82.8508 151.836C107.653 146.836 131.24 133.105 145.418 111.898C159.594 90.6915 163.182 61.799 151.839 38.9102Z" fill="#ECE6F4"/>
<path d="M146.056 168.231C146.514 166.643 147.496 165.108 149.014 164.454C150.593 163.773 152.422 164.161 154.038 164.748C155.654 165.335 157.24 166.121 158.957 166.227C160.673 166.332 162.609 165.519 163.123 163.878C163.606 162.335 162.677 160.69 161.512 159.569C159.065 157.214 155.389 156.216 152.087 157.008C148.784 157.801 145.962 160.36 144.851 163.569" fill="#00DE93"/>
<g opacity="0.5">
<path d="M146.056 168.231C146.514 166.643 147.496 165.108 149.014 164.454C150.593 163.773 152.422 164.161 154.038 164.748C155.654 165.335 157.24 166.121 158.957 166.227C160.673 166.332 162.609 165.519 163.123 163.878C163.606 162.335 162.677 160.69 161.512 159.569C159.065 157.214 155.389 156.216 152.087 157.008C148.784 157.801 145.962 160.36 144.851 163.569" fill="black"/>
</g>
<path d="M132.46 175.125C129.942 172.733 130.068 168.569 131.324 165.332C132.58 162.094 135.321 159.608 138.383 157.97C144.318 154.794 151.737 154.553 157.866 157.339C154.854 157.438 151.943 159.148 150.389 161.729C149.009 164.02 148.703 166.801 147.563 169.221C146.293 171.917 143.963 174.096 141.187 175.18C138.412 176.265 135.222 176.245 132.46 175.125Z" fill="#00DE93"/>
<path d="M131.25 160.755C128.463 157.464 128.092 152.182 128.502 147.889C128.912 143.597 129.907 139.276 129.23 135.017C128.829 132.494 127.85 130.085 127.519 127.552C127.188 125.018 127.657 122.153 129.62 120.518C131.876 118.639 135.429 119.082 137.776 120.847C140.123 122.612 141.482 125.384 142.476 128.147C144.66 134.218 145.461 140.95 143.668 147.147C141.874 153.344 137.666 158.884 131.492 160.755" fill="#00DE93"/>
<path d="M129.912 187.752C129.904 187.752 129.901 187.622 129.901 187.373C129.905 187.124 129.901 186.758 129.922 186.286C129.957 185.342 130.048 183.977 130.26 182.3C130.472 180.625 130.804 178.637 131.331 176.465C131.85 174.287 132.738 171.966 133.994 169.708C135.254 167.448 136.791 165.497 138.346 163.89C139.904 162.281 141.499 161.03 142.908 160.096C143.604 159.614 144.278 159.249 144.857 158.91C145.452 158.599 145.971 158.342 146.396 158.137C146.817 157.96 147.15 157.819 147.399 157.715C147.629 157.621 147.751 157.575 147.754 157.583C147.757 157.59 147.64 157.65 147.417 157.758C147.174 157.872 146.846 158.025 146.434 158.217C146.017 158.435 145.506 158.701 144.92 159.023C144.349 159.371 143.685 159.744 142.999 160.231C141.61 161.177 140.038 162.433 138.499 164.037C136.964 165.641 135.445 167.58 134.195 169.82C131.632 174.304 130.93 179.018 130.422 182.322C130.19 183.99 130.075 185.35 130.012 186.29C129.985 186.744 129.964 187.105 129.948 187.373C129.933 187.622 129.92 187.752 129.912 187.752Z" fill="#263238"/>
<path d="M105.869 147.774C100.712 150.887 100.728 153.719 101.589 156.392C102.45 159.065 105.616 160.923 108.24 159.922C109.724 159.356 110.798 158.066 111.716 156.771C112.634 155.475 113.497 154.089 114.783 153.158C116.069 152.227 117.934 151.871 119.226 152.794" fill="#00DE93"/>
<g opacity="0.5">
<path d="M105.869 147.774C100.712 150.887 100.728 153.719 101.589 156.392C102.45 159.065 105.616 160.923 108.24 159.922C109.724 159.356 110.798 158.066 111.716 156.771C112.634 155.475 113.497 154.089 114.783 153.158C116.069 152.227 117.934 151.871 119.226 152.794" fill="black"/>
</g>
<path d="M102.008 151.187C103.356 149.324 106.688 148.784 108.791 149.714C110.895 150.643 112.436 152.487 113.815 154.328C115.194 156.168 116.537 158.112 118.447 159.393C120.358 160.673 123.027 161.137 124.931 159.847C126.182 159 126.907 157.527 127.134 156.034C127.361 154.54 127.142 153.015 126.831 151.537C126.375 149.374 125.633 147.115 123.902 145.741C121.973 144.209 119.296 144.137 116.834 144.217C114.009 144.31 111.142 144.521 108.49 145.501C105.839 146.48 103.133 148.594 102.008 151.187Z" fill="#00DE93"/>
<path d="M125.626 183.622C125.622 183.622 125.617 183.584 125.612 183.509C125.608 183.42 125.602 183.311 125.595 183.176C125.584 182.865 125.569 182.437 125.55 181.896C125.518 180.765 125.471 179.161 125.415 177.188C125.352 175.201 125.272 172.835 125.128 170.211C124.981 167.588 124.787 164.704 124.389 161.701C124.186 160.202 123.949 158.736 123.534 157.379C123.116 156.021 122.559 154.756 121.954 153.597C121.342 152.441 120.672 151.389 119.96 150.468C119.245 149.549 118.507 148.752 117.782 148.077C116.319 146.739 114.919 145.922 113.922 145.445C113.67 145.33 113.45 145.217 113.253 145.137C113.059 145.061 112.891 144.996 112.749 144.941C112.624 144.891 112.523 144.85 112.441 144.817C112.371 144.787 112.336 144.77 112.338 144.766C112.339 144.763 112.376 144.772 112.448 144.794C112.532 144.822 112.637 144.856 112.765 144.897C112.91 144.947 113.081 145.005 113.279 145.073C113.48 145.147 113.704 145.254 113.96 145.364C114.975 145.818 116.4 146.621 117.892 147.956C118.63 148.63 119.383 149.428 120.111 150.35C120.836 151.275 121.519 152.333 122.141 153.498C122.758 154.665 123.323 155.937 123.75 157.312C124.175 158.693 124.413 160.164 124.617 161.67C125.016 164.684 125.204 167.573 125.34 170.199C125.472 172.827 125.536 175.194 125.578 177.183C125.618 179.172 125.634 180.781 125.639 181.894C125.64 182.435 125.64 182.863 125.64 183.174C125.638 183.309 125.636 183.419 125.635 183.508C125.633 183.583 125.63 183.622 125.626 183.622Z" fill="#263238"/>
<path d="M127.481 185.952C127.481 185.952 127.193 185.186 126.916 183.737C126.648 182.29 126.446 180.145 126.68 177.515C126.9 174.886 127.573 171.799 128.645 168.487C129.703 165.169 131.141 161.62 132.368 157.807C132.977 155.898 133.494 154.01 133.849 152.156C134.208 150.303 134.436 148.494 134.58 146.764C134.869 143.304 134.828 140.169 134.745 137.544C134.656 134.917 134.516 132.793 134.429 131.326C134.386 130.603 134.353 130.036 134.329 129.635C134.32 129.452 134.314 129.306 134.309 129.195C134.305 129.096 134.305 129.045 134.309 129.044C134.313 129.044 134.321 129.095 134.332 129.193C134.342 129.304 134.357 129.449 134.375 129.632C134.409 130.032 134.457 130.598 134.518 131.319C134.633 132.785 134.797 134.908 134.908 137.537C135.012 140.165 135.07 143.307 134.792 146.781C134.653 148.517 134.429 150.335 134.07 152.199C133.716 154.063 133.198 155.962 132.587 157.876C131.355 161.703 129.914 165.247 128.847 168.552C127.767 171.851 127.082 174.916 126.842 177.529C126.588 180.143 126.764 182.276 127.004 183.721C127.13 184.443 127.247 185.003 127.348 185.376C127.391 185.554 127.426 185.695 127.453 185.804C127.476 185.901 127.485 185.951 127.481 185.952Z" fill="#263238"/>
<path d="M140.268 188.283H116.052L115.499 183.622H140.268V188.283Z" fill="#455A64"/>
<path d="M118.65 187.752L121.678 201.735H134.837L137.669 187.752H118.65Z" fill="#455A64"/>
<path d="M140.267 188.283C140.267 188.346 134.943 188.383 128.377 188.365C121.808 188.346 116.486 188.28 116.486 188.216C116.486 188.153 121.809 188.116 128.377 188.134C134.943 188.153 140.268 188.219 140.267 188.283Z" fill="#455A64"/>
<path d="M136.111 195.184C136.081 195.231 135.397 194.526 133.979 193.962C133.275 193.682 132.385 193.464 131.385 193.441C130.384 193.409 129.297 193.647 128.197 194.026C127.093 194.4 126.062 194.834 125.058 195.073C124.049 195.29 123.111 195.274 122.346 195.155C121.579 195.034 120.984 194.807 120.603 194.602C120.415 194.495 120.271 194.408 120.182 194.335C120.092 194.267 120.046 194.228 120.051 194.222C120.064 194.203 120.258 194.341 120.642 194.522C121.028 194.698 121.616 194.896 122.369 194.993C123.119 195.09 124.037 195.088 125.011 194.866C125.98 194.623 127.011 194.184 128.123 193.808C129.232 193.426 130.358 193.183 131.39 193.229C132.42 193.264 133.329 193.506 134.04 193.811C134.757 194.108 135.277 194.469 135.618 194.731C135.788 194.864 135.914 194.975 135.994 195.055C136.076 195.135 136.117 195.179 136.111 195.184Z" fill="#263238"/>
<path d="M135.928 196.118C135.896 196.166 135.238 195.482 133.88 194.912C133.204 194.632 132.345 194.416 131.379 194.397C130.411 194.37 129.358 194.59 128.294 194.952C127.228 195.308 126.226 195.722 125.27 195.979C124.316 196.24 123.413 196.331 122.664 196.272C121.912 196.219 121.326 196.007 120.956 195.815C120.773 195.711 120.634 195.628 120.548 195.557C120.46 195.491 120.417 195.453 120.421 195.446C120.434 195.427 120.621 195.563 120.994 195.734C121.368 195.897 121.942 196.079 122.674 196.11C123.404 196.147 124.281 196.042 125.213 195.775C126.149 195.512 127.143 195.094 128.222 194.733C129.296 194.367 130.387 194.145 131.384 194.185C132.38 194.216 133.26 194.457 133.943 194.763C134.632 195.063 135.129 195.42 135.455 195.678C135.619 195.807 135.738 195.916 135.816 195.994C135.894 196.069 135.933 196.112 135.928 196.118Z" fill="white"/>
<path d="M136.351 194.258C136.322 194.301 135.611 193.588 134.162 192.967C133.442 192.662 132.534 192.39 131.503 192.328C130.472 192.256 129.348 192.519 128.213 192.908C127.072 193.291 126.013 193.755 124.964 193.97C123.914 194.16 122.95 194.102 122.163 193.974C121.374 193.838 120.759 193.613 120.363 193.405C120.168 193.296 120.018 193.208 119.927 193.133C119.832 193.063 119.785 193.023 119.79 193.017C119.803 192.998 120.003 193.141 120.402 193.323C120.803 193.502 121.412 193.699 122.188 193.812C122.962 193.917 123.91 193.956 124.923 193.76C125.928 193.544 126.991 193.075 128.139 192.689C129.282 192.297 130.447 192.028 131.516 192.115C132.579 192.191 133.502 192.487 134.227 192.817C134.957 193.144 135.491 193.518 135.842 193.79C136.018 193.927 136.148 194.041 136.23 194.125C136.315 194.206 136.357 194.252 136.351 194.258Z" fill="white"/>
<path d="M140.481 188.303C140.481 188.366 135.034 188.418 128.316 188.418C121.596 188.418 116.149 188.366 116.149 188.303C116.149 188.239 121.595 188.187 128.316 188.187C135.034 188.188 140.481 188.24 140.481 188.303Z" fill="#263238"/>
<path d="M34.5491 92.9428L31.3294 91.3833C29.5352 91.559 27.6782 91.7547 26.1203 92.6619C24.5628 93.569 23.3886 95.4003 23.8278 97.1488C24.194 98.6071 25.5907 99.8204 25.3821 101.309C25.1936 102.658 23.7995 103.436 22.5872 104.056C21.375 104.676 20.0235 105.607 20.0446 106.968C20.0564 107.755 20.5706 108.474 21.2373 108.891C21.904 109.308 22.7044 109.461 23.4898 109.503C27.3156 109.709 31.0197 107.361 32.9799 104.069C34.94 100.777 35.3012 96.6999 34.5491 92.9428Z" fill="#00DE93"/>
<g opacity="0.7">
<path d="M34.5491 92.9428L31.3294 91.3833C29.5352 91.559 27.6782 91.7547 26.1203 92.6619C24.5628 93.569 23.3886 95.4003 23.8278 97.1488C24.194 98.6071 25.5907 99.8204 25.3821 101.309C25.1936 102.658 23.7995 103.436 22.5872 104.056C21.375 104.676 20.0235 105.607 20.0446 106.968C20.0564 107.755 20.5706 108.474 21.2373 108.891C21.904 109.308 22.7044 109.461 23.4898 109.503C27.3156 109.709 31.0197 107.361 32.9799 104.069C34.94 100.777 35.3012 96.6999 34.5491 92.9428Z" fill="white"/>
</g>
<path d="M25.7894 90.3144L36.5689 98.1633C36.5689 98.1633 39.431 94.5722 38.415 90.3647L32.9762 86.5518C32.9762 86.5518 29.6707 86.0222 25.7894 90.3144Z" fill="#263238"/>
<path d="M30.285 85.2804L39.6986 91.858L74.4989 44.9658C74.4989 44.9658 76.8793 40.5369 73.3298 34.8788C73.3298 34.8788 66.1379 34.2265 62.1703 38.96C58.2026 43.6934 30.285 85.2804 30.285 85.2804Z" fill="#E0E0E0"/>
<path d="M30.285 85.2804C30.285 85.2804 30.3415 85.1843 30.4664 84.9881C30.5974 84.7878 30.7838 84.5022 31.0278 84.1293C31.5297 83.3731 32.2627 82.2703 33.2068 80.8484C35.1213 77.9986 37.8889 73.8779 41.3249 68.7622C44.7788 63.6527 48.9072 57.5508 53.5786 50.7785C55.9173 47.3945 58.3752 43.8321 61.0417 40.2015C61.389 39.7561 61.7377 39.3082 62.0886 38.8582C62.4857 38.4427 62.8627 38.0009 63.325 37.6465C64.2147 36.9053 65.2276 36.2883 66.3233 35.8574C67.4143 35.4156 68.5675 35.112 69.7454 34.9281C70.9253 34.7453 72.1242 34.6698 73.3421 34.7458L73.4074 34.7499L73.4433 34.8079C74.4419 36.4275 75.2386 38.3728 75.3824 40.4434C75.4862 42.0266 75.2746 43.6272 74.6166 45.029L74.6135 45.0357L74.6063 45.0454C59.8469 64.8886 47.0647 82.0735 39.7556 91.9001L39.7145 91.9556L39.6585 91.916C36.6571 89.7976 34.3076 88.14 32.7014 87.0063C31.9129 86.4459 31.3078 86.0165 30.8922 85.7211C30.6944 85.5794 30.5434 85.4705 30.4345 85.3924C30.3318 85.3189 30.285 85.2804 30.285 85.2804C30.285 85.2804 30.3446 85.3164 30.452 85.3888C30.565 85.4658 30.7227 85.5727 30.9282 85.7124C31.3514 86.0031 31.9668 86.4264 32.7697 86.9786C34.379 88.0922 36.7321 89.7201 39.7387 91.7999L39.6411 91.8159C46.9291 81.9739 59.6743 64.7612 74.391 44.8867L74.3808 44.9031C75.0013 43.5815 75.2196 41.9988 75.1148 40.4635C74.9746 38.4458 74.1974 36.5426 73.2163 34.9502L73.317 35.0119C70.9515 34.8814 68.5624 35.2497 66.4224 36.1014C65.3478 36.5231 64.3595 37.1256 63.4919 37.8468C63.0404 38.191 62.6742 38.6214 62.2864 39.0252C61.9386 39.4705 61.5924 39.9144 61.2477 40.3556C58.5833 43.976 56.1197 47.5362 53.7758 50.9152C49.0932 57.6777 44.9483 63.7688 41.4749 68.8644C38.0102 73.9601 35.2194 78.0648 33.289 80.9039C32.3274 82.3139 31.581 83.4081 31.0699 84.158C30.8187 84.5217 30.6261 84.8001 30.491 84.9958C30.36 85.1807 30.285 85.2804 30.285 85.2804Z" fill="#263238"/>
<path d="M30.7438 84.5977L25.1694 84.6917L30.2959 78.0371L35.3196 77.8034L30.7438 84.5977Z" fill="#455A64"/>
<path d="M73.3299 34.8788C73.3304 34.8829 73.2786 34.9009 73.1779 34.9312C73.0762 34.9584 72.9267 34.9985 72.7443 35.0966C72.3689 35.2615 71.8536 35.5897 71.2203 36.0531C69.9541 36.9823 68.224 38.4838 66.1914 40.4671L66.2187 40.4039C66.1842 40.5436 66.1324 40.6135 66.0897 40.7023L65.9474 40.9545C65.8488 41.1205 65.7486 41.2889 65.6469 41.459C65.4384 41.7949 65.2252 42.1396 65.0074 42.4915C64.5621 43.1901 64.0972 43.9195 63.6138 44.6771C62.6312 46.1832 61.575 47.8018 60.4593 49.5113C58.212 52.9221 55.7022 56.6848 53.0383 60.6246C50.471 64.4309 47.9761 68.0236 45.7226 71.2998C43.4645 74.5693 41.4308 77.5152 39.7188 79.9942C38.0093 82.4532 36.6223 84.4478 35.652 85.8429C35.1748 86.5189 34.8004 87.0495 34.5353 87.4255C34.412 87.595 34.3144 87.7296 34.2394 87.8334C34.1716 87.9243 34.1346 87.9695 34.131 87.9669C34.1274 87.9644 34.1562 87.914 34.2168 87.8174C34.2862 87.7106 34.3766 87.5709 34.4911 87.3947C34.7464 87.012 35.107 86.4721 35.5668 85.7838C36.5201 84.3769 37.8834 82.3663 39.5636 79.8868C42.9636 74.9073 47.6453 68.0503 52.8174 60.4741C55.4808 56.5348 57.9973 52.7772 60.2559 49.3757C62.5099 45.9808 64.5251 42.9106 66.0948 40.4003L66.0635 40.3356C68.1198 38.3626 69.8703 36.8806 71.1628 35.9709C71.8084 35.5173 72.3365 35.2004 72.7248 35.0483C72.9123 34.9569 73.0685 34.924 73.1738 34.905C73.2765 34.8834 73.3294 34.8747 73.3299 34.8788Z" fill="#263238"/>
<path d="M57.0592 55.4986C57.0381 55.4709 57.1625 55.3733 57.3448 55.4807C57.428 55.5279 57.5189 55.661 57.4897 55.813C57.465 55.9548 57.353 56.0996 57.1666 56.1269C56.9791 56.1443 56.8368 56.0303 56.7782 55.8998C56.7135 55.7606 56.7644 55.6127 56.8301 55.5433C56.9734 55.3908 57.1178 55.4432 57.108 55.476C57.1101 55.513 57.0243 55.5485 56.9868 55.6491C56.9683 55.6995 56.9693 55.7488 56.9986 55.7894C57.0258 55.833 57.0911 55.868 57.1347 55.8608C57.1784 55.8577 57.2333 55.8084 57.2488 55.7601C57.2667 55.7149 57.2554 55.6687 57.2241 55.626C57.1609 55.5413 57.0695 55.5341 57.0592 55.4986Z" fill="#263238"/>
<path d="M52.2831 62.2561C52.262 62.2283 52.3863 62.1307 52.5692 62.2381C52.6524 62.2853 52.7433 62.4184 52.714 62.5704C52.6894 62.7127 52.5774 62.8571 52.3909 62.8843C52.2034 62.9017 52.0612 62.7877 52.0026 62.6572C51.9379 62.518 51.9887 62.3701 52.0545 62.3013C52.1978 62.1487 52.3421 62.2011 52.3324 62.234C52.3339 62.2709 52.2486 62.3064 52.2111 62.4071C52.1926 62.4574 52.1937 62.5067 52.223 62.5473C52.2502 62.591 52.3154 62.6259 52.3591 62.6187C52.4027 62.6156 52.4577 62.5663 52.4731 62.518C52.4911 62.4728 52.4803 62.4266 52.4485 62.384C52.3853 62.2987 52.2938 62.2915 52.2831 62.2561Z" fill="#263238"/>
<path d="M46.827 70.2488C46.8059 70.221 46.9308 70.1235 47.1131 70.2308C47.1963 70.2781 47.2873 70.4111 47.258 70.5631C47.2333 70.7049 47.1213 70.8498 46.9349 70.877C46.7474 70.8945 46.6051 70.7804 46.5465 70.65C46.4818 70.5108 46.5327 70.3628 46.5984 70.294C46.7417 70.1414 46.8856 70.1938 46.8763 70.2267C46.8784 70.2637 46.7926 70.2991 46.7551 70.3998C46.7366 70.4501 46.7376 70.4995 46.7669 70.54C46.7941 70.5837 46.8594 70.6186 46.903 70.6114C46.9467 70.6084 47.0017 70.559 47.0171 70.5108C47.035 70.4656 47.0243 70.4193 46.9924 70.3767C46.9292 70.2914 46.8378 70.2842 46.827 70.2488Z" fill="#263238"/>
<path d="M41.3306 78.4321C41.3095 78.4044 41.4338 78.3068 41.6162 78.4141C41.6994 78.4614 41.7903 78.5944 41.761 78.7465C41.7364 78.8882 41.6244 79.0331 41.4379 79.0603C41.2504 79.0778 41.1082 78.9638 41.0496 78.8333C40.9849 78.6941 41.0357 78.5461 41.1015 78.4773C41.2448 78.3247 41.3891 78.3771 41.3794 78.41C41.3809 78.447 41.2956 78.4824 41.2581 78.5831C41.2396 78.6335 41.2407 78.6828 41.27 78.7234C41.2972 78.767 41.3624 78.8019 41.4061 78.7948C41.4497 78.7917 41.5047 78.7424 41.5201 78.6941C41.5381 78.6489 41.5273 78.6026 41.4955 78.56C41.4328 78.4742 41.3414 78.4675 41.3306 78.4321Z" fill="#263238"/>
<path d="M36.2345 86.1213C36.2134 86.0935 36.3382 85.9959 36.5206 86.1033C36.6038 86.1506 36.6947 86.2836 36.6654 86.4357C36.6408 86.5774 36.5288 86.7223 36.3423 86.7495C36.1549 86.767 36.0126 86.6529 35.954 86.5225C35.8893 86.3833 35.9401 86.2353 36.0059 86.1665C36.1492 86.0139 36.2935 86.0663 36.2838 86.0992C36.2853 86.1362 36.2001 86.1716 36.1626 86.2723C36.1441 86.3221 36.1451 86.372 36.1744 86.4125C36.2016 86.4562 36.2668 86.4911 36.3105 86.4839C36.3542 86.4809 36.4091 86.4315 36.4245 86.3833C36.4425 86.3381 36.4312 86.2918 36.3999 86.2492C36.3367 86.1639 36.2453 86.1567 36.2345 86.1213Z" fill="#263238"/>
<path d="M61.617 48.8415C61.596 48.8137 61.7208 48.7161 61.9032 48.8235C61.9864 48.8707 62.0773 49.0038 62.048 49.1558C62.0234 49.2981 61.9114 49.4425 61.7249 49.4697C61.5374 49.4872 61.3951 49.3731 61.3366 49.2426C61.2719 49.1034 61.3227 48.9555 61.3885 48.8867C61.5318 48.7341 61.6761 48.7865 61.6664 48.8194C61.6679 48.8564 61.5826 48.8918 61.5451 48.9925C61.5266 49.0428 61.5277 49.0921 61.5569 49.1327C61.5842 49.1764 61.6494 49.2113 61.6931 49.2041C61.7367 49.201 61.7917 49.1517 61.8071 49.1034C61.8251 49.0582 61.8143 49.012 61.7824 48.9694C61.7193 48.8841 61.6278 48.8769 61.617 48.8415Z" fill="#263238"/>
<path d="M66.4841 41.6326C66.4631 41.6048 66.5874 41.5072 66.7697 41.6146C66.853 41.6619 66.9439 41.7949 66.9146 41.9469C66.8899 42.0887 66.778 42.2336 66.5915 42.2608C66.404 42.2783 66.2617 42.1642 66.2032 42.0338C66.1384 41.8945 66.1893 41.7466 66.255 41.6778C66.3984 41.5252 66.5427 41.5776 66.5329 41.6105C66.5345 41.6475 66.4492 41.6829 66.4117 41.7836C66.3932 41.8339 66.3942 41.8832 66.423 41.9238C66.4502 41.9675 66.5155 42.0024 66.5591 41.9952C66.6028 41.9921 66.6578 41.9428 66.6732 41.8945C66.6911 41.8493 66.6804 41.8031 66.6485 41.7605C66.5858 41.6747 66.4944 41.6675 66.4841 41.6326Z" fill="#263238"/>
<path d="M21.2331 99.2929C20.5731 98.4289 19.1353 98.3189 18.3519 99.073L18.4162 99.0386C17.8054 99.5256 17.5963 100.529 17.9302 101.266C18.3781 102.257 19.7543 102.688 20.6876 102.13C21.621 101.573 21.8932 100.157 21.2331 99.2929Z" fill="#00DE93"/>
<g opacity="0.7">
<path d="M21.2331 99.2929C20.5731 98.4289 19.1353 98.3189 18.3519 99.073L18.4162 99.0386C17.8054 99.5256 17.5963 100.529 17.9302 101.266C18.3781 102.257 19.7543 102.688 20.6876 102.13C21.621 101.573 21.8932 100.157 21.2331 99.2929Z" fill="white"/>
</g>
<path d="M73.6981 45.9741C73.6637 46.0019 73.166 45.4219 72.2126 44.6386C71.2695 43.8455 69.8913 42.8361 68.302 41.8277C66.7137 40.8163 65.202 40.0201 64.0688 39.5434C63.7848 39.4263 63.5223 39.3369 63.2942 39.2481C63.0749 39.1844 62.8761 39.1269 62.6942 39.0739C62.3593 39.0185 62.1698 38.9789 62.1703 38.9604C62.1708 38.9424 62.3619 38.9455 62.7143 38.9717C62.9033 39.0123 63.1098 39.0565 63.3379 39.1053C63.5731 39.1813 63.8454 39.2599 64.1382 39.3673C65.3052 39.8059 66.8463 40.5836 68.4453 41.6017C70.0459 42.6167 71.4164 43.6585 72.3369 44.4958C72.8002 44.9103 73.1495 45.2755 73.3776 45.5385C73.5985 45.8082 73.7125 45.9623 73.6981 45.9741Z" fill="#263238"/>
<path d="M59.5141 134.642L43.3868 137.026L46.2506 157.106C48.1517 156.715 50.5218 145.778 50.5218 145.778L60.9175 144.674L59.5141 134.642Z" fill="#455A64"/>
<path d="M50.5058 139.445C50.344 139.071 49.8689 138.865 49.4893 139.011C49.1097 139.158 48.8954 139.639 49.0506 140.015C49.2057 140.391 49.7687 140.656 50.1298 140.468C50.4909 140.28 50.7113 139.702 50.4704 139.373" fill="white"/>
<path d="M43.3868 137.026L45.0219 136.85L47.1562 156.168C47.1562 156.168 46.8947 157.118 46.2506 157.107L43.3868 137.026Z" fill="white"/>
<path d="M50.6701 146.089C50.5715 146.1 50.457 145.616 50.0733 145.178C49.7009 144.731 49.2406 144.543 49.2663 144.447C49.2725 144.354 49.8796 144.417 50.3352 144.954C50.7955 145.488 50.7631 146.097 50.6701 146.089Z" fill="#263238"/>
<path d="M50.0995 148.319C50.0076 148.355 49.7805 147.954 49.3182 147.681C48.8641 147.393 48.4034 147.373 48.3941 147.275C48.3654 147.185 48.9304 147.035 49.4985 147.387C50.0692 147.733 50.1925 148.304 50.0995 148.319Z" fill="#263238"/>
<path d="M47.7489 149.875C47.715 149.789 48.1855 149.583 48.7588 149.758C49.3331 149.929 49.611 150.361 49.535 150.414C49.462 150.481 49.1317 150.225 48.6591 150.088C48.1902 149.94 47.7725 149.971 47.7489 149.875Z" fill="#263238"/>
<path d="M53.0115 145.574C52.9165 145.546 52.9874 145.077 52.8708 144.528C52.7655 143.977 52.5179 143.572 52.5944 143.509C52.6571 143.442 53.0803 143.811 53.2087 144.46C53.3418 145.107 53.0952 145.612 53.0115 145.574Z" fill="#263238"/>
<path d="M55.3256 144.757C55.285 144.763 55.1695 144.385 55.1874 143.75C55.1967 143.434 55.246 143.057 55.3605 142.652C55.4181 142.45 55.492 142.241 55.5845 142.031C55.6307 141.93 55.6749 141.812 55.7776 141.694C55.8645 141.57 56.1156 141.472 56.2929 141.574C56.4619 141.655 56.5543 141.828 56.5785 141.972C56.6041 142.119 56.5918 142.244 56.58 142.357C56.5574 142.588 56.5132 142.808 56.4547 143.013C56.335 143.421 56.1588 143.764 55.978 144.027C55.6133 144.554 55.2696 144.765 55.2455 144.734C55.207 144.694 55.4813 144.424 55.7699 143.899C55.9133 143.638 56.0535 143.31 56.1475 142.93C56.1932 142.741 56.2271 142.539 56.243 142.328C56.2687 142.107 56.2441 141.926 56.1418 141.885C56.1028 141.87 56.0884 141.87 56.0324 141.923C55.9816 141.977 55.9374 142.072 55.8917 142.171C55.8013 142.365 55.7258 142.559 55.6636 142.746C55.5398 143.121 55.4689 143.473 55.4299 143.771C55.3518 144.368 55.379 144.751 55.3256 144.757Z" fill="#263238"/>
<path d="M55.1669 144.649C55.1469 144.616 55.4705 144.372 56.1002 144.245C56.4125 144.184 56.7993 144.162 57.2211 144.225C57.4317 144.258 57.65 144.313 57.8683 144.394C58.0835 144.484 58.3696 144.59 58.4678 144.964C58.5037 145.161 58.3722 145.348 58.2474 145.424C58.121 145.51 58.0065 145.539 57.8935 145.579C57.6644 145.65 57.4337 145.678 57.2159 145.677C56.7793 145.675 56.3992 145.55 56.1162 145.395C55.5398 145.077 55.3641 144.684 55.3965 144.671C55.4412 144.631 55.679 144.946 56.222 145.175C56.4896 145.288 56.8332 145.374 57.2123 145.359C57.4014 145.352 57.5981 145.321 57.7907 145.257C57.9998 145.196 58.1606 145.091 58.1272 145.014C58.1149 144.914 57.9294 144.768 57.7476 144.71C57.5529 144.632 57.3567 144.577 57.1671 144.538C56.7865 144.464 56.431 144.459 56.1357 144.486C55.5414 144.543 55.1895 144.7 55.1669 144.649Z" fill="#263238"/>
<path d="M12.6722 155.283L0.539795 166.173L14.0109 181.336C15.3803 179.961 11.3197 169.532 11.3197 169.532L19.3793 162.874L12.6722 155.283Z" fill="#455A64"/>
<path d="M7.81132 164.26C7.47024 164.038 6.96016 164.128 6.72438 164.46C6.48809 164.791 6.57593 165.311 6.9129 165.539C7.24987 165.767 7.86577 165.677 8.06302 165.321C8.26027 164.965 8.12466 164.361 7.74248 164.221" fill="white"/>
<path d="M0.539795 166.173L1.80549 165.123L14.2482 180.055C14.2482 180.055 14.5543 180.991 14.0109 181.337L0.539795 166.173Z" fill="white"/>
<path d="M11.6157 169.71C11.5396 169.773 11.177 169.433 10.615 169.28C10.0572 169.112 9.56971 169.209 9.53889 169.115C9.49266 169.034 10.0336 168.752 10.7101 168.948C11.3881 169.139 11.6979 169.665 11.6157 169.71Z" fill="#263238"/>
<path d="M12.3707 171.885C12.3137 171.965 11.9033 171.756 11.3665 171.784C10.8292 171.794 10.4342 172.032 10.372 171.955C10.2986 171.896 10.6869 171.459 11.3547 171.439C12.0219 171.412 12.4395 171.82 12.3707 171.885Z" fill="#263238"/>
<path d="M11.2695 174.479C11.194 174.425 11.4724 173.994 12.0467 173.824C12.6199 173.65 13.0905 173.857 13.0565 173.942C13.0329 174.039 12.6153 174.007 12.1458 174.154C11.6732 174.29 11.3424 174.546 11.2695 174.479Z" fill="#263238"/>
<path d="M13.2841 167.988C13.189 168.017 12.9892 167.587 12.5891 167.194C12.1966 166.793 11.7667 166.591 11.796 166.497C11.8114 166.406 12.3682 166.481 12.8331 166.951C13.3015 167.416 13.3745 167.973 13.2841 167.988Z" fill="#263238"/>
<path d="M14.7625 166.029C14.7327 166.057 14.4271 165.805 14.0916 165.266C13.9252 164.997 13.7578 164.656 13.6299 164.255C13.5662 164.054 13.5122 163.839 13.4737 163.613C13.4567 163.503 13.428 163.38 13.4485 163.225C13.4526 163.075 13.6078 162.853 13.8122 162.841C13.9976 162.816 14.1702 162.908 14.2699 163.016C14.3731 163.124 14.4307 163.235 14.4836 163.335C14.5925 163.541 14.6772 163.749 14.7409 163.951C14.8663 164.358 14.9089 164.741 14.9032 165.06C14.8904 165.701 14.7204 166.066 14.6834 166.054C14.6295 166.042 14.7091 165.665 14.6598 165.068C14.6351 164.771 14.5709 164.42 14.4399 164.052C14.3731 163.868 14.2899 163.681 14.1872 163.496C14.0865 163.298 13.9663 163.16 13.8584 163.183C13.8179 163.192 13.8055 163.2 13.7881 163.275C13.7757 163.348 13.7906 163.451 13.8076 163.56C13.8394 163.771 13.8831 163.974 13.9345 164.165C14.0382 164.546 14.1733 164.878 14.3053 165.149C14.5699 165.69 14.8036 165.994 14.7625 166.029Z" fill="#263238"/>
<path d="M14.5703 166.027C14.5354 166.011 14.6705 165.628 15.1261 165.175C15.3526 164.951 15.6629 164.719 16.0497 164.54C16.2433 164.451 16.4555 164.376 16.6825 164.323C16.9111 164.279 17.208 164.209 17.4962 164.467C17.6354 164.612 17.6287 164.841 17.566 164.973C17.508 165.114 17.4289 165.202 17.357 165.298C17.2044 165.483 17.0277 165.634 16.8459 165.753C16.4806 165.992 16.0949 166.099 15.7733 166.125C15.1168 166.178 14.7542 165.948 14.7737 165.919C14.7886 165.862 15.161 165.993 15.7399 165.884C16.0255 165.831 16.3594 165.711 16.6671 165.49C16.8207 165.38 16.9676 165.245 17.0935 165.086C17.2337 164.919 17.3097 164.744 17.2399 164.698C17.1741 164.621 16.9388 164.601 16.7555 164.653C16.5505 164.696 16.3563 164.758 16.1766 164.831C15.818 164.979 15.519 165.171 15.2879 165.357C14.8246 165.731 14.6176 166.057 14.5703 166.027Z" fill="#263238"/>
<path d="M65.1357 86.0869C64.7361 86.2492 60.974 86.9252 57.6931 93.6251C54.4123 100.325 54.9311 104.365 54.9311 104.365L38.7442 127.446L5.78186 158.213L16.2161 168.47L50.5536 138.46C50.5536 138.46 68.5172 122.294 70.423 120.143C74.1014 115.992 86.505 98.1813 86.505 98.1813L65.1357 86.0869Z" fill="#263238"/>
<path d="M71.0502 112.433L77.672 128.62L53.4934 134.786L55.1634 146.6C55.1634 146.6 92.9132 141.475 94.973 139.598C97.0328 137.721 98.3823 136.051 98.4295 134.142C98.4768 132.233 86.4553 94.2954 86.4553 94.2954L72.8378 104.887L71.0502 112.433Z" fill="#263238"/>
<path d="M84.7473 99.1198C84.7555 99.1234 84.7252 99.2092 84.6584 99.3685C84.5767 99.5549 84.4771 99.784 84.3559 100.062C84.1021 100.67 83.6516 101.507 83.0933 102.541C81.9534 104.598 80.1936 107.328 78.1117 110.243C76.0318 113.161 74.0398 115.722 72.5671 117.548C71.8315 118.463 71.2238 119.193 70.798 119.692C70.5987 119.92 70.4348 120.108 70.3008 120.261C70.1847 120.389 70.1194 120.453 70.1122 120.447C70.1051 120.441 70.1559 120.366 70.2591 120.227C70.3824 120.065 70.534 119.867 70.7173 119.626C71.1437 119.076 71.719 118.334 72.4186 117.431C73.8523 115.576 75.8181 113.001 77.8939 110.088C79.9722 107.178 81.7516 104.472 82.9289 102.447C83.5058 101.429 83.9804 100.608 84.2619 100.017C84.4011 99.7481 84.5156 99.5267 84.6091 99.3464C84.6918 99.1943 84.7391 99.1162 84.7473 99.1198Z" fill="#455A64"/>
<path d="M85.3324 131.79C85.2898 131.817 85.0293 131.367 84.4627 130.77C84.1828 130.469 83.8109 130.149 83.3707 129.834C82.9227 129.529 82.4024 129.236 81.823 129.002C81.2394 128.777 80.659 128.635 80.1238 128.552C79.587 128.482 79.0969 128.461 78.6865 128.49C77.8651 128.539 77.3679 128.689 77.3545 128.641C77.3494 128.624 77.4691 128.575 77.693 128.501C77.9149 128.422 78.2509 128.351 78.6706 128.302C79.0902 128.248 79.5977 128.248 80.1556 128.308C80.7114 128.38 81.316 128.519 81.9206 128.754C82.5221 128.996 83.0584 129.307 83.514 129.634C83.9619 129.971 84.3328 130.317 84.6025 130.643C84.8752 130.966 85.0714 131.248 85.1798 131.457C85.2939 131.664 85.3483 131.781 85.3324 131.79Z" fill="#455A64"/>
<path d="M85.0545 127.215C85.0658 127.288 83.4909 127.594 81.5379 127.898C79.5839 128.202 77.991 128.389 77.9797 128.316C77.9684 128.243 79.5428 127.937 81.4968 127.633C83.4503 127.33 85.0432 127.142 85.0545 127.215Z" fill="#455A64"/>
<path d="M70.1127 120.448C70.1158 120.451 70.0736 120.498 69.9879 120.586C69.8913 120.683 69.7639 120.812 69.6021 120.975C69.2477 121.323 68.7437 121.817 68.1006 122.448C66.7959 123.727 64.884 125.553 62.5036 127.791C57.745 132.267 51.0606 138.334 43.563 144.903C36.0613 151.471 29.2084 157.344 24.2571 161.606C21.7884 163.726 19.7866 165.445 18.3889 166.646C17.7026 167.23 17.1653 167.687 16.7873 168.009C16.6106 168.155 16.4714 168.271 16.3661 168.358C16.27 168.436 16.2197 168.474 16.2166 168.47C16.2135 168.467 16.2582 168.422 16.3481 168.338C16.4493 168.245 16.5823 168.123 16.7518 167.968C17.1227 167.638 17.6487 167.168 18.3206 166.568C19.7049 165.352 21.6877 163.61 24.1333 161.463C29.0702 157.165 35.8723 151.244 43.3868 144.702C50.8833 138.135 57.5847 132.093 62.3752 127.652C64.771 125.433 66.7029 123.629 68.0292 122.373C68.6867 121.757 69.2019 121.276 69.5651 120.936C69.7346 120.781 69.8682 120.659 69.9694 120.567C70.0608 120.485 70.1096 120.444 70.1127 120.448Z" fill="#455A64"/>
<path d="M132.96 9.9796L135.661 5.3812C135.661 5.3812 137.036 0.782799 137.415 0.39138C137.794 -3.85472e-05 138.221 -0.0976357 138.505 0.09756C138.79 0.293269 142.913 1.46752 143.197 1.66323C143.482 1.85894 143.197 4.40265 143.197 4.40265L143.15 4.98978C143.15 4.98978 144.748 4.46532 145.377 4.98978C145.678 5.24045 145.188 6.40854 144.192 6.84876C143.291 7.24737 142.001 8.0071 140.464 9.49058C140.118 9.82498 139.664 10.0202 139.19 10.0392C138.924 10.05 138.711 10.0418 138.789 9.9796C139.099 9.73355 136.23 13.6 136.23 13.6L132.96 9.9796Z" fill="#B78876"/>
<path d="M145.377 4.9898C145.35 5.01959 145.112 4.80642 144.618 4.83364C144.133 4.84186 143.466 5.0201 142.744 5.2641C142.018 5.51477 141.315 5.69096 140.791 5.66939C140.267 5.65809 139.971 5.50039 139.983 5.47419C139.995 5.43156 140.298 5.51785 140.787 5.48035C141.277 5.45364 141.933 5.26102 142.659 5.01035C143.391 4.76327 144.094 4.60403 144.623 4.64461C144.885 4.66156 145.098 4.7345 145.222 4.81926C145.349 4.90093 145.386 4.98261 145.377 4.9898Z" fill="#AA6550"/>
<path d="M139.877 2.52155C139.905 2.5046 139.986 2.69825 140.273 2.83078C140.556 2.97615 141.021 2.95252 141.514 2.71263L141.742 2.60168L141.679 2.85543C141.583 3.24326 141.542 3.69837 141.605 4.16839C141.61 4.19921 141.614 4.23002 141.618 4.25828L141.639 4.40313L141.499 4.41289C141.222 4.4319 141.008 4.31837 140.821 4.25262C140.633 4.17866 140.467 4.1463 140.342 4.20742C140.218 4.26495 140.138 4.41135 140.124 4.54748C140.11 4.68411 140.156 4.82229 140.221 4.93273C140.355 5.15823 140.55 5.2887 140.674 5.38373C140.803 5.47671 140.874 5.5327 140.866 5.54914C140.857 5.56455 140.771 5.53989 140.623 5.47157C140.479 5.40017 140.252 5.29179 140.065 5.03341C139.975 4.90551 139.897 4.73496 139.905 4.53104C139.916 4.33533 140.009 4.10931 140.231 3.98911C140.456 3.86994 140.718 3.93518 140.91 4.00709C141.11 4.07849 141.303 4.16222 141.474 4.14629L141.355 4.3004C141.35 4.26958 141.345 4.23619 141.34 4.20331C141.272 3.69529 141.326 3.20371 141.445 2.79226L141.61 2.93506C141.343 3.04498 141.073 3.11689 140.824 3.11895C140.576 3.12409 140.356 3.0532 140.204 2.95817C139.891 2.76041 139.856 2.52001 139.877 2.52155Z" fill="#AA6550"/>
<path d="M139.359 5.19469C139.297 5.14949 139.654 4.60191 139.864 3.84476C139.978 3.46516 140.022 3.12664 139.953 2.89703C139.893 2.66331 139.77 2.55236 139.794 2.52103C139.807 2.49021 140.001 2.55904 140.13 2.83128C140.27 3.10148 140.241 3.52731 140.122 3.91821C139.893 4.73239 139.411 5.24246 139.359 5.19469Z" fill="#AA6550"/>
<path d="M95.2493 12.6995C96.666 11.9131 98.2157 11.2828 99.8353 11.2376C101.455 11.1919 103.157 11.8124 104.11 13.1233C104.849 14.1403 105.115 15.5083 106.089 16.3045C107.427 17.3996 109.405 16.9188 111.106 17.2285C111.453 17.2917 111.846 17.4397 111.944 17.7782C112.029 18.071 111.851 18.3694 111.681 18.6227C111.108 19.4784 110.534 20.3347 109.961 21.1905C110.63 21.6266 111.504 21.7314 112.257 21.4658C111.921 23.2555 110.932 24.9157 109.519 26.0642C109.853 25.8932 110.278 26.1814 110.38 26.543C110.482 26.9046 110.355 27.2888 110.206 27.634C109.293 29.7504 107.43 31.4357 105.233 32.1343C103.036 32.8329 100.542 32.5324 98.5732 31.3325" fill="#263238"/>
<path d="M96.2279 12.4745C94.5702 11.0398 91.9048 10.9397 90.1439 12.2464C88.9265 13.15 88.2074 14.5523 87.3798 15.8226C86.5523 17.0929 85.4556 18.3494 83.9665 18.634C82.7594 18.8651 81.4664 18.4151 80.3035 18.8112C79.0445 19.2396 78.2812 20.5844 78.1399 21.9066C77.9986 23.2288 78.3592 24.5474 78.7168 25.8279C77.9925 26.3945 77.0309 26.6462 76.1222 26.5075C76.4319 27.4512 77.0612 28.2864 77.8826 28.8448C78.4034 29.1992 79.0137 29.4586 79.3953 29.9604C79.7682 30.4505 79.8612 31.0797 79.9008 31.727C79.9958 33.2752 81.5127 34.3154 82.9992 33.8721C83.6485 33.6784 84.287 33.4447 85.1423 32.9978C85.1423 32.9978 84.4139 33.9799 85.5409 35.0628C86.4501 34.9682 87.2971 34.4022 87.7317 33.5978" fill="#263238"/>
<path d="M105.29 23.0346C105.793 18.2826 102.562 13.9411 97.8659 13.0575L97.3995 12.9697C92.3126 12.3168 88.9162 16.2726 88.4041 21.3754L84.9882 44.7563L96.5268 46.9029L97.8305 39.3288C97.8305 39.3288 102.81 39.487 103.779 34.6621C104.247 32.3321 104.822 27.4548 105.29 23.0346Z" fill="#B78876"/>
<path d="M102.733 26.2132C102.678 26.5805 102.321 26.8358 101.936 26.785C101.553 26.7336 101.286 26.3956 101.341 26.0283C101.397 25.661 101.754 25.4052 102.138 25.4561C102.522 25.5075 102.789 25.8465 102.733 26.2132Z" fill="#263238"/>
<path d="M103.804 25.2054C103.702 25.2793 103.252 24.7934 102.508 24.6558C101.767 24.5073 101.15 24.7873 101.086 24.6809C101.054 24.6332 101.172 24.4868 101.442 24.3588C101.708 24.2304 102.139 24.138 102.601 24.2274C103.064 24.3172 103.421 24.5607 103.612 24.7775C103.808 24.9953 103.854 25.173 103.804 25.2054Z" fill="#263238"/>
<path d="M96.045 25.7571C95.9423 25.8311 95.4913 25.3451 94.748 25.2075C94.0073 25.059 93.3898 25.339 93.3261 25.2326C93.2943 25.1849 93.4114 25.0385 93.6821 24.9105C93.9482 24.7821 94.3787 24.6897 94.841 24.779C95.3033 24.8689 95.6608 25.1124 95.8519 25.3292C96.0476 25.547 96.0948 25.7242 96.045 25.7571Z" fill="#263238"/>
<path d="M98.1336 29.9887C98.1382 29.9461 98.6149 29.9528 99.3818 29.998C99.5755 30.0139 99.7619 30.0103 99.8184 29.8865C99.8888 29.7576 99.8482 29.5382 99.7979 29.2999C99.706 28.8073 99.6099 28.2905 99.5087 27.7491C99.1162 25.5449 98.8707 23.7471 98.9596 23.7317C99.0484 23.7168 99.4388 25.491 99.8308 27.6952C99.9227 28.2376 100.011 28.7554 100.095 29.2501C100.126 29.4792 100.204 29.7473 100.053 30.0134C99.9756 30.1454 99.8169 30.2224 99.689 30.2322C99.5606 30.2466 99.4532 30.2286 99.3582 30.2163C98.5964 30.1161 98.1285 30.0313 98.1336 29.9887Z" fill="#263238"/>
<path d="M95.8492 30.0909C95.9714 30.1069 95.821 30.9138 96.404 31.616C96.9854 32.3203 97.8623 32.3917 97.8474 32.5052C97.8489 32.5581 97.6265 32.6259 97.2613 32.5673C96.9027 32.5124 96.4045 32.3002 96.048 31.8708C95.693 31.4403 95.6001 30.938 95.6345 30.6015C95.6674 30.2589 95.7947 30.076 95.8492 30.0909Z" fill="#263238"/>
<path d="M96.9059 22.0843C96.816 22.2836 96.0707 22.1305 95.1779 22.1711C94.2841 22.1937 93.5516 22.3997 93.4479 22.2071C93.4022 22.1151 93.5408 21.9317 93.8444 21.7545C94.1449 21.5778 94.6154 21.4232 95.1512 21.4037C95.687 21.3852 96.1667 21.5059 96.4791 21.661C96.7934 21.8161 96.945 21.9898 96.9059 22.0843Z" fill="#263238"/>
<path d="M104.28 22.3396C104.089 22.4803 103.492 22.1932 102.739 22.0509C101.989 21.8871 101.324 21.9174 101.208 21.7139C101.159 21.6169 101.29 21.4653 101.598 21.3544C101.901 21.2439 102.385 21.1951 102.901 21.2999C103.418 21.4052 103.84 21.6384 104.073 21.8583C104.308 22.0802 104.365 22.2697 104.28 22.3396Z" fill="#263238"/>
<path d="M88.4611 25.0934C88.3851 25.042 85.3231 23.4851 84.8063 26.8116C84.2896 30.1377 87.7358 29.9702 87.7564 29.8757C87.7774 29.7817 88.4611 25.0934 88.4611 25.0934Z" fill="#B78876"/>
<path d="M87.2273 28.5124C87.2145 28.4996 87.1631 28.5438 87.0583 28.5736C86.9561 28.6023 86.7871 28.607 86.6238 28.515C86.2924 28.3316 86.0834 27.7275 86.1599 27.1255C86.1984 26.8214 86.3068 26.543 86.4512 26.3211C86.5904 26.0935 86.7743 25.9482 86.9561 25.9441C87.1385 25.9307 87.2474 26.0561 87.2736 26.1562C87.3039 26.2559 87.2725 26.3191 87.289 26.3278C87.2972 26.3375 87.3691 26.2831 87.3635 26.1413C87.3599 26.073 87.3331 25.9888 87.2648 25.9127C87.195 25.8352 87.083 25.7838 86.9576 25.7782C86.6982 25.7561 86.4306 25.9564 86.2724 26.1999C86.0998 26.4423 85.9709 26.7541 85.9277 27.0957C85.845 27.7692 86.0906 28.4498 86.5498 28.6635C86.7743 28.761 86.9803 28.7205 87.0933 28.6578C87.2088 28.5915 87.2381 28.5201 87.2273 28.5124Z" fill="#AA6550"/>
<path d="M93.3672 15.6274C94.3792 15.5863 95.3721 15.9094 96.1657 16.5387L96.6794 16.9455L105.145 19.5154C107.348 18.8235 106.33 16.7385 104.606 15.8134C102.589 14.7311 100.427 12.7848 98.185 12.3266C95.9428 11.8689 91.8242 12.5505 89.7993 14.7814C88.5957 16.1072 88.195 17.3313 88.195 17.3313C87.6552 19.0814 87.0716 22.7038 87.143 24.5335C87.18 25.4771 87.8791 26.7125 87.8791 26.7125C87.8791 26.7125 87.8791 26.7125 87.8797 26.7125C88.6404 26.8512 89.0349 26.299 89.0596 25.5264L89.4659 22.5517C89.4659 22.5517 92.3928 21.1957 91.7933 17.6056C91.7831 17.584 91.8036 17.6369 91.7933 17.6056C91.4687 16.6399 92.27 15.5781 93.3672 15.6274Z" fill="#263238"/>
<path d="M91.8694 16.5254C92.2392 15.4934 94.0792 15.1184 95.0547 15.6177C96.0301 16.117 96.6573 17.0853 97.3231 17.9559C97.9888 18.8266 98.8358 19.6916 99.9258 19.8103C101.059 19.9336 102.282 19.2242 103.292 19.7523C103.738 19.985 104.043 20.4221 104.464 20.6979C105.111 21.1227 105.968 21.114 106.7 20.8623C107.432 20.6106 108.068 20.1442 108.691 19.685C106.545 19.3552 104.712 18.0068 102.999 16.6733C101.286 15.3398 99.5139 13.939 97.3939 13.47C95.274 13.0011 92.6995 13.7885 91.8694 15.7944" fill="#263238"/>
<path d="M80.229 29.9733C80.2362 29.961 80.3281 30.0319 80.53 30.0797C80.7288 30.1233 81.055 30.1161 81.393 29.9153C81.7335 29.7247 82.0192 29.2901 82.0556 28.7323C82.106 28.1739 81.9092 27.5488 81.5805 26.9149C81.2564 26.2795 80.8511 25.5732 80.6502 24.7251C80.4432 23.894 80.4679 22.8646 81.0529 22.0294C81.3401 21.6138 81.7911 21.3097 82.2806 21.1381C82.7763 20.9686 83.3074 20.9327 83.8319 20.9342C84.8752 20.9337 85.9662 21.1248 86.9889 20.8248C87.4918 20.6717 87.9305 20.3646 88.2223 19.9464C88.5146 19.5268 88.6743 19.029 88.7699 18.5318C88.9656 17.5322 88.8844 16.5177 89.0513 15.5556C89.1315 15.0768 89.2599 14.6099 89.4823 14.1943C89.7052 13.7813 90.0217 13.4243 90.4064 13.1973C91.1815 12.7303 92.0671 12.755 92.7719 12.9384C93.4936 13.1233 94.0607 13.5106 94.5009 13.882C94.9432 14.2585 95.2699 14.6366 95.5282 14.9484C95.7856 15.2617 95.9715 15.515 96.0959 15.6871C96.2202 15.8602 96.2813 15.9536 96.2741 15.9593C96.2669 15.9649 96.1914 15.8822 96.0537 15.7204C95.8971 15.5381 95.6967 15.3044 95.4491 15.0162C95.181 14.7172 94.8466 14.3541 94.4053 13.9976C93.9651 13.6452 93.414 13.2861 92.7251 13.1223C92.0512 12.9579 91.2185 12.9543 90.5225 13.3868C89.8157 13.8111 89.4243 14.6746 89.2943 15.5956C89.1376 16.5202 89.225 17.5337 89.0267 18.5811C88.9286 19.0999 88.7621 19.6341 88.4396 20.1C88.118 20.5654 87.6187 20.9152 87.068 21.0811C85.9503 21.4032 84.849 21.1952 83.8293 21.1972C83.3182 21.1931 82.8154 21.228 82.3623 21.3806C81.9154 21.5362 81.5137 21.8023 81.2528 22.1732C80.7185 22.9237 80.6759 23.8791 80.866 24.6758C81.0488 25.491 81.4305 26.1814 81.75 26.8327C82.0731 27.4805 82.2739 28.1518 82.2046 28.7472C82.1543 29.342 81.8214 29.8172 81.4449 30.0067C81.073 30.2086 80.7226 30.1963 80.5167 30.1331C80.3076 30.0637 80.229 29.9733 80.229 29.9733Z" fill="#455A64"/>
<path d="M108.984 17.7654C108.989 17.7731 108.944 17.8095 108.852 17.8722C108.763 17.94 108.622 18.0232 108.427 18.109C108.042 18.2785 107.427 18.4552 106.662 18.3828C105.907 18.3232 104.986 18.0171 104.25 17.2964C103.882 16.9409 103.593 16.4653 103.393 15.9603C103.184 15.458 103.02 14.9263 102.743 14.4512C102.193 13.4978 101.131 12.9923 100.189 12.9718C99.2282 12.9363 98.4218 13.4125 97.9497 13.9544C97.4648 14.4984 97.2532 15.0768 97.1756 15.4759C97.0949 15.8792 97.1109 16.1129 97.0852 16.1134C97.0759 16.1139 97.0662 16.0569 97.0559 15.9459C97.0461 15.8355 97.0431 15.6696 97.0729 15.459C97.1217 15.0408 97.3122 14.4234 97.8074 13.8306C98.2841 13.242 99.1512 12.7011 100.194 12.7257C101.212 12.7339 102.368 13.2702 102.975 14.3166C103.272 14.8297 103.435 15.3722 103.636 15.8612C103.829 16.3553 104.087 16.7848 104.425 17.1228C105.1 17.8029 105.964 18.1162 106.682 18.1953C107.409 18.2883 108.004 18.1486 108.389 18.0135C108.778 17.8784 108.967 17.7376 108.984 17.7654Z" fill="#455A64"/>
<path d="M84.4035 17.2054C84.3938 17.1967 84.4451 17.1473 84.4929 17.0323C84.5386 16.9188 84.5659 16.7246 84.4755 16.5073C84.3938 16.2946 84.1708 16.0527 83.8421 16.0712C83.5282 16.0784 83.1604 16.3285 83.051 16.7143C82.9391 17.0996 83.1255 17.5901 83.5062 17.8809C83.8904 18.1742 84.4544 18.26 84.9994 18.1516C85.547 18.0468 86.093 17.7576 86.505 17.3097C86.9231 16.8643 87.1486 16.251 87.3443 15.6104C87.5333 14.9678 87.7614 14.3139 88.1292 13.7715C88.4842 13.2224 88.9341 12.7688 89.4134 12.4103C90.3791 11.6906 91.4773 11.4101 92.3737 11.4091C93.2788 11.3963 93.9897 11.6182 94.4464 11.8139C94.6755 11.914 94.846 12.0075 94.957 12.0779C95.0674 12.1488 95.1229 12.1894 95.1182 12.1976C95.1069 12.2181 94.8686 12.08 94.4084 11.911C93.9496 11.7486 93.251 11.5617 92.3793 11.5986C91.5138 11.6238 90.4752 11.9115 89.5613 12.608C89.1088 12.9553 88.6835 13.3909 88.3496 13.9148C88.0023 14.4341 87.7922 15.0408 87.6001 15.6911C87.4039 16.3327 87.164 16.9974 86.6981 17.4884C86.2435 17.9769 85.6466 18.2872 85.0451 18.3945C84.4477 18.505 83.8164 18.4084 83.37 18.056C82.9324 17.7067 82.7228 17.135 82.8702 16.6614C83.0228 16.1899 83.4574 15.9202 83.8411 15.9217C84.0342 15.9186 84.213 15.9967 84.3357 16.1046C84.458 16.215 84.532 16.347 84.5741 16.4708C84.6599 16.722 84.6095 16.9383 84.5428 17.0554C84.4724 17.1741 84.4061 17.2095 84.4035 17.2054Z" fill="#263238"/>
<path d="M95.2493 12.6995C96.666 11.9131 98.2157 11.2828 99.8353 11.2376C101.455 11.1919 103.157 11.8124 104.11 13.1233C104.849 14.1403 105.115 15.5083 106.089 16.3045C107.427 17.3996 109.405 16.9188 111.106 17.2285C111.453 17.2917 111.846 17.4397 111.944 17.7782C112.029 18.071 111.851 18.3694 111.681 18.6227C111.108 19.4784 110.534 20.3347 109.961 21.1905C110.63 21.6266 111.504 21.7314 112.257 21.4658C111.921 23.2555 110.932 24.9157 109.519 26.0642C109.853 25.8932 110.278 26.1814 110.38 26.543C110.482 26.9046 110.355 27.2888 110.206 27.634C109.293 29.7504 107.43 31.4357 105.233 32.1343C103.036 32.8329 100.542 32.5324 98.5732 31.3325" fill="#263238"/>
<path d="M96.2279 12.4745C94.5702 11.0398 91.9048 10.9397 90.1439 12.2464C88.9265 13.15 88.2074 14.5523 87.3798 15.8226C86.5523 17.0929 85.4556 18.3494 83.9665 18.634C82.7594 18.8651 81.4664 18.4151 80.3035 18.8112C79.0445 19.2396 78.2812 20.5844 78.1399 21.9066C77.9986 23.2288 78.3592 24.5474 78.7168 25.8279C77.9925 26.3945 77.0309 26.6462 76.1222 26.5075C76.4319 27.4512 77.0612 28.2864 77.8826 28.8448C78.4034 29.1992 79.0137 29.4586 79.3953 29.9604C79.7682 30.4505 79.8612 31.0797 79.9008 31.727C79.9958 33.2752 81.5127 34.3154 82.9992 33.8721C83.6485 33.6784 84.287 33.4447 85.1423 32.9978C85.1423 32.9978 84.4139 33.9799 85.5409 35.0628C86.4501 34.9682 87.2971 34.4022 87.7317 33.5978" fill="#263238"/>
<path d="M105.29 23.0346C105.793 18.2826 102.562 13.9411 97.8659 13.0575L97.3995 12.9697C92.3126 12.3168 88.9162 16.2726 88.4041 21.3754L84.9882 44.7563L96.5268 46.9029L97.8305 39.3288C97.8305 39.3288 102.81 39.487 103.779 34.6621C104.247 32.3321 104.822 27.4548 105.29 23.0346Z" fill="#B78876"/>
<path d="M97.872 39.3299C97.872 39.3299 94.7484 38.9349 91.8842 36.2828C91.8842 36.2828 92.7194 40.0439 97.6275 40.5165L97.872 39.3299Z" fill="#AA6550"/>
<path d="M102.733 26.2132C102.678 26.5805 102.321 26.8358 101.936 26.785C101.553 26.7336 101.286 26.3956 101.341 26.0283C101.397 25.661 101.754 25.4052 102.138 25.4561C102.522 25.5075 102.789 25.8465 102.733 26.2132Z" fill="#263238"/>
<path d="M103.804 25.2054C103.702 25.2793 103.252 24.7934 102.508 24.6558C101.767 24.5073 101.15 24.7873 101.086 24.6809C101.054 24.6332 101.172 24.4868 101.442 24.3588C101.708 24.2304 102.139 24.138 102.601 24.2274C103.064 24.3172 103.421 24.5607 103.612 24.7775C103.808 24.9953 103.854 25.173 103.804 25.2054Z" fill="#263238"/>
<path d="M96.045 25.7571C95.9423 25.8311 95.4913 25.3451 94.748 25.2075C94.0073 25.059 93.3898 25.339 93.3261 25.2326C93.2943 25.1849 93.4114 25.0385 93.6821 24.9105C93.9482 24.7821 94.3787 24.6897 94.841 24.779C95.3033 24.8689 95.6608 25.1124 95.8519 25.3292C96.0476 25.547 96.0948 25.7242 96.045 25.7571Z" fill="#263238"/>
<path d="M98.1336 29.9887C98.1382 29.9461 98.6149 29.9528 99.3818 29.998C99.5755 30.0139 99.7619 30.0103 99.8184 29.8865C99.8888 29.7576 99.8482 29.5382 99.7979 29.2999C99.706 28.8073 99.6099 28.2905 99.5087 27.7491C99.1162 25.5449 98.8707 23.7471 98.9596 23.7317C99.0484 23.7168 99.4388 25.491 99.8308 27.6952C99.9227 28.2376 100.011 28.7554 100.095 29.2501C100.126 29.4792 100.204 29.7473 100.053 30.0134C99.9756 30.1454 99.8169 30.2224 99.689 30.2322C99.5606 30.2466 99.4532 30.2286 99.3582 30.2163C98.5964 30.1161 98.1285 30.0313 98.1336 29.9887Z" fill="#263238"/>
<path d="M95.8492 30.0909C95.9714 30.1069 95.821 30.9138 96.404 31.616C96.9854 32.3203 97.8623 32.3917 97.8474 32.5052C97.8489 32.5581 97.6265 32.6259 97.2613 32.5673C96.9027 32.5124 96.4045 32.3002 96.048 31.8708C95.693 31.4403 95.6001 30.938 95.6345 30.6015C95.6674 30.2589 95.7947 30.076 95.8492 30.0909Z" fill="#263238"/>
<path d="M96.9059 22.0843C96.816 22.2836 96.0707 22.1305 95.1779 22.1711C94.2841 22.1937 93.5516 22.3997 93.4479 22.2071C93.4022 22.1151 93.5408 21.9317 93.8444 21.7545C94.1449 21.5778 94.6154 21.4232 95.1512 21.4037C95.687 21.3852 96.1667 21.5059 96.4791 21.661C96.7934 21.8161 96.945 21.9898 96.9059 22.0843Z" fill="#263238"/>
<path d="M104.28 22.3396C104.089 22.4803 103.492 22.1932 102.739 22.0509C101.989 21.8871 101.324 21.9174 101.208 21.7139C101.159 21.6169 101.29 21.4653 101.598 21.3544C101.901 21.2439 102.385 21.1951 102.901 21.2999C103.418 21.4052 103.84 21.6384 104.073 21.8583C104.308 22.0802 104.365 22.2697 104.28 22.3396Z" fill="#263238"/>
<path d="M88.4611 25.0934C88.3851 25.042 85.3231 23.4851 84.8063 26.8116C84.2896 30.1377 87.7358 29.9702 87.7564 29.8757C87.7774 29.7817 88.4611 25.0934 88.4611 25.0934Z" fill="#B78876"/>
<path d="M87.2273 28.5124C87.2145 28.4996 87.1631 28.5438 87.0583 28.5736C86.9561 28.6023 86.7871 28.607 86.6238 28.515C86.2924 28.3316 86.0834 27.7275 86.1599 27.1255C86.1984 26.8214 86.3068 26.543 86.4512 26.3211C86.5904 26.0935 86.7743 25.9482 86.9561 25.9441C87.1385 25.9307 87.2474 26.0561 87.2736 26.1562C87.3039 26.2559 87.2725 26.3191 87.289 26.3278C87.2972 26.3375 87.3691 26.2831 87.3635 26.1413C87.3599 26.073 87.3331 25.9888 87.2648 25.9127C87.195 25.8352 87.083 25.7838 86.9576 25.7782C86.6982 25.7561 86.4306 25.9564 86.2724 26.1999C86.0998 26.4423 85.9709 26.7541 85.9277 27.0957C85.845 27.7692 86.0906 28.4498 86.5498 28.6635C86.7743 28.761 86.9803 28.7205 87.0933 28.6578C87.2088 28.5915 87.2381 28.5201 87.2273 28.5124Z" fill="#AA6550"/>
<path d="M93.3672 15.6274C94.3792 15.5863 95.3721 15.9094 96.1657 16.5387L96.6794 16.9455L105.145 19.5154C107.348 18.8235 106.33 16.7385 104.606 15.8134C102.589 14.7311 100.427 12.7848 98.185 12.3266C95.9428 11.8689 91.8242 12.5505 89.7993 14.7814C88.5957 16.1072 88.195 17.3313 88.195 17.3313C87.6552 19.0814 87.0716 22.7038 87.143 24.5335C87.18 25.4771 87.8791 26.7125 87.8791 26.7125C87.8791 26.7125 87.8791 26.7125 87.8797 26.7125C88.6404 26.8512 89.0349 26.299 89.0596 25.5264L89.4659 22.5517C89.4659 22.5517 92.3928 21.1957 91.7933 17.6056C91.7831 17.584 91.8036 17.6369 91.7933 17.6056C91.4687 16.6399 92.27 15.5781 93.3672 15.6274Z" fill="#263238"/>
<path d="M91.8694 16.5254C92.2392 15.4934 94.0792 15.1184 95.0547 15.6177C96.0301 16.117 96.6573 17.0853 97.3231 17.9559C97.9888 18.8266 98.8358 19.6916 99.9258 19.8103C101.059 19.9336 102.282 19.2242 103.292 19.7523C103.738 19.985 104.043 20.4221 104.464 20.6979C105.111 21.1227 105.968 21.114 106.7 20.8623C107.432 20.6106 108.068 20.1442 108.691 19.685C106.545 19.3552 104.712 18.0068 102.999 16.6733C101.286 15.3398 99.5139 13.939 97.3939 13.47C95.274 13.0011 92.6995 13.7885 91.8694 15.7944" fill="#263238"/>
<path d="M80.229 29.9733C80.2362 29.961 80.3281 30.0319 80.53 30.0797C80.7288 30.1233 81.055 30.1161 81.393 29.9153C81.7335 29.7247 82.0192 29.2901 82.0556 28.7323C82.106 28.1739 81.9092 27.5488 81.5805 26.9149C81.2564 26.2795 80.8511 25.5732 80.6502 24.7251C80.4432 23.894 80.4679 22.8646 81.0529 22.0294C81.3401 21.6138 81.7911 21.3097 82.2806 21.1381C82.7763 20.9686 83.3074 20.9327 83.8319 20.9342C84.8752 20.9337 85.9662 21.1248 86.9889 20.8248C87.4918 20.6717 87.9305 20.3646 88.2223 19.9464C88.5146 19.5268 88.6743 19.029 88.7699 18.5318C88.9656 17.5322 88.8844 16.5177 89.0513 15.5556C89.1315 15.0768 89.2599 14.6099 89.4823 14.1943C89.7052 13.7813 90.0217 13.4243 90.4064 13.1973C91.1815 12.7303 92.0671 12.755 92.7719 12.9384C93.4936 13.1233 94.0607 13.5106 94.5009 13.882C94.9432 14.2585 95.2699 14.6366 95.5282 14.9484C95.7856 15.2617 95.9715 15.515 96.0959 15.6871C96.2202 15.8602 96.2813 15.9536 96.2741 15.9593C96.2669 15.9649 96.1914 15.8822 96.0537 15.7204C95.8971 15.5381 95.6967 15.3044 95.4491 15.0162C95.181 14.7172 94.8466 14.3541 94.4053 13.9976C93.9651 13.6452 93.414 13.2861 92.7251 13.1223C92.0512 12.9579 91.2185 12.9543 90.5225 13.3868C89.8157 13.8111 89.4243 14.6746 89.2943 15.5956C89.1376 16.5202 89.225 17.5337 89.0267 18.5811C88.9286 19.0999 88.7621 19.6341 88.4396 20.1C88.118 20.5654 87.6187 20.9152 87.068 21.0811C85.9503 21.4032 84.849 21.1952 83.8293 21.1972C83.3182 21.1931 82.8154 21.228 82.3623 21.3806C81.9154 21.5362 81.5137 21.8023 81.2528 22.1732C80.7185 22.9237 80.6759 23.8791 80.866 24.6758C81.0488 25.491 81.4305 26.1814 81.75 26.8327C82.0731 27.4805 82.2739 28.1518 82.2046 28.7472C82.1543 29.342 81.8214 29.8172 81.4449 30.0067C81.073 30.2086 80.7226 30.1963 80.5167 30.1331C80.3076 30.0637 80.229 29.9733 80.229 29.9733Z" fill="#455A64"/>
<path d="M108.984 17.7654C108.989 17.7731 108.944 17.8095 108.852 17.8722C108.763 17.94 108.622 18.0232 108.427 18.109C108.042 18.2785 107.427 18.4552 106.662 18.3828C105.907 18.3232 104.986 18.0171 104.25 17.2964C103.882 16.9409 103.593 16.4653 103.393 15.9603C103.184 15.458 103.02 14.9263 102.743 14.4512C102.193 13.4978 101.131 12.9923 100.189 12.9718C99.2282 12.9363 98.4218 13.4125 97.9497 13.9544C97.4648 14.4984 97.2532 15.0768 97.1756 15.4759C97.0949 15.8792 97.1109 16.1129 97.0852 16.1134C97.0759 16.1139 97.0662 16.0569 97.0559 15.9459C97.0461 15.8355 97.0431 15.6696 97.0729 15.459C97.1217 15.0408 97.3122 14.4234 97.8074 13.8306C98.2841 13.242 99.1512 12.7011 100.194 12.7257C101.212 12.7339 102.368 13.2702 102.975 14.3166C103.272 14.8297 103.435 15.3722 103.636 15.8612C103.829 16.3553 104.087 16.7848 104.425 17.1228C105.1 17.8029 105.964 18.1162 106.682 18.1953C107.409 18.2883 108.004 18.1486 108.389 18.0135C108.778 17.8784 108.967 17.7376 108.984 17.7654Z" fill="#455A64"/>
<path d="M84.4035 17.2054C84.3938 17.1967 84.4451 17.1473 84.4929 17.0323C84.5386 16.9188 84.5659 16.7246 84.4755 16.5073C84.3938 16.2946 84.1708 16.0527 83.8421 16.0712C83.5282 16.0784 83.1604 16.3285 83.051 16.7143C82.9391 17.0996 83.1255 17.5901 83.5062 17.8809C83.8904 18.1742 84.4544 18.26 84.9994 18.1516C85.547 18.0468 86.093 17.7576 86.505 17.3097C86.9231 16.8643 87.1486 16.251 87.3443 15.6104C87.5333 14.9678 87.7614 14.3139 88.1292 13.7715C88.4842 13.2224 88.9341 12.7688 89.4134 12.4103C90.3791 11.6906 91.4773 11.4101 92.3737 11.4091C93.2788 11.3963 93.9897 11.6182 94.4464 11.8139C94.6755 11.914 94.846 12.0075 94.957 12.0779C95.0674 12.1488 95.1229 12.1894 95.1182 12.1976C95.1069 12.2181 94.8686 12.08 94.4084 11.911C93.9496 11.7486 93.251 11.5617 92.3793 11.5986C91.5138 11.6238 90.4752 11.9115 89.5613 12.608C89.1088 12.9553 88.6835 13.3909 88.3496 13.9148C88.0023 14.4341 87.7922 15.0408 87.6001 15.6911C87.4039 16.3327 87.164 16.9974 86.6981 17.4884C86.2435 17.9769 85.6466 18.2872 85.0451 18.3945C84.4477 18.505 83.8164 18.4084 83.37 18.056C82.9324 17.7067 82.7228 17.135 82.8702 16.6614C83.0228 16.1899 83.4574 15.9202 83.8411 15.9217C84.0342 15.9186 84.213 15.9967 84.3357 16.1046C84.458 16.215 84.532 16.347 84.5741 16.4708C84.6599 16.722 84.6095 16.9383 84.5428 17.0554C84.4724 17.1741 84.4061 17.2095 84.4035 17.2054Z" fill="#263238"/>
<path d="M97.872 39.3299C97.872 39.3299 94.7484 38.9349 91.8842 36.2828C91.8842 36.2828 92.7194 40.0439 97.6275 40.5165L97.872 39.3299Z" fill="#AA6550"/>
<path d="M44.7301 110.587C44.7301 110.587 45.4837 105.146 40.9634 104.811C36.4431 104.476 35.5225 108.411 35.5225 108.411L33.681 107.689C33.681 107.689 35.5225 102.216 41.7169 103.639C47.9113 105.062 46.4884 111.34 46.4884 111.34L44.7301 110.587Z" fill="#00DE93"/>
<g opacity="0.3">
<path d="M44.7301 110.587C44.7301 110.587 45.4837 105.146 40.9634 104.811C36.4431 104.476 35.5225 108.411 35.5225 108.411L33.681 107.689C33.681 107.689 35.5225 102.216 41.7169 103.639C47.9113 105.062 46.4884 111.34 46.4884 111.34L44.7301 110.587Z" fill="black"/>
</g>
<path d="M24.3414 104.83L18.2297 130.003L51.6627 137.43L57.3208 112.473L24.3414 104.83Z" fill="#00DE93"/>
<path d="M57.3206 112.473C57.3237 112.477 57.2954 112.507 57.2379 112.563C57.1675 112.628 57.0823 112.708 56.978 112.805C56.7294 113.029 56.3914 113.334 55.9645 113.718C55.0794 114.506 53.805 115.655 52.1736 117.011C50.535 118.349 48.5584 119.962 46.0455 121.252C44.7921 121.892 43.4083 122.451 41.9084 122.794C40.4141 123.148 38.7919 123.26 37.1733 123.002C35.5537 122.738 34.0553 122.082 32.7809 121.222C31.5013 120.36 30.4344 119.307 29.5494 118.209C27.7829 115.994 26.7904 113.61 26.1067 111.609C25.4313 109.593 25.045 107.918 24.7784 106.763C24.6561 106.201 24.5596 105.757 24.4882 105.429C24.4609 105.29 24.4389 105.175 24.4209 105.081C24.407 105.001 24.4024 104.961 24.407 104.96C24.4116 104.959 24.4255 104.998 24.4476 105.074C24.4728 105.167 24.5036 105.279 24.5411 105.417C24.6243 105.741 24.7373 106.182 24.8796 106.739C25.177 107.884 25.591 109.551 26.2855 111.547C26.9882 113.53 27.9909 115.881 29.741 118.054C30.6183 119.132 31.6714 120.163 32.9268 121.004C34.1776 121.844 35.639 122.481 37.2165 122.738C38.794 122.989 40.3802 122.882 41.8498 122.538C43.3246 122.205 44.692 121.659 45.934 121.032C48.4222 119.77 50.4035 118.181 52.0539 116.864C53.6971 115.53 54.9901 114.403 55.8967 113.639C56.3374 113.271 56.6867 112.978 56.9436 112.764C57.055 112.675 57.1459 112.602 57.2209 112.542C57.2836 112.493 57.3175 112.47 57.3206 112.473Z" fill="#263238"/>
<path d="M47.0842 136.412C47.0159 136.384 49.143 131.127 51.8342 124.671C54.5263 118.213 56.7634 113.003 56.8317 113.031C56.9 113.059 54.7734 118.316 52.0813 124.774C49.3901 131.23 47.1526 136.441 47.0842 136.412Z" fill="#263238"/>
<path d="M57.1347 112.634C57.1434 112.636 57.1285 112.724 57.0921 112.89C57.0453 113.085 56.9883 113.323 56.919 113.612C56.7643 114.237 56.5229 115.138 56.2132 116.248C55.5947 118.468 54.6773 121.516 53.6335 124.872C52.6026 128.212 51.6697 131.235 50.9794 133.471C50.6558 134.544 50.3897 135.427 50.1919 136.082C50.1035 136.365 50.0301 136.599 49.9705 136.79C49.9171 136.951 49.8847 137.035 49.8755 137.032C49.8667 137.029 49.8816 136.942 49.9181 136.776C49.9649 136.58 50.0219 136.343 50.0912 136.054C50.2458 135.428 50.4873 134.528 50.797 133.418C51.4155 131.198 52.3329 128.149 53.3772 124.792C54.4076 121.453 55.3404 118.431 56.0308 116.194C56.3544 115.121 56.6205 114.239 56.8183 113.583C56.9066 113.3 56.9801 113.067 57.0397 112.875C57.0936 112.715 57.126 112.631 57.1347 112.634Z" fill="#263238"/>
<path d="M36.9413 121.983L35.9387 121.797L35.5924 123.669L36.5951 123.855L36.9413 121.983Z" fill="#263238"/>
<path d="M57.3208 112.473C57.3187 112.482 57.2016 112.465 56.9802 112.422C56.7326 112.372 56.4131 112.307 56.0161 112.226C55.15 112.037 53.9506 111.775 52.482 111.454C49.4765 110.772 45.3769 109.84 40.8478 108.811C36.3239 107.752 32.2304 106.793 29.2296 106.091C27.7697 105.736 26.577 105.446 25.7155 105.237C25.3236 105.135 25.0077 105.054 24.7632 104.991C24.5459 104.932 24.4334 104.897 24.4355 104.888C24.4375 104.879 24.5546 104.897 24.7755 104.939C25.0231 104.989 25.3426 105.054 25.7392 105.135C26.6052 105.325 27.8041 105.587 29.2727 105.907C32.2787 106.59 36.3789 107.522 40.91 108.551C45.4324 109.61 49.5258 110.568 52.5272 111.271C53.9871 111.626 55.1798 111.915 56.0412 112.125C56.4332 112.226 56.7491 112.307 56.9936 112.371C57.2104 112.429 57.3234 112.464 57.3208 112.473Z" fill="#263238"/>
<path d="M41.7883 94.6427C41.7883 94.6427 38.3529 100.29 38.0786 101.238C37.8043 102.185 36.5237 103.54 37.5577 104.122C37.5577 104.122 37.2192 104.839 38.3575 105.35C38.3575 105.35 38.0925 106.627 39.6777 106.806C39.6777 106.806 40.5268 108.062 41.5058 107.705C41.5058 107.705 42.7242 108.65 43.4758 107.776C44.2267 106.903 45.1077 105.453 45.1077 105.453L45.8489 106.324C45.8489 106.324 46.5845 105.363 46.5665 104.128C46.5485 102.893 45.3501 101.088 45.9856 99.6726C46.548 98.4203 46.753 98.2107 46.753 98.2107L41.7883 94.6427Z" fill="#B78876"/>
<g opacity="0.3">
<path d="M48.8271 119.441C47.0565 122.149 44.4547 124.239 41.5859 125.734C39.5219 126.809 37.0892 127.503 34.8691 126.804C32.931 126.195 31.4521 124.619 30.2882 122.953C27.9407 119.593 26.5055 115.603 26.1752 111.517C26.1752 111.517 29.9681 121.949 36.5401 122.618C43.112 123.288 48.8271 119.441 48.8271 119.441Z" fill="black"/>
</g>
<path d="M40.5149 91.1326L42.3636 96.5596L46.8439 89.454L45.0861 84.0722L40.5149 91.1326Z" fill="#455A64"/>
<path d="M132.96 8.58279L134.761 6.3067L138.824 10.9303L137.078 14.2743L132.96 8.58279Z" fill="#FAFAFA"/>
<path d="M132.96 8.58283C132.975 8.58335 133.098 8.73283 133.31 9.00662C133.546 9.31585 133.843 9.70624 134.202 10.1773C134.954 11.1753 135.994 12.571 137.181 14.1988L136.965 14.2147C137.383 13.4103 137.834 12.5412 138.303 11.6392C138.439 11.3788 138.574 11.1214 138.707 10.8687L138.725 11.0182C137.143 9.21465 135.733 7.58836 134.69 6.3689L134.835 6.36531C134.293 7.01973 133.842 7.56319 133.494 7.98235C133.168 8.36658 132.978 8.58335 132.96 8.58283C132.942 8.58232 133.096 8.36452 133.392 7.96232C133.689 7.56062 134.129 6.97298 134.687 6.24768L134.755 6.15881L134.832 6.24408C135.907 7.43477 137.339 9.04257 138.924 10.8425L138.985 10.9108L138.943 10.992C138.811 11.2452 138.676 11.5026 138.541 11.763C138.069 12.6624 137.613 13.53 137.192 14.3329L137.095 14.5168L136.974 14.3488C135.773 12.6742 134.754 11.2247 134.044 10.2024C133.714 9.72165 133.441 9.32355 133.225 9.00867C133.039 8.7318 132.945 8.58283 132.96 8.58283Z" fill="#263238"/>
<path d="M39.9658 93.3327C39.9658 93.3327 38.4319 96.2129 38.3939 96.2416L45.8971 100.109L46.7524 98.2105L39.9658 93.3327Z" fill="#FAFAFA"/>
<path d="M39.9658 93.3327C39.9622 93.3173 40.1389 93.4324 40.4697 93.6563C40.838 93.9096 41.3152 94.2378 41.8951 94.6364C43.1156 95.4814 44.8482 96.6901 46.8279 98.1053L46.9142 98.1669L46.8706 98.264C46.5958 98.8768 46.3112 99.5117 46.0189 100.164L45.9614 100.292L45.836 100.227C45.6516 100.132 45.4544 100.031 45.2551 99.9283C42.5552 98.5373 40.1158 97.2634 38.3503 96.3264L38.2701 96.2838L38.3369 96.1656C38.8121 95.3191 39.205 94.6195 39.5019 94.0909C39.7855 93.5942 39.9493 93.324 39.9658 93.3327C39.9822 93.3415 39.8497 93.6286 39.5944 94.1402C39.4583 94.4078 39.3011 94.7171 39.1228 95.0684C39.0283 95.2503 38.9287 95.4429 38.8234 95.6458C38.7694 95.748 38.7145 95.8528 38.658 95.9602L38.5706 96.1235L38.5249 96.2072L38.5013 96.2494C38.4895 96.2699 38.4694 96.2977 38.451 96.3177L38.4376 96.1569C40.2252 97.0512 42.678 98.2989 45.3778 99.6899C45.5766 99.7927 45.7744 99.8944 45.9583 99.9894L45.7754 100.053C46.0703 99.4023 46.3574 98.7684 46.6343 98.1566L46.6769 98.3153C44.7522 96.9238 43.0915 95.6941 41.8946 94.8018C41.3208 94.3714 40.8488 94.0175 40.4846 93.7442C40.1528 93.492 39.9694 93.3476 39.9658 93.3327Z" fill="#263238"/>
<path d="M83.2371 92.9146C90.1989 92.8807 97.8146 95.4691 102.784 100.316C104.774 96.7677 103.954 92.5391 102.741 88.7323C101.528 84.9255 99.2801 81.5943 97.022 78.352C96.4595 77.5445 95.8621 76.7098 94.9935 76.267C93.3338 75.4204 91.255 76.286 89.7936 77.5373C87.5807 79.4322 86.1511 82.147 85.3149 84.9552C84.4786 87.7635 84.1889 90.6919 83.9038 93.5978" fill="#455A64"/>
<path d="M97.0831 43.2527C97.0831 43.2527 97.1689 40.5164 98.4767 40.5164C99.6566 40.5164 100.691 40.898 100.691 40.898L132.59 7.91815L138.062 14.3766L122.959 33.7271L104.331 52.7438C104.331 52.7438 102.688 55.8007 102.387 57.4028C102.085 59.005 101.565 74.3017 101.733 77.1541C101.901 80.007 104.511 91.2436 104.479 96.5678C104.447 101.892 102.783 100.317 102.783 100.317L97.2146 84.7646L94.6062 77.8321L93.5198 76.3209L94.4208 72.1894C94.4208 72.1894 97.8896 60.453 97.8726 58.1487C97.8557 55.8443 98.3848 53.3243 98.3848 51.5239C98.3848 49.801 96.7354 46.5196 96.7354 46.5196L97.0831 43.2527Z" fill="#263238"/>
<path d="M85.6158 37.1415L84.9173 39.4613L84.5341 39.6334L81.7695 46.2443L81.3015 96.5673L85.4705 97.7026C85.4705 97.7026 89.4093 93.1031 90.7135 89.7766C92.0172 86.45 94.6914 76.6301 94.6914 76.6301L98.3375 54.8355L98.864 49.4091C99.0171 47.8306 98.3806 46.2782 97.1632 45.2617L97.3476 43.1227L96.3121 43.6369L85.6158 37.1415Z" fill="#FAFAFA"/>
<path d="M85.0318 39.4741C85.0138 39.4695 85.0523 39.2424 85.1376 38.8356C85.2409 38.3759 85.3703 37.8011 85.5234 37.1184L85.5516 36.9936L85.6657 37.0603C86.9144 37.7908 88.6229 38.8109 90.4993 39.9503C93.0096 41.4743 95.1912 42.8299 96.347 43.5773L96.2812 43.5747C96.9567 43.2619 97.3363 43.0996 97.3471 43.1217C97.3584 43.1443 96.9994 43.3482 96.3419 43.697L96.31 43.7139L96.2756 43.6944C95.0792 43.0138 92.8704 41.7029 90.3601 40.1788C88.4837 39.0395 86.7906 37.9942 85.5665 37.2232L85.7083 37.1651C85.5218 37.8396 85.3647 38.4072 85.2393 38.8613C85.1232 39.2599 85.0498 39.4782 85.0318 39.4741Z" fill="#263238"/>
<path d="M95.3951 47.5403C95.4136 47.5377 95.466 47.8387 95.5456 48.3843C95.6278 48.9298 95.7218 49.7229 95.8153 50.705C96.0043 52.6688 96.1502 55.3959 96.0839 58.4081C96.0141 61.4208 95.7444 64.1391 95.4665 66.0921C95.3283 67.0691 95.1989 67.8566 95.092 68.398C94.9878 68.9399 94.9215 69.2373 94.9035 69.2342C94.8855 69.2312 94.9169 68.9276 94.9893 68.3815C95.0643 67.836 95.1655 67.0455 95.279 66.068C95.5081 64.1134 95.7465 61.4038 95.8163 58.4019C95.8826 55.401 95.7665 52.6832 95.6263 50.7204C95.5569 49.7388 95.4922 48.9447 95.4419 48.3961C95.3946 47.8475 95.3766 47.5429 95.3951 47.5403Z" fill="#263238"/>
<path d="M95.1425 69.4171C95.1425 69.4171 98.0448 60.5475 98.0448 60.849C98.0448 61.1506 96.3692 82.5173 96.3692 82.5173L93.7412 75.3033L95.1425 69.4171Z" fill="#263238"/>
<path d="M90.6478 84.8078C90.6308 84.8012 90.6961 84.5818 90.8296 84.1909C90.9832 83.7492 91.1748 83.1959 91.4029 82.5394C91.8883 81.1459 92.5412 79.215 93.2023 77.0632C93.8618 74.9104 94.4043 72.9456 94.7839 71.5196C94.9637 70.8477 95.1147 70.2822 95.2354 69.8307C95.3443 69.4321 95.4131 69.2138 95.4311 69.2179C95.4491 69.222 95.4147 69.4485 95.3371 69.8543C95.2606 70.2606 95.1347 70.8457 94.9678 71.5653C94.6344 73.0057 94.1197 74.9838 93.4581 77.1418C92.7954 79.2987 92.1123 81.225 91.5811 82.6042C91.3156 83.294 91.0916 83.8488 90.9272 84.2284C90.7634 84.6075 90.6647 84.8145 90.6478 84.8078Z" fill="#455A64"/>
<path d="M99.7295 58.3665C99.7454 58.365 99.7855 58.5442 99.8168 58.8735C99.8487 59.2022 99.8713 59.682 99.8405 60.2748C99.7876 61.4552 99.4444 63.1015 98.6133 64.7155C97.9019 66.124 97.1165 67.3265 96.5966 68.3143C96.0583 69.2933 95.7799 70.0474 95.6525 70.3274L95.6001 70.3109C95.6355 70.2246 95.6581 70.182 95.6674 70.1851C95.6766 70.1876 95.6715 70.2359 95.653 70.3274L95.6001 70.3109C95.6694 70.012 95.9037 69.2266 96.4132 68.2198C96.9048 67.2047 97.6733 65.9843 98.3739 64.5968C99.1902 63.0101 99.5502 61.4213 99.6519 60.2604C99.7583 59.0975 99.6833 58.3696 99.7295 58.3665Z" fill="#455A64"/>
<path d="M97.2614 44.1182C97.2727 44.1038 97.4725 44.2333 97.809 44.4994C98.1454 44.7659 98.62 45.1682 99.1635 45.7126C99.7003 46.2607 100.331 46.9388 100.853 47.8274C101.1 48.2754 101.373 48.7587 101.435 49.3443C101.497 49.9109 101.468 50.4939 101.383 51.0764C101.131 52.8506 100.64 54.4328 100.224 55.7267C99.7984 57.0196 99.4111 58.0187 99.1661 58.593L99.1193 58.5247C99.5272 58.5401 99.746 58.557 99.746 58.575C99.746 58.593 99.5272 58.6094 99.1193 58.6254L99.0484 58.6279L99.0726 58.5565C99.2704 57.9679 99.6181 56.9564 100.014 55.6599C100.4 54.3644 100.872 52.7813 101.118 51.0415C101.202 50.4708 101.229 49.9052 101.176 49.3798C101.129 48.8589 100.871 48.3817 100.64 47.9507C100.148 47.0857 99.5411 46.402 99.0279 45.8441C98.5081 45.2889 98.0555 44.8677 97.7422 44.5785C97.4268 44.2898 97.2501 44.1331 97.2614 44.1182Z" fill="#455A64"/>
<path d="M103.581 48.6575C103.542 48.658 103.514 48.1767 103.47 47.4036C103.421 46.6331 103.359 45.5606 103.039 44.4382C102.719 43.3168 102.138 42.4071 101.6 41.8719C101.065 41.3269 100.622 41.1204 100.645 41.0782C100.653 41.0633 100.77 41.0988 100.967 41.1979C101.165 41.296 101.435 41.4712 101.731 41.7357C102.328 42.2582 102.965 43.1992 103.297 44.3642C103.627 45.5277 103.658 46.6223 103.659 47.3985C103.655 48.1777 103.616 48.6575 103.581 48.6575Z" fill="#455A64"/>
<path d="M98.0673 71.5463C98.0843 71.6151 97.3914 71.8355 96.5017 71.8879C95.612 71.9434 94.8975 71.8083 94.9062 71.7379C94.9134 71.6614 95.6207 71.6752 96.4852 71.6208C97.3508 71.5704 98.0509 71.4713 98.0673 71.5463Z" fill="#455A64"/>
<path d="M96.3434 75.1862C96.2792 75.2226 95.8842 74.652 95.4609 73.9117C95.0377 73.171 94.7464 72.5408 94.8106 72.5043C94.8748 72.4678 95.2699 73.038 95.6931 73.7792C96.1164 74.5194 96.4076 75.1497 96.3434 75.1862Z" fill="#455A64"/>
<path d="M75.2325 42.4313C75.2428 42.4195 75.422 42.5541 75.7174 42.8305C76.0133 43.1063 76.414 43.5373 76.8434 44.1218C77.7038 45.2781 78.6279 47.1453 78.837 49.3721C79.045 51.5994 78.483 53.6058 77.8522 54.9018C77.5384 55.5562 77.225 56.054 76.9852 56.3796C76.7463 56.7063 76.5953 56.8712 76.583 56.862C76.5383 56.8317 77.1059 56.1325 77.6802 54.8237C78.257 53.5293 78.7733 51.5665 78.5709 49.3973C78.3675 47.2291 77.4957 45.3963 76.6888 44.2313C75.8813 43.0514 75.194 42.4694 75.2325 42.4313Z" fill="#455A64"/>
<path d="M53.0613 93.625C54.3049 96.3074 74.5944 106.988 74.5944 106.988C74.5944 106.988 79.3613 103.362 85.4653 95.8954C91.5693 88.4286 95.1424 69.4171 95.1424 69.4171C95.1424 69.4171 91.7542 54.6783 89.3713 48.4783C86.9889 42.2782 84.534 39.5126 84.534 39.5126L72.1124 42.5448L68.2187 68.624L67.9922 76.7041C67.9922 76.7041 66.9998 76.9537 66.9998 77.3898C66.9998 77.8259 66.9998 78.3494 66.9998 78.3494L53.0613 93.625Z" fill="#263238"/>
<path d="M39.3066 92.8591C39.3066 92.8591 57.2431 63.8094 59.1699 60.4895C61.39 56.6637 71.064 41.9233 72.5254 42.4447C73.9873 42.9661 78.9057 46.6491 76.9352 53.8842C74.9653 61.1193 72.6908 64.941 72.6908 64.941L65.5743 72.5018L47.0446 98.4196L39.7993 93.2125L39.3066 92.8591Z" fill="#263238"/>
<path d="M94.3268 71.8992C94.335 71.9033 94.3057 71.9788 94.242 72.1185C94.1789 72.2588 94.0802 72.4622 93.9498 72.7231C93.6847 73.2425 93.299 73.9955 92.7221 74.8708C92.1437 75.7363 91.3696 76.757 90.2087 77.5563C89.0555 78.3741 87.5001 78.7742 85.9031 78.8266C82.6978 78.8975 79.832 78.3889 77.8081 77.8866C76.7946 77.6333 75.9887 77.378 75.438 77.1859C75.1617 77.0924 74.9505 77.0097 74.8077 76.9532C74.6649 76.8962 74.5915 76.8618 74.5946 76.8531C74.6013 76.8335 74.91 76.9265 75.4694 77.0868C76.0282 77.2476 76.8388 77.4746 77.8518 77.7027C79.8721 78.1557 82.7312 78.6299 85.8913 78.5595C87.4621 78.5061 88.9517 78.1275 90.07 77.3524C91.1975 76.5932 91.9737 75.6074 92.5649 74.765C93.1551 73.9138 93.565 73.1772 93.8578 72.6743C94.1475 72.1694 94.3093 71.89 94.3268 71.8992Z" fill="#455A64"/>
<path d="M94.9422 70.0726C94.936 70.0792 94.8466 70.0058 94.6818 69.8604C94.4989 69.6935 94.2636 69.4788 93.9724 69.2127C93.3632 68.6435 92.4848 67.8139 91.4636 66.7229C90.4522 65.6267 89.2867 64.2609 88.2912 62.5406C87.2746 60.8264 86.5894 58.7317 86.0171 56.5321C85.4485 54.3275 84.9461 52.2199 84.4735 50.3054C84.0251 48.3873 83.5243 46.6794 83.3717 45.1764C83.2058 43.6734 83.531 42.4339 83.9465 41.7039C84.1499 41.3336 84.36 41.0793 84.5141 40.9211C84.5886 40.8394 84.6544 40.786 84.697 40.7485C84.7401 40.712 84.7638 40.6951 84.7669 40.6982C84.7931 40.7197 84.414 41.0136 84.039 41.7517C83.6614 42.4816 83.3743 43.6852 83.5597 45.1563C83.7313 46.6239 84.2506 48.3334 84.7124 50.2468C85.1937 52.1613 85.7213 54.2596 86.2755 56.4638C86.8467 58.6582 87.5155 60.7247 88.5048 62.4183C89.4741 64.1211 90.614 65.4885 91.6028 66.5955C92.6014 67.6973 93.4582 68.5464 94.0448 69.1382C94.3217 69.4187 94.5451 69.6457 94.7193 69.8219C94.8718 69.9796 94.9489 70.0659 94.9422 70.0726Z" fill="#455A64"/>
<path d="M84.7473 96.633C84.7534 96.6397 84.6615 96.7394 84.4796 96.9222C84.2778 97.121 84.0107 97.3845 83.6768 97.7133C82.9509 98.4119 81.9359 99.3889 80.6903 100.587C79.4164 101.8 77.9087 103.234 76.2372 104.825C75.8083 105.211 75.419 105.659 74.8832 106.009C74.6161 106.178 74.2925 106.304 73.9504 106.299C73.6098 106.295 73.2944 106.181 73.0011 106.059C71.8412 105.56 70.648 105.036 69.4429 104.455C64.6092 102.159 60.4665 99.6252 57.577 97.6475C56.1285 96.6623 54.9928 95.8137 54.2115 95.224C53.8426 94.9343 53.5478 94.7026 53.3249 94.5275C53.1245 94.3657 53.0218 94.2773 53.0274 94.2701C53.0331 94.2629 53.1466 94.3369 53.3577 94.4848C53.5879 94.6497 53.8925 94.8681 54.2736 95.1408C55.0734 95.7038 56.224 96.5277 57.6829 97.4914C60.5938 99.4249 64.7387 101.925 69.558 104.214C70.7584 104.793 71.9506 105.319 73.1018 105.818C73.3864 105.938 73.672 106.037 73.9529 106.041C74.2329 106.046 74.5046 105.944 74.7481 105.793C75.2325 105.483 75.6388 105.031 76.0682 104.646C77.7546 103.071 79.2751 101.651 80.5603 100.451C81.8301 99.2779 82.8646 98.322 83.6048 97.6388C83.9531 97.325 84.2315 97.0738 84.4421 96.8842C84.6363 96.7127 84.7411 96.6264 84.7473 96.633Z" fill="#455A64"/>
<path d="M93.75 70.558C93.7269 70.5421 93.8861 70.353 94.2354 70.4337C94.4024 70.4815 94.5883 70.6479 94.6078 70.9042C94.633 71.1765 94.3818 71.4205 94.1142 71.4513C93.8312 71.4934 93.5728 71.3414 93.4598 71.1251C93.3457 70.9011 93.4084 70.6551 93.5425 70.5282C93.6822 70.3988 93.8409 70.4008 93.9282 70.4275C94.0197 70.4573 94.049 70.5056 94.0392 70.519C94.032 70.5503 93.8281 70.4753 93.6822 70.6551C93.62 70.7368 93.6026 70.8903 93.6755 71.0059C93.7443 71.1225 93.9164 71.215 94.0741 71.1867C94.2426 71.1616 94.3659 71.0378 94.3618 70.9129C94.3638 70.7794 94.2688 70.6577 94.1686 70.6104C93.9478 70.5102 93.7623 70.597 93.75 70.558Z" fill="#455A64"/>
<path d="M74.5627 85.8804C74.5524 85.8958 74.4168 85.8233 74.18 85.6795C73.9416 85.5372 73.6088 85.3133 73.2071 85.022C72.4037 84.4405 71.343 83.5632 70.2899 82.4721C69.2384 81.379 68.4006 80.2865 67.8495 79.4625C67.5731 79.0506 67.362 78.7095 67.2284 78.466C67.0933 78.2241 67.026 78.0859 67.042 78.0761C67.0774 78.054 67.4164 78.5631 68.0041 79.3531C68.5907 80.1437 69.4424 81.2049 70.4831 82.2867C71.5253 83.3659 72.5542 84.2566 73.3227 84.872C74.0901 85.4884 74.5858 85.8459 74.5627 85.8804Z" fill="#455A64"/>
<path d="M77.3247 84.4492C77.3149 84.4652 77.1623 84.3897 76.8942 84.2397C76.6255 84.0907 76.2454 83.8611 75.7826 83.5657C74.8564 82.9765 73.6093 82.1084 72.3004 81.0611C70.9921 80.0121 69.8733 78.9838 69.0961 78.2086C68.7073 77.8213 68.4001 77.5003 68.1962 77.2707C67.9912 77.0421 67.8844 76.9096 67.8977 76.8967C67.926 76.869 68.4186 77.3349 69.2266 78.072C70.0341 78.8096 71.1667 79.8092 72.4679 80.8525C73.7695 81.8942 74.9921 82.7814 75.8879 83.4085C76.7838 84.0363 77.3457 84.4153 77.3247 84.4492Z" fill="#455A64"/>
<path d="M73.6489 62.4543C73.6776 62.4795 73.2343 63.0481 72.5198 63.9691C71.758 64.9436 70.7872 66.1851 69.7136 67.5582C68.6118 68.9564 67.605 70.2149 66.8555 71.1102C66.1112 72.0091 65.6032 72.53 65.5744 72.5017C65.5595 72.4869 65.672 72.3471 65.8683 72.0867C66.1035 71.78 66.3829 71.4153 66.7081 70.9916C67.4668 70.0145 68.434 68.7694 69.5035 67.3923C70.6048 65.994 71.6188 64.7407 72.3729 63.8494C72.7489 63.4036 73.0612 63.0481 73.2831 62.8082C73.5055 62.5694 73.635 62.4425 73.6489 62.4543Z" fill="#455A64"/>
<path d="M73.276 42.2613C73.276 42.2613 79.9625 44.0504 78.537 51.8927C77.1116 59.7349 68.167 70.4763 68.167 70.4763L67.3662 70.3192L63.9708 74.7455C63.9708 74.7455 66.7472 75.7692 68.9278 74.7224C71.1083 73.6755 76.6385 65.1388 79.3081 58.367C82.4877 50.2998 81.4712 46.739 80.4423 44.8682C78.1487 40.6982 75.8475 41.4754 75.8475 41.4754L73.276 42.2613Z" fill="#455A64"/>
<path d="M96.0907 43.7859L94.4783 45.746L95.1425 47.5187L96.2998 47.9199L97.1689 45.8529L96.0907 43.7859Z" fill="#00DE93"/>
<path d="M96.6347 47.1237C96.5536 47.1252 96.5315 46.5093 96.196 45.8621C95.8668 45.2133 95.4076 44.7993 95.4625 44.7377C95.4959 44.6827 96.0671 45.0248 96.4349 45.7414C96.8037 46.4626 96.7005 47.1376 96.6347 47.1237Z" fill="#263238"/>
<path d="M95.3516 47.4843C95.3516 47.4843 95.704 49.4461 95.3516 50.2366C94.0305 53.199 91.4976 50.4981 89.1793 47.9878C86.8611 45.4774 83.6933 38.9748 79.9132 37.799C76.1336 36.6232 71.9718 36.4419 69.0105 39.1865L68.092 42.5603L71.4725 42.4488C71.4725 42.4488 76.1942 38.3235 80.261 41.9202C84.3277 45.517 89.1203 53.8025 92.2865 54.0059C95.4528 54.2094 96.5855 52.6617 96.8141 50.7472C97.0426 48.8327 96.6343 47.1237 96.6343 47.1237L95.3516 47.4843Z" fill="#00DE93"/>
<g opacity="0.3">
<path d="M88.4225 47.077C89.3178 49.1564 90.9862 51.0313 92.9849 52.0941C93.3871 52.3083 93.8274 52.4988 94.282 52.4624C94.7756 52.4228 95.2189 52.111 95.5071 51.7083C95.7952 51.3056 95.9447 50.8202 96.0367 50.3337C96.1507 49.7332 96.1841 49.1204 96.1923 48.5092C96.1959 48.2492 96.1908 47.9749 96.0567 47.7525C95.9226 47.5301 95.5918 47.4715 95.3725 47.6107C95.4608 48.3499 95.5703 49.0233 95.431 49.7548C95.2918 50.4863 94.8665 51.1422 94.2003 51.4746C94.207 51.451 93.2284 51.8434 91.6704 50.4745C90.0811 49.0778 88.4225 47.077 88.4225 47.077Z" fill="black"/>
</g>
<path d="M96.6542 47.077C96.7148 47.1089 96.5232 47.4977 96.0373 47.6611C95.8 47.7397 95.5596 47.7201 95.4091 47.658C95.2565 47.5969 95.1902 47.5162 95.2062 47.4864C95.2432 47.4191 95.5714 47.5434 95.9546 47.4063C96.3393 47.283 96.5936 47.0277 96.6542 47.077Z" fill="#263238"/>
<path d="M96.5695 51.7612C96.4981 51.7833 96.3476 51.4966 96.1934 51.1366C96.0404 50.776 95.9376 50.4693 96.0029 50.4328C96.0666 50.3969 96.2797 50.6568 96.4395 51.0318C96.5998 51.4062 96.6393 51.7401 96.5695 51.7612Z" fill="white"/>
<path d="M96.8797 48.8384C96.8248 48.8897 96.6866 48.8322 96.5279 48.7824C96.3707 48.7279 96.2253 48.6915 96.2119 48.6175C96.1955 48.5466 96.3845 48.4531 96.6121 48.5286C96.8397 48.6036 96.9352 48.7911 96.8797 48.8384Z" fill="white"/>
<path d="M96.0456 45.5277C96.1026 45.5745 95.9089 45.9073 95.612 46.271C95.3151 46.6352 95.0285 46.892 94.9715 46.8453C94.9145 46.7986 95.1081 46.4657 95.405 46.102C95.7014 45.7383 95.9886 45.481 96.0456 45.5277Z" fill="white"/>
<path d="M93.6348 54.0023C93.5639 53.9812 93.5906 53.6263 93.6939 53.2102C93.7976 52.7936 93.9404 52.468 94.0129 52.4829C94.0853 52.4972 94.0591 52.8517 93.9538 53.2749C93.8485 53.6977 93.7057 54.0234 93.6348 54.0023Z" fill="white"/>
<path d="M90.1382 52.8645C90.0822 52.8163 90.3529 52.3904 90.7433 51.9137C91.1337 51.4365 91.4968 51.0867 91.5554 51.1324C91.6134 51.1776 91.3428 51.6035 90.9503 52.0832C90.5579 52.563 90.1942 52.9128 90.1382 52.8645Z" fill="white"/>
<path d="M89.7874 49.5041C89.8392 49.5565 89.5012 49.9325 89.0323 50.3434C88.5628 50.7543 88.1462 51.0399 88.101 50.9819C88.0558 50.9233 88.3938 50.5473 88.8561 50.1426C89.3184 49.7373 89.7355 49.4517 89.7874 49.5041Z" fill="white"/>
<path d="M88.342 46.9897C88.4036 47.0256 88.1144 47.6194 87.5812 48.2266C87.0501 48.8363 86.4999 49.2015 86.4563 49.1455C86.408 49.0865 86.8662 48.6406 87.3798 48.0504C87.8961 47.4633 88.2767 46.9496 88.342 46.9897Z" fill="white"/>
<path d="M86.2678 44.4089C86.3176 44.4634 85.9077 44.919 85.3529 45.4271C84.7977 45.9351 84.3071 46.3023 84.2573 46.2479C84.2074 46.1934 84.6174 45.7378 85.1726 45.2298C85.7274 44.7218 86.218 44.3545 86.2678 44.4089Z" fill="white"/>
<path d="M84.891 42.1581C84.9352 42.2207 84.3861 42.6753 83.7507 43.2758C83.1127 43.8737 82.6257 44.3946 82.5662 44.3468C82.5097 44.3037 82.9139 43.6945 83.5673 43.0811C84.2186 42.4658 84.851 42.099 84.891 42.1581Z" fill="white"/>
<path d="M83.0742 39.9579C83.1164 40.0237 82.5159 40.4624 81.8856 41.1137C81.2502 41.7609 80.8279 42.3727 80.7607 42.3321C80.699 42.2998 81.0329 41.6017 81.694 40.9267C82.351 40.2492 83.0403 39.8973 83.0742 39.9579Z" fill="white"/>
<path d="M80.1699 37.8977C80.2347 37.9378 79.8982 38.5906 79.5114 39.4048C79.122 40.2179 78.8256 40.8903 78.7542 40.8647C78.6864 40.8415 78.8734 40.1178 79.27 39.2892C79.6645 38.4607 80.1093 37.8592 80.1699 37.8977Z" fill="white"/>
<path d="M76.8881 37.1332C76.9595 37.1656 76.6842 37.8791 76.5064 38.7955C76.322 39.7103 76.3056 40.4752 76.227 40.4778C76.1582 40.4844 76.0529 39.6954 76.244 38.7436C76.4294 37.7902 76.8265 37.1004 76.8881 37.1332Z" fill="white"/>
<path d="M73.9324 40.992C73.8651 41.0146 73.5338 40.1892 73.3283 39.1166C73.1198 38.0441 73.1203 37.1549 73.1912 37.1513C73.2672 37.1457 73.3859 38.0117 73.5908 39.0663C73.7932 40.1209 74.0054 40.9689 73.9324 40.992Z" fill="white"/>
<path d="M71.6085 42.1637C71.5669 42.2187 70.8246 41.6793 70.1707 40.7696C69.5112 39.8635 69.2317 38.9897 69.2965 38.9671C69.3694 38.9363 69.7495 39.7376 70.3875 40.6124C71.0188 41.4923 71.6609 42.1046 71.6085 42.1637Z" fill="white"/>
<path d="M96.1795 44.4901C96.159 44.4906 96.1338 44.2071 96.1055 43.6785L96.2098 43.7083C95.8692 44.2723 95.2616 45.1523 94.3087 46.0656C94.0621 46.2787 93.8449 46.5592 93.4488 46.7036C93.25 46.7729 93.005 46.7318 92.8298 46.6275C92.6485 46.5268 92.5067 46.3953 92.3603 46.2762C91.7732 45.7882 91.1558 45.2647 90.5235 44.7146C87.9736 42.4991 85.8947 40.4604 84.9922 39.5147L85.039 39.5301C84.5325 39.5825 84.2592 39.601 84.2561 39.5815C84.2536 39.562 84.5217 39.506 85.0236 39.4197L85.0487 39.4156L85.0703 39.4351C86.0365 40.3145 88.1544 42.3029 90.6991 44.5132C91.333 45.0577 91.9448 45.5827 92.5252 46.0805C92.8129 46.3317 93.0908 46.5731 93.379 46.4719C93.6666 46.3804 93.9132 46.1103 94.1551 45.9027C95.1095 45.0259 95.7393 44.1819 96.1148 43.6477L96.2216 43.4962L96.2196 43.6775C96.2134 44.2056 96.2 44.4896 96.1795 44.4901Z" fill="#263238"/>
</svg>
