<svg width="158" height="166" viewBox="0 0 158 166" fill="none" xmlns="http://www.w3.org/2000/svg">
<path d="M129.434 9.5511C128.281 17.004 121.265 22.2217 113.763 21.2061C106.26 20.1897 101.113 13.3243 102.266 5.87149C103.418 -1.58113 110.434 -6.79925 117.937 -5.78288C125.439 -4.76732 130.586 2.09817 129.434 9.5511Z" fill="#3E0190"/>
<path d="M126.204 9.11113C125.326 14.7905 119.98 18.7677 114.263 17.9941C108.546 17.2206 104.622 11.9892 105.499 6.30981C106.377 0.630241 111.723 -3.347 117.44 -2.57352C123.157 -1.79962 127.081 3.43147 126.204 9.11113Z" fill="#661FC6"/>
<path d="M126.234 8.88067C126.17 8.87442 126.196 8.41335 126.151 7.59652C126.101 6.78382 125.962 5.59946 125.44 4.25604C125.179 3.58691 124.825 2.88143 124.353 2.18512C123.875 1.49411 123.288 0.806522 122.568 0.195603C122.21 -0.111269 121.824 -0.404347 121.405 -0.665219C120.988 -0.928335 120.545 -1.17397 120.072 -1.37665C119.601 -1.58096 119.109 -1.76296 118.594 -1.89653C118.079 -2.03095 117.547 -2.13039 117.002 -2.19073C116.455 -2.24389 115.912 -2.25652 115.378 -2.23135C114.843 -2.20677 114.319 -2.13042 113.811 -2.02853C113.301 -1.92763 112.81 -1.77922 112.34 -1.60858C111.868 -1.44037 111.421 -1.23358 110.998 -1.00825C110.15 -0.560054 109.412 -0.0102135 108.78 0.565261C108.153 1.1469 107.637 1.76212 107.222 2.36088C106.39 3.56337 105.97 4.68934 105.725 5.47128C105.485 6.25813 105.399 6.71312 105.336 6.70584C105.288 6.7019 105.268 6.23448 105.421 5.40124C105.577 4.57465 105.929 3.36825 106.745 2.05782C107.152 1.40551 107.672 0.731349 108.321 0.0904013C108.973 -0.54461 109.747 -1.15302 110.648 -1.65253C111.097 -1.90357 111.573 -2.13404 112.078 -2.32286C112.581 -2.51411 113.108 -2.68017 113.657 -2.79489C114.205 -2.91083 114.77 -2.99687 115.347 -3.02642C115.924 -3.05678 116.51 -3.04408 117.098 -2.9866C117.686 -2.92184 118.261 -2.81338 118.815 -2.66511C119.371 -2.51769 119.901 -2.31721 120.407 -2.09193C120.914 -1.86771 121.388 -1.59733 121.833 -1.30699C122.279 -1.01912 122.689 -0.696406 123.066 -0.359811C123.823 0.312397 124.432 1.06448 124.915 1.81772C125.393 2.57536 125.738 3.34017 125.978 4.05949C126.458 5.50469 126.511 6.75294 126.466 7.59147C126.413 8.43461 126.28 8.88586 126.234 8.88067Z" fill="#3E0190"/>
<g clip-path="url(#clip0_45_6276)">
<path d="M117.084 12.2556L116.76 13.5574C116.745 13.6237 116.71 13.6758 116.655 13.7136C116.599 13.7514 116.539 13.7673 116.474 13.7612L116.433 13.751C116.409 13.7515 116.378 13.7478 116.342 13.74C116.306 13.7322 116.261 13.7245 116.206 13.717C116.152 13.7095 116.091 13.6979 116.025 13.6821C115.96 13.6663 115.89 13.6487 115.817 13.6294C115.743 13.61 115.663 13.5872 115.574 13.5608C115.486 13.5344 115.397 13.5062 115.308 13.4762C115.218 13.4462 115.124 13.4108 115.024 13.3699C114.925 13.3291 114.828 13.2864 114.733 13.2418C113.569 12.6925 112.711 11.8901 112.161 10.8344C111.61 9.77879 111.449 8.631 111.678 7.39105L110.969 7.05656C110.904 7.02604 110.86 6.97616 110.836 6.90692C110.812 6.83768 110.816 6.77094 110.848 6.7067L111.263 5.86911C111.295 5.80487 111.347 5.76043 111.417 5.73578C111.488 5.71114 111.555 5.71407 111.62 5.74459L112.113 5.97697C112.243 5.69061 112.374 5.43235 112.507 5.2022L112.007 4.9663C111.937 4.93344 111.891 4.88421 111.868 4.81861C111.845 4.75301 111.851 4.68562 111.885 4.61644L112.305 3.77144C112.339 3.70226 112.39 3.656 112.457 3.63265C112.524 3.6093 112.592 3.61406 112.662 3.64692L113.393 3.99197C114.242 3.11152 115.262 2.56219 116.455 2.34397C117.647 2.12575 118.801 2.27954 119.915 2.80533C120.423 3.04475 120.877 3.32926 121.279 3.65887C121.326 3.69951 121.358 3.76004 121.373 3.84047C121.376 3.90891 121.354 3.97173 121.307 4.02893L120.401 5.05607C120.354 5.11327 120.295 5.14502 120.225 5.15132C120.154 5.15762 120.091 5.13563 120.036 5.08535L120.01 5.06385C119.993 5.04952 119.967 5.02985 119.933 5.00483L119.816 4.91727L119.661 4.81211L119.478 4.69833L119.27 4.57769L119.054 4.46641C118.427 4.17066 117.786 4.06354 117.131 4.14507C116.477 4.2266 115.887 4.48541 115.364 4.92149L118.857 6.56928C118.937 6.60684 118.984 6.66583 119 6.74625C119.02 6.82902 119.005 6.90147 118.956 6.96361L118.357 7.72411C118.269 7.84085 118.157 7.86754 118.023 7.80416L114.38 6.08595C114.274 6.26175 114.146 6.52118 113.994 6.86424L117.42 8.48034C117.495 8.51555 117.542 8.57454 117.562 8.65731C117.578 8.73773 117.56 8.81148 117.508 8.87857L116.916 9.62424C116.879 9.6739 116.829 9.7067 116.766 9.72263C116.703 9.73857 116.644 9.73363 116.589 9.70781L113.701 8.34521C113.652 9.03604 113.797 9.66982 114.134 10.2466C114.471 10.8233 114.955 11.2607 115.587 11.5588C115.677 11.6011 115.768 11.6396 115.862 11.6745C115.955 11.7093 116.042 11.74 116.124 11.7665C116.206 11.793 116.285 11.8165 116.361 11.837C116.437 11.8575 116.504 11.8739 116.562 11.8862C116.621 11.8985 116.672 11.9091 116.717 11.918L116.818 11.938L116.862 11.9408C116.939 11.9466 117.002 11.982 117.049 12.0471C117.092 12.1099 117.103 12.1794 117.084 12.2556Z" fill="#3E0190"/>
</g>
<path d="M50.5561 32.0202C49.694 37.5995 44.4424 41.5068 38.8261 40.7471C33.2094 39.9872 29.3551 34.8484 30.217 29.2686C31.0784 23.6891 36.3303 19.7822 41.9469 20.5421C47.5632 21.3018 51.4175 26.4407 50.5561 32.0202Z" fill="#3E0190"/>
<path d="M48.1344 31.6929C47.4775 35.9447 43.4754 38.9221 39.1952 38.343C34.9154 37.764 31.9779 33.8478 32.6347 29.596C33.2916 25.3443 37.2938 22.3665 41.5736 22.9455C45.8537 23.525 48.7912 27.4411 48.1344 31.6929Z" fill="#661FC6"/>
<path d="M48.1589 31.5205C48.1113 31.5157 48.1307 31.1704 48.0968 30.5592C48.0596 29.9508 47.9551 29.0645 47.5642 28.0587C47.369 27.5578 47.1039 27.0297 46.7499 26.5084C46.3924 25.991 45.9526 25.4766 45.4143 25.019C45.1462 24.7895 44.8571 24.5701 44.5434 24.3744C44.2309 24.1775 43.8998 23.9938 43.5456 23.8416C43.193 23.6886 42.8246 23.5525 42.4387 23.4523C42.0534 23.3518 41.6549 23.2771 41.2469 23.232C40.8381 23.1924 40.4314 23.1829 40.0314 23.2016C39.6308 23.2198 39.2389 23.2773 38.8579 23.3533C38.4763 23.4287 38.1092 23.5399 37.7569 23.6679C37.4036 23.7939 37.0693 23.9489 36.7524 24.1173C36.1175 24.4527 35.5646 24.8643 35.0919 25.2956C34.6221 25.731 34.2361 26.1917 33.9252 26.6399C33.3027 27.5402 32.9879 28.3827 32.8051 28.9685C32.6253 29.5575 32.5609 29.898 32.5132 29.8924C32.478 29.8896 32.4627 29.5396 32.5768 28.9159C32.694 28.2971 32.9576 27.3942 33.568 26.4131C33.8733 25.9248 34.2622 25.4201 34.7477 24.9402C35.2362 24.4649 35.8155 24.0095 36.4899 23.6353C36.8261 23.4472 37.1827 23.2748 37.5606 23.1335C37.9378 22.9905 38.3319 22.866 38.7426 22.7804C39.1528 22.6937 39.5756 22.6293 40.0078 22.6072C40.4393 22.5846 40.8784 22.5941 41.319 22.6371C41.7591 22.6858 42.189 22.7666 42.6043 22.8777C43.0202 22.9882 43.4172 23.1382 43.7959 23.3068C44.1756 23.4748 44.5303 23.677 44.8633 23.8944C45.1977 24.1098 45.5042 24.3515 45.7864 24.6037C46.3533 25.1068 46.8091 25.6699 47.171 26.2339C47.5283 26.801 47.7868 27.3734 47.9667 27.9123C48.3258 28.9944 48.3657 29.929 48.3313 30.5566C48.293 31.1866 48.1938 31.5244 48.1589 31.5205Z" fill="#3E0190"/>
<path d="M40.5569 35.3481L40.3702 36.6892L39.1686 36.5433L39.3505 35.2388C38.1707 35.0226 37.0808 34.5132 36.4916 33.9181L37.3558 32.5375C37.895 33.0534 38.715 33.4816 39.569 33.6704L39.8477 31.6709C38.5589 31.1861 37.1305 30.5623 37.3689 28.8501C37.546 27.5811 38.6232 26.6043 40.5517 26.6192L40.7371 25.2901L41.9392 25.4358L41.7571 26.7411C42.6483 26.9221 43.4924 27.2679 44.0949 27.7671L43.289 29.1668C42.7244 28.7454 42.1276 28.4658 41.537 28.321L41.2533 30.3564C42.5438 30.8292 43.9481 31.4505 43.7132 33.138C43.5387 34.3829 42.4755 35.3494 40.5569 35.3481ZM40.0928 29.9109L40.3295 28.2111C39.6727 28.2773 39.372 28.594 39.3168 28.9892C39.2584 29.408 39.5873 29.6792 40.0928 29.9109ZM41.7579 33.0469C41.816 32.6276 41.4994 32.358 41.0077 32.1154L40.7776 33.7675C41.3967 33.7093 41.7045 33.4298 41.7579 33.0469Z" fill="#3E0190"/>
<path d="M135.923 83.24L115.933 148.554C114.84 152.128 111.048 154.191 107.466 153.162L12.3522 125.854C8.7693 124.825 6.75196 121.094 7.84572 117.52L27.8349 52.2066C28.9288 48.6324 32.7199 46.5693 36.3024 47.5979L131.416 74.9063C134.999 75.9349 137.016 79.6658 135.923 83.24Z" fill="#00DE93"/>
<path d="M135.926 83.1976C135.926 83.1976 135.942 83.1164 135.981 82.9582C136.014 82.7989 136.093 82.5663 136.125 82.2463C136.225 81.6176 136.284 80.6391 135.95 79.437C135.775 78.8426 135.51 78.1925 135.083 77.5556C134.654 76.9233 134.073 76.301 133.322 75.7899C133.137 75.6588 132.929 75.5529 132.729 75.43C132.52 75.3201 132.297 75.2283 132.076 75.1236C131.843 75.0449 131.607 74.9646 131.367 74.8832C131.121 74.8131 130.871 74.742 130.618 74.6696C129.602 74.3801 128.522 74.0718 127.377 73.7451C118.217 71.1266 104.967 67.3384 88.594 62.6575C80.4076 60.314 71.4415 57.7469 61.8154 54.9914C57.0028 53.613 52.025 52.1872 46.8977 50.719C44.3343 49.9847 41.7329 49.2395 39.0966 48.4844C38.4377 48.2954 37.7761 48.1061 37.1127 47.9159C36.4452 47.7325 35.7927 47.5119 35.1044 47.4611C34.4201 47.4014 33.7234 47.4337 33.0417 47.5766C32.3632 47.7305 31.705 47.9831 31.0938 48.3267C30.4779 48.6645 29.9308 49.1226 29.4515 49.6364C28.9731 50.1526 28.5674 50.7432 28.2822 51.3895C27.9887 52.0285 27.8074 52.7251 27.5924 53.4116C27.382 54.0991 27.1712 54.7889 26.9597 55.48C26.1134 58.2459 25.2577 61.0438 24.3927 63.8709C22.6624 69.5259 20.8958 75.2996 19.0974 81.1773C15.4996 92.9329 11.7746 105.104 7.95904 117.57C7.49039 119.109 7.597 120.793 8.25782 122.23C8.90558 123.671 10.0966 124.853 11.5476 125.475C12.2672 125.787 13.0557 125.969 13.8204 126.198C14.5891 126.418 15.3562 126.638 16.1219 126.858C17.6535 127.297 19.18 127.735 20.7004 128.171C26.7831 129.916 32.7768 131.635 38.6661 133.324C50.4444 136.704 61.8058 139.964 72.6284 143.069C83.4506 146.176 93.7345 149.129 103.359 151.891C104.562 152.237 105.755 152.579 106.937 152.919C107.529 153.094 108.112 153.247 108.716 153.303C109.317 153.345 109.926 153.343 110.516 153.222C110.815 153.186 111.1 153.084 111.391 153.013C111.669 152.901 111.959 152.82 112.223 152.677C112.771 152.436 113.262 152.09 113.722 151.721C114.621 150.953 115.328 149.973 115.715 148.884C117.117 144.445 118.404 140.151 119.665 136.071C124.679 119.735 128.737 106.515 131.543 97.3776C132.949 92.812 134.041 89.2666 134.782 86.8606C135.154 85.6603 135.438 84.7447 135.629 84.127C135.822 83.5116 135.926 83.1976 135.926 83.1976C135.926 83.1976 135.836 83.5154 135.65 84.1329C135.463 84.752 135.186 85.6694 134.822 86.8722C134.089 89.2805 133.01 92.8294 131.619 97.3996C128.829 106.542 124.792 119.767 119.803 136.111C118.546 140.196 117.267 144.479 115.863 148.936C115.468 150.05 114.745 151.055 113.825 151.842C113.355 152.22 112.851 152.574 112.291 152.822C112.021 152.968 111.724 153.052 111.44 153.165C111.142 153.239 110.85 153.343 110.544 153.381C109.939 153.506 109.316 153.509 108.7 153.466C108.084 153.41 107.476 153.25 106.89 153.077C105.708 152.738 104.515 152.396 103.312 152.052C93.6852 149.295 83.3995 146.349 72.5754 143.248C61.7513 140.146 50.389 136.89 38.6096 133.514C32.7201 131.826 26.7259 130.108 20.643 128.364C19.1221 127.928 17.596 127.49 16.0643 127.051C15.2986 126.832 14.5311 126.612 13.7628 126.391C12.9986 126.162 12.2151 125.983 11.4645 125.659C9.96957 125.018 8.74188 123.8 8.07493 122.316C7.39396 120.836 7.28379 119.099 7.76716 117.515C11.5839 105.049 15.3104 92.8786 18.9092 81.1234C20.7091 75.2461 22.4774 69.4724 24.209 63.8182C25.0749 60.991 25.9319 58.1939 26.7789 55.4282C26.9906 54.7367 27.202 54.0475 27.4124 53.36C27.6274 52.6763 27.8078 51.9786 28.1124 51.3141C28.4059 50.6497 28.8233 50.0422 29.3153 49.5118C29.808 48.9832 30.371 48.5131 31.0042 48.1662C31.6324 47.8133 32.3089 47.5539 33.0063 47.3965C33.7065 47.2496 34.4229 47.2164 35.1264 47.2785L35.6513 47.3462L36.1652 47.4633C36.5082 47.5411 36.8331 47.6492 37.1672 47.7405C37.8306 47.9307 38.492 48.1208 39.1509 48.3098C41.7871 49.0665 44.3876 49.813 46.9506 50.5488C52.0768 52.0208 57.0536 53.4495 61.8653 54.8309C71.4888 57.595 80.4526 60.1698 88.6367 62.5207C105.001 67.2275 118.246 71.0366 127.401 73.67C128.545 73.9997 129.624 74.3109 130.639 74.6034C130.892 74.6765 131.142 74.7484 131.387 74.8192C131.629 74.9024 131.868 74.984 132.102 75.064C132.325 75.1704 132.549 75.2639 132.759 75.3754C132.962 75.5001 133.171 75.6077 133.357 75.7406C134.114 76.2592 134.696 76.889 135.126 77.5275C135.554 78.171 135.817 78.8268 135.99 79.4259C136.319 80.6372 136.253 81.6198 136.146 82.2494C136.11 82.57 136.028 82.8025 135.991 82.9608C135.949 83.1183 135.926 83.1976 135.926 83.1976Z" fill="#3E0190"/>
<path d="M132.684 81.6945C132.7 81.6403 133.218 81.7447 133.84 81.9275C134.463 82.1103 134.954 82.3025 134.938 82.3564C134.922 82.4103 134.404 82.3062 133.782 82.1234C133.159 81.941 132.668 81.7488 132.684 81.6945Z" fill="#3E0190"/>
<path d="M123.481 78.9697C123.497 78.9154 124.54 79.1753 125.809 79.5497C127.08 79.9243 128.096 80.2719 128.08 80.3259C128.064 80.3798 127.021 80.1204 125.751 79.7458C124.481 79.3718 123.465 79.024 123.481 78.9697Z" fill="#3E0190"/>
<path d="M114.278 76.2447C114.294 76.1904 115.337 76.4503 116.606 76.8247C117.876 77.1993 118.893 77.547 118.877 77.6009C118.861 77.6548 117.818 77.3954 116.548 77.0208C115.278 76.6467 114.262 76.299 114.278 76.2447Z" fill="#3E0190"/>
<path d="M105.074 73.5197C105.091 73.4654 106.133 73.7253 107.403 74.0998C108.673 74.4744 109.69 74.8221 109.674 74.876C109.658 74.9299 108.615 74.6705 107.345 74.2959C106.075 73.9218 105.058 73.574 105.074 73.5197Z" fill="#3E0190"/>
<path d="M95.8712 70.7947C95.8874 70.7403 96.9301 71.0003 98.1997 71.3746C99.47 71.7492 100.486 72.0969 100.47 72.1509C100.454 72.2048 99.4116 71.9454 98.1413 71.5708C96.8717 71.1968 95.8551 70.849 95.8712 70.7947Z" fill="#3E0190"/>
<path d="M86.6678 68.0697C86.684 68.0154 87.7268 68.2753 88.9963 68.6497C90.2666 69.0243 91.2829 69.3719 91.2668 69.4259C91.2508 69.4798 90.2083 69.2204 88.938 68.8458C87.6679 68.4717 86.6517 68.124 86.6678 68.0697Z" fill="#3E0190"/>
<path d="M77.465 65.3446C77.4811 65.2903 78.5239 65.5502 79.7934 65.9246C81.0637 66.2992 82.08 66.6468 82.064 66.7008C82.0479 66.7547 81.0054 66.4953 79.7351 66.1207C78.4654 65.7467 77.4488 65.3989 77.465 65.3446Z" fill="#3E0190"/>
<path d="M68.2618 62.6196C68.278 62.5653 69.3208 62.8252 70.5907 63.1997C71.861 63.5743 72.8772 63.922 72.8612 63.9759C72.8452 64.0299 71.8026 63.7704 70.5324 63.3958C69.2623 63.0217 68.2457 62.6739 68.2618 62.6196Z" fill="#3E0190"/>
<path d="M59.059 59.8947C59.0751 59.8404 60.1179 60.1003 61.3878 60.4748C62.6581 60.8494 63.6744 61.1971 63.6583 61.251C63.6423 61.3049 62.5998 61.0455 61.3295 60.6709C60.0591 60.2967 59.0428 59.949 59.059 59.8947Z" fill="#3E0190"/>
<path d="M49.8551 57.1697C49.8713 57.1153 50.914 57.3753 52.1836 57.7496C53.4539 58.1242 54.4701 58.4719 54.4541 58.5259C54.438 58.5798 53.3955 58.3204 52.1252 57.9458C50.8556 57.5718 49.8389 57.224 49.8551 57.1697Z" fill="#3E0190"/>
<path d="M40.6527 54.4447C40.6689 54.3904 41.7117 54.6503 42.9812 55.0247C44.2515 55.3993 45.2677 55.7469 45.2517 55.8009C45.2356 55.8548 44.1931 55.5954 42.9228 55.2208C41.6532 54.8468 40.6366 54.499 40.6527 54.4447Z" fill="#3E0190"/>
<path d="M33.1436 54.6308C33.0903 54.6155 33.352 53.6095 33.7277 52.3842C33.9799 52.2469 33.7982 52.3465 33.8548 52.3157L33.8555 52.3159L33.8574 52.3164L33.8611 52.3175L33.8681 52.3195L33.8826 52.3236L33.9111 52.3318L33.9682 52.3482L34.0811 52.381C34.1555 52.4027 34.2286 52.4245 34.3015 52.4458C34.4429 52.4883 34.5809 52.5299 34.7171 52.571C34.958 52.6477 35.1908 52.7222 35.4174 52.7944C35.8145 52.9272 36.0558 53.0225 36.0476 53.0492C36.0395 53.0758 35.7834 53.0285 35.3757 52.9305C35.145 52.8716 34.9079 52.8112 34.6626 52.7485C34.5253 52.7112 34.3862 52.6733 34.2437 52.6344C34.1705 52.6138 34.0969 52.5935 34.0223 52.5725L33.9092 52.5405L33.8521 52.5241L33.8236 52.5159L33.8091 52.5118L33.8021 52.5098L33.7984 52.5087L33.7965 52.5082L33.7958 52.508C33.8516 52.4773 33.6692 52.5763 33.9209 52.4392C33.5451 53.6649 33.197 54.6462 33.1436 54.6308Z" fill="#3E0190"/>
<path d="M30.7191 62.7839C30.6667 62.7684 30.8973 61.8394 31.2335 60.7093C31.5699 59.5789 31.8851 58.6752 31.9371 58.6905C31.9895 58.706 31.759 59.6346 31.4227 60.7651C31.0868 61.8953 30.7715 62.7993 30.7191 62.7839Z" fill="#3E0190"/>
<path d="M28.296 70.9666C28.2436 70.9512 28.4742 70.0222 28.8104 68.8921C29.1468 67.7616 29.462 66.8579 29.514 66.8733C29.5664 66.8887 29.3359 67.8174 28.9996 68.9478C28.6636 70.0784 28.3484 70.9821 28.296 70.9666Z" fill="#3E0190"/>
<path d="M25.8727 79.1497C25.8203 79.1343 26.0508 78.2053 26.3871 77.0752C26.7235 75.9447 27.0386 75.041 27.0907 75.0564C27.143 75.0718 26.9126 76.0005 26.5762 77.1309C26.2403 78.2611 25.925 79.1652 25.8727 79.1497Z" fill="#3E0190"/>
<path d="M23.4503 87.3325C23.3979 87.3171 23.6285 86.3881 23.9647 85.258C24.3011 84.1275 24.6163 83.2238 24.6683 83.2392C24.7207 83.2546 24.4902 84.1833 24.1539 85.3137C23.8179 86.4443 23.5027 87.348 23.4503 87.3325Z" fill="#3E0190"/>
<path d="M21.0274 95.5155C20.9751 95.5001 21.2055 94.5715 21.5419 93.441C21.8783 92.3105 22.1934 91.4069 22.2454 91.4222C22.2978 91.4376 22.0674 92.3663 21.731 93.4967C21.3951 94.627 21.0798 95.531 21.0274 95.5155Z" fill="#3E0190"/>
<path d="M18.6043 103.698C18.552 103.683 18.7825 102.754 19.1188 101.624C19.4552 100.493 19.7703 99.5896 19.8224 99.605C19.8747 99.6204 19.6443 100.549 19.3079 101.68C18.9719 102.81 18.6567 103.714 18.6043 103.698Z" fill="#3E0190"/>
<path d="M16.1815 111.881C16.1291 111.866 16.3597 110.937 16.6959 109.807C17.0323 108.676 17.3475 107.773 17.3995 107.788C17.4519 107.803 17.2214 108.732 16.8851 109.863C16.5492 110.993 16.2339 111.897 16.1815 111.881Z" fill="#3E0190"/>
<path d="M16.5485 118.827C16.5322 118.881 15.5236 118.638 14.2953 118.286C14.1613 118.038 14.2585 118.217 14.2284 118.161L14.2288 118.16L14.2293 118.158L14.2305 118.154L14.2326 118.147L14.237 118.133L14.2458 118.104L14.2632 118.047L14.2982 117.935C14.3213 117.861 14.3445 117.788 14.3672 117.715C14.4125 117.574 14.4568 117.436 14.5005 117.3C14.5819 117.059 14.6608 116.827 14.7374 116.6C14.878 116.204 14.9781 115.963 15.0048 115.97C15.0315 115.978 14.9795 116.233 14.8738 116.64C14.8105 116.87 14.7457 117.106 14.6784 117.351C14.6384 117.488 14.5978 117.627 14.5563 117.769C14.5343 117.842 14.5126 117.915 14.4902 117.99L14.456 118.103L14.4385 118.16L14.4298 118.188L14.4253 118.203L14.4232 118.21L14.4221 118.213L14.4215 118.215L14.4212 118.216C14.3913 118.161 14.4878 118.341 14.354 118.093C15.5826 118.445 16.5649 118.774 16.5485 118.827Z" fill="#3E0190"/>
<path d="M25.6502 121.511C25.6341 121.566 24.6063 121.31 23.3548 120.941C22.103 120.572 21.1017 120.229 21.1178 120.175C21.1338 120.121 22.1613 120.376 23.4132 120.745C24.6648 121.114 25.6664 121.457 25.6502 121.511Z" fill="#3E0190"/>
<path d="M34.7199 124.197C34.7038 124.251 33.676 123.996 32.4245 123.627C31.1727 123.258 30.1711 122.914 30.1871 122.86C30.2032 122.806 31.231 123.062 32.4829 123.431C33.7345 123.799 34.7361 124.143 34.7199 124.197Z" fill="#3E0190"/>
<path d="M43.7894 126.883C43.7732 126.937 42.7455 126.681 41.494 126.312C40.2421 125.943 39.2409 125.6 39.257 125.546C39.273 125.492 40.3005 125.747 41.5523 126.116C42.8039 126.485 43.8055 126.828 43.7894 126.883Z" fill="#3E0190"/>
<path d="M52.8597 129.568C52.8435 129.622 51.8158 129.367 50.5643 128.998C49.3124 128.629 48.3112 128.286 48.3273 128.232C48.3433 128.178 49.3708 128.433 50.6227 128.802C51.8743 129.17 52.8759 129.514 52.8597 129.568Z" fill="#3E0190"/>
<path d="M61.9292 132.254C61.913 132.308 60.8853 132.052 59.6338 131.683C58.3819 131.314 57.3803 130.971 57.3964 130.917C57.4124 130.863 58.4399 131.118 59.6921 131.487C60.9437 131.856 61.9453 132.199 61.9292 132.254Z" fill="#3E0190"/>
<path d="M70.9995 134.939C70.9833 134.994 69.9556 134.738 68.7041 134.369C67.4522 134 66.4506 133.657 66.4667 133.603C66.4827 133.549 67.5102 133.804 68.7624 134.173C70.014 134.542 71.0156 134.885 70.9995 134.939Z" fill="#3E0190"/>
<path d="M80.0697 137.625C80.0535 137.679 79.0258 137.424 77.7743 137.055C76.5224 136.685 75.5212 136.342 75.5372 136.288C75.5533 136.234 76.5808 136.489 77.8326 136.858C79.0842 137.227 80.0858 137.57 80.0697 137.625Z" fill="#3E0190"/>
<path d="M89.1391 140.31C89.123 140.365 88.0952 140.109 86.8437 139.74C85.5919 139.371 84.5903 139.028 84.6063 138.974C84.6224 138.92 85.6502 139.175 86.9021 139.544C88.1537 139.913 89.1553 140.256 89.1391 140.31Z" fill="#3E0190"/>
<path d="M98.2094 142.996C98.1933 143.05 97.1655 142.795 95.9141 142.426C94.6622 142.057 93.6606 141.713 93.6766 141.659C93.6927 141.605 94.7202 141.86 95.9724 142.23C97.224 142.598 98.2256 142.942 98.2094 142.996Z" fill="#3E0190"/>
<path d="M107.279 145.681C107.263 145.736 106.235 145.48 104.983 145.111C103.732 144.742 102.73 144.399 102.746 144.345C102.762 144.291 103.789 144.546 105.042 144.915C106.293 145.284 107.295 145.627 107.279 145.681Z" fill="#3E0190"/>
<path d="M114.07 147.692C114.054 147.746 113.536 147.642 112.914 147.459C112.292 147.276 111.8 147.084 111.816 147.03C111.833 146.976 112.35 147.08 112.973 147.263C113.595 147.446 114.086 147.638 114.07 147.692Z" fill="#3E0190"/>
<g opacity="0.3">
<path d="M53.7077 99.2449C53.7077 99.2449 52.5967 102.986 50.7799 104.917C48.9631 106.848 48.3194 107.607 45.68 107.788C43.0406 107.97 11.9114 102.561 11.9114 102.561L14.9985 92.4008L53.7077 99.2449Z" fill="black"/>
</g>
<g opacity="0.3">
<path d="M57.1136 85.6541C57.1136 85.6541 58.6142 81.9285 49.4465 77.7177C38.9609 72.9016 22.7593 66.0224 22.7593 66.0224L20.5716 73.2633L57.1136 85.6541Z" fill="black"/>
</g>
<path d="M14.9111 96.0328L45.9471 104.951C48.8926 105.797 52.0096 104.099 52.9089 101.158L57.151 87.2853C58.0505 84.3439 56.3918 81.2734 53.4463 80.427L22.4104 71.5092C19.4648 70.6628 16.3482 72.3612 15.4488 75.3026L11.2067 89.175C10.3068 92.1163 11.9656 95.1864 14.9111 96.0328Z" fill="#00DE93"/>
<path d="M14.9088 96.0361C14.9088 96.0361 14.8008 96.0063 14.5922 95.9383C14.3819 95.8762 14.0785 95.751 13.7039 95.5462C13.325 95.3474 12.8959 95.0294 12.4553 94.5883C12.0202 94.143 11.5929 93.5446 11.2982 92.786C11.0104 92.0313 10.8285 91.1132 10.9611 90.121C11.0081 89.6233 11.1737 89.1216 11.3257 88.609C11.4821 88.0941 11.6441 87.5594 11.8123 87.0058C12.4859 84.79 13.2524 82.2677 14.0994 79.48C14.5279 78.0863 14.9584 76.6252 15.4412 75.1043C15.9517 73.5791 17.1935 72.1977 18.8446 71.5897C19.6602 71.2805 20.5629 71.1383 21.457 71.2414C21.9027 71.2841 22.3495 71.3959 22.7754 71.5219C23.2062 71.6453 23.6399 71.7695 24.0766 71.8946C25.8245 72.3952 27.6234 72.9109 29.4682 73.4394C36.847 75.5573 44.9583 77.8853 53.4726 80.3291C54.0109 80.4955 54.5268 80.7247 54.9972 81.0271C55.4596 81.3397 55.8759 81.7131 56.2332 82.136C56.5797 82.5679 56.8618 83.0456 57.0772 83.5512C57.286 84.0605 57.4088 84.5998 57.4681 85.1435C57.5207 85.6897 57.4769 86.2394 57.3802 86.7763C57.2572 87.3133 57.0878 87.8168 56.9342 88.328C56.6217 89.3478 56.3119 90.359 56.005 91.3618C55.3907 93.3667 54.7872 95.3363 54.1962 97.265C53.9007 98.2293 53.6079 99.1835 53.3188 100.127C53.1655 100.599 53.0497 101.067 52.8679 101.534C52.7941 101.771 52.6669 101.987 52.5653 102.212C52.4382 102.423 52.3214 102.642 52.1723 102.838C51.0329 104.457 49.0625 105.355 47.2112 105.247C46.9782 105.251 46.7519 105.198 46.5232 105.175C46.299 105.131 46.0754 105.076 45.8565 105.021C45.426 104.896 44.9992 104.773 44.5754 104.651C43.7278 104.407 42.894 104.166 42.074 103.93C38.7948 102.983 35.7399 102.101 32.9505 101.295C27.3779 99.6795 22.8677 98.3721 19.7441 97.4665C18.1902 97.0114 16.9822 96.6574 16.1568 96.4158C15.7512 96.2948 15.4405 96.2018 15.2255 96.1376C15.0144 96.0737 14.9088 96.0361 14.9088 96.0361C14.9088 96.0361 15.0185 96.0604 15.2304 96.1176C15.4468 96.1773 15.7596 96.2636 16.1676 96.3764C16.9959 96.6099 18.2074 96.9512 19.7661 97.3906C22.8939 98.2813 27.4109 99.5679 32.9914 101.157C35.7831 101.955 38.84 102.83 42.1222 103.768C42.9427 104.003 43.7771 104.242 44.6252 104.485C45.479 104.707 46.3207 105.048 47.2215 105.069C49.0138 105.171 50.9203 104.298 52.0193 102.731C52.605 101.966 52.8463 101.018 53.1356 100.074C53.424 99.1302 53.7153 98.1756 54.01 97.2111C54.5995 95.282 55.2016 93.312 55.8144 91.3066C56.1208 90.3041 56.4304 89.2924 56.7421 88.2724C56.8952 87.7627 57.0664 87.2496 57.1828 86.7394C57.2752 86.2215 57.3178 85.6917 57.267 85.165C57.2094 84.6408 57.0909 84.1207 56.8895 83.6292C56.6817 83.1416 56.4093 82.6808 56.0756 82.2643C55.7306 81.8567 55.3296 81.497 54.8841 81.1953C54.4305 80.9043 53.9335 80.6837 53.4139 80.5223C44.9015 78.0734 36.7914 75.7401 29.414 73.6178C27.5701 73.0863 25.772 72.5684 24.0249 72.0647C23.5881 71.9388 23.1546 71.8138 22.7244 71.6898C22.2925 71.5612 21.8724 71.4559 21.4366 71.4125C20.5706 71.3105 19.6951 71.4472 18.9031 71.7454C17.2994 72.3322 16.0908 73.6701 15.59 75.1519C15.1065 76.6617 14.6694 78.1286 14.237 79.5191C13.3792 82.3037 12.6029 84.8232 11.9208 87.0366C11.75 87.5894 11.5854 88.1234 11.4268 88.6377C11.271 89.1535 11.1065 89.6419 11.0578 90.131C10.9213 91.1054 11.0943 92.0101 11.3724 92.7567C11.6576 93.5069 12.0737 94.1018 12.4998 94.5464C12.9311 94.9869 13.3526 95.3076 13.7253 95.5106C14.0938 95.7197 14.393 95.8503 14.6003 95.9187C14.8044 95.9932 14.9088 96.0361 14.9088 96.0361Z" fill="#3E0190"/>
<path d="M39.5599 100.475C44.4649 101.881 49.6575 99.0529 51.1578 94.1579C52.6581 89.263 49.898 84.1549 44.9929 82.7486C40.0879 81.3424 34.8953 84.1706 33.395 89.0655C31.8947 93.9605 34.6548 99.0686 39.5599 100.475Z" fill="#3E0190"/>
<path d="M42.4725 99.5148C42.465 99.4607 43.4492 99.5415 44.9038 99.0214C45.6265 98.7652 46.4487 98.3384 47.2382 97.7003C48.0269 97.0659 48.7669 96.2022 49.2833 95.1578C49.7846 94.1063 50.0027 92.9965 50.0088 91.9942C50.0174 90.9889 49.8384 90.0912 49.5868 89.3766C49.0844 87.936 48.4025 87.2333 48.4498 87.2051C48.4551 87.2006 48.4961 87.2432 48.5697 87.3291C48.6394 87.4175 48.7578 87.5375 48.8755 87.7172C49.13 88.0629 49.4485 88.6048 49.7198 89.3279C49.9929 90.0491 50.1913 90.9632 50.1927 91.9921C50.1965 93.0181 49.9788 94.1595 49.4624 95.2422C48.9307 96.3173 48.1656 97.2005 47.3519 97.8421C46.5375 98.4874 45.6903 98.9097 44.9486 99.1537C44.2065 99.3999 43.5778 99.4967 43.1447 99.5191C42.9287 99.5414 42.7592 99.5264 42.6456 99.5284C42.5317 99.5262 42.4724 99.5215 42.4725 99.5148Z" fill="#FAFAFA"/>
<path d="M137.686 41.6012C136.385 47.7444 130.323 51.7625 124.147 50.5769C117.97 49.3909 114.017 43.4498 115.318 37.3066C116.618 31.1636 122.68 27.1451 128.857 28.3313C135.034 29.517 138.987 35.4583 137.686 41.6012Z" fill="#00DE93"/>
<g opacity="0.3">
<path d="M135.067 40.9121C135.014 40.904 135.057 40.5217 135.057 39.8402C135.053 39.1623 134.992 38.1708 134.621 37.0294C134.435 36.4611 134.173 35.858 133.814 35.2573C133.449 34.6605 132.993 34.0622 132.425 33.521C132.142 33.2494 131.835 32.988 131.499 32.7516C131.164 32.5136 130.808 32.2891 130.425 32.0989C130.044 31.9076 129.644 31.7335 129.222 31.5989C128.801 31.4636 128.364 31.3566 127.914 31.2812C127.463 31.2121 127.013 31.1767 126.569 31.1732C126.123 31.1692 125.685 31.2087 125.258 31.2701C124.831 31.3308 124.417 31.4318 124.018 31.5522C123.619 31.6707 123.239 31.8223 122.877 31.9902C122.152 32.3242 121.514 32.7476 120.963 33.1976C120.415 33.6526 119.959 34.1407 119.586 34.6198C118.841 35.582 118.44 36.4991 118.201 37.1382C117.965 37.7815 117.873 38.1561 117.821 38.147C117.782 38.1415 117.786 37.7518 117.951 37.0659C118.119 36.3855 118.468 35.3984 119.205 34.3458C119.573 33.822 120.036 33.2848 120.604 32.7815C121.174 32.2832 121.845 31.8127 122.616 31.4382C123 31.2499 123.406 31.0802 123.834 30.9461C124.261 30.8099 124.705 30.6959 125.166 30.6259C125.626 30.5545 126.099 30.5088 126.58 30.5108C127.06 30.5118 127.546 30.5493 128.031 30.624C128.516 30.7047 128.988 30.821 129.442 30.9697C129.896 31.1178 130.327 31.3085 130.737 31.519C131.147 31.7287 131.528 31.9752 131.884 32.2369C132.241 32.4967 132.566 32.7837 132.863 33.0811C133.461 33.6749 133.931 34.3282 134.298 34.9767C134.659 35.6287 134.911 36.2806 135.077 36.89C135.408 38.1139 135.395 39.1547 135.318 39.8498C135.236 40.5494 135.105 40.9188 135.067 40.9121Z" fill="black"/>
</g>
<g opacity="0.3">
<path d="M126.408 44.6828L126.119 46.1602L124.797 45.925L125.078 44.4879C123.785 44.1762 122.608 43.5446 121.992 42.8481L123.034 41.3681C123.6 41.9737 124.482 42.4985 125.417 42.7601L125.848 40.5573C124.45 39.9412 122.905 39.1619 123.275 37.2757C123.549 35.8778 124.802 34.8584 126.938 34.9922L127.225 33.5281L128.548 33.7629L128.266 35.2008C129.242 35.456 130.156 35.8908 130.793 36.4815L129.814 37.9865C129.214 37.4844 128.571 37.1381 127.925 36.9412L127.486 39.1836C128.886 39.7867 130.404 40.5616 130.04 42.4209C129.772 43.7925 128.534 44.8008 126.408 44.6828ZM126.228 38.6188L126.594 36.7461C125.863 36.7797 125.51 37.1131 125.425 37.5485C125.334 38.0098 125.682 38.3312 126.228 38.6188ZM127.88 42.2014C127.97 41.7395 127.636 41.4212 127.106 41.1219L126.75 42.9419C127.439 42.9144 127.798 42.6232 127.88 42.2014Z" fill="black"/>
</g>
<path d="M117.984 37.7444C117.986 37.7448 117.985 37.769 117.98 37.8156C117.973 37.8698 117.965 37.9373 117.954 38.0215C117.942 38.1151 117.927 38.226 117.909 38.3554C117.891 38.4871 117.863 38.6385 117.863 38.8114C117.808 39.4972 117.827 40.5083 118.142 41.6935C118.29 42.2885 118.551 42.9092 118.878 43.5478C118.971 43.7014 119.066 43.8576 119.162 44.0162C119.211 44.0947 119.255 44.1775 119.31 44.2543C119.366 44.3299 119.423 44.4059 119.48 44.4825C119.597 44.6336 119.704 44.796 119.833 44.9441C119.966 45.0896 120.1 45.2372 120.235 45.3864C120.805 45.9554 121.463 46.5034 122.24 46.9221C123.015 47.3404 123.878 47.6595 124.799 47.8473C125.724 48.0109 126.65 48.0323 127.534 47.9297C128.419 47.8275 129.247 47.5622 130.001 47.2448C130.186 47.1566 130.369 47.0693 130.55 46.9833C130.728 46.8937 130.892 46.783 131.061 46.6862C131.144 46.6366 131.227 46.5869 131.31 46.5377C131.391 46.4868 131.465 46.4265 131.542 46.372C131.694 46.2606 131.844 46.1508 131.991 46.0431C132.549 45.5729 133.04 45.0954 133.415 44.6C134.18 43.6203 134.602 42.693 134.827 42.0397C134.895 41.8797 134.93 41.7299 134.967 41.6016C135.002 41.4757 135.033 41.3675 135.058 41.2766C135.082 41.1953 135.102 41.1296 135.117 41.0771C135.131 41.0322 135.14 41.0095 135.142 41.0099C135.144 41.0103 135.141 41.0341 135.131 41.0799C135.119 41.1331 135.104 41.1998 135.085 41.2826C135.063 41.3748 135.036 41.4843 135.005 41.6119C134.973 41.7419 134.942 41.8938 134.876 42.0559C134.666 42.7179 134.254 43.6597 133.49 44.6579C133.116 45.1625 132.623 45.6498 132.061 46.1296C131.913 46.24 131.761 46.352 131.608 46.4658C131.53 46.5215 131.455 46.5829 131.374 46.635C131.29 46.6853 131.207 46.7358 131.123 46.7869C130.952 46.8859 130.786 46.999 130.605 47.0906C130.423 47.1788 130.238 47.2678 130.05 47.3584C129.287 47.6834 128.447 47.955 127.548 48.0609C126.652 48.1669 125.711 48.1459 124.771 47.9798C123.837 47.7894 122.96 47.4642 122.174 47.0377C121.386 46.6111 120.72 46.0528 120.145 45.4729C120.008 45.321 119.873 45.1706 119.739 45.0223C119.609 44.8715 119.501 44.7064 119.383 44.5525C119.326 44.4744 119.269 44.3969 119.212 44.3202C119.158 44.2421 119.113 44.1581 119.064 44.0782C118.967 43.9168 118.873 43.7579 118.78 43.6018C118.452 42.9526 118.193 42.3223 118.049 41.7191C117.743 40.5174 117.74 39.4966 117.811 38.8078C117.815 38.6341 117.847 38.4823 117.87 38.3503C117.892 38.2213 117.912 38.1105 117.928 38.0169C117.944 37.9334 117.957 37.8663 117.967 37.8128C117.976 37.7671 117.982 37.744 117.984 37.7444Z" fill="#3E0190"/>
<path d="M157.71 102.416C153.983 106.487 147.685 106.837 143.642 103.199C139.6 99.5596 139.345 93.31 143.072 89.2394C146.798 85.1688 153.097 84.8187 157.139 88.4575C161.181 92.0961 161.437 98.3457 157.71 102.416Z" fill="#00DE93"/>
<g opacity="0.3">
<path d="M156.117 100.732C156.082 100.703 156.285 100.433 156.591 99.9196C156.893 99.4067 157.293 98.6321 157.53 97.6071C157.648 97.0962 157.725 96.5259 157.729 95.9136C157.727 95.3021 157.658 94.6494 157.481 93.9896C157.393 93.6597 157.284 93.3268 157.141 92.9997C157 92.6723 156.838 92.3456 156.64 92.0326C156.444 91.7196 156.226 91.4109 155.975 91.1229C155.724 90.8343 155.449 90.56 155.15 90.3045C154.848 90.0528 154.531 89.8267 154.204 89.6277C153.876 89.4278 153.535 89.2633 153.191 89.121C152.848 88.9774 152.496 88.8702 152.148 88.7849C151.799 88.6977 151.45 88.6433 151.107 88.6101C150.421 88.5414 149.76 88.578 149.15 88.6736C148.541 88.7741 147.985 88.9402 147.494 89.137C146.511 89.5326 145.803 90.0465 145.34 90.423C144.877 90.804 144.641 91.0453 144.606 91.0155C144.58 90.9943 144.758 90.7025 145.188 90.2583C145.617 89.8196 146.317 89.2292 147.335 88.7619C147.843 88.5301 148.425 88.3296 149.071 88.2015C149.717 88.0784 150.424 88.0203 151.161 88.0789C151.53 88.107 151.906 88.1586 152.283 88.247C152.659 88.3331 153.039 88.4443 153.412 88.595C153.784 88.7448 154.154 88.9198 154.509 89.1336C154.863 89.3469 155.206 89.59 155.532 89.8614C155.854 90.137 156.15 90.4334 156.419 90.7462C156.688 91.0588 156.922 91.3936 157.13 91.7335C157.34 92.0734 157.511 92.428 157.656 92.7825C157.804 93.1365 157.915 93.4971 158.002 93.8526C158.177 94.5646 158.232 95.2655 158.211 95.917C158.186 96.5686 158.079 97.1713 157.929 97.7043C157.625 98.7741 157.148 99.5528 156.779 100.043C156.405 100.533 156.143 100.754 156.117 100.732Z" fill="black"/>
</g>
<g opacity="0.3">
<path d="M147.952 99.7406L147.071 100.732L146.194 99.9652L147.052 99.0008C146.231 98.1885 145.642 97.1858 145.498 96.3836L146.941 95.7252C147.088 96.4362 147.507 97.2269 148.084 97.8411L149.398 96.3629C148.637 95.2732 147.841 93.9949 148.967 92.7293C149.802 91.7911 151.193 91.5763 152.721 92.6287L153.595 91.646L154.472 92.413L153.614 93.3778C154.225 94.0058 154.707 94.7425 154.914 95.4737L153.507 96.1792C153.288 95.5316 152.965 94.9822 152.574 94.5457L151.236 96.0504C152.005 97.1314 152.783 98.3947 151.673 99.642C150.854 100.563 149.479 100.776 147.952 99.7406ZM150.555 95.0623L151.673 93.8056C151.114 93.5053 150.701 93.6011 150.441 93.893C150.166 94.203 150.28 94.6013 150.555 95.0623ZM150.166 98.514C150.442 98.2041 150.337 97.8138 150.078 97.3509L148.992 98.5724C149.517 98.8586 149.914 98.7973 150.166 98.514Z" fill="black"/>
</g>
<path d="M144.807 90.7642C144.824 90.7777 144.601 91.032 144.253 91.5239C143.91 92.0181 143.475 92.7881 143.181 93.8167C143.025 94.3288 142.943 94.9099 142.899 95.5328C142.89 96.1566 142.918 96.8269 143.08 97.5083C143.246 98.1852 143.485 98.8849 143.87 99.5402C144.254 100.194 144.746 100.813 145.338 101.358C145.946 101.888 146.616 102.312 147.311 102.624C148.007 102.938 148.734 103.104 149.429 103.199C150.13 103.29 150.805 103.251 151.43 103.178C152.05 103.073 152.625 102.932 153.123 102.728C154.126 102.333 154.854 101.827 155.316 101.439C155.774 101.045 156.007 100.801 156.021 100.815C156.027 100.82 155.972 100.883 155.863 101.001C155.749 101.113 155.601 101.302 155.367 101.498C154.917 101.908 154.19 102.441 153.174 102.859C152.67 103.076 152.086 103.228 151.452 103.343C150.815 103.424 150.123 103.471 149.405 103.383C148.691 103.291 147.945 103.124 147.229 102.805C146.514 102.487 145.825 102.053 145.201 101.509C144.593 100.949 144.088 100.312 143.697 99.6396C143.305 98.9656 143.063 98.2461 142.898 97.5513C142.737 96.8517 142.714 96.1652 142.732 95.5276C142.783 94.8911 142.876 94.299 143.043 93.7797C143.361 92.7357 143.822 91.9652 144.189 91.4793C144.362 91.2281 144.536 91.0633 144.637 90.9394C144.744 90.8198 144.802 90.7594 144.807 90.7642Z" fill="#3E0190"/>
<path d="M102.889 37.8163C101.117 49.2683 90.3361 57.2868 78.81 55.7273C67.2831 54.1667 59.3751 43.6183 61.1472 32.1662C62.9186 20.7146 73.699 12.6955 85.2258 14.2562C96.7525 15.8157 104.661 26.3648 102.889 37.8163Z" fill="#00DE93"/>
<g opacity="0.3">
<path d="M97.976 36.7852C97.8785 36.7756 97.9179 36.0672 97.8483 34.8121C97.7716 33.5633 97.5574 31.744 96.7556 29.6794C96.3547 28.6513 95.8105 27.5673 95.0847 26.4975C94.3502 25.4357 93.4483 24.3794 92.3433 23.4408C91.7931 22.9698 91.1999 22.5191 90.5556 22.1183C89.914 21.7141 89.2342 21.3368 88.508 21.0254C87.7841 20.7116 87.0276 20.432 86.2357 20.2269C85.4447 20.0204 84.6269 19.8677 83.7895 19.7751C82.9504 19.6935 82.1159 19.6742 81.2952 19.713C80.4732 19.7509 79.6685 19.8683 78.8869 20.0249C78.1037 20.1801 77.3498 20.4082 76.627 20.6705C75.9021 20.929 75.2154 21.2469 74.5657 21.5932C73.2623 22.282 72.1279 23.1265 71.1579 24.0114C70.1936 24.9052 69.4017 25.8506 68.7633 26.7707C67.4857 28.6186 66.8399 30.3488 66.4647 31.5503C66.0955 32.7594 65.9638 33.4587 65.8657 33.4474C65.7934 33.4413 65.7622 32.7231 65.9964 31.4427C66.237 30.1726 66.7778 28.3193 68.0304 26.3057C68.6566 25.3033 69.4551 24.2673 70.4515 23.2823C71.4541 22.3065 72.6429 21.3714 74.0269 20.6033C74.7165 20.2175 75.4486 19.8632 76.2241 19.573C76.9977 19.279 77.8073 19.0238 78.6501 18.8474C79.4918 18.6692 80.3601 18.5369 81.247 18.4913C82.1332 18.4446 83.0339 18.464 83.9384 18.5522C84.8414 18.6516 85.724 18.8181 86.5763 19.0459C87.43 19.2724 88.2446 19.5802 89.0223 19.9263C89.8016 20.2707 90.5297 20.6861 91.2127 21.1321C91.8989 21.5744 92.5283 22.0702 93.1075 22.5873C94.2716 23.62 95.2063 24.7756 95.9495 25.9329C96.6832 27.0969 97.2137 28.272 97.5832 29.3773C98.3205 31.5978 98.4023 33.5163 98.3319 34.8043C98.2518 36.0999 98.0482 36.7933 97.976 36.7852Z" fill="black"/>
</g>
<path d="M66.1231 32.7252C66.1276 32.726 66.1278 32.7702 66.1235 32.8567C66.1166 32.9582 66.1088 33.0837 66.0982 33.2389C66.0844 33.4131 66.0682 33.6192 66.0494 33.8581C66.0299 34.1027 65.9948 34.3843 66.0116 34.7029C65.9817 35.9714 66.1213 37.8316 66.8237 39.9815C67.158 41.0619 67.7051 42.1777 68.3739 43.3205C68.5613 43.594 68.7515 43.872 68.9451 44.1541C69.0441 44.2934 69.134 44.4417 69.2425 44.5774C69.3542 44.711 69.4668 44.8453 69.5802 44.9803C69.8114 45.2464 70.0264 45.5347 70.2795 45.7945C70.5384 46.0491 70.8006 46.3068 71.0664 46.5681C72.1756 47.5578 73.445 48.4999 74.9216 49.1915C76.3936 49.8822 78.0197 50.3823 79.7362 50.6346C81.4609 50.8414 83.1707 50.7868 84.7897 50.5081C86.4132 50.2301 87.9121 49.6573 89.2709 48.9969C89.6037 48.8155 89.932 48.6365 90.2559 48.4599C90.576 48.2769 90.868 48.0565 91.1692 47.8613C91.3182 47.7611 91.4659 47.6617 91.6129 47.563C91.7572 47.461 91.8876 47.3423 92.0238 47.2343C92.2933 47.0137 92.5585 46.7966 92.8195 46.583C93.8007 45.6607 94.657 44.732 95.298 43.7814C96.6098 41.8998 97.2947 40.1498 97.642 38.924C97.753 38.6227 97.8022 38.343 97.8561 38.1031C97.909 37.8681 97.9544 37.6662 97.9924 37.4953C98.0287 37.3438 98.0579 37.2208 98.0818 37.122C98.1033 37.0378 98.1168 36.9954 98.121 36.9956C98.1255 36.9963 98.121 37.0403 98.1081 37.1254C98.0912 37.2256 98.0705 37.35 98.0445 37.5039C98.0128 37.6766 97.9756 37.8809 97.9324 38.1187C97.8861 38.3613 97.8443 38.6442 97.7404 38.9497C97.4211 40.1908 96.7578 41.968 95.45 43.885C94.8111 44.853 93.9525 45.801 92.9643 46.7429C92.7013 46.9611 92.4335 47.1832 92.162 47.4085C92.0247 47.5189 91.8925 47.6396 91.7468 47.7444C91.5987 47.8454 91.4491 47.9475 91.2988 48.0499C90.9946 48.25 90.6996 48.4749 90.3755 48.6624C90.0477 48.8432 89.7149 49.0267 89.3782 49.2122C88.0022 49.8892 86.4807 50.4755 84.8317 50.7614C83.187 51.0485 81.4485 51.1058 79.6962 50.8948C77.9518 50.6388 76.2992 50.129 74.8049 49.4234C73.3065 48.7172 72.0192 47.7562 70.8983 46.7463C70.6298 46.48 70.3651 46.2169 70.1033 45.9578C69.8475 45.693 69.631 45.3996 69.3982 45.1283C69.2841 44.9904 69.1706 44.8538 69.0586 44.7175C68.9495 44.579 68.8592 44.4285 68.7595 44.2863C68.5654 43.9988 68.3741 43.7158 68.1861 43.4374C67.5155 42.2746 66.9722 41.1395 66.6455 40.0429C65.958 37.8598 65.8473 35.9791 65.9084 34.7032C65.8991 34.3826 65.9424 34.0997 65.9704 33.8549C65.9993 33.6157 66.024 33.4094 66.0451 33.2352C66.066 33.0809 66.0826 32.9558 66.0961 32.8551C66.11 32.7682 66.1185 32.7249 66.1231 32.7252Z" fill="#3E0190"/>
<g clip-path="url(#clip1_45_6276)">
<path d="M87.7369 40.2905L88.4406 42.2014C88.4792 42.2972 88.4779 42.3916 88.4369 42.4848C88.3958 42.5779 88.3298 42.6469 88.2386 42.6919L88.1752 42.7124C88.1426 42.7332 88.099 42.7533 88.0442 42.7728C87.9895 42.7922 87.9225 42.8194 87.8433 42.8545C87.7642 42.8895 87.6739 42.9239 87.5725 42.9575C87.4712 42.9911 87.3633 43.0256 87.249 43.0608C87.1346 43.0961 87.0073 43.133 86.8669 43.1715C86.7266 43.21 86.5838 43.2467 86.4386 43.2816C86.2934 43.3166 86.1369 43.3487 85.969 43.3781C85.801 43.4075 85.6348 43.4325 85.4702 43.4531C83.4428 43.7067 81.603 43.3899 79.9506 42.5028C78.2983 41.6157 77.0839 40.2946 76.3075 38.5394L75.0729 38.6938C74.9602 38.7079 74.8578 38.6809 74.7656 38.6128C74.6734 38.5447 74.6205 38.4571 74.6069 38.3498L74.4301 36.9513C74.4165 36.844 74.4459 36.746 74.5183 36.6574C74.5907 36.5687 74.6832 36.5173 74.7959 36.5032L75.6536 36.3959C75.5768 35.9278 75.5263 35.4941 75.5023 35.0948L74.6315 35.2037C74.5102 35.2189 74.4059 35.1942 74.3185 35.1297C74.2312 35.0652 74.1802 34.9752 74.1656 34.8597L73.9872 33.4487C73.9726 33.3332 73.9995 33.2335 74.0681 33.1495C74.1367 33.0654 74.2317 33.0158 74.3529 33.0007L75.6265 32.8414C75.9879 31.0361 76.8664 29.5097 78.2621 28.2623C79.6577 27.0149 81.3259 26.2698 83.2666 26.027C84.1503 25.9165 85.0027 25.9063 85.8238 25.9963C85.9222 26.0092 86.0167 26.0602 86.1072 26.1495C86.1706 26.2337 86.1961 26.3311 86.1837 26.4416L85.8737 28.4794C85.8613 28.5899 85.8108 28.6779 85.7223 28.7435C85.6338 28.809 85.5311 28.8323 85.4143 28.8134L85.3608 28.8075C85.3251 28.8036 85.274 28.7995 85.2074 28.7953L84.9745 28.7804L84.6766 28.7737L84.334 28.7788L83.9532 28.795L83.5683 28.8306C82.4766 28.9672 81.531 29.3537 80.7314 29.9901C79.9318 30.6265 79.3738 31.4339 79.0575 32.4122L85.1395 31.6514C85.2781 31.6341 85.3927 31.67 85.4832 31.7593C85.5824 31.8474 85.6263 31.9509 85.6149 32.0697L85.4814 33.5196C85.4652 33.7396 85.3401 33.8642 85.1062 33.8934L78.7642 34.6867C78.7768 34.9953 78.8316 35.4284 78.9285 35.9863L84.8937 35.2401C85.0236 35.2238 85.1382 35.2598 85.2373 35.348C85.3278 35.4372 85.3679 35.5454 85.3576 35.6724L85.221 37.0975C85.2151 37.1905 85.1771 37.2728 85.107 37.3444C85.0368 37.416 84.9541 37.4578 84.8588 37.4697L79.8294 38.0989C80.3673 39.0122 81.1117 39.6965 82.0626 40.1516C83.0134 40.6068 84.039 40.7656 85.1393 40.628C85.2953 40.6085 85.4505 40.5828 85.6048 40.5509C85.7592 40.519 85.9025 40.4864 86.0347 40.4531C86.1669 40.4198 86.2924 40.3853 86.4111 40.3495C86.5297 40.3137 86.6333 40.2798 86.7216 40.2478C86.81 40.2157 86.8878 40.1872 86.955 40.162L87.1063 40.1053L87.1681 40.0725C87.2755 40.0171 87.3892 40.0113 87.5091 40.055C87.6204 40.0997 87.6963 40.1782 87.7369 40.2905Z" fill="#00BC7D"/>
</g>
<defs>
<clipPath id="clip0_45_6276">
<rect width="8.50229" height="11.5848" fill="white" transform="matrix(0.899001 0.424052 -0.447329 0.900872 114.138 0.0801392)"/>
</clipPath>
<clipPath id="clip1_45_6276">
<rect width="13.256" height="17.7809" fill="white" transform="matrix(1.0039 -0.125577 0.123931 0.98004 73.2078 27.2853)"/>
</clipPath>
</defs>
</svg>
