<svg width="338" height="328" viewBox="0 0 338 328" fill="none" xmlns="http://www.w3.org/2000/svg">
<path d="M268.572 77.8807C266.071 93.6454 251.53 104.789 236.094 102.773C220.658 100.755 210.172 86.3396 212.674 70.5749C215.175 54.8107 229.715 43.6662 245.152 45.6842C260.587 47.7005 271.073 62.1159 268.572 77.8807Z" fill="#3E0190"/>
<path d="M261.921 77.0118C260.015 89.0248 248.934 97.5175 237.171 95.9797C225.408 94.4423 217.417 83.4568 219.323 71.4438C221.23 59.4304 232.311 50.9377 244.073 52.475C255.836 54.0133 263.827 64.9981 261.921 77.0118Z" fill="#661FC6"/>
<path d="M261.988 76.5234C261.858 76.5113 261.918 75.5368 261.839 73.8119C261.751 72.0959 261.484 69.5962 260.433 66.7669C259.907 65.3578 259.19 63.8734 258.229 62.4104C257.257 60.9587 256.059 59.516 254.589 58.2376C253.856 57.5954 253.066 56.9828 252.207 56.4388C251.352 55.89 250.444 55.3786 249.474 54.9585C248.507 54.5349 247.497 54.1587 246.437 53.8853C245.379 53.6101 244.285 53.409 243.163 53.2908C242.039 53.1878 240.921 53.1703 239.82 53.2325C238.718 53.2936 237.637 53.4637 236.588 53.6876C235.536 53.9095 234.523 54.2313 233.551 54.5998C232.576 54.9631 231.652 55.4076 230.777 55.8908C229.022 56.8521 227.491 58.0262 226.181 59.2527C224.878 60.4921 223.806 61.8006 222.94 63.0725C221.206 65.627 220.321 68.0129 219.804 69.669C219.295 71.3353 219.11 72.298 218.979 72.2837C218.882 72.2762 218.849 71.2891 219.177 69.5262C219.514 67.7772 220.261 65.2226 221.963 62.4404C222.813 61.0554 223.896 59.6224 225.243 58.2573C226.598 56.9047 228.202 55.6062 230.066 54.5357C230.995 53.9977 231.98 53.5027 233.023 53.0953C234.064 52.6827 235.152 52.3229 236.284 52.0712C237.414 51.817 238.58 51.6256 239.769 51.5534C240.958 51.4795 242.165 51.4964 243.377 51.6078C244.586 51.7346 245.767 51.954 246.907 52.2578C248.049 52.5598 249.138 52.9744 250.176 53.4417C251.217 53.9068 252.189 54.4699 253.099 55.0758C254.014 55.6763 254.852 56.3511 255.623 57.0558C257.172 58.4631 258.411 60.0416 259.395 61.6247C260.365 63.2171 261.063 64.827 261.546 66.3426C262.509 69.3875 262.597 72.0237 262.488 73.7959C262.365 75.578 262.084 76.5336 261.988 76.5234Z" fill="#3E0190"/>
<g clip-path="url(#clip0_45_6276)">
<path d="M243.085 83.8078L242.396 86.5635C242.365 86.7039 242.292 86.8145 242.177 86.8953C242.061 86.9761 241.937 87.0107 241.804 86.999L241.72 86.9782C241.669 86.9797 241.606 86.9724 241.532 86.9565C241.458 86.9405 241.365 86.9251 241.253 86.9103C241.14 86.8954 241.016 86.8718 240.881 86.8395C240.746 86.8073 240.603 86.7713 240.452 86.7317C240.301 86.6922 240.135 86.6453 239.954 86.591C239.773 86.5368 239.59 86.4788 239.406 86.4169C239.222 86.355 239.028 86.2818 238.824 86.1972C238.62 86.1127 238.421 86.0241 238.227 85.9315C235.838 84.7911 234.085 83.1105 232.969 80.8898C231.853 78.6691 231.541 76.247 232.033 73.6236L230.578 72.9291C230.446 72.8658 230.355 72.7612 230.307 72.6153C230.259 72.4694 230.268 72.3283 230.335 72.1921L231.206 70.4155C231.273 70.2792 231.379 70.1845 231.525 70.1312C231.671 70.0779 231.81 70.083 231.943 70.1463L232.953 70.6288C233.226 70.0216 233.501 69.4738 233.778 68.9853L232.752 68.4955C232.609 68.4273 232.515 68.324 232.469 68.1858C232.424 68.0477 232.437 67.9052 232.509 67.7584L233.387 65.9661C233.459 65.8194 233.564 65.7208 233.702 65.6703C233.841 65.6198 233.981 65.6287 234.124 65.6969L235.625 66.4134C237.388 64.5388 239.5 63.3608 241.96 62.8794C244.419 62.3979 246.793 62.7031 249.08 63.7947C250.121 64.2919 251.053 64.8851 251.874 65.5746C251.971 65.6596 252.034 65.787 252.064 65.9566C252.069 66.1011 252.023 66.2342 251.925 66.3559L250.041 68.5413C249.944 68.663 249.822 68.7311 249.676 68.7456C249.531 68.7601 249.402 68.7147 249.29 68.6094L249.236 68.5645C249.2 68.5345 249.148 68.4934 249.079 68.4411L248.838 68.2581L248.521 68.0386L248.145 67.8014L247.721 67.5501L247.277 67.3187C245.99 66.7046 244.672 66.4893 243.322 66.6728C241.972 66.8562 240.754 67.4131 239.668 68.3433L246.836 71.7646C246.999 71.8426 247.096 71.9664 247.126 72.136C247.166 72.3105 247.135 72.4638 247.033 72.5959L245.786 74.2128C245.602 74.461 245.372 74.5192 245.096 74.3877L237.622 70.8202C237.401 71.1934 237.132 71.7437 236.813 72.471L243.842 75.8265C243.996 75.8996 244.092 76.0234 244.133 76.1979C244.163 76.3675 244.124 76.5237 244.017 76.6663L242.786 78.2517C242.709 78.3572 242.605 78.4274 242.475 78.4621C242.344 78.4969 242.223 78.4875 242.111 78.4339L236.184 75.6047C236.072 77.065 236.359 78.4014 237.043 79.6141C237.728 80.8267 238.718 81.7425 240.015 82.3615C240.199 82.4492 240.386 82.5291 240.578 82.6011C240.769 82.6731 240.949 82.7364 241.118 82.7909C241.286 82.8455 241.448 82.8938 241.604 82.9358C241.76 82.9779 241.898 83.0114 242.018 83.0363C242.138 83.0613 242.244 83.0828 242.336 83.1008L242.543 83.1414L242.635 83.1465C242.793 83.1574 242.921 83.2313 243.018 83.368C243.104 83.4999 243.127 83.6465 243.085 83.8078Z" fill="#3E0190"/>
</g>
<path d="M105.709 126.707C103.836 138.508 92.9501 146.851 81.3948 145.341C69.8388 143.83 61.9893 133.039 63.8619 121.237C65.7334 109.435 76.6194 101.093 88.1754 102.603C99.7307 104.114 107.58 114.905 105.709 126.707Z" fill="#3E0190"/>
<path d="M100.727 126.056C99.3003 135.049 91.0048 141.407 82.1985 140.255C73.3929 139.104 67.4105 130.881 68.8376 121.887C70.2647 112.894 78.5603 106.536 87.3659 107.687C96.172 108.839 102.154 117.062 100.727 126.056Z" fill="#661FC6"/>
<path d="M100.781 125.69C100.683 125.681 100.729 124.951 100.67 123.66C100.604 122.376 100.404 120.505 99.6164 118.387C99.2229 117.332 98.686 116.221 97.9661 115.125C97.2386 114.038 96.3415 112.959 95.2407 112.002C94.6924 111.521 94.1009 111.063 93.4581 110.655C92.8178 110.244 92.1389 109.861 91.4121 109.546C90.6883 109.229 89.9318 108.947 89.1388 108.742C88.3468 108.536 87.5272 108.385 86.6876 108.297C85.8462 108.22 85.0086 108.207 84.1845 108.253C83.359 108.299 82.5507 108.427 81.7646 108.594C80.9773 108.76 80.2193 109.001 79.4914 109.277C78.7614 109.549 78.0702 109.882 77.4145 110.243C76.1009 110.963 74.9549 111.842 73.9738 112.761C72.9985 113.689 72.1954 114.668 71.5472 115.621C70.2493 117.533 69.5863 119.318 69.1996 120.559C68.8191 121.806 68.6805 122.527 68.5823 122.516C68.5099 122.51 68.4844 121.771 68.7304 120.452C68.9824 119.142 69.541 117.23 70.8153 115.147C71.4526 114.111 72.2626 113.038 73.2709 112.016C74.2854 111.003 75.4865 110.032 76.8821 109.229C77.5779 108.827 78.3154 108.456 79.0962 108.151C79.8756 107.843 80.6897 107.573 81.5372 107.385C82.3836 107.195 83.2556 107.052 84.1462 106.998C85.0354 106.943 85.9397 106.955 86.8465 107.039C87.7522 107.134 88.6362 107.298 89.4898 107.526C90.3446 107.752 91.1597 108.062 91.9369 108.412C92.716 108.76 93.443 109.181 94.1252 109.635C94.8103 110.084 95.4374 110.59 96.0144 111.118C97.1734 112.171 98.1025 113.353 98.8381 114.538C99.5642 115.73 100.087 116.935 100.448 118.071C101.169 120.351 101.235 122.324 101.153 123.651C101.063 124.982 100.853 125.698 100.781 125.69Z" fill="#3E0190"/>
<path d="M85.0626 133.903L84.6554 136.739L82.1827 136.452L82.5794 133.693C80.1531 133.257 77.9165 132.199 76.7129 130.952L78.5164 128.021C79.6184 129.101 81.3002 129.992 83.0561 130.376L83.6639 126.147C81.0173 125.145 78.0856 123.852 78.6057 120.231C78.9918 117.547 81.2272 115.464 85.1992 115.463L85.6036 112.651L88.0772 112.938L87.6801 115.699C89.5128 116.066 91.2455 116.782 92.4782 117.826L90.7945 120.797C89.6387 119.917 88.4142 119.336 87.2 119.041L86.5814 123.345C89.2316 124.322 92.1137 125.61 91.6013 129.179C91.2208 131.812 89.0146 133.872 85.0626 133.903ZM84.1985 122.424L84.7148 118.829C83.3607 118.98 82.7359 119.655 82.6155 120.491C82.4882 121.376 83.1612 121.944 84.1985 122.424ZM87.5753 129.021C87.7021 128.134 87.0546 127.57 86.0458 127.066L85.5439 130.56C86.8201 130.426 87.4587 129.83 87.5753 129.021Z" fill="#3E0190"/>
<path d="M280.678 233.437L238.391 371.762C236.078 379.331 228.233 383.756 220.872 381.645L25.4204 325.591C18.0578 323.479 13.966 315.631 16.2798 308.063L58.5659 169.737C60.88 162.168 68.7241 157.744 76.0859 159.855L271.537 215.909C278.899 218.02 282.992 225.867 280.678 233.437Z" fill="#00DE93"/>
<path d="M280.671 233.378C280.671 233.378 280.707 233.206 280.789 232.871C280.86 232.534 281.026 232.041 281.1 231.364C281.316 230.034 281.454 227.966 280.788 225.433C280.438 224.18 279.903 222.811 279.035 221.472C278.161 220.144 276.976 218.839 275.437 217.772C275.058 217.498 274.632 217.278 274.221 217.022C273.793 216.793 273.335 216.603 272.882 216.386C272.404 216.223 271.919 216.058 271.425 215.89C270.921 215.746 270.408 215.6 269.886 215.451C267.8 214.857 265.579 214.224 263.227 213.553C244.405 208.176 217.178 200.398 183.534 190.786C166.712 185.974 148.288 180.703 128.508 175.044C118.619 172.214 108.39 169.286 97.8546 166.271C92.5871 164.763 87.2418 163.233 81.8246 161.682C80.4706 161.294 79.111 160.906 77.7479 160.515C76.3761 160.139 75.036 159.684 73.6191 159.588C72.2106 159.474 70.7749 159.554 69.3684 159.867C67.9681 160.204 66.608 160.749 65.343 161.485C64.0685 162.209 62.9336 163.186 61.9374 164.28C60.9431 165.378 60.0972 166.633 59.4985 168.003C58.8829 169.358 58.4974 170.833 58.0426 172.287C57.5972 173.742 57.1511 175.203 56.7033 176.667C54.9121 182.524 53.1011 188.45 51.2702 194.437C47.608 206.413 43.8689 218.64 40.0624 231.088C32.4477 255.984 24.5637 281.76 16.4879 308.16C15.4959 311.419 15.6862 314.974 17.0225 317.999C18.3317 321.032 20.7644 323.509 23.7424 324.799C25.2193 325.445 26.8402 325.817 28.4116 326.287C29.991 326.74 31.5673 327.192 33.1406 327.643C36.2879 328.545 39.4245 329.443 42.5487 330.34C55.0476 333.922 67.3636 337.453 79.4652 340.922C103.668 347.862 127.013 354.557 149.252 360.934C171.49 367.315 192.621 373.377 212.398 379.051C214.871 379.76 217.322 380.464 219.75 381.161C220.968 381.521 222.165 381.835 223.408 381.943C224.646 382.022 225.899 382.008 227.117 381.742C227.734 381.66 228.323 381.438 228.923 381.284C229.498 381.044 230.097 380.868 230.642 380.562C231.775 380.041 232.793 379.304 233.747 378.516C235.612 376.879 237.085 374.796 237.901 372.488C240.866 363.087 243.592 353.993 246.259 345.353C256.872 310.757 265.461 282.76 271.398 263.408C274.373 253.739 276.684 246.231 278.252 241.135C279.039 238.593 279.64 236.654 280.045 235.346C280.453 234.043 280.671 233.378 280.671 233.378C280.671 233.378 280.481 234.05 280.088 235.358C279.692 236.669 279.105 238.612 278.335 241.159C276.784 246.259 274.498 253.775 271.555 263.453C265.649 282.814 257.103 310.823 246.543 345.434C243.883 354.085 241.174 363.156 238.205 372.595C237.372 374.956 235.866 377.091 233.958 378.769C232.982 379.577 231.939 380.332 230.781 380.865C230.222 381.179 229.609 381.361 229.021 381.606C228.407 381.766 227.804 381.992 227.172 382.077C225.924 382.35 224.64 382.367 223.372 382.286C222.104 382.178 220.856 381.852 219.651 381.495C217.222 380.8 214.771 380.098 212.298 379.391C192.517 373.73 171.382 367.68 149.14 361.312C126.898 354.943 103.55 348.256 79.3456 341.324C67.2435 337.857 54.9265 334.329 42.4272 330.748C39.302 329.852 36.1661 328.953 33.0186 328.052C31.4453 327.601 29.8682 327.149 28.2896 326.697C26.7192 326.226 25.1086 325.862 23.5682 325.189C20.5 323.86 17.9923 321.308 16.6443 318.183C15.2673 315.07 15.0705 311.402 16.0936 308.047C24.1717 281.647 32.0588 255.872 39.6758 230.977C43.4853 218.53 47.2278 206.303 50.8927 194.329C52.7254 188.341 54.5393 182.418 56.332 176.561C56.78 175.096 57.2274 173.636 57.6728 172.181C58.1274 170.732 58.5111 169.256 59.1499 167.847C59.7662 166.438 60.6364 165.147 61.6591 164.019C62.6831 162.894 63.8508 161.891 65.1613 161.147C66.4614 160.391 67.8592 159.832 69.2985 159.487C70.7434 159.165 72.2196 159.083 73.6675 159.202L74.7476 159.336L75.804 159.575C76.5093 159.733 77.1767 159.956 77.8632 160.144C79.2263 160.534 80.5854 160.925 81.9394 161.313C87.3564 162.867 92.7 164.4 97.9665 165.911C108.5 168.934 118.726 171.868 128.614 174.705C148.388 180.381 166.807 185.669 183.624 190.496C217.251 200.163 244.465 207.986 263.277 213.394C265.628 214.071 267.847 214.71 269.931 215.311C270.452 215.461 270.964 215.609 271.468 215.754C271.966 215.926 272.455 216.094 272.936 216.259C273.394 216.48 273.855 216.674 274.286 216.906C274.701 217.166 275.129 217.39 275.51 217.667C277.06 218.75 278.249 220.071 279.124 221.412C279.993 222.765 280.525 224.146 280.87 225.408C281.527 227.962 281.373 230.039 281.142 231.371C281.061 232.049 280.888 232.541 280.811 232.876C280.721 233.21 280.671 233.378 280.671 233.378Z" fill="#3E0190"/>
<path d="M274.029 230.237C274.063 230.122 275.127 230.334 276.406 230.709C277.685 231.085 278.694 231.482 278.66 231.596C278.626 231.71 277.561 231.5 276.282 231.124C275.003 230.749 273.995 230.352 274.029 230.237Z" fill="#3E0190"/>
<path d="M255.119 224.638C255.153 224.523 257.296 225.054 259.905 225.823C262.515 226.593 264.603 227.31 264.569 227.424C264.535 227.538 262.392 227.008 259.781 226.239C257.173 225.47 255.084 224.753 255.119 224.638Z" fill="#3E0190"/>
<path d="M236.209 219.039C236.243 218.924 238.387 219.455 240.996 220.224C243.606 220.994 245.693 221.711 245.659 221.825C245.625 221.939 243.482 221.409 240.872 220.639C238.262 219.871 236.175 219.154 236.209 219.039Z" fill="#3E0190"/>
<path d="M217.299 213.44C217.333 213.325 219.476 213.856 222.086 214.625C224.696 215.395 226.783 216.112 226.749 216.226C226.715 216.34 224.572 215.81 221.962 215.041C219.353 214.272 217.264 213.555 217.299 213.44Z" fill="#3E0190"/>
<path d="M198.388 207.841C198.422 207.725 200.566 208.257 203.175 209.026C205.785 209.795 207.872 210.512 207.838 210.626C207.804 210.741 205.661 210.21 203.051 209.441C200.442 208.673 198.354 207.956 198.388 207.841Z" fill="#3E0190"/>
<path d="M179.478 202.241C179.512 202.126 181.656 202.658 184.265 203.427C186.875 204.196 188.962 204.913 188.928 205.027C188.894 205.141 186.751 204.611 184.141 203.842C181.531 203.073 179.444 202.356 179.478 202.241Z" fill="#3E0190"/>
<path d="M160.568 196.642C160.602 196.527 162.746 197.058 165.354 197.827C167.965 198.597 170.052 199.314 170.018 199.428C169.984 199.542 167.841 199.012 165.231 198.243C162.622 197.474 160.534 196.757 160.568 196.642Z" fill="#3E0190"/>
<path d="M141.658 191.043C141.692 190.928 143.836 191.459 146.445 192.228C149.056 192.998 151.143 193.715 151.109 193.829C151.075 193.943 148.932 193.413 146.322 192.644C143.712 191.875 141.624 191.158 141.658 191.043Z" fill="#3E0190"/>
<path d="M122.749 185.444C122.783 185.329 124.926 185.86 127.536 186.629C130.146 187.399 132.233 188.116 132.199 188.23C132.166 188.344 130.023 187.814 127.412 187.045C124.802 186.276 122.715 185.559 122.749 185.444Z" fill="#3E0190"/>
<path d="M103.838 179.845C103.872 179.73 106.016 180.261 108.624 181.03C111.234 181.799 113.322 182.516 113.288 182.631C113.254 182.745 111.111 182.215 108.501 181.445C105.892 180.677 103.804 179.96 103.838 179.845Z" fill="#3E0190"/>
<path d="M84.9287 174.246C84.9629 174.131 87.1064 174.662 89.7151 175.431C92.3253 176.2 94.4126 176.917 94.3787 177.031C94.3447 177.146 92.2017 176.616 89.5916 175.846C86.9827 175.078 84.8945 174.361 84.9287 174.246Z" fill="#3E0190"/>
<path d="M69.4587 174.767C69.349 174.736 69.905 172.606 70.6995 170.011C71.2212 169.716 70.8453 169.93 70.9624 169.864L70.9639 169.864L70.9677 169.865L70.9754 169.867L70.9898 169.871L71.0195 169.88L71.0782 169.897L71.1954 169.93L71.4275 169.998C71.5803 170.042 71.7306 170.087 71.8804 170.131C72.1708 170.218 72.4545 170.304 72.7343 170.388C73.2293 170.546 73.7075 170.699 74.1731 170.848C74.9888 171.121 75.4842 171.319 75.467 171.375C75.4497 171.431 74.9231 171.336 74.0848 171.136C73.6106 171.016 73.1233 170.892 72.6192 170.764C72.3369 170.687 72.0509 170.61 71.7581 170.53C71.6078 170.488 71.4565 170.446 71.3032 170.403L71.0707 170.338L70.9535 170.304L70.8948 170.287L70.8651 170.279L70.8507 170.275L70.843 170.272L70.8392 170.271L70.8377 170.271C70.9531 170.205 70.5758 170.417 71.0965 170.124C70.3018 172.719 69.5683 174.798 69.4587 174.767Z" fill="#3E0190"/>
<path d="M64.325 192.033C64.2174 192.002 64.7081 190.035 65.42 187.642C66.1321 185.248 66.7967 183.333 66.9035 183.365C67.0112 183.396 66.5207 185.362 65.8086 187.756C65.0975 190.15 64.4326 192.065 64.325 192.033Z" fill="#3E0190"/>
<path d="M59.1934 209.362C59.0858 209.33 59.5765 207.363 60.2884 204.97C61.0005 202.576 61.6651 200.662 61.772 200.693C61.8796 200.725 61.3891 202.691 60.677 205.085C59.9656 207.479 59.3011 209.393 59.1934 209.362Z" fill="#3E0190"/>
<path d="M54.0623 226.691C53.9547 226.659 54.4454 224.692 55.1573 222.299C55.8694 219.905 56.534 217.991 56.6408 218.022C56.7485 218.054 56.258 220.02 55.5459 222.414C54.8348 224.807 54.1699 226.722 54.0623 226.691Z" fill="#3E0190"/>
<path d="M48.9324 244.019C48.8248 243.987 49.3155 242.021 50.0274 239.627C50.7395 237.233 51.4041 235.319 51.511 235.35C51.6186 235.382 51.1281 237.348 50.416 239.742C49.7047 242.136 49.0401 244.051 48.9324 244.019Z" fill="#3E0190"/>
<path d="M43.8011 261.348C43.6935 261.316 44.1839 259.35 44.896 256.956C45.6082 254.562 46.2727 252.648 46.3796 252.679C46.4872 252.711 45.9968 254.677 45.2847 257.071C44.5735 259.464 43.9087 261.38 43.8011 261.348Z" fill="#3E0190"/>
<path d="M38.6705 278.676C38.5628 278.645 39.0535 276.678 39.7654 274.285C40.4775 271.891 41.1421 269.976 41.249 270.008C41.3566 270.039 40.8662 272.005 40.1541 274.399C39.4427 276.794 38.7781 278.708 38.6705 278.676Z" fill="#3E0190"/>
<path d="M33.5396 296.005C33.432 295.974 33.9227 294.007 34.6346 291.614C35.3467 289.22 36.0113 287.305 36.1181 287.337C36.2258 287.368 35.7353 289.334 35.0232 291.728C34.3121 294.122 33.6472 296.037 33.5396 296.005Z" fill="#3E0190"/>
<path d="M34.1768 310.673C34.1422 310.785 32.0688 310.29 29.5449 309.568C29.273 309.046 29.4702 309.422 29.4092 309.305L29.4099 309.302L29.4111 309.299L29.4135 309.291L29.418 309.276L29.4274 309.245L29.4458 309.185L29.4828 309.064L29.5567 308.826C29.6057 308.668 29.6547 308.514 29.7027 308.36C29.7983 308.061 29.8918 307.769 29.9842 307.481C30.156 306.971 30.3225 306.479 30.4842 305.999C30.7804 305.159 30.9909 304.647 31.0457 304.663C31.1005 304.679 30.9891 305.219 30.7644 306.08C30.6302 306.567 30.4926 307.068 30.3497 307.586C30.265 307.876 30.1791 308.17 30.0911 308.471C30.0446 308.625 29.9986 308.781 29.9512 308.939L29.8788 309.178L29.8419 309.298L29.8234 309.359L29.8141 309.389L29.8095 309.404L29.8071 309.412L29.8059 309.416L29.8052 309.418C29.7447 309.302 29.9404 309.68 29.6691 309.159C32.1937 309.882 34.2113 310.56 34.1768 310.673Z" fill="#3E0190"/>
<path d="M52.8776 316.187C52.8434 316.302 50.7308 315.78 48.1593 315.022C45.587 314.263 43.5305 313.556 43.5645 313.441C43.5984 313.327 45.7105 313.848 48.2828 314.606C50.8546 315.364 52.9119 316.072 52.8776 316.187Z" fill="#3E0190"/>
<path d="M71.5134 321.705C71.4792 321.82 69.3666 321.298 66.7951 320.54C64.2227 319.782 62.1655 319.074 62.1995 318.959C62.2334 318.845 64.3463 319.366 66.9186 320.125C69.4904 320.882 71.5476 321.59 71.5134 321.705Z" fill="#3E0190"/>
<path d="M90.1491 327.223C90.1149 327.338 88.0023 326.816 85.4308 326.058C82.8584 325.3 80.802 324.592 80.8359 324.478C80.8699 324.364 82.982 324.885 85.5543 325.643C88.1261 326.4 90.1833 327.108 90.1491 327.223Z" fill="#3E0190"/>
<g opacity="0.3">
<path d="M111.054 268.663C111.054 268.663 108.702 276.585 104.926 280.697C101.151 284.807 99.8124 286.421 94.3727 286.851C88.933 287.28 24.9047 276.39 24.9047 276.39L31.4368 254.871L111.054 268.663Z" fill="black"/>
</g>
<g opacity="0.3">
<path d="M118.303 239.893C118.303 239.893 121.457 231.997 102.645 223.259C81.1287 213.265 47.8735 199.011 47.8735 199.011L43.2441 214.346L118.303 239.893Z" fill="black"/>
</g>
<path d="M31.1969 262.546L94.9731 280.851C101.026 282.588 107.475 278.947 109.378 272.718L118.352 243.338C120.255 237.109 116.891 230.65 110.838 228.913L47.0614 210.608C41.0085 208.871 34.56 212.512 32.6572 218.742L23.6831 248.122C21.7795 254.351 25.144 260.808 31.1969 262.546Z" fill="#00DE93"/>
<path d="M31.1965 262.553C31.1965 262.553 30.9746 262.492 30.5461 262.352C30.1138 262.224 29.4911 261.965 28.7229 261.539C27.9457 261.125 27.0671 260.461 26.1672 259.537C25.2783 258.604 24.4083 257.347 23.814 255.749C23.2339 254.16 22.8747 252.224 23.1644 250.125C23.2695 249.073 23.6192 248.01 23.9409 246.925C24.2716 245.834 24.6143 244.702 24.97 243.529C26.3947 238.836 28.0161 233.495 29.8076 227.59C30.7136 224.639 31.6249 221.545 32.645 218.323C33.7221 215.092 36.3032 212.152 39.7144 210.839C41.3996 210.171 43.2614 209.855 45.1013 210.058C46.0187 210.14 46.9372 210.368 47.8123 210.627C48.6975 210.88 49.5888 211.135 50.4863 211.392C54.0783 212.419 57.7749 213.477 61.566 214.562C76.7293 218.907 93.3978 223.684 110.895 228.699C112.001 229.041 113.06 229.516 114.023 230.147C114.971 230.799 115.822 231.581 116.551 232.468C117.257 233.374 117.83 234.379 118.265 235.443C118.687 236.515 118.931 237.652 119.044 238.8C119.143 239.953 119.043 241.115 118.835 242.251C118.573 243.388 118.215 244.454 117.89 245.537C117.23 247.697 116.574 249.838 115.926 251.962C114.626 256.209 113.35 260.38 112.1 264.465C111.476 266.507 110.856 268.528 110.245 270.526C109.921 271.525 109.675 272.518 109.293 273.507C109.137 274.01 108.871 274.467 108.658 274.944C108.393 275.393 108.148 275.857 107.838 276.274C105.464 279.713 101.39 281.645 97.5785 281.45C97.0985 281.462 96.6332 281.353 96.1626 281.31C95.7015 281.219 95.2418 281.108 94.7919 280.994C93.9072 280.74 93.0302 280.487 92.1592 280.236C90.4174 279.735 88.7041 279.241 87.019 278.755C80.2804 276.812 74.0028 275.002 68.2707 273.348C56.8193 270.033 47.551 267.349 41.1324 265.49C37.9391 264.556 35.4568 263.829 33.7607 263.333C32.9274 263.085 32.2889 262.894 31.8471 262.762C31.4134 262.63 31.1965 262.553 31.1965 262.553C31.1965 262.553 31.4221 262.602 31.8575 262.719C32.3022 262.842 32.9451 263.018 33.7837 263.25C35.4858 263.729 37.9755 264.428 41.1789 265.33C47.6065 267.157 56.889 269.796 68.3572 273.057C74.0941 274.694 80.3761 276.488 87.1209 278.413C88.807 278.896 90.5218 279.385 92.2646 279.883C94.0196 280.339 95.7476 281.044 97.6027 281.074C101.293 281.257 105.234 279.379 107.525 276.051C108.744 274.423 109.257 272.417 109.869 270.417C110.479 268.419 111.095 266.397 111.718 264.354C112.965 260.269 114.238 256.096 115.534 251.849C116.182 249.726 116.836 247.583 117.496 245.423C117.82 244.343 118.181 243.256 118.429 242.177C118.628 241.081 118.725 239.961 118.629 238.849C118.519 237.743 118.284 236.646 117.877 235.611C117.458 234.585 116.904 233.616 116.224 232.742C115.52 231.887 114.7 231.134 113.788 230.504C112.858 229.897 111.838 229.44 110.77 229.108C93.2777 224.083 76.6118 219.295 61.4514 214.939C57.6623 213.849 53.9671 212.786 50.377 211.752C49.4793 211.494 48.5884 211.237 47.7045 210.983C46.8169 210.719 45.9534 210.504 45.0566 210.419C43.2743 210.219 41.4687 210.523 39.8324 211.167C36.5192 212.434 34.0072 215.282 32.9506 218.421C31.9294 221.619 31.0043 224.726 30.0903 227.671C28.2766 233.568 26.6354 238.905 25.193 243.592C24.8319 244.763 24.4839 245.894 24.1486 246.983C23.8189 248.076 23.472 249.11 23.3633 250.145C23.0659 252.206 23.4071 254.114 23.9674 255.686C24.5421 257.266 25.3893 258.516 26.2594 259.448C27.1405 260.371 28.0032 261.041 28.7676 261.463C29.523 261.899 30.1372 262.169 30.5629 262.31C30.9822 262.464 31.1965 262.553 31.1965 262.553Z" fill="#3E0190"/>
<path d="M81.8916 271.506C91.9711 274.393 102.715 268.329 105.889 257.962C109.063 247.595 103.464 236.851 93.385 233.965C83.3056 231.078 72.5616 237.142 69.3878 247.509C66.214 257.876 71.8121 268.62 81.8916 271.506Z" fill="#3E0190"/>
<path d="M87.9065 269.43C87.892 269.315 89.9179 269.469 92.923 268.345C94.416 267.792 96.1167 266.876 97.7538 265.514C99.3893 264.16 100.928 262.323 102.01 260.108C103.06 257.878 103.528 255.53 103.558 253.412C103.593 251.288 103.239 249.395 102.733 247.889C101.723 244.854 100.33 243.382 100.428 243.321C100.439 243.312 100.523 243.401 100.673 243.581C100.815 243.767 101.057 244.018 101.296 244.396C101.815 245.122 102.461 246.261 103.008 247.784C103.558 249.303 103.951 251.231 103.937 253.404C103.927 255.572 103.459 257.987 102.377 260.283C101.264 262.563 99.6726 264.442 97.9857 265.812C96.2971 267.189 94.5449 268.096 93.0129 268.624C91.4802 269.157 90.1836 269.372 89.291 269.427C88.8457 269.478 88.4968 269.449 88.2628 269.455C88.0282 269.453 87.9062 269.444 87.9065 269.43Z" fill="#FAFAFA"/>
<path d="M285.024 145.446C282.24 158.447 269.686 167.04 256.982 164.642C244.279 162.244 236.238 149.761 239.021 136.761C241.804 123.76 254.359 115.166 267.062 117.565C279.765 119.963 287.807 132.446 285.024 145.446Z" fill="#00DE93"/>
<g opacity="0.3">
<path d="M279.639 144.037C279.531 144.021 279.625 143.213 279.637 141.773C279.64 140.341 279.532 138.247 278.786 135.843C278.413 134.645 277.885 133.376 277.154 132.113C276.413 130.858 275.485 129.602 274.322 128.469C273.744 127.9 273.116 127.353 272.428 126.859C271.743 126.362 271.014 125.894 270.229 125.499C269.446 125.101 268.624 124.74 267.758 124.463C266.893 124.185 265.994 123.966 265.07 123.815C264.142 123.676 263.216 123.609 262.3 123.61C261.383 123.609 260.48 123.7 259.6 123.837C258.717 123.972 257.863 124.193 257.041 124.454C256.216 124.711 255.43 125.038 254.682 125.399C253.183 126.117 251.862 127.023 250.719 127.983C249.583 128.953 248.635 129.992 247.859 131.011C246.307 133.057 245.465 135.001 244.963 136.355C244.466 137.718 244.27 138.511 244.162 138.493C244.082 138.482 244.098 137.659 244.45 136.207C244.808 134.767 245.542 132.675 247.078 130.439C247.846 129.326 248.808 128.183 249.986 127.11C251.17 126.047 252.559 125.042 254.153 124.238C254.948 123.833 255.787 123.467 256.67 123.177C257.552 122.882 258.47 122.633 259.42 122.477C260.369 122.319 261.345 122.214 262.334 122.21C263.323 122.204 264.324 122.275 265.323 122.424C266.32 122.586 267.29 122.824 268.222 123.13C269.155 123.435 270.039 123.831 270.879 124.268C271.721 124.704 272.501 125.218 273.23 125.765C273.962 126.308 274.626 126.909 275.234 127.532C276.455 128.776 277.412 130.148 278.156 131.512C278.89 132.883 279.396 134.256 279.728 135.54C280.39 138.12 280.345 140.319 280.175 141.789C279.993 143.268 279.718 144.051 279.639 144.037Z" fill="black"/>
</g>
<g opacity="0.3">
<path d="M261.736 152.154L261.115 155.28L258.395 154.806L259 151.765C256.34 151.128 253.928 149.814 252.671 148.353L254.843 145.209C255.998 146.479 257.806 147.572 259.727 148.109L260.653 143.448C257.783 142.17 254.615 140.55 255.409 136.559C255.997 133.601 258.596 131.426 262.993 131.673L263.61 128.575L266.33 129.048L265.725 132.091C267.732 132.613 269.607 133.516 270.908 134.753L268.866 137.949C267.64 136.899 266.32 136.178 264.993 135.773L264.05 140.518C266.924 141.768 270.038 143.379 269.256 147.313C268.679 150.216 266.112 152.367 261.736 152.154ZM261.469 139.346L262.256 135.384C260.748 135.467 260.016 136.177 259.832 137.099C259.638 138.075 260.349 138.748 261.469 139.346ZM264.81 146.886C265.004 145.909 264.321 145.242 263.234 144.619L262.468 148.47C263.89 148.4 264.633 147.779 264.81 146.886Z" fill="black"/>
</g>
<path d="M244.505 137.64C244.509 137.641 244.506 137.692 244.495 137.791C244.48 137.905 244.462 138.048 244.439 138.226C244.411 138.424 244.378 138.659 244.339 138.932C244.301 139.211 244.241 139.531 244.237 139.896C244.113 141.346 244.135 143.482 244.763 145.98C245.058 147.235 245.587 148.541 246.249 149.885C246.438 150.208 246.63 150.536 246.826 150.869C246.926 151.034 247.015 151.209 247.126 151.37C247.241 151.528 247.357 151.688 247.473 151.849C247.712 152.166 247.93 152.507 248.193 152.818C248.463 153.123 248.737 153.432 249.014 153.745C250.178 154.937 251.524 156.084 253.117 156.955C254.706 157.825 256.479 158.484 258.372 158.864C260.276 159.194 262.183 159.223 264.004 158.991C265.83 158.759 267.539 158.184 269.098 157.5C269.481 157.311 269.859 157.123 270.233 156.938C270.602 156.746 270.942 156.509 271.291 156.302C271.464 156.195 271.635 156.089 271.806 155.984C271.973 155.875 272.127 155.746 272.286 155.63C272.602 155.392 272.913 155.157 273.218 154.927C274.375 153.924 275.394 152.907 276.174 151.853C277.767 149.77 278.652 147.804 279.125 146.42C279.27 146.081 279.344 145.764 279.421 145.492C279.496 145.225 279.561 144.996 279.615 144.804C279.666 144.631 279.707 144.492 279.74 144.381C279.77 144.286 279.787 144.238 279.792 144.239C279.797 144.24 279.789 144.29 279.768 144.387C279.742 144.499 279.71 144.641 279.67 144.816C279.622 145.011 279.566 145.243 279.501 145.513C279.432 145.788 279.365 146.11 279.228 146.453C278.783 147.855 277.919 149.852 276.328 151.974C275.549 153.047 274.526 154.085 273.36 155.109C273.053 155.344 272.739 155.583 272.421 155.827C272.26 155.946 272.105 156.077 271.936 156.188C271.764 156.296 271.591 156.404 271.416 156.513C271.064 156.725 270.72 156.967 270.346 157.164C269.968 157.354 269.585 157.545 269.198 157.739C267.62 158.439 265.887 159.028 264.033 159.267C262.184 159.507 260.247 159.479 258.314 159.145C256.392 158.759 254.591 158.087 252.98 157.2C251.364 156.312 250.001 155.145 248.826 153.93C248.547 153.611 248.271 153.296 247.999 152.985C247.733 152.668 247.513 152.322 247.273 151.998C247.156 151.834 247.04 151.672 246.925 151.511C246.813 151.347 246.723 151.17 246.622 151.002C246.427 150.663 246.234 150.329 246.045 150C245.382 148.635 244.858 147.308 244.573 146.036C243.962 143.503 243.972 141.346 244.13 139.89C244.142 139.523 244.21 139.201 244.259 138.922C244.308 138.649 244.349 138.415 244.385 138.217C244.419 138.04 244.446 137.898 244.468 137.785C244.487 137.688 244.5 137.639 244.505 137.64Z" fill="#3E0190"/>
<path d="M325.214 273.591C317.465 282.252 304.486 283.097 296.224 275.478C287.961 267.858 287.545 254.659 295.294 245.998C303.043 237.336 316.022 236.491 324.284 244.111C332.546 251.73 332.962 264.929 325.214 273.591Z" fill="#00DE93"/>
<g opacity="0.3">
<path d="M321.961 270.06C321.89 269.998 322.312 269.426 322.952 268.336C323.582 267.247 324.42 265.604 324.927 263.435C325.179 262.353 325.348 261.147 325.366 259.854C325.373 258.562 325.244 257.184 324.889 255.793C324.715 255.098 324.495 254.396 324.208 253.708C323.924 253.018 323.595 252.331 323.193 251.673C322.795 251.015 322.351 250.366 321.839 249.762C321.328 249.157 320.765 248.582 320.155 248.047C319.537 247.52 318.887 247.048 318.218 246.633C317.547 246.216 316.846 245.874 316.141 245.579C315.436 245.281 314.714 245.061 313.997 244.886C313.281 244.708 312.562 244.598 311.857 244.534C310.446 244.4 309.082 244.489 307.825 244.701C306.568 244.923 305.419 245.283 304.406 245.707C302.374 246.559 300.906 247.656 299.945 248.459C298.985 249.272 298.494 249.786 298.423 249.723C298.369 249.679 298.741 249.06 299.635 248.114C300.527 247.18 301.98 245.921 304.084 244.917C305.134 244.419 306.338 243.986 307.671 243.705C309.003 243.434 310.46 243.299 311.978 243.411C312.737 243.464 313.511 243.567 314.285 243.748C315.06 243.923 315.84 244.152 316.604 244.464C317.368 244.774 318.128 245.138 318.854 245.584C319.581 246.029 320.282 246.536 320.948 247.104C321.607 247.681 322.212 248.303 322.761 248.959C323.31 249.615 323.784 250.318 324.208 251.033C324.633 251.747 324.979 252.494 325.272 253.24C325.57 253.986 325.793 254.746 325.965 255.495C326.314 256.997 326.414 258.476 326.36 259.853C326.296 261.23 326.066 262.505 325.746 263.634C325.101 265.899 324.105 267.552 323.337 268.593C322.558 269.635 322.013 270.106 321.961 270.06Z" fill="black"/>
</g>
<g opacity="0.3">
<path d="M305.167 268.099L303.334 270.208L301.541 268.603L303.325 266.551C301.649 264.849 300.452 262.741 300.171 261.048L303.154 259.633C303.445 261.133 304.294 262.796 305.471 264.084L308.205 260.939C306.656 258.65 305.038 255.962 307.38 253.27C309.116 251.274 311.986 250.797 315.114 252.994L316.931 250.904L318.725 252.509L316.94 254.562C318.187 255.878 319.168 257.426 319.581 258.968L316.671 260.482C316.231 259.117 315.576 257.962 314.778 257.046L311.995 260.248C313.56 262.519 315.141 265.174 312.833 267.828C311.13 269.787 308.294 270.262 305.167 268.099ZM310.611 258.172L312.935 255.498C311.789 254.873 310.937 255.083 310.397 255.703C309.824 256.363 310.051 257.203 310.611 258.172ZM309.749 265.47C310.322 264.811 310.113 263.988 309.588 263.015L307.329 265.613C308.406 266.209 309.225 266.073 309.749 265.47Z" fill="black"/>
</g>
<path d="M298.846 249.189C298.879 249.218 298.417 249.759 297.691 250.804C296.976 251.854 296.068 253.488 295.444 255.666C295.115 256.751 294.935 257.98 294.835 259.297C294.805 260.615 294.853 262.03 295.175 263.467C295.504 264.894 295.986 266.368 296.767 267.746C297.546 269.12 298.549 270.419 299.761 271.562C301.003 272.67 302.377 273.553 303.803 274.202C305.232 274.852 306.725 275.19 308.156 275.379C309.597 275.559 310.989 275.465 312.277 275.3C313.557 275.067 314.743 274.76 315.773 274.319C317.844 273.469 319.354 272.387 320.311 271.559C321.261 270.72 321.745 270.198 321.775 270.228C321.785 270.238 321.673 270.373 321.446 270.624C321.209 270.863 320.901 271.264 320.415 271.682C319.481 272.557 317.975 273.694 315.876 274.597C314.833 275.064 313.627 275.395 312.32 275.648C311.006 275.831 309.581 275.941 308.103 275.767C306.635 275.585 305.1 275.246 303.63 274.584C302.164 273.925 300.751 273.02 299.476 271.881C298.233 270.708 297.204 269.373 296.409 267.959C295.613 266.542 295.126 265.026 294.798 263.561C294.479 262.086 294.443 260.636 294.491 259.288C294.607 257.943 294.809 256.69 295.162 255.59C295.834 253.379 296.797 251.744 297.56 250.711C297.92 250.177 298.282 249.826 298.493 249.563C298.714 249.308 298.835 249.179 298.846 249.189Z" fill="#3E0190"/>
<path d="M213.411 138.049C209.566 162.272 187.223 179.397 163.508 176.301C139.791 173.202 123.682 151.053 127.528 126.83C131.372 102.606 153.714 85.4802 177.431 88.5791C201.147 91.6757 217.257 113.826 213.411 138.049Z" fill="#00DE93"/>
<g opacity="0.3">
<path d="M203.298 135.965C203.097 135.947 203.191 134.449 203.07 131.799C202.933 129.162 202.524 125.322 200.909 120.974C200.101 118.809 198.999 116.528 197.523 114.28C196.029 112.049 194.189 109.833 191.93 107.869C190.805 106.883 189.591 105.941 188.271 105.105C186.956 104.262 185.562 103.476 184.072 102.83C182.586 102.179 181.033 101.602 179.405 101.181C177.78 100.759 176.098 100.45 174.375 100.268C172.648 100.11 170.929 100.083 169.238 100.179C167.544 100.273 165.884 100.534 164.272 100.878C162.656 101.219 161.099 101.714 159.605 102.28C158.108 102.838 156.688 103.521 155.343 104.264C152.647 105.741 150.295 107.544 148.282 109.43C146.28 111.334 144.632 113.345 143.301 115.299C140.637 119.224 139.276 122.891 138.482 125.435C137.701 127.996 137.417 129.475 137.215 129.453C137.067 129.441 137.015 127.925 137.52 125.216C138.037 122.528 139.184 118.604 141.799 114.329C143.107 112.201 144.77 109.999 146.839 107.901C148.922 105.823 151.387 103.828 154.251 102.182C155.678 101.355 157.192 100.594 158.795 99.9681C160.394 99.3341 162.066 98.7813 163.805 98.3945C165.542 98.0038 167.332 97.7097 169.16 97.5987C170.986 97.485 172.841 97.5109 174.703 97.6821C176.561 97.8769 178.376 98.2139 180.128 98.6807C181.882 99.145 183.555 99.7816 185.151 100.5C186.75 101.214 188.242 102.079 189.641 103.01C191.047 103.933 192.335 104.97 193.519 106.053C195.899 108.215 197.803 110.64 199.314 113.073C200.805 115.52 201.877 117.993 202.619 120.322C204.099 125.001 204.233 129.052 204.066 131.774C203.878 134.513 203.447 135.981 203.298 135.965Z" fill="black"/>
</g>
<path d="M137.765 127.924C137.775 127.926 137.774 128.019 137.764 128.202C137.748 128.417 137.73 128.682 137.705 129.01C137.674 129.378 137.637 129.814 137.594 130.319C137.549 130.836 137.472 131.432 137.501 132.104C137.418 134.785 137.673 138.712 139.083 143.242C139.752 145.519 140.86 147.867 142.218 150.27C142.599 150.844 142.986 151.428 143.38 152.021C143.582 152.314 143.764 152.626 143.985 152.91C144.213 153.191 144.443 153.472 144.674 153.756C145.146 154.314 145.583 154.919 146.1 155.464C146.629 155.997 147.165 156.537 147.708 157.085C149.975 159.157 152.574 161.126 155.603 162.562C158.623 163.996 161.964 165.025 165.495 165.529C169.044 165.936 172.567 165.792 175.907 165.176C179.256 164.561 182.353 163.325 185.164 161.907C185.852 161.518 186.531 161.135 187.202 160.756C187.864 160.364 188.469 159.893 189.093 159.476C189.402 159.262 189.708 159.049 190.012 158.838C190.311 158.62 190.582 158.367 190.864 158.137C191.423 157.666 191.973 157.203 192.515 156.747C194.552 154.782 196.332 152.806 197.669 150.787C200.403 146.789 201.844 143.081 202.581 140.485C202.815 139.847 202.921 139.255 203.036 138.747C203.149 138.25 203.246 137.823 203.327 137.461C203.405 137.14 203.467 136.88 203.518 136.671C203.564 136.493 203.592 136.403 203.601 136.403C203.61 136.405 203.6 136.498 203.572 136.678C203.535 136.89 203.491 137.153 203.435 137.478C203.366 137.844 203.286 138.276 203.193 138.779C203.093 139.292 203.002 139.891 202.783 140.538C202.104 143.165 200.707 146.931 197.98 151.003C196.647 153.059 194.862 155.076 192.81 157.083C192.265 157.548 191.709 158.022 191.146 158.503C190.861 158.738 190.587 158.995 190.285 159.219C189.978 159.435 189.668 159.653 189.357 159.872C188.727 160.3 188.115 160.78 187.445 161.182C186.766 161.569 186.077 161.963 185.381 162.36C182.535 163.814 179.391 165.078 175.989 165.71C172.596 166.345 169.014 166.495 165.408 166.079C161.82 165.568 158.425 164.519 155.359 163.054C152.285 161.587 149.65 159.579 147.358 157.464C146.81 156.906 146.269 156.355 145.734 155.812C145.212 155.257 144.771 154.641 144.296 154.072C144.064 153.782 143.832 153.495 143.604 153.21C143.382 152.919 143.198 152.602 142.995 152.304C142.601 151.7 142.211 151.105 141.829 150.52C140.468 148.075 139.369 145.686 138.715 143.375C137.336 138.775 137.141 134.803 137.289 132.107C137.275 131.43 137.369 130.831 137.431 130.314C137.495 129.808 137.549 129.371 137.596 129.003C137.641 128.677 137.678 128.412 137.707 128.199C137.737 128.015 137.756 127.924 137.765 127.924Z" fill="#3E0190"/>
<g clip-path="url(#clip1_45_6276)">
<path d="M182.156 143.537L183.573 147.562C183.651 147.764 183.647 147.963 183.561 148.161C183.474 148.358 183.337 148.505 183.149 148.602L183.018 148.646C182.95 148.691 182.86 148.734 182.747 148.776C182.634 148.818 182.495 148.876 182.332 148.952C182.168 149.027 181.982 149.101 181.772 149.174C181.563 149.247 181.34 149.321 181.104 149.398C180.868 149.474 180.605 149.554 180.315 149.638C180.025 149.722 179.731 149.802 179.431 149.878C179.131 149.955 178.808 150.025 178.462 150.09C178.116 150.155 177.773 150.211 177.433 150.257C173.253 150.827 169.469 150.19 166.08 148.344C162.692 146.498 160.213 143.728 158.644 140.033L156.098 140.381C155.866 140.413 155.655 140.357 155.467 140.215C155.278 140.073 155.17 139.888 155.144 139.662L154.804 136.711C154.778 136.484 154.84 136.277 154.991 136.088C155.141 135.9 155.333 135.789 155.565 135.758L157.334 135.516C157.184 134.529 157.087 133.613 157.044 132.77L155.249 133.015C154.999 133.049 154.784 132.999 154.606 132.864C154.427 132.729 154.323 132.54 154.295 132.296L153.952 129.319C153.924 129.075 153.981 128.864 154.124 128.685C154.266 128.506 154.463 128.4 154.713 128.366L157.339 128.007C158.114 124.187 159.95 120.948 162.846 118.289C165.742 115.629 169.191 114.027 173.193 113.481C175.015 113.232 176.771 113.196 178.461 113.372C178.663 113.397 178.857 113.504 179.042 113.691C179.171 113.868 179.222 114.073 179.194 114.307L178.521 118.617C178.493 118.85 178.388 119.037 178.205 119.177C178.021 119.317 177.809 119.368 177.569 119.33L177.459 119.319C177.385 119.311 177.28 119.303 177.143 119.296L176.664 119.268L176.05 119.259L175.344 119.276L174.56 119.317L173.766 119.398C171.515 119.706 169.561 120.538 167.903 121.896C166.245 123.255 165.082 124.97 164.413 127.042L176.954 125.331C177.24 125.292 177.475 125.366 177.66 125.553C177.863 125.737 177.952 125.955 177.926 126.206L177.626 129.272C177.589 129.736 177.33 130.002 176.847 130.068L163.77 131.852C163.791 132.504 163.896 133.418 164.087 134.595L176.386 132.916C176.654 132.88 176.89 132.954 177.092 133.138C177.277 133.325 177.358 133.553 177.335 133.822L177.029 136.835C177.015 137.031 176.935 137.206 176.79 137.358C176.644 137.511 176.473 137.6 176.276 137.627L165.906 139.042C166.998 140.963 168.52 142.396 170.471 143.341C172.422 144.286 174.531 144.604 176.8 144.294C177.122 144.251 177.442 144.194 177.76 144.124C178.079 144.054 178.375 143.982 178.647 143.91C178.92 143.837 179.179 143.762 179.424 143.684C179.669 143.607 179.883 143.533 180.066 143.464C180.248 143.395 180.409 143.333 180.548 143.279L180.861 143.157L180.989 143.086C181.211 142.967 181.445 142.953 181.691 143.043C181.92 143.136 182.075 143.3 182.156 143.537Z" fill="#00BC7D"/>
</g>
<defs>
<clipPath id="clip0_45_6276">
<rect width="17.4855" height="24.5157" fill="white" transform="matrix(0.89689 0.428117 -0.442704 0.902963 237.226 58.1365)"/>
</clipPath>
<clipPath id="clip1_45_6276">
<rect width="27.3672" height="37.4657" fill="white" transform="matrix(1.00266 -0.136832 0.113183 0.981599 152.452 116.311)"/>
</clipPath>
</defs>
</svg>
