<svg width="18" height="18" viewBox="0 0 18 18" fill="none" xmlns="http://www.w3.org/2000/svg">
<path d="M6.25054 9.99986H1.75116C0.781321 9.99986 0.00146484 10.7898 0.00146484 11.7496V16.2488C0.00146484 17.2087 0.781321 17.9986 1.75116 17.9986H6.25044C7.2103 17.9986 8.00019 17.2087 8.00019 16.2488V11.7496C8.00019 10.7898 7.21039 9.99986 6.25054 9.99986ZM6.50047 16.2488C6.50047 16.3889 6.3905 16.4988 6.25049 16.4988H1.75121C1.61124 16.4988 1.50127 16.3889 1.50127 16.2488V11.7496C1.50127 11.6096 1.61124 11.4996 1.75121 11.4996H6.25049C6.3905 11.4996 6.50047 11.6096 6.50047 11.7496V16.2488ZM6.25054 0.00146484H1.75116C0.781321 0.00146484 0.00146484 0.791353 0.00146484 1.75116V6.25044C0.00146484 7.2103 0.781321 8.00018 1.75116 8.00018H6.25044C7.2103 8.00018 8.00019 7.2103 8.00019 6.25044V1.75116C8.00019 0.791353 7.21039 0.00146484 6.25054 0.00146484ZM6.50047 6.25044C6.50047 6.39046 6.3905 6.50042 6.25049 6.50042H1.75121C1.61124 6.50042 1.50127 6.39046 1.50127 6.25044V1.75116C1.50127 1.61119 1.61124 1.50122 1.75121 1.50122H6.25049C6.3905 1.50122 6.50047 1.61119 6.50047 1.75116V6.25044ZM16.2489 0.00146484H11.7496C10.7798 0.00146484 9.99991 0.791353 9.99991 1.75116V6.25044C9.99991 7.2103 10.7898 8.00018 11.7496 8.00018H16.2489C17.2087 8.00018 17.9986 7.2103 17.9986 6.25044V1.75116C17.9986 0.791353 17.2088 0.00146484 16.2489 0.00146484ZM16.4989 6.25044C16.4989 6.39046 16.3889 6.50042 16.2489 6.50042H11.7496C11.6096 6.50042 11.4997 6.39046 11.4997 6.25044V1.75116C11.4997 1.61119 11.6096 1.50122 11.7496 1.50122H16.2489C16.3889 1.50122 16.4989 1.61119 16.4989 1.75116V6.25044Z" fill="#252626"/>
<path d="M11.7497 9.99976H16.2491C17.2089 9.99976 17.9987 10.7896 17.9987 11.7495V16.2487C17.9987 17.2086 17.2088 17.9985 16.249 17.9985H11.7497C10.7799 17.9985 10 17.2086 10 16.2487V11.7495C10 10.7896 10.7799 9.99976 11.7497 9.99976Z" fill="#252626"/>
</svg>
