<svg width="14" height="14" viewBox="0 0 14 14" fill="none" xmlns="http://www.w3.org/2000/svg">
<path d="M6.00033 12.3334C6.00033 12.5986 6.10568 12.853 6.29322 13.0405C6.48076 13.2281 6.73511 13.3334 7.00033 13.3334C7.26554 13.3334 7.5199 13.2281 7.70743 13.0405C7.89497 12.853 8.00033 12.5986 8.00033 12.3334L8.00033 8.00008L12.3337 8.00008C12.5989 8.00008 12.8532 7.89472 13.0408 7.70719C13.2283 7.51965 13.3337 7.2653 13.3337 7.00008C13.3337 6.73487 13.2283 6.48051 13.0408 6.29297C12.8532 6.10544 12.5989 6.00008 12.3337 6.00008L8.00033 6.00008V1.66675C8.00033 1.40153 7.89497 1.14718 7.70743 0.959641C7.5199 0.772105 7.26554 0.666748 7.00033 0.666748C6.73511 0.666748 6.48076 0.772105 6.29322 0.959641C6.10568 1.14718 6.00033 1.40153 6.00033 1.66675L6.00033 6.00008L1.66699 6.00008C1.40178 6.00008 1.14742 6.10544 0.959885 6.29297C0.772349 6.48051 0.666992 6.73487 0.666992 7.00008C0.666992 7.2653 0.772349 7.51965 0.959885 7.70719C1.14742 7.89472 1.40178 8.00008 1.66699 8.00008H6.00033L6.00033 12.3334Z" fill="white"/>
</svg>
