<svg width="13" height="16" viewBox="0 0 13 16" fill="none" xmlns="http://www.w3.org/2000/svg">
<path d="M10.7304 6.80723C11.0915 7.16819 11.6767 7.16824 12.0376 6.80723C12.3986 6.44622 12.3986 5.86099 12.0376 5.49998L6.80821 0.270611C6.80662 0.269016 6.80479 0.267717 6.80319 0.266122C6.78319 0.246306 6.7623 0.227406 6.74058 0.209478C6.72948 0.200382 6.71784 0.192467 6.70644 0.183961C6.69368 0.174452 6.68116 0.164528 6.66793 0.155668C6.65458 0.146749 6.6407 0.138953 6.627 0.130802C6.61483 0.123537 6.60284 0.115858 6.59032 0.109124C6.57638 0.101682 6.56208 0.0953619 6.54791 0.0886874C6.5348 0.0824854 6.52186 0.0759881 6.50839 0.0703768C6.49451 0.0646474 6.48028 0.0599813 6.46622 0.0549606C6.45187 0.0498219 6.43775 0.0442696 6.42304 0.0398397C6.40881 0.0355278 6.39434 0.0323383 6.37992 0.0287352C6.3651 0.0250141 6.35045 0.0208793 6.33533 0.0178669C6.31844 0.0145002 6.30137 0.0124919 6.28436 0.0100702C6.27154 0.00823914 6.25896 0.00581755 6.24596 0.00451809C6.18515 -0.00150603 6.1239 -0.00150603 6.06309 0.00451809C6.05057 0.00575848 6.03846 0.00812114 6.02612 0.00983406C6.00858 0.0122558 5.99103 0.014382 5.97361 0.0178669C5.95908 0.0207612 5.94502 0.0247778 5.93073 0.0283218C5.91572 0.0320429 5.90066 0.0354097 5.88584 0.0398987C5.87184 0.0441515 5.85831 0.0494083 5.84455 0.0543108C5.82978 0.0595677 5.81502 0.0644113 5.80048 0.070436C5.78767 0.075752 5.77544 0.0820719 5.76292 0.0879195C5.74803 0.0948893 5.73309 0.101446 5.71856 0.109243C5.70663 0.115622 5.69529 0.123005 5.68365 0.129916C5.66942 0.138362 5.655 0.146454 5.64112 0.155727C5.62813 0.16441 5.6159 0.174156 5.60338 0.183489C5.5918 0.192112 5.57993 0.200205 5.56865 0.209478C5.54508 0.228793 5.5224 0.24917 5.5009 0.270729L0.270767 5.50051C-0.0902458 5.86146 -0.0902458 6.44681 0.270708 6.80782C0.356443 6.89379 0.458325 6.96197 0.570497 7.00844C0.682669 7.05491 0.802919 7.07874 0.924334 7.07858C1.16089 7.07858 1.39745 6.98833 1.5779 6.80782L5.23008 3.15594L5.22979 15.0756C5.22979 15.5861 5.64361 16 6.15417 16C6.66468 16 7.0785 15.5862 7.07856 15.0757L7.07891 3.15588L10.7304 6.80723Z" fill="white"/>
</svg>
