<svg width="7" height="10" viewBox="0 0 7 10" fill="none" xmlns="http://www.w3.org/2000/svg">
<path d="M6.03016 0.227006C6.17077 0.367652 6.24975 0.558383 6.24975 0.757256C6.24975 0.956129 6.17077 1.14686 6.03016 1.28751L2.31766 5.00001L6.03016 8.71251C6.16678 8.85396 6.24238 9.04341 6.24067 9.24006C6.23896 9.4367 6.16008 9.62481 6.02103 9.76387C5.88197 9.90293 5.69386 9.9818 5.49721 9.98351C5.30057 9.98522 5.11112 9.90962 4.96966 9.77301L0.726914 5.53026C0.58631 5.38961 0.507324 5.19888 0.507324 5.00001C0.507324 4.80113 0.58631 4.6104 0.726914 4.46976L4.96966 0.227006C5.11031 0.0864025 5.30104 0.00741598 5.49991 0.00741599C5.69879 0.007416 5.88952 0.0864026 6.03016 0.227006Z" fill="#00DE93"/>
</svg>
