<svg width="13" height="16" viewBox="0 0 13 16" fill="none" xmlns="http://www.w3.org/2000/svg">
<path d="M10.7304 9.19277C11.0915 8.83181 11.6767 8.83176 12.0376 9.19277C12.3986 9.55378 12.3986 10.139 12.0376 10.5L6.80821 15.7294C6.80662 15.731 6.80479 15.7323 6.80319 15.7339C6.78319 15.7537 6.7623 15.7726 6.74058 15.7905C6.72948 15.7996 6.71784 15.8075 6.70644 15.816C6.69368 15.8255 6.68116 15.8355 6.66793 15.8443C6.65458 15.8533 6.6407 15.861 6.627 15.8692C6.61483 15.8765 6.60284 15.8841 6.59032 15.8909C6.57638 15.8983 6.56208 15.9046 6.54791 15.9113C6.5348 15.9175 6.52186 15.924 6.50839 15.9296C6.49451 15.9354 6.48028 15.94 6.46622 15.945C6.45187 15.9502 6.43775 15.9557 6.42304 15.9602C6.40881 15.9645 6.39434 15.9677 6.37992 15.9713C6.3651 15.975 6.35045 15.9791 6.33533 15.9821C6.31844 15.9855 6.30137 15.9875 6.28436 15.9899C6.27154 15.9918 6.25896 15.9942 6.24596 15.9955C6.18515 16.0015 6.1239 16.0015 6.06309 15.9955C6.05057 15.9942 6.03846 15.9919 6.02612 15.9902C6.00858 15.9877 5.99103 15.9856 5.97361 15.9821C5.95908 15.9792 5.94502 15.9752 5.93073 15.9717C5.91572 15.968 5.90066 15.9646 5.88584 15.9601C5.87184 15.9558 5.85831 15.9506 5.84455 15.9457C5.82978 15.9404 5.81502 15.9356 5.80048 15.9296C5.78767 15.9242 5.77544 15.9179 5.76292 15.9121C5.74803 15.9051 5.73309 15.8986 5.71856 15.8908C5.70663 15.8844 5.69529 15.877 5.68365 15.8701C5.66942 15.8616 5.655 15.8535 5.64112 15.8443C5.62813 15.8356 5.6159 15.8258 5.60338 15.8165C5.5918 15.8079 5.57993 15.7998 5.56865 15.7905C5.54508 15.7712 5.5224 15.7508 5.5009 15.7293L0.270767 10.4995C-0.0902458 10.1385 -0.0902458 9.55319 0.270708 9.19218C0.356443 9.10621 0.458325 9.03803 0.570497 8.99156C0.682669 8.94509 0.802919 8.92126 0.924334 8.92142C1.16089 8.92142 1.39745 9.01167 1.5779 9.19218L5.23008 12.8441L5.22979 0.924385C5.22979 0.413877 5.64361 0 6.15417 0C6.66468 0 7.0785 0.413816 7.07856 0.924326L7.07891 12.8441L10.7304 9.19277Z" fill="white"/>
</svg>
