<svg width="16" height="14" viewBox="0 0 16 14" fill="none" xmlns="http://www.w3.org/2000/svg">
<path d="M3.85668 13.3247C2.96604 13.3247 2.12872 12.9779 1.49896 12.3481C0.198916 11.0481 0.198916 8.93273 1.49896 7.6327L4.44516 4.68646C5.74524 3.38642 7.86056 3.38642 9.16064 4.68646C9.69236 5.21818 10.0215 5.89298 10.1125 6.63794C10.1545 6.9811 9.91024 7.29333 9.56707 7.33526C9.22375 7.37725 8.91172 7.13298 8.86976 6.78978C8.81296 6.32506 8.60744 5.9039 8.27532 5.57178C7.46344 4.7599 6.14236 4.75982 5.33048 5.57178L2.38428 8.51797C1.57236 9.32985 1.57236 10.6509 2.38428 11.4629C2.77756 11.8562 3.30048 12.0728 3.85668 12.0728C4.41288 12.0728 4.93584 11.8562 5.32912 11.4629L6.10252 10.6895C6.34696 10.445 6.7434 10.445 6.98784 10.6895C7.23228 10.9339 7.23228 11.3303 6.98784 11.5747L6.21444 12.3481C5.58468 12.9779 4.74732 13.3247 3.85668 13.3247Z" fill="#9C9C9C"/>
<path d="M9.19706 10.3403C8.34322 10.3403 7.48938 10.0153 6.83934 9.36533C6.30766 8.83361 5.9785 8.15881 5.8875 7.41385C5.84554 7.07069 6.08978 6.75845 6.43294 6.71653C6.77622 6.67449 7.0883 6.91881 7.13026 7.26201C7.18706 7.72677 7.39258 8.14793 7.72466 8.48001C8.53658 9.29189 9.85766 9.29189 10.6695 8.48001L13.6157 5.53381C14.009 5.14049 14.2256 4.61757 14.2256 4.06137C14.2256 3.50517 14.009 2.98229 13.6157 2.58897C13.2224 2.19565 12.6995 1.97905 12.1433 1.97905C11.5871 1.97905 11.0641 2.19561 10.6709 2.58893L9.89746 3.36237C9.65302 3.60681 9.25658 3.60681 9.01214 3.36237C8.7677 3.11789 8.7677 2.72153 9.01214 2.47705L9.78554 1.70365C10.4153 1.07389 11.2527 0.727051 12.1433 0.727051C13.0339 0.727051 13.8713 1.07385 14.501 1.70365C15.1308 2.33341 15.4776 3.17073 15.4776 4.06137C15.4776 4.95201 15.1308 5.78933 14.501 6.41909L11.5548 9.36533C10.9048 10.0153 10.0509 10.3403 9.19706 10.3403Z" fill="#9C9C9C"/>
</svg>
