<svg width="18" height="19" viewBox="0 0 18 19" fill="none" xmlns="http://www.w3.org/2000/svg">
<path d="M3.00027 -0.000976562H1.75026C0.784639 -0.000976562 -0.000976562 0.784591 -0.000976562 1.75021V3.00022C-0.000976562 3.41509 0.335311 3.75138 0.750223 3.75138C1.16514 3.75138 1.50147 3.41509 1.50147 3.00022V1.75021C1.50147 1.61533 1.61538 1.50138 1.75026 1.50138H3.00027C3.41518 1.50138 3.75147 1.16504 3.75147 0.750175C3.75147 0.335311 3.41518 -0.000976562 3.00027 -0.000976562ZM9.00027 1.50138H10.2503C10.3852 1.50138 10.4991 1.61533 10.4991 1.75021V3.00022C10.4991 3.41509 10.8354 3.75138 11.2503 3.75138C11.6652 3.75138 12.0015 3.41509 12.0015 3.00022V1.75021C12.0015 0.784591 11.2159 -0.000976562 10.2503 -0.000976562H9.00027C8.58536 -0.000976562 8.24907 0.335311 8.24907 0.750175C8.24907 1.16504 8.58536 1.50138 9.00027 1.50138ZM16.25 5.00806H7.74968C6.78406 5.00806 5.9985 5.79368 5.9985 6.7593V16.2593C5.9985 17.2249 6.78406 18.0105 7.74968 18.0105H16.25C17.2156 18.0105 18.0012 17.2249 18.0012 16.2593V6.7593C18.0012 5.79368 17.2156 5.00806 16.25 5.00806ZM16.4988 16.2593C16.4987 16.3252 16.4725 16.3885 16.4258 16.4351C16.3792 16.4818 16.316 16.508 16.25 16.5081H7.74968C7.68372 16.508 7.62048 16.4818 7.57384 16.4351C7.5272 16.3885 7.50097 16.3252 7.5009 16.2593V6.7593C7.50097 6.69333 7.5272 6.63009 7.57384 6.58345C7.62048 6.5368 7.68372 6.51055 7.74968 6.51046H16.25C16.316 6.51055 16.3792 6.5368 16.4258 6.58345C16.4725 6.63009 16.4987 6.69333 16.4988 6.7593V16.2593ZM3.00027 11.4991H1.75026C1.61538 11.4991 1.50147 11.3851 1.50147 11.2502V10.0002C1.50147 9.58534 1.16514 9.24906 0.750223 9.24906C0.335311 9.24906 -0.000976562 9.58534 -0.000976562 10.0002V11.2502C-0.000976562 12.2158 0.784639 13.0014 1.75026 13.0014H3.00027C3.41518 13.0014 3.75147 12.6651 3.75147 12.2503C3.75147 11.8354 3.41518 11.4991 3.00027 11.4991Z" fill="#00DE93"/>
</svg>
