<svg width="18" height="14" viewBox="0 0 18 14" fill="none" xmlns="http://www.w3.org/2000/svg">
<path d="M16.7078 12.4159H5.79588L13.5416 4.67018C14.1525 4.05926 14.1524 3.06526 13.5416 2.45442L11.8785 0.791382C11.2676 0.180542 10.2736 0.180542 9.66272 0.791382L0.848399 9.6057C0.790266 9.66384 0.744153 9.73285 0.712692 9.80881C0.681231 9.88476 0.665038 9.96617 0.665039 10.0484V13.0419C0.665039 13.3876 0.945279 13.6678 1.29104 13.6678H3.999L3.9994 13.6679H16.7078C17.0536 13.6679 17.3338 13.3876 17.3338 13.0419C17.3338 12.6961 17.0536 12.4159 16.7078 12.4159ZM10.548 1.6767C10.6708 1.55398 10.8705 1.55398 10.9932 1.6767L12.6563 3.33974C12.779 3.46246 12.779 3.66218 12.6563 3.7849L11.1032 5.33794L8.99504 3.2297L10.548 1.6767ZM1.91704 10.3077L8.10972 4.11502L10.2179 6.22326L4.02532 12.4159H1.91704V10.3077Z" fill="#00DE93"/>
</svg>
