<svg width="18" height="14" viewBox="0 0 18 14" fill="none" xmlns="http://www.w3.org/2000/svg">
<path d="M17.3338 0.948517C17.3336 0.937277 17.3328 0.926118 17.332 0.914918C17.3314 0.905198 17.3308 0.895438 17.3297 0.885838C17.3286 0.875798 17.3268 0.865838 17.3252 0.855878C17.3234 0.845438 17.3218 0.834957 17.3196 0.824717C17.3176 0.815557 17.315 0.806557 17.3126 0.797477C17.3098 0.786877 17.3071 0.776238 17.3038 0.765878C17.3008 0.756798 17.2972 0.747838 17.2939 0.738878C17.2902 0.728998 17.2867 0.719038 17.2825 0.709398C17.2784 0.699918 17.2736 0.690718 17.269 0.681438C17.2647 0.672678 17.2605 0.663798 17.2558 0.655278C17.2506 0.645918 17.2448 0.636878 17.2391 0.627758C17.234 0.619598 17.2291 0.611357 17.2236 0.603477C17.2178 0.594997 17.2114 0.586797 17.205 0.578557C17.1988 0.570397 17.1926 0.562198 17.186 0.554358C17.1798 0.547078 17.1732 0.540118 17.1666 0.533078C17.159 0.524677 17.1511 0.516487 17.143 0.508517C17.1406 0.506237 17.1386 0.503758 17.1362 0.501518C17.1317 0.497358 17.127 0.493918 17.1224 0.489918C17.1139 0.48228 17.1052 0.474878 17.0962 0.467718C17.0886 0.461755 17.0809 0.455967 17.073 0.450358C17.0644 0.444094 17.0556 0.438052 17.0466 0.432238C17.0038 0.404831 16.9578 0.382647 16.9097 0.366158C16.8999 0.362817 16.8901 0.359723 16.8802 0.356877C16.8704 0.354132 16.8607 0.351624 16.8508 0.349358C16.8408 0.347005 16.8308 0.344898 16.8208 0.343037C16.8104 0.341191 16.8 0.339604 16.7896 0.338278C16.7799 0.336971 16.7701 0.335891 16.7604 0.335038C16.7491 0.334164 16.7378 0.333591 16.7264 0.333318C16.7203 0.333158 16.7144 0.332397 16.7082 0.332397H1.29153C1.28553 0.332397 1.27969 0.333158 1.27373 0.333318C1.26217 0.333638 1.25065 0.334118 1.23913 0.335078C1.22953 0.335878 1.22009 0.336998 1.21061 0.338238C1.19993 0.339591 1.18929 0.341205 1.17869 0.343078C1.16884 0.344898 1.15903 0.346966 1.14929 0.349278C1.08957 0.362961 1.03226 0.385575 0.979287 0.416357C0.970407 0.421477 0.961647 0.426757 0.952967 0.432357C0.944087 0.438077 0.935487 0.444077 0.926927 0.450237C0.919007 0.455917 0.911207 0.461638 0.903487 0.467758C0.894527 0.474838 0.885927 0.482318 0.877367 0.489878C0.872847 0.493878 0.868047 0.497358 0.863607 0.501518C0.861207 0.503758 0.859167 0.506237 0.856807 0.508517C0.848692 0.516487 0.840795 0.524677 0.833127 0.533078C0.826607 0.540118 0.819967 0.547078 0.813807 0.554358C0.807167 0.562198 0.800967 0.570397 0.794727 0.578557C0.788407 0.586797 0.782007 0.594997 0.776127 0.603477C0.770687 0.611357 0.765767 0.619598 0.760687 0.627758C0.755007 0.636878 0.749127 0.645918 0.743967 0.655278C0.739207 0.663838 0.735087 0.672718 0.730727 0.681518C0.726167 0.690798 0.721367 0.699958 0.717287 0.709398C0.713087 0.719078 0.709567 0.729038 0.705847 0.738958C0.702487 0.747918 0.698927 0.756798 0.696007 0.765878C0.692647 0.776238 0.689967 0.786877 0.687167 0.797477C0.684767 0.806557 0.682167 0.815557 0.680167 0.824717C0.677927 0.834957 0.676327 0.845438 0.674607 0.855878C0.672967 0.865838 0.671207 0.875798 0.670047 0.885838C0.668927 0.895438 0.668407 0.905198 0.667727 0.914918C0.666967 0.926118 0.666207 0.937277 0.666007 0.948517C0.665967 0.951837 0.665527 0.955038 0.665527 0.958398V13.0418C0.665527 13.3875 0.945767 13.6678 1.29153 13.6678H16.7082C17.054 13.6678 17.3342 13.3875 17.3342 13.0418V0.958398C17.3342 0.955038 17.3338 0.951837 17.3338 0.948517ZM15.2642 1.5844L10.3566 6.8244C9.99945 7.20576 9.51757 7.4158 8.99985 7.4158C8.48213 7.4158 8.00033 7.20576 7.64317 6.8244L2.73553 1.5844H15.2642ZM1.91753 12.4158V2.5426L6.72933 7.68024C7.32573 8.31704 8.13213 8.6678 8.99985 8.6678C9.86753 8.6678 10.674 8.31704 11.2704 7.68028L16.0822 2.5426V12.4158H1.91753Z" fill="#121330"/>
</svg>
