<svg width="18" height="18" viewBox="0 0 18 18" fill="none" xmlns="http://www.w3.org/2000/svg">
<path d="M17.8312 9.47671C17.839 9.4672 17.8458 9.45717 17.8531 9.44738C17.8605 9.43749 17.8681 9.42789 17.875 9.41767C17.8825 9.40648 17.889 9.39487 17.8958 9.38339C17.9015 9.37379 17.9075 9.36444 17.9128 9.3546C17.9189 9.34312 17.9241 9.33136 17.9296 9.31965C17.9346 9.30909 17.9399 9.29872 17.9444 9.28792C17.949 9.27674 17.9527 9.26527 17.9568 9.25389C17.961 9.24208 17.9656 9.23047 17.9692 9.21842C17.9727 9.20723 17.9751 9.19591 17.9779 9.18458C17.9811 9.1721 17.9846 9.15981 17.9871 9.14709C17.9896 9.13437 17.9911 9.12156 17.993 9.10874C17.9946 9.09727 17.9968 9.08594 17.9979 9.07432C18.0001 9.05248 18.001 9.03059 18.0013 9.00866C18.0013 9.00587 18.0016 9.00319 18.0016 9.0004C18.0016 8.99762 18.0013 8.99493 18.0013 8.99215C18.0011 8.97022 18 8.94831 17.9979 8.92648C17.9967 8.91443 17.9945 8.90272 17.9928 8.89082C17.9909 8.87848 17.9896 8.86605 17.9872 8.85381C17.9846 8.84066 17.9809 8.82789 17.9776 8.81498C17.9749 8.80413 17.9726 8.79323 17.9693 8.78248C17.9655 8.76995 17.9608 8.75781 17.9564 8.74557C17.9525 8.73472 17.9489 8.72378 17.9445 8.71307C17.9398 8.7017 17.9343 8.69075 17.929 8.67967C17.9237 8.66853 17.9188 8.6573 17.9129 8.6464C17.9073 8.6358 17.9008 8.62571 17.8947 8.61544C17.8882 8.60469 17.8822 8.59384 17.8752 8.58338C17.8676 8.57205 17.8591 8.56135 17.851 8.55045C17.8444 8.54171 17.8384 8.53279 17.8314 8.52429C17.8157 8.50512 17.7991 8.48673 17.7816 8.46919L13.5315 4.21884C13.2382 3.92546 12.7624 3.92541 12.4692 4.21879C12.1758 4.51212 12.1758 4.98779 12.4692 5.28117L15.437 8.24911L5.75022 8.24882C5.33536 8.24882 4.99907 8.58516 4.99902 9.00002C4.99902 9.41488 5.33531 9.75122 5.75022 9.75122L15.437 9.75151L12.4696 12.7189C12.1763 13.0122 12.1763 13.4879 12.4696 13.7813C12.5393 13.8511 12.6221 13.9065 12.7133 13.9443C12.8044 13.982 12.9021 14.0014 13.0008 14.0012C13.0995 14.0014 13.1972 13.982 13.2884 13.9442C13.3795 13.9065 13.4623 13.8511 13.532 13.7812L17.7816 9.53157C17.7841 9.52907 17.7862 9.52629 17.7887 9.52375C17.8034 9.50858 17.8178 9.49307 17.8312 9.47671Z" fill="#252626"/>
<path d="M10.2502 16.4986H2.75024C2.06163 16.4986 1.50142 15.9384 1.50142 15.2498V2.74995C1.50142 2.06134 2.06163 1.50118 2.75024 1.50118H10.2502C10.6651 1.50118 11.0014 1.16484 11.0014 0.749979C11.0014 0.335115 10.6651 -0.0012207 10.2502 -0.0012207H2.75024C1.23325 -0.0012207 -0.000976562 1.23296 -0.000976562 2.74995V15.2498C-0.000976562 16.7668 1.23325 18.001 2.75024 18.001H10.2502C10.6651 18.001 11.0014 17.6647 11.0014 17.2498C11.0014 16.8349 10.6651 16.4986 10.2502 16.4986Z" fill="#252626"/>
</svg>
