<svg width="20" height="20" viewBox="0 0 20 20" fill="none" xmlns="http://www.w3.org/2000/svg">
<path d="M10.0003 12.5005C9.58539 12.5005 9.24906 12.1652 9.24906 11.7503V11.7484C9.24906 10.5982 9.86773 9.52276 10.904 8.87159C11.4621 8.52081 11.9204 7.7494 11.6859 6.81671C11.5359 6.22045 11.0489 5.71732 10.4739 5.56473C9.93056 5.42049 9.3931 5.52426 8.96067 5.857C8.50995 6.2037 8.25147 6.73583 8.25147 7.31692C8.25147 7.73178 7.91518 8.06812 7.50027 8.06812C7.08536 8.06812 6.74902 7.73178 6.74902 7.31692C6.74902 6.26572 7.2213 5.29953 8.04459 4.66617C8.84341 4.05172 9.86922 3.84997 10.8592 4.11258C11.963 4.40548 12.8594 5.32309 13.1429 6.45033C13.5051 7.89071 12.9266 9.37492 11.7033 10.1436C11.1073 10.5182 10.7515 11.1181 10.7515 11.7484C10.7515 12.1633 10.4152 12.5005 10.0003 12.5005ZM10.0001 15.9845C9.96843 15.9845 9.93579 15.9825 9.90363 15.9796C9.87142 15.9763 9.83926 15.9715 9.80811 15.9652C9.74511 15.9521 9.68342 15.9333 9.62379 15.9091C9.59451 15.8966 9.56523 15.8827 9.53691 15.8678C9.50843 15.8527 9.48071 15.8362 9.45387 15.8184C9.42713 15.8005 9.40119 15.7814 9.37611 15.7612C9.3511 15.7406 9.32715 15.719 9.30459 15.6959C9.2816 15.6734 9.26 15.6494 9.23931 15.6245C9.19875 15.5744 9.16307 15.5205 9.13275 15.4636C9.11787 15.4353 9.10395 15.406 9.09142 15.3767C9.07929 15.347 9.06858 15.3168 9.05931 15.286C9.04989 15.2552 9.04189 15.224 9.03531 15.1925C9.02904 15.1609 9.02423 15.129 9.02091 15.0969C9.01803 15.0652 9.01611 15.0326 9.01611 15.0005C9.01611 14.9683 9.01803 14.9357 9.02091 14.9035C9.02427 14.8718 9.02907 14.8396 9.03531 14.8079C9.04208 14.7767 9.04976 14.7455 9.05931 14.7148C9.06843 14.6841 9.07942 14.6534 9.09142 14.6241C9.10395 14.5943 9.11787 14.5651 9.13275 14.5367C9.14768 14.5084 9.16443 14.4806 9.18219 14.4542C9.21779 14.4002 9.2588 14.3501 9.30459 14.3045C9.32715 14.2819 9.3511 14.2598 9.37611 14.2396C9.40107 14.2195 9.42742 14.1998 9.45387 14.182C9.48075 14.1643 9.50859 14.1479 9.53691 14.1326C9.56523 14.1177 9.59451 14.1038 9.62379 14.0918C9.65355 14.0793 9.68379 14.0683 9.71451 14.0591C9.74523 14.05 9.77691 14.0419 9.80811 14.0356C9.83926 14.0294 9.87142 14.0246 9.90363 14.0212C9.96795 14.0145 10.0328 14.0145 10.0971 14.0212C10.1288 14.0246 10.1609 14.0294 10.1926 14.0356C10.2238 14.0419 10.2554 14.05 10.2862 14.0591C10.3164 14.0683 10.3472 14.0793 10.3764 14.0918C10.4062 14.1038 10.4354 14.1177 10.4638 14.1326C10.4921 14.1479 10.52 14.1643 10.5464 14.182C10.5732 14.1998 10.5996 14.2195 10.6241 14.2396C10.6744 14.2803 10.7202 14.3262 10.7609 14.3765C10.7816 14.4014 10.8008 14.4273 10.8185 14.4542C10.8363 14.4806 10.8526 14.5084 10.868 14.5367C10.8828 14.5651 10.8968 14.5943 10.9088 14.6241C10.9212 14.6534 10.9323 14.6841 10.9413 14.7148C10.9509 14.7451 10.9587 14.7767 10.9649 14.8079C10.9717 14.8396 10.9764 14.8718 10.9793 14.9035C10.9827 14.9357 10.9846 14.9683 10.9846 15.0005C10.9846 15.0326 10.9827 15.0652 10.9793 15.0969C10.9764 15.1291 10.9717 15.1613 10.9649 15.1925C10.9588 15.2241 10.9509 15.2553 10.9413 15.286C10.9323 15.3167 10.9212 15.347 10.9088 15.3767C10.8968 15.406 10.8828 15.4353 10.868 15.4636C10.8526 15.4919 10.8363 15.5198 10.8185 15.5467C10.8008 15.5735 10.7816 15.5995 10.7609 15.6245C10.7408 15.6494 10.7187 15.6734 10.6961 15.6959C10.6736 15.719 10.6491 15.7406 10.6241 15.7612C10.5996 15.7814 10.5732 15.8006 10.5464 15.8184C10.52 15.8362 10.4921 15.8529 10.4638 15.8678C10.4354 15.8827 10.4062 15.8966 10.3764 15.9091C10.3472 15.9211 10.3164 15.9321 10.2862 15.9412C10.2554 15.9508 10.2238 15.9585 10.1926 15.9652C10.1609 15.9715 10.1288 15.9763 10.0971 15.9796C10.0649 15.9825 10.0323 15.9845 10.0001 15.9845Z" fill="#252626"/>
<path d="M10.0004 20.0015C4.48563 20.0015 -0.000976562 15.515 -0.000976562 10.0003C-0.000976562 4.48554 4.48563 -0.000976562 10.0004 -0.000976562C15.5151 -0.000976562 20.0016 4.48554 20.0016 10.0003C20.0016 15.515 15.5151 20.0015 10.0004 20.0015ZM10.0003 1.50142C5.31402 1.50142 1.50147 5.31397 1.50147 10.0003C1.50147 14.6865 5.31402 18.4991 10.0003 18.4991C14.6866 18.4991 18.4991 14.6865 18.4991 10.0003C18.4991 5.31397 14.6866 1.50142 10.0003 1.50142Z" fill="#252626"/>
</svg>
