<svg width="19" height="19" viewBox="0 0 19 19" fill="none" xmlns="http://www.w3.org/2000/svg">
<path d="M18.8739 9.27359C18.8133 6.76984 17.7815 4.43949 15.9682 2.71189C14.155 0.984239 11.7781 0.0660894 9.27377 0.126589C6.77002 0.187089 4.43972 1.21904 2.71207 3.03224C2.33459 3.42882 1.99232 3.85749 1.68912 4.31339L1.68907 1.40409C1.68902 0.971939 1.33872 0.621589 0.906573 0.621589C0.474373 0.621589 0.124023 0.971939 0.124023 1.40414L0.124123 6.11474C0.124173 6.54689 0.474473 6.89719 0.906673 6.89719H5.35677C5.78897 6.89719 6.13927 6.54689 6.13927 6.11474C6.13927 5.68259 5.78897 5.33224 5.35677 5.33224H2.89262C3.1692 4.89509 3.48823 4.48629 3.84507 4.11179C5.28437 2.60124 7.22572 1.74154 9.31157 1.69114C11.3979 1.64014 13.3781 2.40564 14.8886 3.84494C16.3992 5.28419 17.2589 7.22559 17.3093 9.31144C17.3597 11.3973 16.5948 13.3779 15.1556 14.8885C13.7163 16.399 11.7749 17.2587 9.68907 17.3091C7.60292 17.3593 5.62257 16.5947 4.11202 15.1554C2.92437 14.0238 2.13467 12.5772 1.82827 10.9719C1.74727 10.5475 1.33727 10.269 0.913024 10.35C0.488524 10.4311 0.210023 10.8408 0.291073 11.2653C0.659023 13.1933 1.60697 14.9303 3.03242 16.2884C4.78957 17.9626 7.07617 18.8766 9.49442 18.8765C9.57167 18.8765 9.64942 18.8756 9.72687 18.8737C12.2307 18.8132 14.561 17.7812 16.2886 15.968C18.0163 14.1548 18.9344 11.7773 18.8739 9.27359Z" fill="#252626"/>
<path d="M9.50027 5.33228C9.06807 5.33228 8.71777 5.68263 8.71777 6.11478V10.482C8.71777 10.4836 8.71802 10.4852 8.71802 10.4869C8.71812 10.5036 8.71937 10.5204 8.72052 10.5371C8.72117 10.5462 8.72122 10.5554 8.72217 10.5645C8.72407 10.5827 8.72727 10.6009 8.73047 10.619C8.73172 10.6261 8.73242 10.6335 8.73387 10.6405C8.76365 10.7844 8.83355 10.9169 8.93547 11.0227C8.93982 11.0272 8.94387 11.0321 8.94832 11.0365C8.95017 11.0384 8.95172 11.0404 8.95362 11.0423L11.9491 13.9664C12.0951 14.1093 12.2913 14.1892 12.4956 14.189C12.699 14.189 12.9023 14.1101 13.0556 13.9531C13.3575 13.6438 13.3516 13.1484 13.0423 12.8465L10.2828 10.1527V6.11478C10.2828 5.68263 9.93247 5.33228 9.50027 5.33228Z" fill="#252626"/>
</svg>
