<svg width="14" height="18" viewBox="0 0 14 18" fill="none" xmlns="http://www.w3.org/2000/svg">
<path d="M7.00024 17.3345C6.909 17.3345 6.81886 17.3145 6.73613 17.2761C6.6534 17.2376 6.58009 17.1814 6.52132 17.1117L1.86292 11.5783C1.1642 10.7379 0.68684 9.74277 0.47948 8.69709C0.38056 8.26209 0.33252 7.81593 0.33252 7.33345C0.33252 3.65685 3.32364 0.665771 7.00024 0.665771C10.6768 0.665771 13.6679 3.65685 13.6679 7.33345C13.6679 7.81605 13.6198 8.26217 13.521 8.69697C13.3137 9.74277 12.8363 10.7378 12.14 11.5753L7.47916 17.1117C7.42039 17.1814 7.34708 17.2376 7.26435 17.2761C7.18162 17.3145 7.09148 17.3345 7.00024 17.3345ZM7.00024 1.91773C4.014 1.91773 1.58452 4.34721 1.58452 7.33345C1.58452 7.72417 1.62296 8.08185 1.70204 8.42697C1.70348 8.43329 1.7048 8.43965 1.70608 8.44601C1.87204 9.29021 2.25836 10.0955 2.8232 10.7749L7.00024 15.7365L11.1797 10.772C11.7421 10.0955 12.1284 9.29021 12.2943 8.44601C12.2956 8.43961 12.297 8.43325 12.2984 8.42689C12.3775 8.08193 12.4159 7.72429 12.4159 7.33345C12.4159 4.34721 9.98644 1.91773 7.00024 1.91773Z" fill="white"/>
<path d="M7.00013 10.6677C5.16157 10.6677 3.66577 9.1719 3.66577 7.33334C3.66577 5.49478 5.16157 3.99902 7.00013 3.99902C8.83869 3.99902 10.3345 5.49478 10.3345 7.33334C10.3345 9.1719 8.83869 10.6677 7.00013 10.6677ZM7.00013 5.25098C5.85193 5.25098 4.91777 6.18514 4.91777 7.33334C4.91777 8.48154 5.85193 9.4157 7.00013 9.4157C8.14833 9.4157 9.08245 8.48154 9.08245 7.33334C9.08245 6.18514 8.14833 5.25098 7.00013 5.25098Z" fill="white"/>
</svg>
