<svg width="16" height="20" viewBox="0 0 16 20" fill="none" xmlns="http://www.w3.org/2000/svg">
<path d="M5.00096 15.0874L5 16.9991C5 18.6489 6.34976 19.9986 7.99952 19.9986C9.64923 19.9986 10.999 18.6489 10.999 16.9991L11 15.0874H5.00096ZM9.49923 16.9991C9.49923 17.829 8.82934 18.4989 7.99947 18.4989C7.1696 18.4989 6.49971 17.829 6.49971 16.9991L6.50072 15.5434H9.50024L9.49928 16.9991H9.49923Z" fill="#252626"/>
<path d="M14.1284 11.3399C14.0484 11.1599 13.9984 10.9699 13.9984 10.78V8.00043C13.9984 4.95089 11.7088 2.42134 8.74926 2.0514V0.751565C8.74926 0.341645 8.40933 0.00170898 7.99936 0.00170898C7.58944 0.00170898 7.2495 0.341645 7.2495 0.751565V2.0514C4.28997 2.42134 2.00032 4.95089 2.00032 8.00043V10.78C2.00032 10.9699 1.95035 11.1699 1.87033 11.3399L0.080655 14.9193C-0.039345 15.1493 -0.019329 15.4292 0.110655 15.6492C0.250623 15.8692 0.490575 15.9991 0.750495 15.9991H15.2482C15.5082 15.9991 15.7481 15.8692 15.8881 15.6392C16.0281 15.4193 16.0381 15.1393 15.9181 14.9093L14.1284 11.3399ZM1.96038 14.4994L3.21016 12.0098C3.40105 11.628 3.50031 11.2069 3.50008 10.78V8.00043C3.50008 5.52084 5.51977 3.50115 7.99936 3.50115C10.479 3.50115 12.4986 5.52084 12.4986 8.00043V10.78C12.4986 11.1999 12.5986 11.6299 12.7886 12.0098L14.0384 14.4994H1.96038Z" fill="#252626"/>
</svg>
