<svg width="14" height="18" viewBox="0 0 14 18" fill="none" xmlns="http://www.w3.org/2000/svg">
<path d="M5.97985 11.5853C5.98145 11.6021 5.98345 11.6189 5.98625 11.6353C5.98865 11.6517 5.99145 11.6685 5.99465 11.6849C6.00145 11.7173 6.00985 11.7501 6.01945 11.7821C6.02901 11.8141 6.04065 11.8457 6.05345 11.8765C6.06585 11.9073 6.08025 11.9381 6.09625 11.9673C6.11185 11.9969 6.12901 12.0257 6.14741 12.0537C6.15661 12.0673 6.16665 12.0813 6.17625 12.0949C6.18625 12.1081 6.19661 12.1217 6.20741 12.1345C6.21785 12.1473 6.22905 12.1605 6.24025 12.1729C6.25145 12.1853 6.26305 12.1977 6.27505 12.2093C6.28665 12.2213 6.29901 12.2329 6.31145 12.2441C6.32385 12.2553 6.33665 12.2665 6.34985 12.2769C6.35765 12.2835 6.36585 12.2897 6.37401 12.2959V13.3945C6.37401 13.7402 6.65429 14.0205 7.00005 14.0205C7.34581 14.0205 7.62605 13.7402 7.62605 13.3945V12.2953C7.63389 12.2892 7.64189 12.2833 7.64945 12.2769C7.68861 12.245 7.72538 12.2102 7.75945 12.1729C7.77061 12.1605 7.78141 12.1473 7.79221 12.1345C7.80261 12.1217 7.81305 12.1081 7.82305 12.0949C7.85288 12.0544 7.87975 12.0117 7.90345 11.9673C7.91905 11.9381 7.93345 11.9073 7.94625 11.8765C7.95901 11.8457 7.97025 11.8141 7.98025 11.7821C7.99483 11.734 8.00592 11.685 8.01345 11.6353C8.01585 11.6189 8.01785 11.6021 8.01985 11.5853C8.02626 11.5183 8.02626 11.4507 8.01985 11.3837C8.01785 11.3673 8.01585 11.3505 8.01345 11.3337C8.00583 11.284 7.99474 11.235 7.98025 11.1869C7.97025 11.1549 7.95901 11.1233 7.94625 11.0925C7.93345 11.0617 7.91905 11.0313 7.90345 11.0017C7.88785 10.9725 7.87025 10.9433 7.85185 10.9157C7.84265 10.9017 7.83305 10.8877 7.82305 10.8745C7.81305 10.8609 7.80261 10.8477 7.79221 10.8345C7.78141 10.8217 7.77061 10.8089 7.75945 10.7965C7.74825 10.7841 7.73625 10.7717 7.72465 10.7597C7.71261 10.7481 7.70025 10.7361 7.68785 10.7249C7.67541 10.7137 7.66261 10.7025 7.64945 10.6921C7.63665 10.6817 7.62345 10.6713 7.60985 10.6613C7.59665 10.6513 7.58265 10.6417 7.56865 10.6325C7.54109 10.6141 7.51181 10.5965 7.48261 10.5809C7.45305 10.5653 7.42265 10.5509 7.39185 10.5381C7.36105 10.5253 7.32901 10.5141 7.29741 10.5041C7.26541 10.4945 7.23261 10.4861 7.19985 10.4797C7.18385 10.4765 7.16701 10.4733 7.15061 10.4709C7.13381 10.4685 7.11701 10.4661 7.10061 10.4645C7.03356 10.4581 6.96606 10.4581 6.89901 10.4645C6.86559 10.4679 6.83236 10.473 6.79945 10.4797C6.76666 10.4863 6.73421 10.4944 6.70221 10.5041C6.67021 10.5141 6.63865 10.5253 6.60785 10.5381C6.57701 10.5509 6.54625 10.5653 6.51705 10.5809C6.47264 10.6046 6.43 10.6315 6.38945 10.6613C6.37625 10.6713 6.36261 10.6817 6.34985 10.6921C6.33665 10.7025 6.32385 10.7137 6.31145 10.7249C6.28649 10.7475 6.26273 10.7714 6.24025 10.7965C6.21762 10.8214 6.19626 10.8474 6.17625 10.8745C6.14654 10.9149 6.1198 10.9574 6.09625 11.0017C6.08025 11.0313 6.06585 11.0617 6.05345 11.0925C6.04065 11.1233 6.02901 11.1549 6.01945 11.1869C6.00985 11.2189 6.00145 11.2517 5.99465 11.2841C5.99145 11.3005 5.98865 11.3173 5.98625 11.3337C5.98345 11.3505 5.98145 11.3673 5.97985 11.3837C5.97825 11.4005 5.97701 11.4173 5.97581 11.4341C5.97421 11.4677 5.97421 11.5013 5.97581 11.5349C5.97701 11.5517 5.97825 11.5685 5.97985 11.5853Z" fill="#121330"/>
<path d="M13.0413 7.33233H12.0007V5.45845C12.0007 2.81577 9.85071 0.665771 7.20803 0.665771H6.79139C4.14871 0.665771 1.99871 2.81577 1.99871 5.45845V7.33233H0.958031C0.612271 7.33233 0.332031 7.61261 0.332031 7.95833V15.0418C0.332031 16.306 1.36055 17.3344 2.62471 17.3344H11.3747C12.6388 17.3344 13.6673 16.306 13.6673 15.0418V7.95833C13.6673 7.61261 13.3871 7.33233 13.0413 7.33233ZM3.25071 5.45845C3.25071 3.50609 4.83903 1.91777 6.79139 1.91777H7.20803C9.16039 1.91777 10.7487 3.50609 10.7487 5.45845V7.33233H3.25071V5.45845ZM12.4153 15.0418C12.4153 15.6157 11.9485 16.0825 11.3747 16.0825H2.62471C2.05087 16.0825 1.58403 15.6157 1.58403 15.0418V8.58433H12.4153V15.0418Z" fill="#121330"/>
</svg>
