<svg width="12" height="16" viewBox="0 0 12 16" fill="none" xmlns="http://www.w3.org/2000/svg">
<mask id="mask0_248_91" style="mask-type:luminance" maskUnits="userSpaceOnUse" x="0" y="0" width="12" height="16">
<path d="M0 0H12V16H0V0Z" fill="white"/>
</mask>
<g mask="url(#mask0_248_91)">
<path d="M9.54149 16.3344H2.45821C1.19405 16.3344 0.165527 15.3059 0.165527 14.0417V1.95845C0.165527 0.694291 1.19405 -0.334229 2.45821 -0.334229H9.54149C10.8056 -0.334229 11.8342 0.694291 11.8342 1.95845V14.0417C11.8342 15.3059 10.8056 16.3344 9.54149 16.3344ZM2.45821 0.917771C1.88437 0.917771 1.41753 1.38461 1.41753 1.95845V14.0417C1.41753 14.6156 1.88437 15.0824 2.45821 15.0824H9.54149C10.1153 15.0824 10.5822 14.6156 10.5822 14.0417V1.95845C10.5822 1.38461 10.1153 0.917771 9.54149 0.917771H2.45821Z" fill="white"/>
<path d="M6.83321 13.8343H5.16657C4.82081 13.8343 4.54053 13.554 4.54053 13.2083C4.54053 12.8626 4.82081 12.5823 5.16657 12.5823H6.83321C7.17897 12.5823 7.45925 12.8626 7.45925 13.2083C7.45925 13.554 7.17897 13.8343 6.83321 13.8343Z" fill="white"/>
</g>
</svg>
