<svg width="18" height="18" viewBox="0 0 18 18" fill="none" xmlns="http://www.w3.org/2000/svg">
<path d="M17.7056 16.1429L13.9462 12.3845C14.9171 11.0907 15.499 9.48895 15.499 7.75025C15.499 3.47791 12.0225 0.00146484 7.75025 0.00146484C3.47791 0.00146484 0.00146484 3.47791 0.00146484 7.75025C0.00146484 12.0225 3.47791 15.499 7.75025 15.499C9.56494 15.499 11.2317 14.8681 12.5535 13.8193L16.2918 17.5566C16.3846 17.6496 16.4948 17.7234 16.6161 17.7736C16.7374 17.8239 16.8674 17.8497 16.9987 17.8496C17.1301 17.8497 17.2601 17.8239 17.3814 17.7736C17.5027 17.7234 17.6129 17.6496 17.7056 17.5566C18.0966 17.1657 18.0966 16.5338 17.7056 16.1429ZM1.50122 7.75025C1.50122 4.30481 4.30476 1.50122 7.75025 1.50122C11.1957 1.50122 13.9992 4.30476 13.9992 7.75025C13.9992 11.1957 11.1957 13.9992 7.75025 13.9992C4.30481 13.9992 1.50122 11.1957 1.50122 7.75025Z" fill="#252626"/>
</svg>
