<svg width="20" height="21" viewBox="0 0 20 21" fill="none" xmlns="http://www.w3.org/2000/svg">
<path d="M8.24993 0.00976562H11.7499C12.4398 0.00976562 13.0011 0.57103 13.0011 1.26093V2.59956C13.6837 2.8698 14.3239 3.24276 14.9137 3.71383L16.0729 3.04121C16.6699 2.69306 17.4403 2.89509 17.7888 3.49241L19.5404 6.52524C19.5438 6.53119 19.5472 6.53719 19.5504 6.54319C19.8789 7.14962 19.6626 7.90591 19.0687 8.23543L17.9244 8.89644C17.9754 9.25337 18.0011 9.62623 18.0011 10.0109C18.0011 10.3956 17.9754 10.7685 17.9244 11.1254L19.0688 11.7864C19.6626 12.1159 19.8789 12.8722 19.5505 13.4786C19.5472 13.4846 19.5438 13.4907 19.5404 13.4966L17.7904 16.5266C17.6196 16.8195 17.3471 17.0258 17.0215 17.1104C16.6977 17.1947 16.3603 17.1483 16.0713 16.9797L14.9137 16.308C14.3239 16.779 13.6836 17.1521 13.0011 17.4223V18.7609C13.0011 19.4508 12.4398 20.012 11.7499 20.012H8.24993C7.56003 20.012 6.99871 19.4508 6.99871 18.7609V17.4223C6.31625 17.1521 5.67598 16.779 5.08615 16.308L3.92695 16.9806C3.33003 17.3289 2.55963 17.1269 2.2111 16.5294L0.459433 13.4966C0.456025 13.4907 0.452617 13.4846 0.449353 13.4786C0.120937 12.8722 0.337273 12.1161 0.930985 11.7865L2.07545 11.1254C2.02447 10.7684 1.99875 10.3955 1.99875 10.0109C1.99875 9.62637 2.02447 9.25341 2.07545 8.89644L0.931033 8.23538C0.337177 7.90586 0.120889 7.14962 0.449401 6.54319C0.452617 6.53719 0.456025 6.53119 0.459433 6.52524L2.20947 3.49524C2.55953 2.89514 3.32988 2.69306 3.92835 3.04197L5.08615 3.71383C5.67598 3.24276 6.3161 2.8698 6.99871 2.59956V1.26093C6.99871 0.57103 7.56003 0.00976562 8.24993 0.00976562ZM11.4987 1.51217H8.50111V3.13092C8.50112 3.29138 8.44975 3.44763 8.35452 3.57678C8.25929 3.70593 8.12521 3.80119 7.97191 3.84861C7.13129 4.10863 6.35959 4.55796 5.67819 5.18407C5.5602 5.29246 5.41065 5.3603 5.25138 5.37767C5.09211 5.39505 4.93145 5.36105 4.79287 5.28065L3.38503 4.46373L1.88916 7.05377L3.28567 7.86045C3.42476 7.9408 3.53443 8.06362 3.59859 8.21088C3.66276 8.35814 3.67803 8.52209 3.64217 8.67866C3.54862 9.08714 3.50115 9.53537 3.50115 10.0109C3.50115 10.4865 3.54862 10.9348 3.64217 11.3431C3.67804 11.4997 3.66277 11.6637 3.59861 11.8109C3.53444 11.9582 3.42477 12.081 3.28567 12.1613L1.88916 12.9681L3.38503 15.5581L4.79287 14.7412C4.93145 14.6608 5.09211 14.6268 5.25138 14.6441C5.41065 14.6615 5.5602 14.7293 5.67819 14.8377C6.35969 15.4639 7.13138 15.9133 7.97187 16.1732C8.12517 16.2206 8.25926 16.3159 8.3545 16.445C8.44974 16.5742 8.50112 16.7304 8.50111 16.8909V18.5096H11.4987V16.8909C11.4987 16.5615 11.7133 16.2705 12.028 16.1732C12.8685 15.9133 13.6402 15.4639 14.3216 14.8377C14.4396 14.7293 14.5891 14.6615 14.7484 14.6441C14.9077 14.6267 15.0683 14.6607 15.2069 14.7412L16.6148 15.5581L18.1107 12.968L16.7142 12.1614C16.575 12.081 16.4654 11.9582 16.4012 11.8109C16.3371 11.6636 16.3218 11.4996 16.3577 11.343C16.4512 10.9349 16.4987 10.4867 16.4987 10.0109C16.4987 9.53517 16.4512 9.08695 16.3577 8.67871C16.3218 8.52213 16.337 8.35817 16.4012 8.2109C16.4654 8.06363 16.5751 7.9408 16.7142 7.86045L18.1107 7.05377L16.6148 4.46373L15.2069 5.28065C15.0683 5.36107 14.9077 5.39508 14.7484 5.37771C14.5891 5.36033 14.4396 5.29248 14.3216 5.18407C13.6403 4.55796 12.8686 4.10863 12.0279 3.84861C11.8746 3.80119 11.7405 3.70593 11.6453 3.57678C11.5501 3.44763 11.4987 3.29138 11.4987 3.13092V1.51217ZM3.17139 15.6821L3.17235 15.6815C3.17202 15.6817 3.1717 15.6819 3.17139 15.6821ZM9.99991 6.00972C10.339 6.00972 10.6851 6.05479 11.0283 6.14369C11.0367 6.14589 11.0451 6.1482 11.0534 6.15065C11.2974 6.22293 11.6594 6.34308 12.0022 6.55409C12.61 6.89799 13.1128 7.40074 13.4567 8.00848C13.6677 8.35116 13.7878 8.71341 13.8602 8.95749C13.8626 8.96575 13.8649 8.9741 13.8671 8.98245C13.956 9.32546 14.0011 9.67149 14.0011 10.0109C14.0011 10.3503 13.956 10.6963 13.8671 11.0394C13.8649 11.0478 13.8626 11.0561 13.8602 11.0645C13.7878 11.3085 13.6677 11.6707 13.4567 12.0133C13.1128 12.621 12.6101 13.1238 12.0024 13.4676C11.6598 13.6786 11.2975 13.7988 11.0534 13.8712C11.0452 13.8736 11.0368 13.8759 11.0285 13.8781C10.6854 13.967 10.3393 14.0121 9.99991 14.0121C9.66046 14.0121 9.31438 13.967 8.97137 13.8781C8.96303 13.8759 8.95472 13.8736 8.94646 13.8712C8.70233 13.7988 8.34007 13.6786 7.99745 13.4676C7.38974 13.1237 6.88702 12.621 6.54315 12.0133C6.33223 11.6708 6.21209 11.3086 6.13971 11.0645C6.13727 11.0562 6.13498 11.0479 6.13284 11.0395C6.04385 10.6965 5.99873 10.3504 5.99873 10.0109C5.99873 9.67135 6.04385 9.32527 6.13284 8.98231C6.135 8.97401 6.13726 8.9657 6.13971 8.95749C6.21209 8.71337 6.33219 8.35106 6.54315 8.00853C6.88705 7.4008 7.38978 6.89806 7.9975 6.55413C8.34031 6.34313 8.70247 6.22298 8.94646 6.15065C8.95481 6.1482 8.96311 6.14585 8.97156 6.14369C9.31471 6.05479 9.66075 6.00972 9.99991 6.00972ZM10.6393 7.59497C10.4232 7.54001 10.2081 7.51212 9.99991 7.51212C9.79169 7.51212 9.5767 7.53996 9.3606 7.59492C9.10716 7.6708 8.92174 7.74813 8.77798 7.83799C8.76779 7.84434 8.75745 7.85046 8.74697 7.85633C8.36902 8.06794 8.05698 8.38 7.84539 8.75796C7.83948 8.76852 7.83329 8.77893 7.82686 8.78916C7.73719 8.93268 7.65987 9.11801 7.58398 9.37169C7.52897 9.58745 7.50113 9.80249 7.50113 10.0109C7.50113 10.2193 7.52897 10.4343 7.58398 10.6502C7.65987 10.9038 7.73719 11.0892 7.82686 11.2326C7.83329 11.2429 7.83948 11.2533 7.84539 11.2638C8.05695 11.6418 8.36898 11.9539 8.74692 12.1655C8.75743 12.1714 8.76785 12.1775 8.77812 12.1839C8.92169 12.2737 9.10711 12.351 9.3607 12.4269C9.57655 12.4818 9.7915 12.5097 9.99991 12.5097C10.2083 12.5097 10.4233 12.4818 10.6392 12.4269C10.8927 12.351 11.0781 12.2737 11.2217 12.1839C11.232 12.1775 11.2423 12.1713 11.2529 12.1654C11.6309 11.9539 11.9429 11.6418 12.1545 11.2638C12.1604 11.2533 12.1665 11.243 12.1729 11.2327C12.2627 11.0891 12.34 10.9038 12.4159 10.6502C12.4709 10.4343 12.4987 10.2193 12.4987 10.0109C12.4987 9.80253 12.4709 9.58759 12.4159 9.37173C12.3401 9.1181 12.2627 8.93273 12.1729 8.78906C12.1665 8.77884 12.1604 8.76847 12.1545 8.75796C11.9429 8.37999 11.6308 8.06793 11.2529 7.85633C11.2424 7.85047 11.2321 7.84433 11.2218 7.83799C11.078 7.74813 10.8927 7.67081 10.6393 7.59497Z" fill="#252626"/>
</svg>
