<svg width="18" height="18" viewBox="0 0 18 18" fill="none" xmlns="http://www.w3.org/2000/svg">
<path d="M7.54175 0.67488H10.4584C11.0333 0.67488 11.5011 1.1426 11.5011 1.71752V2.83304C12.0699 3.05824 12.6034 3.36904 13.0949 3.7616L14.0609 3.20108C14.5584 2.91096 15.2004 3.07932 15.4908 3.57708L16.9505 6.10444C16.9533 6.1094 16.9562 6.1144 16.9588 6.1194C17.2326 6.62476 17.0523 7.255 16.5574 7.5296L15.6038 8.08044C15.6463 8.37788 15.6677 8.6886 15.6677 9.00916C15.6677 9.32972 15.6463 9.64052 15.6038 9.93792L16.5575 10.4888C17.0523 10.7634 17.2326 11.3936 16.9589 11.8989C16.9562 11.9039 16.9534 11.909 16.9505 11.9139L15.4922 14.4389C15.3498 14.683 15.1227 14.8549 14.8513 14.9254C14.5815 14.9957 14.3004 14.957 14.0596 14.8165L13.0949 14.2567C12.6034 14.6493 12.0698 14.9602 11.5011 15.1853V16.3008C11.5011 16.8757 11.0333 17.3434 10.4584 17.3434H7.54175C6.96683 17.3434 6.49907 16.8757 6.49907 16.3008V15.1853C5.93035 14.9602 5.39679 14.6493 4.90527 14.2567L3.93927 14.8173C3.44183 15.1075 2.79983 14.9392 2.50939 14.4413L1.04967 11.9139C1.04683 11.909 1.04399 11.9039 1.04127 11.8989C0.76759 11.3936 0.94787 10.7635 1.44263 10.4888L2.39635 9.93792C2.35387 9.64044 2.33243 9.32964 2.33243 9.00916C2.33243 8.68872 2.35387 8.37792 2.39635 8.08044L1.44267 7.52956C0.94779 7.25496 0.76755 6.62476 1.04131 6.1194C1.04399 6.1144 1.04683 6.1094 1.04967 6.10444L2.50803 3.57944C2.79975 3.07936 3.44171 2.91096 3.94043 3.20172L4.90527 3.7616C5.39679 3.36904 5.93023 3.05824 6.49907 2.83304V1.71752C6.49907 1.1426 6.96683 0.67488 7.54175 0.67488ZM10.2491 1.92688H7.75107V3.27584C7.75108 3.40956 7.70827 3.53977 7.62891 3.64739C7.54955 3.75502 7.43782 3.8344 7.31007 3.87392C6.60955 4.0906 5.96647 4.46504 5.39863 4.9868C5.30031 5.07713 5.17569 5.13366 5.04296 5.14814C4.91023 5.16261 4.77635 5.13428 4.66087 5.06728L3.48767 4.38652L2.24111 6.54488L3.40487 7.21712C3.52078 7.28408 3.61217 7.38643 3.66564 7.50914C3.71911 7.63186 3.73183 7.76848 3.70195 7.89896C3.62399 8.23936 3.58443 8.61288 3.58443 9.00916C3.58443 9.40548 3.62399 9.77904 3.70195 10.1194C3.73184 10.2498 3.71912 10.3865 3.66565 10.5092C3.61218 10.6319 3.52078 10.7342 3.40487 10.8012L2.24111 11.4735L3.48767 13.6318L4.66087 12.951C4.77635 12.884 4.91023 12.8557 5.04296 12.8702C5.17569 12.8847 5.30031 12.9412 5.39863 13.0315C5.96655 13.5534 6.60963 13.9278 7.31003 14.1444C7.43778 14.1839 7.54952 14.2633 7.62889 14.3709C7.70826 14.4786 7.75107 14.6088 7.75107 14.7425V16.0914H10.2491V14.7425C10.2491 14.468 10.4279 14.2255 10.6901 14.1444C11.3906 13.9278 12.0336 13.5534 12.6015 13.0315C12.6998 12.9412 12.8244 12.8846 12.9571 12.8702C13.0899 12.8557 13.2238 12.884 13.3392 12.951L14.5125 13.6318L15.7591 11.4734L14.5953 10.8012C14.4793 10.7343 14.3879 10.6319 14.3345 10.5092C14.281 10.3864 14.2683 10.2498 14.2982 10.1193C14.3762 9.77916 14.4157 9.40564 14.4157 9.00916C14.4157 8.61272 14.3762 8.2392 14.2982 7.899C14.2683 7.76851 14.281 7.63188 14.3345 7.50916C14.3879 7.38643 14.4794 7.28408 14.5953 7.21712L15.7591 6.54488L14.5125 4.38652L13.3392 5.06728C13.2238 5.1343 13.0899 5.16264 12.9571 5.14816C12.8244 5.13369 12.6998 5.07714 12.6015 4.9868C12.0337 4.46504 11.3906 4.0906 10.6901 3.87392C10.5623 3.8344 10.4506 3.75502 10.3712 3.64739C10.2919 3.53977 10.2491 3.40956 10.2491 3.27584V1.92688ZM3.30963 13.7351L3.31043 13.7347C3.31016 13.7348 3.30989 13.735 3.30963 13.7351ZM9.00007 5.67484C9.28267 5.67484 9.57107 5.7124 9.85707 5.78648C9.86407 5.78832 9.87103 5.79024 9.87799 5.79228C10.0813 5.85252 10.383 5.95264 10.6687 6.12848C11.1751 6.41507 11.5941 6.83402 11.8808 7.34048C12.0566 7.62604 12.1567 7.92792 12.217 8.13132C12.219 8.1382 12.2209 8.14516 12.2227 8.15212C12.2968 8.43796 12.3344 8.72632 12.3344 9.00916C12.3344 9.292 12.2968 9.58036 12.2227 9.86624C12.2209 9.87324 12.219 9.8802 12.217 9.88712C12.1566 10.0905 12.0566 10.3923 11.8808 10.6778C11.5942 11.1843 11.1752 11.6032 10.6688 11.8898C10.3833 12.0656 10.0814 12.1658 9.87799 12.226C9.8711 12.2281 9.86418 12.23 9.85723 12.2318C9.57135 12.3059 9.28291 12.3435 9.00007 12.3435C8.71719 12.3435 8.42879 12.3059 8.14295 12.2318C8.136 12.23 8.12908 12.2281 8.12219 12.226C7.91875 12.1657 7.61687 12.0656 7.33135 11.8898C6.82492 11.6032 6.40599 11.1842 6.11943 10.6778C5.94367 10.3924 5.84355 10.0906 5.78323 9.88712C5.7812 9.88023 5.77929 9.87331 5.77751 9.86636C5.70335 9.58052 5.66575 9.29208 5.66575 9.00916C5.66575 8.7262 5.70335 8.4378 5.77751 8.152C5.77931 8.14508 5.78119 8.13816 5.78323 8.13132C5.84355 7.92788 5.94363 7.62596 6.11943 7.34052C6.40602 6.83408 6.82496 6.41512 7.33139 6.12852C7.61707 5.95268 7.91887 5.85256 8.12219 5.79228C8.12915 5.79024 8.13607 5.78828 8.14311 5.78648C8.42907 5.7124 8.71743 5.67484 9.00007 5.67484ZM9.53287 6.99588C9.35279 6.95008 9.17359 6.92684 9.00007 6.92684C8.82655 6.92684 8.64739 6.95004 8.46731 6.99584C8.25611 7.05908 8.10159 7.12352 7.98179 7.1984C7.9733 7.20369 7.96468 7.20879 7.95595 7.21368C7.64099 7.39003 7.38096 7.65007 7.20463 7.96504C7.19971 7.97384 7.19455 7.98252 7.18919 7.99104C7.11447 8.11064 7.05003 8.26508 6.98679 8.47648C6.94095 8.65628 6.91775 8.83548 6.91775 9.00916C6.91775 9.18284 6.94095 9.362 6.98679 9.54188C7.05003 9.75328 7.11447 9.90772 7.18919 10.0273C7.19455 10.0358 7.19971 10.0445 7.20463 10.0533C7.38094 10.3683 7.64096 10.6283 7.95591 10.8046C7.96467 10.8096 7.97335 10.8147 7.98191 10.82C8.10155 10.8948 8.25607 10.9592 8.46739 11.0225C8.64727 11.0683 8.82639 11.0915 9.00007 11.0915C9.17371 11.0915 9.35287 11.0683 9.53279 11.0225C9.74407 10.9592 9.89855 10.8948 10.0182 10.82C10.0268 10.8147 10.0354 10.8095 10.0442 10.8046C10.3592 10.6283 10.6192 10.3683 10.7955 10.0533C10.8005 10.0445 10.8055 10.0359 10.8109 10.0274C10.8857 9.90768 10.9502 9.75324 11.0134 9.54192C11.0592 9.362 11.0824 9.1828 11.0824 9.00916C11.0824 8.83552 11.0592 8.6564 11.0134 8.47652C10.9502 8.26516 10.8857 8.11068 10.8109 7.99096C10.8056 7.98244 10.8005 7.9738 10.7955 7.96504C10.6192 7.65006 10.3592 7.39002 10.0442 7.21368C10.0355 7.2088 10.0269 7.20368 10.0183 7.1984C9.89851 7.12352 9.74403 7.05908 9.53287 6.99588Z" fill="#212121"/>
</svg>
