<svg width="16" height="16" viewBox="0 0 16 16" fill="none" xmlns="http://www.w3.org/2000/svg">
<path d="M12.1659 9.66642C11.2527 9.66642 10.4462 10.0972 9.91123 10.7563L5.81939 8.71074C5.87687 8.48162 5.91687 8.24666 5.91687 8.00002C5.91687 7.75338 5.87687 7.51762 5.81939 7.2893L9.91039 5.24378C10.4453 5.90286 11.2527 6.33362 12.1659 6.33362C13.774 6.33362 15.0821 5.0255 15.0821 3.41742C15.0821 1.80934 13.774 0.501221 12.1659 0.501221C10.5578 0.501221 9.24967 1.80934 9.24967 3.41742C9.24967 3.66406 9.28967 3.89902 9.34715 4.12814L5.25531 6.17366C4.72039 5.51458 3.91387 5.08382 3.00067 5.08382C1.39259 5.08382 0.0844727 6.39194 0.0844727 8.00002C0.0844727 9.6081 1.39259 10.9162 3.00067 10.9162C3.91387 10.9162 4.72039 10.4854 5.25531 9.82638L9.34715 11.8719C9.28967 12.101 9.24967 12.336 9.24967 12.5826C9.24967 14.1907 10.5578 15.4988 12.1659 15.4988C13.774 15.4988 15.0821 14.1907 15.0821 12.5826C15.0821 10.9745 13.774 9.66642 12.1659 9.66642ZM12.1659 1.75102C13.0849 1.75102 13.8323 2.49842 13.8323 3.41742C13.8323 4.33642 13.0849 5.08382 12.1659 5.08382C11.2469 5.08382 10.4995 4.33642 10.4995 3.41742C10.4995 2.49842 11.2469 1.75102 12.1659 1.75102ZM3.00067 9.66642C2.08167 9.66642 1.33427 8.91902 1.33427 8.00002C1.33427 7.08102 2.08167 6.33362 3.00067 6.33362C3.91967 6.33362 4.66707 7.08102 4.66707 8.00002C4.66707 8.91902 3.91967 9.66642 3.00067 9.66642ZM12.1659 14.249C11.2469 14.249 10.4995 13.5016 10.4995 12.5826C10.4995 11.6636 11.2469 10.9162 12.1659 10.9162C13.0849 10.9162 13.8323 11.6636 13.8323 12.5826C13.8323 13.5016 13.0849 14.249 12.1659 14.249Z" fill="#9C9C9C"/>
</svg>
