<svg width="20" height="20" viewBox="0 0 20 20" fill="none" xmlns="http://www.w3.org/2000/svg">
<path d="M9.99977 -0.00146484C4.48505 -0.00146484 -0.00146484 4.48505 -0.00146484 9.99977C-0.00146484 15.5145 4.48505 20.001 9.99977 20.001C15.5145 20.001 20.001 15.5145 20.001 9.99977C20.001 4.48505 15.5145 -0.00146484 9.99977 -0.00146484ZM9.99977 18.4986C5.31348 18.4986 1.50094 14.6861 1.50094 9.99977C1.50094 5.31348 5.31348 1.50094 9.99977 1.50094C14.6861 1.50094 18.4986 5.31348 18.4986 9.99977C18.4986 14.6861 14.6861 18.4986 9.99977 18.4986Z" fill="#3E0190"/>
<path d="M9.99644 6.501C9.99764 6.501 9.99879 6.50114 9.99999 6.50114L10.0032 6.501C10.7593 6.50258 11.374 7.11823 11.374 7.87476C11.374 8.28962 11.7103 8.62596 12.1252 8.62596C12.5402 8.62596 12.8764 8.28962 12.8764 7.87476C12.8764 6.54857 11.974 5.42978 10.7512 5.09863V3.74974C10.7512 3.33487 10.4149 2.99854 9.99999 2.99854C9.58508 2.99854 9.24874 3.33487 9.24874 3.74974V5.07886C7.98222 5.35946 7.12402 6.35057 7.12402 7.63942C7.12402 9.1229 8.10706 9.69257 8.89695 10.1502C8.98182 10.1994 9.06793 10.2493 9.15457 10.3011L9.23372 10.3484C11.0507 11.4352 11.374 11.6826 11.374 12.359C11.374 13.1985 10.6368 13.4974 10.0038 13.4985C10.0026 13.4985 10.0014 13.4983 10.0002 13.4983C9.99903 13.4983 9.99788 13.4985 9.99668 13.4985C9.3637 13.4974 8.62642 13.1985 8.62642 12.359C8.62642 11.9442 8.29014 11.6078 7.87522 11.6078C7.46031 11.6078 7.12402 11.9442 7.12402 12.359C7.12402 13.6485 7.98236 14.64 9.24903 14.9207V16.2498C9.24903 16.6647 9.58532 17.001 10.0002 17.001C10.4151 17.001 10.7515 16.6647 10.7515 16.2498V14.9207C12.0182 14.64 12.8764 13.6485 12.8764 12.359C12.8764 11.593 12.6143 10.9863 12.0513 10.4492C11.5842 10.0037 10.9217 9.60742 10.0049 9.05906L9.92593 9.01178C9.8344 8.95732 9.74249 8.9035 9.65022 8.85031C8.88951 8.40953 8.62642 8.22718 8.62642 7.63942C8.62642 6.80076 9.36351 6.5022 9.99644 6.501Z" fill="#3E0190"/>
</svg>
