<svg width="21" height="21" viewBox="0 0 21 21" fill="none" xmlns="http://www.w3.org/2000/svg">
<path d="M10.5 0.0820312C4.75548 0.0820312 0.0820312 4.75548 0.0820312 10.5C0.0820312 16.2445 4.75548 20.9179 10.5 20.9179C16.2445 20.9179 20.9179 16.2445 20.9179 10.5C20.9179 4.75548 16.2445 0.0820312 10.5 0.0820312ZM10.5 19.3529C5.61843 19.3529 1.64703 15.3815 1.64703 10.5C1.64703 5.61843 5.61843 1.64703 10.5 1.64703C15.3815 1.64703 19.3529 5.61843 19.3529 10.5C19.3529 15.3815 15.3815 19.3529 10.5 19.3529Z" fill="#252626"/>
<path d="M10.4965 6.85568C10.4977 6.85568 10.4989 6.85583 10.5002 6.85583L10.5035 6.85568C11.2911 6.85733 11.9315 7.49863 11.9315 8.28668C11.9315 8.71883 12.2818 9.06918 12.714 9.06918C13.1462 9.06918 13.4965 8.71883 13.4965 8.28668C13.4965 6.90523 12.5565 5.73983 11.2827 5.39488V3.98978C11.2827 3.55763 10.9324 3.20728 10.5002 3.20728C10.068 3.20728 9.71764 3.55763 9.71764 3.98978V5.37428C8.39834 5.66658 7.50439 6.69898 7.50439 8.04153C7.50439 9.58683 8.52839 10.1802 9.35119 10.657C9.43959 10.7082 9.52929 10.7601 9.61954 10.8141L9.70199 10.8634C11.5946 11.9954 11.9315 12.2532 11.9315 12.9578C11.9315 13.8323 11.1635 14.1436 10.5042 14.1448C10.5029 14.1448 10.5017 14.1446 10.5004 14.1446C10.4992 14.1446 10.498 14.1448 10.4967 14.1448C9.83739 14.1436 9.06939 13.8323 9.06939 12.9578C9.06939 12.5256 8.71909 12.1753 8.28689 12.1753C7.85469 12.1753 7.50439 12.5256 7.50439 12.9578C7.50439 14.301 8.39849 15.3338 9.71794 15.6262V17.0107C9.71794 17.4428 10.0682 17.7932 10.5004 17.7932C10.9326 17.7932 11.283 17.4428 11.283 17.0107V15.6262C12.6024 15.3338 13.4965 14.301 13.4965 12.9578C13.4965 12.1599 13.2234 11.5278 12.6369 10.9684C12.1504 10.5043 11.4603 10.0915 10.5053 9.52033L10.423 9.47108C10.3277 9.41435 10.232 9.35828 10.1358 9.30288C9.34344 8.84373 9.06939 8.65378 9.06939 8.04153C9.06939 7.16793 9.83719 6.85693 10.4965 6.85568Z" fill="#252626"/>
</svg>
