<svg width="19" height="19" viewBox="0 0 19 19" fill="none" xmlns="http://www.w3.org/2000/svg">
<path d="M18.647 13.1135C18.3415 12.808 17.8459 12.8079 17.5404 13.1135L14.4488 16.2049L14.4491 6.11478C14.4491 5.68263 14.0988 5.33228 13.6666 5.33228C13.2344 5.33228 12.8841 5.68258 12.8841 6.11473L12.8838 16.2049L9.79279 13.114C9.48714 12.8084 8.99174 12.8084 8.68619 13.114C8.38064 13.4196 8.38064 13.915 8.68619 14.2206L13.1129 18.6473C13.1143 18.6487 13.1158 18.6498 13.1172 18.6512C13.1342 18.6679 13.1518 18.6839 13.1702 18.699C13.1797 18.7068 13.1897 18.7137 13.1995 18.721C13.2102 18.7289 13.2206 18.7372 13.2316 18.7446C13.2431 18.7523 13.255 18.759 13.2668 18.766C13.2769 18.772 13.2868 18.7784 13.2973 18.784C13.3092 18.7904 13.3215 18.7958 13.3337 18.8015C13.3446 18.8067 13.3554 18.8122 13.3667 18.8168C13.3785 18.8217 13.3907 18.8257 13.4027 18.83C13.4148 18.8343 13.4266 18.8389 13.4389 18.8427C13.451 18.8463 13.4632 18.849 13.4754 18.8521C13.488 18.8552 13.5004 18.8588 13.5132 18.8613C13.5271 18.8641 13.5412 18.8657 13.5552 18.8677C13.5665 18.8693 13.5776 18.8715 13.589 18.8726C13.6147 18.8751 13.6404 18.8765 13.6662 18.8765C13.692 18.8765 13.7178 18.8751 13.7435 18.8726C13.7551 18.8714 13.7663 18.8693 13.7778 18.8676C13.7916 18.8656 13.8054 18.864 13.8191 18.8613C13.8322 18.8587 13.8448 18.8552 13.8576 18.8519C13.8696 18.8489 13.8816 18.8463 13.8935 18.8427C13.9059 18.839 13.9179 18.8343 13.93 18.8299C13.942 18.8257 13.954 18.8217 13.9658 18.8168C13.977 18.8121 13.9878 18.8067 13.9988 18.8015C14.011 18.7958 14.0233 18.7904 14.0352 18.784C14.0456 18.7784 14.0556 18.772 14.0657 18.7659C14.0775 18.7589 14.0894 18.7523 14.1008 18.7446C14.112 18.7371 14.1225 18.7288 14.1333 18.7207C14.1429 18.7135 14.1528 18.7068 14.1622 18.6991C14.1822 18.6827 14.2014 18.6655 14.2196 18.6472L18.6469 14.2202C18.9525 13.9146 18.9525 13.4191 18.647 13.1135Z" fill="#252626"/>
<path d="M9.20689 5.8864C9.51254 6.19195 10.0079 6.192 10.3135 5.8864C10.619 5.5808 10.619 5.0854 10.3135 4.7798L5.88674 0.353098C5.88539 0.351748 5.88384 0.350648 5.88249 0.349298C5.86556 0.332524 5.84787 0.316524 5.82949 0.301348C5.82009 0.293648 5.81024 0.286948 5.80059 0.279748C5.78979 0.271698 5.77919 0.263298 5.76799 0.255798C5.75669 0.248248 5.74494 0.241648 5.73334 0.234748C5.72304 0.228598 5.71289 0.222098 5.70229 0.216398C5.69049 0.210098 5.67839 0.204748 5.66639 0.199098C5.65529 0.193848 5.64434 0.188348 5.63294 0.183598C5.62119 0.178748 5.60914 0.174798 5.59724 0.170548C5.58509 0.166198 5.57314 0.161498 5.56069 0.157748C5.54864 0.154098 5.53639 0.151398 5.52419 0.148348C5.51164 0.145198 5.49924 0.141698 5.48644 0.139148C5.47214 0.136298 5.45769 0.134598 5.44329 0.132548C5.43244 0.130998 5.42179 0.128948 5.41079 0.127848C5.35932 0.122749 5.30746 0.122749 5.25599 0.127848C5.24539 0.128898 5.23514 0.130898 5.22469 0.132348C5.20984 0.134398 5.19499 0.136198 5.18024 0.139148C5.16794 0.141598 5.15604 0.144998 5.14394 0.147998C5.13124 0.151148 5.11849 0.153998 5.10594 0.157798C5.09409 0.161398 5.08264 0.165848 5.07099 0.169998C5.05849 0.174448 5.04599 0.178548 5.03369 0.183648C5.02284 0.188148 5.01249 0.193498 5.00189 0.198448C4.98929 0.204348 4.97664 0.209898 4.96434 0.216498C4.95424 0.221898 4.94464 0.228148 4.93479 0.233998C4.92274 0.241148 4.91054 0.247998 4.89879 0.255848C4.88779 0.263198 4.87744 0.271448 4.86684 0.279348C4.85704 0.286648 4.84699 0.293498 4.83744 0.301348C4.81749 0.317698 4.79829 0.334948 4.78009 0.353198L0.352741 4.78025C0.0471414 5.0858 0.0471414 5.5813 0.352691 5.8869C0.425267 5.95967 0.511511 6.01739 0.606466 6.05672C0.70142 6.09606 0.803213 6.11623 0.905991 6.1161C1.10624 6.1161 1.30649 6.0397 1.45924 5.8869L4.55084 2.79555L4.55059 12.8856C4.55059 13.3178 4.90089 13.6681 5.33309 13.6681C5.76524 13.6681 6.11554 13.3178 6.11559 12.8857L6.11589 2.7955L9.20689 5.8864Z" fill="#252626"/>
</svg>
