<svg width="87" height="132" viewBox="0 0 87 132" fill="none" xmlns="http://www.w3.org/2000/svg">
<path d="M106.082 52.9454C107.035 56.5019 95.1323 62.8809 78.3093 68.1937L78.3222 68.1963C75.5288 69.1097 72.7067 69.9329 69.8604 70.6649C65.4397 71.8494 62.2779 72.5564 61.1633 72.8002C43.9022 76.6141 30.3706 77.0502 29.4161 73.488C28.4616 69.9258 40.3968 63.532 57.2508 58.1987L60.3674 69.8298C61.5025 69.6171 64.7477 68.9488 69.1626 67.7659C74.4572 66.3472 77.0463 65.4095 77.518 65.2404L74.403 53.615C91.63 49.8102 105.129 49.389 106.082 52.9454ZM136.367 48.1607L86.5599 130.582C86.4187 130.816 86.1929 130.986 85.9297 131.056C85.6664 131.127 85.386 131.093 85.1469 130.961L0.807995 84.4835C0.610875 84.3774 0.452773 84.2109 0.356886 84.0082C0.260999 83.8056 0.232375 83.5776 0.275211 83.3577L11.0927 24.3981C11.1264 24.1995 11.217 24.015 11.3532 23.867C11.4895 23.7189 11.6658 23.6138 11.8606 23.5642L96.3463 0.92628C96.5379 0.87588 96.7398 0.881369 96.9285 0.942098C97.1172 1.00283 97.2847 1.11628 97.4113 1.2691L136.265 46.9194C136.412 47.0884 136.501 47.3002 136.52 47.5236C136.538 47.747 136.484 47.9703 136.367 48.1607ZM110.339 52.6708C109.11 48.0844 93.6004 48.1295 74.0952 52.3984L71.308 41.9965L95.0626 35.6315L90.8086 19.7554L26.1334 37.085L30.3874 52.9611L54.1362 46.5976L56.925 57.0053C37.8573 63.0659 24.369 70.7907 25.5994 75.3828C26.8314 79.9806 42.372 79.915 61.9184 75.6412L70.8564 108.998L88.0225 104.398L79.0815 71.0301C98.1022 64.976 111.569 57.2629 110.339 52.6708Z" fill="#D5D5D5"/>
</svg>
