<svg width="110" height="202" viewBox="0 0 110 202" fill="none" xmlns="http://www.w3.org/2000/svg">
<path d="M88.2797 31.0518C91.9463 37.7361 89.7152 46.1972 83.2972 49.9507C76.8783 53.7039 68.7024 51.328 65.0358 44.6436C61.369 37.9597 63.5997 29.4984 70.0185 25.7452C76.4366 21.9917 84.6127 24.3675 88.2797 31.0518Z" fill="#3E0190"/>
<path d="M85.514 32.6694C88.3082 37.7629 86.6082 44.2109 81.7165 47.0711C76.8254 49.9312 70.5948 48.1205 67.8006 43.027C65.0066 37.9331 66.7065 31.4851 71.5976 28.6251C76.4891 25.7653 82.7197 27.5756 85.514 32.6694Z" fill="#661FC6"/>
<path d="M85.3959 32.4657C85.343 32.4993 85.081 32.1136 84.5466 31.4854C84.0111 30.8634 83.1794 29.9974 81.9548 29.2367C81.3441 28.8584 80.6391 28.5077 79.8483 28.2363C79.0567 27.9724 78.1825 27.778 77.2532 27.7255C76.7889 27.6972 76.3113 27.697 75.8278 27.7429C75.3443 27.7859 74.8522 27.8581 74.363 27.9832C73.874 28.1061 73.3822 28.2598 72.9023 28.4664C72.4223 28.6719 71.9501 28.9162 71.4921 29.1996C71.0375 29.4895 70.6101 29.81 70.2127 30.1555C69.8143 30.501 69.4562 30.8812 69.1254 31.2727C68.7932 31.6641 68.5047 32.082 68.2454 32.5055C67.9837 32.9278 67.7647 33.3659 67.5757 33.8043C67.1941 34.6807 66.9596 35.5717 66.8236 36.4181C66.6942 37.2672 66.6721 38.0749 66.717 38.8086C66.8096 40.2802 67.1731 41.4401 67.4624 42.2166C67.7578 42.9945 67.9694 43.4122 67.9159 43.445C67.8771 43.4705 67.5756 43.1077 67.1841 42.3459C66.7997 41.587 66.3343 40.4041 66.1632 38.8556C66.0794 38.0838 66.0688 37.2261 66.1781 36.3167C66.2942 35.4096 66.5202 34.45 66.9108 33.5006C67.1042 33.0258 67.3315 32.5506 67.6062 32.0917C67.8783 31.6316 68.184 31.1774 68.5377 30.7513C68.8902 30.3247 69.2743 29.9115 69.7024 29.5363C70.1295 29.1607 70.5903 28.814 71.0804 28.5017C71.5742 28.1958 72.0844 27.9331 72.6037 27.7144C73.123 27.4946 73.6555 27.3325 74.1844 27.2052C74.7134 27.0763 75.2449 27.0049 75.7659 26.9673C76.2871 26.9264 76.8009 26.9361 77.298 26.9768C78.2945 27.0551 79.2244 27.2885 80.0587 27.5986C80.8909 27.9161 81.6253 28.3198 82.2509 28.7509C83.5052 29.6189 84.3096 30.5886 84.7867 31.2897C85.2617 31.9985 85.4351 32.4414 85.3959 32.4657Z" fill="#3E0190"/>
<g opacity="0.3">
<path d="M79.7056 41.6501L80.3855 43.0121L79.2197 43.6285L78.5586 42.3034C77.3683 42.8411 76.073 43.0504 75.171 42.8666L75.0714 41.0438C75.8791 41.1853 76.8817 41.0694 77.7638 40.7104L76.75 38.6796C75.2927 39.0365 73.6227 39.3514 72.755 37.6122C72.1119 36.3233 72.4572 34.7419 74.1896 33.5486L73.5161 32.1985L74.6818 31.5816L75.3434 32.9073C76.254 32.5176 77.226 32.3102 78.0793 32.3967L78.2431 34.2008C77.4726 34.1629 76.7634 34.2768 76.144 34.5121L77.1756 36.5796C78.6269 36.2108 80.2737 35.9085 81.1293 37.6226C81.7602 38.8874 81.4203 40.4504 79.7056 41.6501ZM75.8584 36.8921L74.9965 35.1656C74.4515 35.6383 74.3829 36.1206 74.5832 36.5221C74.7954 36.9474 75.2607 36.9937 75.8584 36.8921ZM79.3257 38.7619C79.113 38.3362 78.6601 38.2842 78.0675 38.3667L78.9048 40.0448C79.4211 39.6027 79.5198 39.1508 79.3257 38.7619Z" fill="#3E0190"/>
</g>
<path d="M41.065 97.1267C43.8096 102.131 42.1397 108.465 37.3348 111.275C32.5295 114.085 26.4091 112.306 23.664 107.302C20.9186 102.298 22.589 95.9638 27.3943 93.154C32.1992 90.3443 38.3196 92.123 41.065 97.1267Z" fill="#3E0190"/>
<path d="M38.9947 98.3377C41.0864 102.151 39.8138 106.978 36.1518 109.119C32.4902 111.26 27.8259 109.905 25.7341 106.092C23.6424 102.278 24.915 97.451 28.5765 95.3099C32.2386 93.1691 36.903 94.5244 38.9947 98.3377Z" fill="#661FC6"/>
<path d="M38.9082 98.1839C38.8685 98.2091 38.6723 97.9201 38.2725 97.4501C37.8718 96.9843 37.2491 96.3364 36.3321 95.767C35.875 95.4838 35.3472 95.2213 34.755 95.0183C34.1624 94.8206 33.508 94.6755 32.8122 94.6359C32.4647 94.6149 32.1072 94.6148 31.7451 94.6487C31.3832 94.6809 31.015 94.7351 30.6482 94.8285C30.2821 94.9204 29.9142 95.0355 29.5548 95.19C29.1955 95.344 28.8419 95.5266 28.499 95.7389C28.1588 95.956 27.8387 96.196 27.5411 96.4546C27.2426 96.7131 26.9749 96.9979 26.7269 97.2909C26.4781 97.5839 26.2624 97.8966 26.0684 98.2138C25.8724 98.5302 25.7088 98.8581 25.5669 99.1863C25.2813 99.8422 25.1056 100.509 25.0041 101.143C24.9072 101.779 24.8905 102.384 24.9243 102.933C24.9936 104.035 25.2654 104.903 25.4823 105.484C25.7035 106.067 25.8619 106.379 25.8216 106.404C25.7927 106.423 25.5668 106.151 25.2738 105.581C24.986 105.013 24.6376 104.128 24.5095 102.968C24.4469 102.39 24.4389 101.748 24.5207 101.068C24.6077 100.389 24.7769 99.6702 25.0693 98.9592C25.2142 98.6035 25.3843 98.2479 25.59 97.9045C25.794 97.5599 26.0225 97.22 26.2875 96.9012C26.5516 96.5818 26.8389 96.2727 27.1594 95.9918C27.4791 95.7109 27.8242 95.4511 28.1911 95.2174C28.5609 94.9885 28.9425 94.7917 29.3315 94.628C29.7204 94.4634 30.1189 94.3421 30.5146 94.2468C30.9108 94.1505 31.3085 94.0969 31.6988 94.0686C32.0889 94.0379 32.4736 94.0453 32.8459 94.076C33.5916 94.1346 34.288 94.3091 34.9126 94.5415C35.5354 94.7793 36.0851 95.0814 36.5537 95.4044C37.4927 96.0545 38.095 96.7804 38.4521 97.3051C38.8077 97.8343 38.9375 98.1659 38.9082 98.1839Z" fill="#3E0190"/>
<g opacity="0.3">
<path d="M35.3744 105.883L36.0504 107.073L35.0326 107.687L34.3754 106.53C33.3316 107.075 32.1778 107.33 31.3586 107.211L31.1821 105.576C31.9143 105.662 32.8098 105.506 33.5851 105.138L32.5776 103.363C31.2852 103.759 29.8 104.128 28.9372 102.609C28.2979 101.482 28.5329 100.042 30.0321 98.8797L29.3626 97.6999L30.3805 97.0847L31.038 98.2433C31.8374 97.8458 32.7011 97.6092 33.4719 97.643L33.7052 99.2573C33.0113 99.2629 32.3792 99.402 31.8343 99.6455L32.8598 101.452C34.1462 101.045 35.6112 100.689 36.4617 102.186C37.0882 103.292 36.8577 104.715 35.3744 105.883ZM31.6907 101.801L30.834 100.293C30.3669 100.746 30.3283 101.183 30.5273 101.534C30.7383 101.906 31.1584 101.923 31.6907 101.801ZM34.8951 103.304C34.6836 102.932 34.2741 102.909 33.7458 103.013L34.5783 104.479C35.0211 104.056 35.088 103.644 34.8951 103.304Z" fill="#3E0190"/>
</g>
<path d="M138.351 86.2482L162.844 150.848C164.185 154.382 162.517 158.348 159.12 159.704L68.9228 195.708C65.5251 197.065 61.6845 195.298 60.3443 191.763L35.8506 127.164C34.5103 123.629 36.1782 119.664 39.5755 118.308L129.772 82.3033C133.17 80.9472 137.01 82.7131 138.351 86.2482Z" fill="#00DE93"/>
<path d="M138.331 86.2276C138.331 86.2276 138.295 86.1522 138.228 86.0019C138.156 85.8539 138.075 85.6192 137.904 85.3422C137.597 84.7767 137.044 83.9554 136.051 83.1937C135.553 82.8229 134.951 82.4623 134.231 82.2111C133.513 81.965 132.684 81.8189 131.79 81.8662C131.567 81.8738 131.342 81.9151 131.112 81.9385C130.883 81.9774 130.655 82.0395 130.42 82.0902C130.192 82.1684 129.96 82.2479 129.725 82.3289C129.492 82.4222 129.256 82.517 129.016 82.6134C128.054 82.9992 127.03 83.4098 125.946 83.8447C117.266 87.3198 104.71 92.3467 89.1949 98.5584C81.4356 101.662 72.9369 105.06 63.813 108.71C59.251 110.533 54.5324 112.42 49.6723 114.363C47.2423 115.335 44.7764 116.32 42.2773 117.319C41.6525 117.569 41.0254 117.82 40.3965 118.071C39.7685 118.33 39.1294 118.55 38.5664 118.929C38.001 119.297 37.4824 119.748 37.043 120.277C36.6127 120.814 36.2584 121.418 35.9962 122.066C35.7267 122.712 35.5839 123.413 35.5277 124.117C35.4736 124.823 35.5212 125.544 35.6958 126.236C35.8597 126.928 36.1455 127.598 36.3991 128.28C36.6567 128.96 36.9156 129.642 37.1747 130.325C38.2117 133.061 39.261 135.828 40.3209 138.624C42.4411 144.218 44.6058 149.928 46.8095 155.742C51.2163 167.37 55.7789 179.409 60.4516 191.739C61.0303 193.26 62.1423 194.547 63.5314 195.298C64.913 196.06 66.5562 196.284 68.0579 195.9C68.8046 195.712 69.5253 195.378 70.2563 195.096C70.9851 194.805 71.7124 194.515 72.4384 194.225C73.8906 193.645 75.3379 193.067 76.7797 192.491C82.5471 190.188 88.2304 187.919 93.8146 185.689C104.983 181.23 115.757 176.93 126.019 172.833C136.282 168.737 146.035 164.845 155.162 161.203C156.303 160.748 157.434 160.296 158.555 159.849C159.12 159.629 159.664 159.397 160.165 159.075C160.655 158.742 161.125 158.37 161.507 157.914C161.716 157.702 161.873 157.446 162.055 157.213C162.201 156.954 162.376 156.712 162.493 156.437C162.768 155.909 162.937 155.333 163.067 154.756C163.292 153.593 163.239 152.375 162.872 151.265C161.242 146.848 159.611 142.617 158.091 138.574C151.979 122.407 147.033 109.323 143.614 100.28C141.909 95.7583 140.586 92.2472 139.687 89.8645C139.241 88.6744 138.9 87.7666 138.671 87.154C138.444 86.5426 138.331 86.2276 138.331 86.2276C138.331 86.2276 138.456 86.5375 138.691 87.1461C138.924 87.757 139.271 88.6623 139.725 89.8493C140.631 92.2288 141.967 95.7352 143.686 100.251C147.119 109.289 152.085 122.364 158.222 138.522C159.748 142.567 161.378 146.784 163.018 151.217C163.394 152.352 163.45 153.598 163.22 154.79C163.088 155.381 162.915 155.971 162.634 156.511C162.515 156.793 162.336 157.041 162.186 157.306C162.001 157.546 161.839 157.807 161.626 158.024C161.234 158.492 160.754 158.874 160.252 159.215C159.741 159.545 159.175 159.787 158.616 160.004C157.495 160.452 156.364 160.905 155.223 161.361C146.098 165.009 136.348 168.907 126.087 173.008C115.826 177.109 105.054 181.413 93.8869 185.876C88.3031 188.107 82.6203 190.377 76.8531 192.681C75.4111 193.257 73.9642 193.835 72.5121 194.415C71.7862 194.705 71.0585 194.996 70.3301 195.287C69.5992 195.568 68.8846 195.902 68.1063 196.099C66.559 196.494 64.8654 196.264 63.4426 195.478C62.012 194.706 60.8648 193.378 60.2697 191.812C55.598 179.481 51.0368 167.441 46.6311 155.813C44.4289 149.999 42.2654 144.287 40.1468 138.694C39.0874 135.897 38.0396 133.13 37.0033 130.394C36.7441 129.71 36.4861 129.028 36.2284 128.348C35.9765 127.668 35.6894 126.998 35.5185 126.279C35.3392 125.567 35.2903 124.825 35.3462 124.1C35.4038 123.376 35.5515 122.655 35.8288 121.991C36.0985 121.326 36.4627 120.705 36.9054 120.154C37.3568 119.61 37.8901 119.147 38.4717 118.769L38.9188 118.503L39.3875 118.285C39.7002 118.138 40.0173 118.027 40.3314 117.897C40.9603 117.646 41.5877 117.396 42.2125 117.146C44.7124 116.148 47.1786 115.164 49.6091 114.194C54.4707 112.255 59.1904 110.371 63.7535 108.55C72.8806 104.91 81.3822 101.519 89.1443 98.4226C104.669 92.2367 117.233 87.2303 125.918 83.7699C127.004 83.3379 128.029 82.9303 128.991 82.5474C129.232 82.4518 129.469 82.3576 129.702 82.2651C129.94 82.1843 130.174 82.1048 130.404 82.0265C130.641 81.9761 130.872 81.9144 131.102 81.876C131.335 81.8528 131.562 81.8119 131.787 81.8052C132.689 81.7608 133.525 81.9116 134.247 82.1624C134.971 82.4187 135.576 82.7846 136.075 83.1604C137.07 83.9323 137.62 84.7617 137.922 85.332C138.09 85.6117 138.169 85.8483 138.237 85.9976C138.301 86.1497 138.331 86.2276 138.331 86.2276Z" fill="#3E0190"/>
<path d="M108.572 97.2361C108.551 97.1827 109.516 96.7563 110.726 96.2835C111.937 95.8105 112.934 95.4707 112.955 95.5238C112.976 95.5768 112.011 96.0035 110.801 96.4764C109.591 96.9496 108.592 97.2896 108.572 97.2361Z" fill="#3E0190"/>
<path d="M99.7933 100.653C99.7726 100.6 100.737 100.174 101.947 99.7008C103.158 99.2279 104.156 98.8881 104.176 98.9411C104.197 98.9942 103.233 99.4209 102.022 99.8938C100.812 100.367 99.814 100.707 99.7933 100.653Z" fill="#3E0190"/>
<path d="M91.015 104.07C90.9942 104.017 91.959 103.59 93.1689 103.118C94.3796 102.645 95.3775 102.305 95.3981 102.358C95.4187 102.411 94.4544 102.838 93.2438 103.311C92.0336 103.784 91.0357 104.124 91.015 104.07Z" fill="#3E0190"/>
<path d="M82.2366 107.487C82.2159 107.434 83.1806 107.007 84.3906 106.535C85.6013 106.062 86.5992 105.722 86.6197 105.775C86.6403 105.828 85.6761 106.255 84.4654 106.728C83.2556 107.201 82.2574 107.541 82.2366 107.487Z" fill="#3E0190"/>
<path d="M73.4593 110.904C73.4386 110.851 74.4033 110.424 75.6136 109.952C76.8243 109.479 77.8222 109.139 77.8428 109.192C77.8633 109.245 76.8991 109.672 75.6885 110.145C74.4783 110.618 73.48 110.958 73.4593 110.904Z" fill="#3E0190"/>
<path d="M64.681 114.321C64.6603 114.268 65.625 113.841 66.8353 113.369C68.0459 112.896 69.0439 112.556 69.0644 112.609C69.085 112.662 68.1208 113.089 66.9101 113.562C65.6996 114.035 64.7017 114.375 64.681 114.321Z" fill="#3E0190"/>
<path d="M55.9027 117.739C55.8819 117.685 56.8467 117.259 58.0566 116.786C59.2673 116.313 60.2652 115.973 60.2858 116.026C60.3063 116.079 59.3421 116.506 58.1315 116.979C56.9217 117.452 55.9234 117.792 55.9027 117.739Z" fill="#3E0190"/>
<path d="M47.1253 121.155C47.1046 121.102 48.0693 120.675 49.2793 120.203C50.4899 119.73 51.4878 119.39 51.5084 119.443C51.529 119.496 50.5648 119.923 49.3541 120.396C48.1443 120.869 47.146 121.209 47.1253 121.155Z" fill="#3E0190"/>
<path d="M41.4368 125.877C41.3862 125.898 40.9731 124.931 40.5141 123.718C40.6249 123.455 40.5454 123.645 40.5703 123.586L40.571 123.586L40.5728 123.585L40.5763 123.584L40.5829 123.581L40.5966 123.575L40.6237 123.565L40.6778 123.543L40.7851 123.501C40.8559 123.473 40.9257 123.446 40.9951 123.418C41.1303 123.366 41.2624 123.316 41.3927 123.266C41.6258 123.181 41.8512 123.099 42.0705 123.018C42.4585 122.883 42.7033 122.813 42.7133 122.839C42.7232 122.865 42.4965 122.983 42.1215 123.153C41.9072 123.246 41.6871 123.342 41.4592 123.441C41.3303 123.495 41.1996 123.549 41.0657 123.605C40.9966 123.633 40.9274 123.662 40.8569 123.69L40.7499 123.733L40.6958 123.755L40.6687 123.766L40.655 123.771L40.6483 123.774L40.6448 123.775L40.6431 123.776L40.6424 123.776C40.6667 123.718 40.5863 123.908 40.697 123.645C41.1562 124.858 41.4874 125.857 41.4368 125.877Z" fill="#3E0190"/>
<path d="M44.5486 133.898C44.4986 133.918 44.1087 133.032 43.6775 131.92C43.2461 130.808 42.937 129.89 42.9866 129.871C43.0365 129.852 43.4263 130.737 43.8577 131.85C44.2893 132.961 44.5985 133.879 44.5486 133.898Z" fill="#3E0190"/>
<path d="M47.6794 141.942C47.6295 141.962 47.2395 141.076 46.8083 139.964C46.3769 138.852 46.0679 137.934 46.1175 137.915C46.1674 137.895 46.5572 138.781 46.9886 139.893C47.4203 141.006 47.7293 141.923 47.6794 141.942Z" fill="#3E0190"/>
<path d="M50.8103 149.987C50.7604 150.006 50.3704 149.12 49.9392 148.008C49.5078 146.896 49.1988 145.979 49.2483 145.959C49.2982 145.94 49.6881 146.825 50.1194 147.938C50.551 149.049 50.8602 149.967 50.8103 149.987Z" fill="#3E0190"/>
<path d="M53.9421 158.03C53.8922 158.05 53.5022 157.164 53.071 156.052C52.6396 154.94 52.3306 154.022 52.3802 154.003C52.4301 153.983 52.8199 154.869 53.2513 155.981C53.683 157.093 53.992 158.011 53.9421 158.03Z" fill="#3E0190"/>
<path d="M57.073 166.074C57.023 166.094 56.6332 165.208 56.2019 164.096C55.7705 162.984 55.4615 162.066 55.511 162.047C55.5609 162.028 55.9508 162.913 56.3821 164.026C56.8137 165.137 57.1229 166.055 57.073 166.074Z" fill="#3E0190"/>
<path d="M60.2048 174.118C60.1549 174.138 59.7649 173.252 59.3337 172.14C58.9023 171.027 58.5933 170.11 58.6429 170.091C58.6928 170.071 59.0826 170.957 59.514 172.069C59.9457 173.181 60.2547 174.099 60.2048 174.118Z" fill="#3E0190"/>
<path d="M63.3357 182.162C63.2857 182.182 62.8958 181.296 62.4646 180.184C62.0332 179.072 61.7241 178.154 61.7737 178.135C61.8236 178.115 62.2134 179.001 62.6448 180.113C63.0764 181.225 63.3856 182.143 63.3357 182.162Z" fill="#3E0190"/>
<path d="M67.8669 187.514C67.8869 187.567 66.9592 187.987 65.7948 188.452C65.5395 188.335 65.724 188.419 65.6666 188.392L65.6662 188.391L65.6655 188.39L65.6641 188.386L65.6615 188.379L65.6561 188.365L65.6454 188.336L65.6241 188.28L65.5822 188.168C65.5547 188.095 65.5279 188.022 65.501 187.95C65.4497 187.809 65.3996 187.671 65.3502 187.536C65.266 187.293 65.1848 187.058 65.1057 186.83C64.9717 186.426 64.9015 186.171 64.9268 186.161C64.9521 186.151 65.068 186.387 65.235 186.778C65.3268 187.001 65.4213 187.231 65.5189 187.468C65.5718 187.603 65.6254 187.739 65.6802 187.878C65.7078 187.95 65.736 188.022 65.7642 188.096L65.8068 188.207L65.8281 188.263L65.8388 188.292L65.8442 188.306L65.8468 188.313L65.8482 188.317L65.8489 188.318L65.8493 188.319C65.7925 188.293 65.977 188.379 65.7222 188.262C66.887 187.796 67.847 187.462 67.8669 187.514Z" fill="#3E0190"/>
<path d="M76.5406 184.126C76.5614 184.18 75.611 184.601 74.4183 185.066C73.2252 185.533 72.2416 185.867 72.221 185.814C72.2004 185.761 73.1503 185.34 74.3434 184.874C75.536 184.407 76.5199 184.073 76.5406 184.126Z" fill="#3E0190"/>
<path d="M85.1924 180.759C85.2131 180.812 84.2627 181.233 83.07 181.699C81.8769 182.165 80.893 182.5 80.8724 182.447C80.8518 182.394 81.802 181.972 82.9951 181.506C84.1877 181.04 85.1716 180.706 85.1924 180.759Z" fill="#3E0190"/>
<path d="M93.8424 177.392C93.8631 177.445 92.9127 177.866 91.72 178.332C90.5269 178.798 89.5434 179.132 89.5228 179.079C89.5022 179.026 90.4521 178.605 91.6452 178.139C92.8378 177.673 93.8217 177.338 93.8424 177.392Z" fill="#3E0190"/>
<path d="M102.494 174.024C102.514 174.077 101.564 174.498 100.371 174.964C99.1783 175.43 98.1947 175.764 98.1741 175.711C98.1536 175.658 99.1034 175.237 100.297 174.771C101.489 174.305 102.473 173.97 102.494 174.024Z" fill="#3E0190"/>
<path d="M111.145 170.656C111.165 170.71 110.215 171.131 109.022 171.597C107.829 172.063 106.845 172.397 106.825 172.344C106.804 172.291 107.754 171.87 108.947 171.404C110.14 170.937 111.124 170.603 111.145 170.656Z" fill="#3E0190"/>
<g opacity="0.3">
<path d="M84.607 149.165C84.607 149.165 86.0361 152.844 85.8132 155.501C85.5901 158.157 85.5566 159.158 83.6282 160.912C81.6998 162.665 54.3377 177.281 54.3377 177.281L50.5099 167.245L84.607 149.165Z" fill="black"/>
</g>
<g opacity="0.3">
<path d="M78.9286 136.181C78.9286 136.181 77.81 132.277 68.1509 134.48C57.1031 137 40.377 141.345 40.377 141.345L43.1144 148.49L78.9286 136.181Z" fill="black"/>
</g>
<path d="M52.6639 170.214L82.0998 158.471C84.8934 157.356 86.2635 154.095 85.16 151.187L79.9549 137.468C78.8512 134.559 75.6919 133.105 72.8982 134.219L43.4623 145.962C40.6686 147.076 39.299 150.338 40.4026 153.246L45.6077 166.965C46.711 169.874 49.8702 171.328 52.6639 170.214Z" fill="#00DE93"/>
<path d="M52.6659 170.216C52.6659 170.216 52.5642 170.258 52.3615 170.331C52.1609 170.409 51.85 170.493 51.4353 170.557C51.0209 170.628 50.4949 170.634 49.8847 170.549C49.2761 170.456 48.58 170.236 47.8883 169.807C47.2044 169.376 46.5023 168.75 45.998 167.873C45.7298 167.445 45.551 166.942 45.355 166.438C45.1609 165.929 44.959 165.401 44.7504 164.854C43.9157 162.666 42.9654 160.174 41.9149 157.421C41.3936 156.042 40.8327 154.607 40.2755 153.092C39.7372 151.557 39.8519 149.692 40.7558 148.198C41.1969 147.453 41.8074 146.789 42.5613 146.327C42.9318 146.09 43.3454 145.908 43.7516 145.749C44.1599 145.586 44.571 145.422 44.9849 145.256C46.6417 144.593 48.347 143.912 50.0957 143.212C57.0924 140.418 64.7836 137.346 72.857 134.121C73.3747 133.927 73.9135 133.797 74.4619 133.753C75.0104 133.722 75.5604 133.768 76.0951 133.89C76.627 134.026 77.1372 134.237 77.6128 134.512C78.0857 134.794 78.5103 135.152 78.8887 135.552C79.2633 135.958 79.5657 136.426 79.8194 136.916C80.0528 137.422 80.2298 137.929 80.4238 138.433C80.806 139.442 81.1851 140.442 81.5613 141.434C82.3128 143.417 83.0511 145.366 83.774 147.274C84.1354 148.228 84.4928 149.172 84.8464 150.105C85.0165 150.577 85.2136 151.024 85.3586 151.509C85.4467 151.745 85.4803 151.995 85.5392 152.237C85.5704 152.485 85.6139 152.731 85.6185 152.979C85.7283 154.973 84.7549 156.894 83.2588 157.935C83.0812 158.08 82.8734 158.175 82.6831 158.296C82.4826 158.397 82.2764 158.489 82.0733 158.578C81.6647 158.741 81.2597 158.902 80.8575 159.062C80.0531 159.382 79.2617 159.696 78.4834 160.006C75.3707 161.244 72.4706 162.396 69.8226 163.448C64.5288 165.546 60.2442 167.244 57.2769 168.419C55.7978 169.001 54.6479 169.452 53.8624 169.761C53.475 169.911 53.1781 170.026 52.9727 170.105C52.7705 170.182 52.6659 170.216 52.6659 170.216C52.6659 170.216 52.7655 170.169 52.9642 170.086C53.1679 170.002 53.4624 169.881 53.8467 169.723C54.6295 169.406 55.7743 168.942 57.2475 168.345C60.2089 167.155 64.486 165.436 69.7701 163.313C72.4153 162.253 75.312 161.093 78.4219 159.847C79.1996 159.536 79.9902 159.219 80.7941 158.898C81.59 158.556 82.4487 158.317 83.1579 157.786C84.6048 156.776 85.544 154.914 85.4351 152.987C85.4194 152.016 85.0263 151.108 84.6724 150.174C84.3181 149.241 83.9593 148.297 83.5972 147.344C82.8729 145.436 82.1332 143.489 81.3802 141.506C81.0038 140.515 80.6243 139.514 80.2413 138.505C80.0479 138.003 79.8664 137.487 79.6443 137.007C79.399 136.535 79.1078 136.083 78.7465 135.692C78.3814 135.306 77.9717 134.961 77.5155 134.689C77.0567 134.424 76.5645 134.22 76.0519 134.089C75.536 133.972 75.0062 133.928 74.4775 133.957C73.949 134 73.43 134.125 72.9298 134.312C64.8547 137.531 57.1613 140.598 50.1629 143.388C48.4131 144.085 46.7069 144.764 45.049 145.424C44.6345 145.589 44.2231 145.753 43.8149 145.915C43.4025 146.075 43.0135 146.247 42.6502 146.477C41.9187 146.923 41.3258 147.566 40.8962 148.287C40.016 149.735 39.9004 151.545 40.4196 153.039C40.9694 154.546 41.5288 155.989 42.0451 157.369C43.0854 160.126 44.0265 162.621 44.8531 164.813C45.0592 165.361 45.2586 165.89 45.4506 166.399C45.6457 166.908 45.8173 167.4 46.0788 167.822C46.5693 168.688 47.2562 169.308 47.9278 169.738C48.6069 170.167 49.2923 170.391 49.8934 170.488C50.4961 170.579 51.0179 170.579 51.4301 170.515C51.8426 170.459 52.1537 170.381 52.3557 170.31C52.559 170.245 52.6659 170.216 52.6659 170.216Z" fill="#3E0190"/>
<path d="M74.4264 158.769C79.0767 156.91 81.3597 151.478 79.5258 146.635C77.6919 141.792 72.4355 139.373 67.7852 141.231C63.135 143.09 60.8519 148.522 62.6858 153.365C64.5198 158.208 69.7762 160.627 74.4264 158.769Z" fill="#3E0190"/>
<path d="M76.0904 156.225C76.0516 156.186 76.8615 155.652 77.6675 154.348C78.0693 153.703 78.4437 152.859 78.6635 151.866C78.885 150.877 78.9287 149.733 78.689 148.58C78.4334 147.431 77.9233 146.407 77.3151 145.599C76.707 144.787 76.0197 144.175 75.3883 143.755C74.1191 142.904 73.1625 142.756 73.1818 142.704C73.1832 142.697 73.2408 142.707 73.3503 142.731C73.4582 142.759 73.6231 142.783 73.8239 142.856C74.232 142.979 74.8095 143.22 75.4613 143.635C76.1134 144.047 76.8256 144.66 77.4559 145.485C78.0863 146.306 78.616 147.355 78.879 148.539C79.1256 149.726 79.0745 150.9 78.8381 151.911C78.6034 152.925 78.207 153.78 77.783 154.427C77.3601 155.077 76.9336 155.538 76.6125 155.819C76.4592 155.969 76.3191 156.06 76.2325 156.131C76.1432 156.198 76.0945 156.231 76.0904 156.225Z" fill="#FAFAFA"/>
<path d="M114.256 51.7521C117.007 57.4753 114.78 64.3923 109.282 67.2026C103.784 70.0128 97.0965 67.6514 94.3448 61.9283C91.593 56.2055 93.8196 49.2882 99.318 46.4783C104.816 43.6679 111.504 46.0292 114.256 51.7521Z" fill="#00DE93"/>
<g opacity="0.3">
<path d="M111.81 52.7954C111.765 52.8208 111.564 52.488 111.147 51.941C110.729 51.3992 110.076 50.6404 109.091 49.9503C108.6 49.6073 108.029 49.2825 107.384 49.0194C106.737 48.7626 106.019 48.5597 105.249 48.4717C104.864 48.426 104.467 48.4031 104.063 48.4181C103.659 48.4307 103.246 48.4672 102.834 48.5478C102.422 48.6265 102.007 48.7305 101.599 48.8792C101.19 49.0271 100.787 49.2075 100.394 49.4207C100.003 49.6398 99.6335 49.8856 99.288 50.1534C98.9414 50.4213 98.6271 50.7199 98.3347 51.0292C98.0412 51.3384 97.7831 51.6716 97.549 52.0108C97.3129 52.3491 97.1115 52.7026 96.9349 53.0575C96.579 53.767 96.3448 54.4955 96.1943 55.1922C96.0491 55.8911 95.9951 56.5607 96.0001 57.1722C96.0123 58.3987 96.2633 59.379 96.4696 60.0374C96.6807 60.6975 96.8385 61.0542 96.7925 61.0788C96.7592 61.0981 96.5245 60.7824 96.2325 60.1314C95.9464 59.4829 95.6117 58.4786 95.5377 57.1847C95.5021 56.5398 95.531 55.8269 95.662 55.0772C95.7984 54.3296 96.0287 53.5436 96.3953 52.7737C96.577 52.3885 96.787 52.005 97.0356 51.6368C97.2822 51.2676 97.5563 50.9051 97.8694 50.5683C98.1813 50.2309 98.519 49.906 98.8913 49.6151C99.2628 49.3236 99.6616 49.0575 100.082 48.8218C100.506 48.5913 100.942 48.3974 101.384 48.2404C101.825 48.0826 102.275 47.9733 102.72 47.8928C103.165 47.8111 103.611 47.777 104.045 47.7705C104.481 47.7612 104.907 47.7939 105.319 47.8514C106.144 47.964 106.907 48.2019 107.587 48.4993C108.264 48.8025 108.857 49.1728 109.358 49.5606C110.363 50.3411 110.989 51.1848 111.355 51.7894C111.719 52.4012 111.844 52.7773 111.81 52.7954Z" fill="black"/>
</g>
<g opacity="0.3">
<path d="M107.423 61.0966L108.103 62.4586L106.937 63.0751L106.276 61.75C105.086 62.2876 103.791 62.4969 102.889 62.3131L102.789 60.4903C103.597 60.6319 104.599 60.5159 105.482 60.1569L104.468 58.1261C103.01 58.4831 101.341 58.798 100.473 57.0588C99.8297 55.7698 100.175 54.1884 101.907 52.9951L101.234 51.6451L102.4 51.0281L103.061 52.3539C103.972 51.9642 104.944 51.7568 105.797 51.8432L105.961 53.6473C105.19 53.6094 104.481 53.7234 103.862 53.9586L104.893 56.0261C106.345 55.6573 107.991 55.355 108.847 57.0691C109.478 58.3339 109.138 59.8969 107.423 61.0966ZM103.576 56.3386L102.714 54.6122C102.169 55.0848 102.101 55.5671 102.301 55.9687C102.513 56.394 102.978 56.4402 103.576 56.3386ZM107.043 58.2084C106.831 57.7827 106.378 57.7307 105.785 57.8132L106.623 59.4914C107.139 59.0492 107.238 58.5973 107.043 58.2084Z" fill="black"/>
</g>
<path d="M96.6716 60.657C96.6737 60.6559 96.6873 60.6762 96.7119 60.7167C96.74 60.7643 96.7747 60.8236 96.8183 60.8975C96.8657 60.9803 96.9217 61.0786 96.9872 61.1932C97.054 61.3098 97.1252 61.4481 97.2306 61.5872C97.6079 62.1708 98.2409 62.9709 99.2087 63.7307C99.6869 64.118 100.269 64.4567 100.912 64.7702C101.078 64.8368 101.246 64.9047 101.418 64.9734C101.504 65.0064 101.588 65.046 101.678 65.0743C101.767 65.1007 101.858 65.1271 101.949 65.1538C102.131 65.2038 102.314 65.2687 102.504 65.309C102.695 65.3452 102.889 65.382 103.085 65.4191C103.873 65.5289 104.717 65.5681 105.573 65.4308C106.428 65.2946 107.29 65.0247 108.116 64.6148C108.931 64.1823 109.66 63.6355 110.28 63.0151C110.901 62.3936 111.378 61.6767 111.767 60.9625C111.856 60.7789 111.944 60.5975 112.031 60.4184C112.114 60.2378 112.174 60.0488 112.245 59.8685C112.279 59.7777 112.312 59.6875 112.346 59.5978C112.377 59.5076 112.398 59.4141 112.424 59.3235C112.473 59.1412 112.522 58.9619 112.57 58.7856C112.714 58.0684 112.801 57.3864 112.787 56.7605C112.779 55.508 112.538 54.5067 112.312 53.8456C112.268 53.6752 112.203 53.5337 112.152 53.4086C112.103 53.2859 112.06 53.1806 112.024 53.092C111.993 53.012 111.968 52.9474 111.948 52.8959C111.931 52.8513 111.924 52.828 111.926 52.827C111.928 52.8259 111.94 52.8472 111.96 52.8899C111.984 52.9399 112.013 53.0027 112.049 53.0807C112.088 53.1682 112.134 53.2722 112.189 53.3933C112.243 53.5172 112.312 53.6583 112.361 53.8282C112.603 54.4876 112.861 55.4945 112.881 56.7611C112.9 57.3941 112.818 58.085 112.677 58.8125C112.63 58.9916 112.581 59.1737 112.532 59.3585C112.506 59.4505 112.486 59.5453 112.455 59.6369C112.421 59.728 112.388 59.8194 112.354 59.9117C112.283 60.0949 112.223 60.2869 112.14 60.4706C112.053 60.6525 111.964 60.8367 111.875 61.0236C111.484 61.7494 111.001 62.4786 110.371 63.1113C109.743 63.7426 109.004 64.2987 108.176 64.7378C107.337 65.1541 106.461 65.4274 105.593 65.5635C104.723 65.701 103.867 65.6588 103.068 65.5437C102.87 65.5051 102.673 65.4668 102.479 65.429C102.287 65.3872 102.102 65.3208 101.917 65.2688C101.825 65.2411 101.733 65.2138 101.643 65.1866C101.552 65.1573 101.467 65.1168 101.38 65.0829C101.206 65.0121 101.036 64.9422 100.869 64.8736C100.219 64.5518 99.633 64.204 99.1531 63.8074C98.1817 63.0293 97.5544 62.2122 97.1881 61.616C97.0853 61.4739 97.0171 61.3327 96.9538 61.213C96.8924 61.0957 96.8395 60.995 96.795 60.9099C96.7562 60.8333 96.7249 60.7717 96.7 60.7226C96.6791 60.6803 96.6696 60.6581 96.6716 60.657Z" fill="#3E0190"/>
<path d="M85.0507 69.9056C90.6842 80.1773 87.2567 93.1789 77.3963 98.9465C67.5347 104.713 54.9736 101.062 49.3401 90.7905C43.7063 80.5196 47.1332 67.5176 56.9948 61.7506C66.8556 55.9829 79.4174 59.6344 85.0507 69.9056Z" fill="#00DE93"/>
<g opacity="0.3">
<path d="M80.6225 72.0772C80.5413 72.1289 80.1386 71.5362 79.3176 70.5709C78.4948 69.6151 77.2171 68.2849 75.3353 67.1155C74.3969 66.5342 73.3137 65.9953 72.0988 65.5783C70.882 65.173 69.5393 64.8741 68.1114 64.7934C67.3983 64.7503 66.6643 64.7496 65.9214 64.8201C65.1784 64.8862 64.4223 64.9971 63.6707 65.1894C62.9194 65.3782 62.1638 65.6143 61.4264 65.9317C60.6889 66.2476 59.9634 66.6229 59.2597 67.0584C58.5613 67.5038 57.9045 67.9963 57.2939 68.5271C56.6818 69.058 56.1316 69.6423 55.6234 70.2438C55.1129 70.8452 54.6697 71.4874 54.2713 72.1381C53.8692 72.787 53.5327 73.4602 53.2423 74.1338C52.6561 75.4804 52.2956 76.8491 52.0869 78.15C51.888 79.4547 51.854 80.6959 51.9231 81.8232C52.0653 84.0846 52.6239 85.8668 53.0684 87.0599C53.5222 88.2553 53.8479 88.897 53.7652 88.9476C53.7056 88.9868 53.2424 88.4292 52.6407 87.2587C52.0502 86.0925 51.3353 84.2753 51.0723 81.8961C50.9435 80.71 50.9273 79.3922 51.0953 77.9948C51.2735 76.6009 51.6208 75.1264 52.2208 73.6671C52.5179 72.9375 52.8671 72.2074 53.2891 71.5022C53.7073 70.7953 54.1769 70.0974 54.7204 69.4427C55.2621 68.7871 55.8522 68.1523 56.5098 67.5757C57.1662 66.9986 57.8742 66.4658 58.6271 65.986C59.3858 65.5159 60.1697 65.1123 60.9676 64.7762C61.7659 64.4383 62.5837 64.1895 63.3963 63.9938C64.2091 63.7959 65.0258 63.686 65.8263 63.6283C66.627 63.5655 67.4165 63.5804 68.1803 63.6429C69.7113 63.7633 71.1401 64.1219 72.4219 64.5985C73.7006 65.0863 74.829 65.7067 75.7902 66.3691C77.7175 67.7029 78.9536 69.1933 79.6865 70.2702C80.4167 71.3592 80.6832 72.0398 80.6225 72.0772Z" fill="black"/>
</g>
<path d="M53.5252 88.2095C53.5291 88.2074 53.5563 88.2428 53.6058 88.3149C53.6626 88.4006 53.7333 88.506 53.82 88.637C53.9158 88.7853 54.0293 88.9606 54.1609 89.1639C54.2953 89.3721 54.4404 89.6195 54.6482 89.8651C55.4006 90.9016 56.6458 92.3099 58.5031 93.6081C59.422 94.2718 60.527 94.8344 61.7426 95.3446C62.0546 95.45 62.3715 95.5574 62.6937 95.6659C62.8553 95.7175 63.0155 95.7818 63.1823 95.8247C63.3503 95.8639 63.5194 95.9031 63.6896 95.9425C64.031 96.0153 64.3734 96.1158 64.7278 96.1703C65.0836 96.217 65.4437 96.2642 65.8089 96.3121C67.2712 96.4312 68.8283 96.4146 70.3921 96.0707C71.9521 95.7289 73.5145 95.1402 74.9953 94.2975C76.4545 93.4133 77.7426 92.3284 78.8233 91.1189C79.908 89.9072 80.7161 88.5346 81.3625 87.1771C81.5087 86.8288 81.653 86.4852 81.7954 86.1462C81.9309 85.8045 82.0218 85.4497 82.1352 85.1096C82.1891 84.9384 82.2425 84.7686 82.2957 84.6C82.3449 84.4302 82.3731 84.2555 82.4123 84.0859C82.4857 83.7447 82.5579 83.4089 82.6291 83.0785C82.8234 81.7407 82.9174 80.4737 82.8316 79.3203C82.6949 77.011 82.1542 75.1891 81.6732 73.9937C81.5748 73.6842 81.4418 73.4297 81.3367 73.2043C81.2339 72.9835 81.1456 72.7937 81.0705 72.6333C81.0059 72.4897 80.9533 72.3731 80.9113 72.2793C80.8765 72.1986 80.861 72.1564 80.8643 72.1539C80.8683 72.1518 80.8916 72.1898 80.9337 72.266C80.9819 72.3568 81.042 72.4692 81.116 72.6086C81.1971 72.7666 81.2932 72.9532 81.4052 73.1704C81.5178 73.3934 81.6585 73.6458 81.765 73.9543C82.2769 75.1451 82.851 76.9757 83.0123 79.3109C83.1104 80.477 83.0265 81.7609 82.8387 83.1187C82.7689 83.454 82.6977 83.7954 82.6257 84.1416C82.587 84.3138 82.5587 84.4912 82.5102 84.664C82.4573 84.8353 82.4042 85.0083 82.3507 85.182C82.2379 85.5279 82.1474 85.8881 82.0116 86.236C81.8688 86.5807 81.7238 86.9306 81.5771 87.2846C80.9276 88.6659 80.1103 90.063 79.0107 91.2966C77.9152 92.5286 76.6066 93.6332 75.1234 94.5308C73.6188 95.3874 72.03 95.9844 70.4438 96.3279C68.8541 96.6733 67.2716 96.6858 65.788 96.5576C65.4177 96.5073 65.0522 96.4573 64.6915 96.4086C64.3319 96.3519 63.9852 96.2481 63.6394 96.1721C63.4669 96.1309 63.2957 96.0903 63.1259 96.0491C62.9568 96.0044 62.795 95.9385 62.6311 95.8851C62.3053 95.7725 61.9844 95.6618 61.6689 95.5527C60.4397 95.0276 59.3259 94.4472 58.4029 93.7658C56.5368 92.432 55.3014 90.9896 54.5686 89.9282C54.3654 89.6764 54.2259 89.4229 54.0979 89.2094C53.974 88.9997 53.8669 88.8191 53.7767 88.6664C53.6985 88.5298 53.6349 88.4193 53.5837 88.3303C53.5413 88.252 53.5214 88.2121 53.5252 88.2095Z" fill="#3E0190"/>
<g opacity="0.3">
<path d="M65.9146 87.1972L65.2119 89.439L63.256 88.8759L63.9401 86.6952C62.0414 86.0183 60.3776 84.8639 59.5719 83.6938L61.4129 81.5613C62.1591 82.5834 63.3977 83.5281 64.7624 84.0735L65.8102 80.7309C63.8081 79.5672 61.6149 78.1291 62.5127 75.267C63.1781 73.1458 65.2551 71.7577 68.4583 72.2864L69.1553 70.0648L71.1115 70.6272L70.4273 72.8091C71.8567 73.351 73.1591 74.1612 74.0149 75.1709L72.2653 77.3516C71.4495 76.4845 70.5393 75.8518 69.5989 75.4499L68.5318 78.8525C70.5397 79.9966 72.6938 81.4239 71.8093 84.2452C71.1563 86.3265 69.1049 87.6998 65.9146 87.1972ZM66.733 77.7894L67.6237 74.9477C66.512 74.8895 65.9192 75.3521 65.7118 76.0128C65.4924 76.7128 65.9599 77.2624 66.733 77.7894ZM68.5848 83.5802C68.8042 82.8794 68.3565 82.3366 67.6094 81.7938L66.7433 84.5555C67.7905 84.6169 68.3841 84.2204 68.5848 83.5802Z" fill="black"/>
</g>
</svg>
