<svg width="112" height="229" viewBox="0 0 112 229" fill="none" xmlns="http://www.w3.org/2000/svg">
<g opacity="0.5">
<path d="M63.4414 16.9114L63.3104 21.9905L99.7208 158.664L101.475 159.678L154.927 105.276L63.4414 16.9114Z" fill="#343434"/>
<path d="M63.4421 16.9112L28.0434 139.078L101.476 159.678L83.8034 93.341L63.4421 16.9112Z" fill="#8C8C8C"/>
<path d="M104.675 171.69L104.148 172.85L117.118 221.536L118.507 223.609L158.17 117.297L104.675 171.69Z" fill="#3C3C3B"/>
<path d="M118.507 223.608L104.675 171.689L31.248 151.109L118.507 223.608Z" fill="#8C8C8C"/>
<path d="M101.475 159.678L154.926 105.277L83.8027 93.3416L101.475 159.678Z" fill="#141414"/>
<path d="M28.0444 139.079L101.476 159.678L83.8034 93.3416L28.0444 139.079Z" fill="#393939"/>
</g>
</svg>
