<svg width="147" height="250" viewBox="0 0 147 250" fill="none" xmlns="http://www.w3.org/2000/svg">
<path d="M123.699 92.1369C124.061 96.0903 116.07 100 106.025 100.922C95.9809 101.843 87.5439 99.385 87.1817 95.4322C87.0975 94.5159 86.4899 91.2483 87.2136 90.3695C89.6115 87.4585 96.9965 87.3141 104.713 86.6063C111.894 85.9476 119.464 83.9764 122.194 86.6353C123.848 88.2481 123.596 91.0105 123.699 92.1369Z" fill="#00DE93"/>
<path opacity="0.2" d="M122.196 86.6335C124.034 88.9212 123.569 90.7212 123.699 92.1364C123.834 93.595 122.832 95.044 121.016 96.3393C120.801 96.5016 120.565 96.655 120.321 96.8077C119.06 97.593 117.498 98.3144 115.707 98.9272C115.48 99.0126 115.249 99.0827 115.013 99.1585C113.246 99.7281 111.279 100.188 109.18 100.53C108.953 100.567 108.721 100.599 108.49 100.631C107.689 100.747 106.863 100.85 106.027 100.924C105.197 101.002 104.375 101.052 103.563 101.081C103.331 101.094 103.099 101.097 102.872 101.105C100.822 101.15 98.8867 101.05 97.1137 100.831C96.8817 100.805 96.6583 100.769 96.4355 100.743C94.5653 100.467 92.8916 100.049 91.511 99.5065C91.2729 99.4174 91.0494 99.3238 90.8303 99.2255C88.6607 98.2572 87.3241 96.9543 87.1837 95.4329C87.0937 94.4479 86.3805 91.3089 87.2099 90.3694C88.0442 89.435 89.4092 88.7884 91.1293 88.3069C91.3515 88.2461 91.5821 88.1854 91.8187 88.1286C95.2803 87.3004 99.9722 87.0418 104.71 86.6077C110.298 86.0956 116.762 85.2142 120.613 86.093C120.85 86.1429 121.074 86.2081 121.292 86.2773C121.622 86.3799 121.919 86.4972 122.196 86.6335Z" fill="black"/>
<g opacity="0.2">
<path d="M91.8338 87.4758L91.8177 88.1289L91.5107 99.5064C91.2725 99.4173 91.049 99.3237 90.83 99.2254L91.1287 88.3078L91.1514 87.4613L91.8338 87.4758Z" fill="black"/>
</g>
<g opacity="0.2">
<path d="M97.4308 89.1104L97.1138 100.831C96.8817 100.805 96.6584 100.77 96.4355 100.744L96.7492 89.0855L97.4308 89.1104Z" fill="black"/>
</g>
<g opacity="0.2">
<path d="M109.48 89.4338L109.179 100.53C108.952 100.567 108.72 100.599 108.489 100.631L108.793 89.4132L109.48 89.4338Z" fill="black"/>
</g>
<g opacity="0.2">
<path d="M103.878 89.2841L103.562 101.083C103.33 101.095 103.098 101.098 102.871 101.106L103.192 89.2641L103.878 89.2841Z" fill="black"/>
</g>
<g opacity="0.2">
<path d="M116.002 88.1303L115.707 98.9274C115.481 99.0127 115.249 99.0829 115.013 99.1587L115.316 88.1103L116.002 88.1303Z" fill="black"/>
</g>
<path d="M123.248 88.7292C123.61 92.6826 115.761 96.6338 105.717 97.555C95.6726 98.4762 87.2359 96.0189 86.8727 92.0658C86.5102 88.1124 94.3592 84.1612 104.404 83.2399C114.448 82.3193 122.885 84.7767 123.248 88.7292Z" fill="#00DE93"/>
<path opacity="0.2" d="M119.834 89.0431C120.09 91.8363 113.854 94.6914 105.904 95.4204C97.9545 96.1494 91.3031 94.4764 91.0467 91.6833C90.7904 88.8901 97.0267 86.035 104.976 85.306C112.926 84.577 119.577 86.25 119.834 89.0431Z" fill="white"/>
<path d="M150.038 40.8614C153.648 42.5131 153.065 51.3912 148.868 60.5632C144.672 69.7353 138.343 75.8319 134.733 74.1809C133.897 73.798 130.76 72.6997 130.358 71.6351C129.025 68.1066 132.573 61.6284 135.797 54.5826C138.798 48.0243 140.853 40.4771 144.517 39.4315C146.739 38.7976 149.009 40.3907 150.038 40.8614Z" fill="#00DE93"/>
<path opacity="0.2" d="M144.516 39.4288C147.415 38.9719 148.745 40.2713 150.037 40.8627C151.369 41.4713 152.128 43.0608 152.349 45.2805C152.383 45.5484 152.398 45.8283 152.409 46.1165C152.463 47.6017 152.312 49.3159 151.953 51.1747C151.914 51.4134 151.86 51.6493 151.809 51.891C151.423 53.7073 150.845 55.6431 150.097 57.6341C150.016 57.8495 149.928 58.0659 149.841 58.2832C149.544 59.0364 149.222 59.8035 148.87 60.5651C148.525 61.325 148.159 62.0617 147.781 62.781C147.677 62.9885 147.564 63.1913 147.458 63.3922C146.478 65.1934 145.428 66.8223 144.356 68.2515C144.218 68.4404 144.076 68.6159 143.943 68.7962C142.773 70.2814 141.578 71.5255 140.42 72.4526C140.225 72.6151 140.032 72.7625 139.838 72.9029C137.919 74.303 136.124 74.8153 134.734 74.1802C133.834 73.7686 130.757 72.8252 130.354 71.6388C129.959 70.4504 130.077 68.9448 130.515 67.213C130.572 66.9907 130.634 66.7589 130.703 66.5261C131.706 63.1116 133.815 58.9119 135.796 54.586C138.13 49.4831 140.581 43.4378 143.259 40.5337C143.42 40.3526 143.588 40.1906 143.757 40.0363C144.01 39.8009 144.26 39.6016 144.516 39.4288Z" fill="black"/>
<g opacity="0.2">
<path d="M130.145 66.1877L130.703 66.5264L140.42 72.4523C140.225 72.6148 140.032 72.7622 139.838 72.9027L130.515 67.2133L129.792 66.7722L130.145 66.1877Z" fill="black"/>
</g>
<g opacity="0.2">
<path d="M134.347 62.1452L144.357 68.2503C144.219 68.4392 144.077 68.6147 143.944 68.7949L133.985 62.7243L134.347 62.1452Z" fill="black"/>
</g>
<g opacity="0.2">
<path d="M140.62 51.8511L150.097 57.632C150.016 57.8474 149.929 58.0638 149.841 58.2811L140.261 52.4369L140.62 51.8511Z" fill="black"/>
</g>
<g opacity="0.2">
<path d="M137.703 56.6375L147.781 62.7804C147.677 62.9879 147.564 63.1907 147.458 63.3916L137.344 57.2233L137.703 56.6375Z" fill="black"/>
</g>
<g opacity="0.2">
<path d="M142.733 45.5476L151.952 51.1744C151.914 51.4131 151.86 51.649 151.808 51.8907L142.373 46.1335L142.733 45.5476Z" fill="black"/>
</g>
<path d="M145.79 59.1575C149.987 49.9854 150.463 41.2111 146.853 39.5596C143.244 37.908 136.915 44.0047 132.719 53.1768C128.522 62.3489 128.046 71.1233 131.656 72.7748C135.265 74.4263 141.594 68.3297 145.79 59.1575Z" fill="#00DE93"/>
<path opacity="0.2" d="M145.431 42.677C147.982 43.8442 147.357 50.6744 144.036 57.9332C140.715 65.1919 135.954 70.13 133.404 68.9631C130.853 67.7959 131.478 60.966 134.799 53.7069C138.121 46.4479 142.881 41.5102 145.431 42.677Z" fill="white"/>
<path d="M113.972 43.1605C115.351 47.5182 107.321 53.8818 96.2472 57.3876C85.1736 60.8925 75.0779 60.2016 73.698 55.8434C73.3784 54.8328 71.8913 51.3058 72.4894 50.14C74.4712 46.2759 82.7447 44.2986 91.2508 41.6058C99.1683 39.0994 107.2 35.0215 110.924 37.3424C113.183 38.7485 113.578 41.9183 113.972 43.1605Z" fill="#455A64"/>
<path opacity="0.2" d="M110.927 37.3385C113.557 39.4606 113.477 41.5995 113.97 43.1598C114.481 44.7675 113.71 46.6437 111.985 48.5472C111.783 48.7829 111.556 49.0129 111.319 49.2447C110.092 50.438 108.512 51.6335 106.648 52.7634C106.415 52.915 106.172 53.0508 105.925 53.1941C104.076 54.2693 101.977 55.2706 99.699 56.171C99.4528 56.2684 99.2004 56.3613 98.9471 56.4539C98.0746 56.7822 97.1707 57.1007 96.2491 57.3884C95.3337 57.6805 94.422 57.9383 93.5159 58.1715C93.2581 58.2425 92.9975 58.3034 92.7439 58.3676C90.4495 58.923 88.2469 59.2852 86.1984 59.4748C85.9304 59.5025 85.671 59.5172 85.414 59.5423C83.2421 59.6923 81.2569 59.6326 79.5704 59.3607C79.2808 59.3194 79.0058 59.269 78.7356 59.2114C76.0572 58.6557 74.2331 57.5187 73.7007 55.8414C73.357 54.7554 71.7842 51.3991 72.4863 50.1387C73.1952 48.8825 74.5716 47.82 76.3884 46.8556C76.6228 46.7327 76.8681 46.6072 77.12 46.4853C80.8105 44.7033 86.0254 43.2581 91.2493 41.606C97.4101 39.6558 104.465 37.0757 109.013 37.1181C109.293 37.1158 109.56 37.1343 109.823 37.1592C110.22 37.1945 110.582 37.2533 110.927 37.3385Z" fill="black"/>
<g opacity="0.2">
<path d="M76.9774 45.7485L77.1202 46.4866L79.5706 59.362C79.2811 59.3207 79.0061 59.2703 78.7358 59.2127L76.3886 46.8569L76.2061 45.8987L76.9774 45.7485Z" fill="black"/>
</g>
<g opacity="0.2">
<path d="M83.6745 46.2127L86.1981 59.4767C85.9301 59.5044 85.6707 59.5191 85.4136 59.5442L82.9012 46.3516L83.6745 46.2127Z" fill="black"/>
</g>
<g opacity="0.2">
<path d="M97.3113 43.6131L99.6996 56.1713C99.4534 56.2686 99.201 56.3615 98.9477 56.4542L96.5332 43.7591L97.3113 43.6131Z" fill="black"/>
</g>
<g opacity="0.2">
<path d="M90.9719 44.8215L93.5155 58.1723C93.2578 58.2433 92.9971 58.3042 92.7436 58.3684L90.1939 44.9676L90.9719 44.8215Z" fill="black"/>
</g>
<g opacity="0.2">
<path d="M104.327 40.545L106.648 52.764C106.415 52.9156 106.172 53.0514 105.925 53.1947L103.55 40.6907L104.327 40.545Z" fill="black"/>
</g>
<path d="M112.621 39.4426C111.241 35.0848 101.146 34.3939 90.0721 37.8995C78.9986 41.4051 71.1401 47.7796 72.5196 52.1375C73.8992 56.4953 83.9945 57.1862 95.068 53.6806C106.142 50.1751 114 43.8005 112.621 39.4426Z" fill="#455A64"/>
<path opacity="0.2" d="M108.862 40.6298C109.836 43.709 103.522 48.4537 94.7584 51.2276C85.9945 54.0015 78.1007 53.754 77.1256 50.6751C76.1505 47.5963 82.4649 42.8513 91.2285 40.0767C99.9928 37.3034 107.887 37.5506 108.862 40.6298Z" fill="white"/>
<path d="M220.171 117.195L159.742 153.485C157.6 154.771 155.708 156.437 154.163 158.4L102.342 224.187C100.46 226.575 100.483 229.924 102.396 232.235L141.32 279.265C143.991 282.492 149.038 282.282 151.522 278.84L200.864 210.461L261.473 176.04C264.657 174.231 265.558 170.065 263.389 167.178L228.582 120.848C226.785 118.454 222.815 115.708 220.171 117.195Z" fill="#00DE93"/>
<path opacity="0.1" d="M220.171 117.195L159.742 153.485C157.6 154.771 155.708 156.437 154.163 158.4L102.342 224.187C100.46 226.575 100.483 229.924 102.396 232.235L141.32 279.265C143.991 282.492 149.038 282.282 151.522 278.84L200.864 210.461L261.473 176.04C264.657 174.231 265.558 170.065 263.389 167.178L228.582 120.848C226.785 118.454 222.815 115.708 220.171 117.195Z" fill="black"/>
<path d="M77.0073 148.326L60.0957 195.617L152.159 228.539L169.071 181.248L77.0073 148.326Z" fill="#00DE93"/>
<path opacity="0.5" d="M169.076 181.24L152.164 228.531L60.1023 195.613L71.1983 164.577L77.0106 148.317L79.951 149.367L169.076 181.24Z" fill="#FAFAFA"/>
<path d="M79.2611 152.108L64.3379 193.839L150.456 224.636L165.38 182.905L79.2611 152.108Z" stroke="#00DE93" stroke-miterlimit="10"/>
<path d="M125.056 191.996C126.766 187.211 123.288 181.592 117.287 179.447C111.286 177.301 105.034 179.441 103.323 184.227C101.613 189.012 105.091 194.63 111.092 196.776C117.093 198.922 123.345 196.782 125.056 191.996Z" fill="#00DE93"/>
<path opacity="0.1" d="M138.273 202.873L128.755 212.979L71.1984 164.577L77.0106 148.317L79.951 149.367L138.273 202.873Z" fill="black"/>
<path d="M91.8242 108.756L57.9473 145.835L130.128 211.784L164.005 174.705L91.8242 108.756Z" fill="#00DE93"/>
<path opacity="0.5" d="M91.8242 108.756L57.9473 145.835L130.128 211.784L164.005 174.705L91.8242 108.756Z" fill="#FAFAFA"/>
<path d="M92.4406 113.115L62.5469 145.834L130.067 207.524L159.961 174.806L92.4406 113.115Z" stroke="#00DE93" stroke-miterlimit="10"/>
<path d="M119.238 167.614C122.665 163.862 121.63 157.337 116.925 153.038C112.221 148.74 105.628 148.296 102.2 152.048C98.7728 155.799 99.8081 162.325 104.513 166.623C109.218 170.922 115.81 171.365 119.238 167.614Z" fill="#00DE93"/>
<path d="M221.704 119.133L162.043 154.813C159.928 156.078 158.063 157.722 156.545 159.663L105.619 224.738C103.771 227.101 103.816 230.432 105.728 232.743L144.639 279.784C147.31 283.012 152.312 282.837 154.751 279.431L203.2 211.761L263.054 177.94C266.198 176.164 267.063 172.026 264.892 169.14L230.068 122.823C228.27 120.431 224.316 117.672 221.704 119.133Z" fill="#00DE93"/>
<path opacity="0.2" d="M120.49 241.077L145.129 271.564C145.129 271.564 143.258 255.324 120.49 241.077Z" fill="#FAFAFA"/>
<path opacity="0.2" d="M121.592 241.009C122.15 241.508 168.747 184.184 168.747 184.184C168.747 184.184 179.993 201.944 167.218 221.576C154.443 241.207 121.592 241.009 121.592 241.009Z" fill="#FAFAFA"/>
<g opacity="0.2">
<path d="M110.605 229.212L111.669 227.874" stroke="#FAFAFA" stroke-linecap="round" stroke-linejoin="round"/>
<path d="M113.882 225.093L157.023 170.852" stroke="#FAFAFA" stroke-linecap="round" stroke-linejoin="round" stroke-dasharray="5.2 5.2"/>
</g>
<path d="M189.864 83.1283L200.395 134.327C201.14 137.945 199.541 141.498 196.643 143.405C195.742 143.996 194.713 144.434 193.585 144.668L165.426 150.46C160.69 151.431 156.06 148.382 155.085 143.65L144.554 92.4417C143.994 89.7011 144.774 86.9959 146.46 85.0126C147.679 83.5736 149.373 82.5157 151.369 82.1051L179.524 76.3076C184.26 75.338 188.889 78.387 189.864 83.1283Z" fill="#182125"/>
<path opacity="0.2" d="M189.864 83.1283L200.395 134.327C201.14 137.945 199.541 141.498 196.643 143.405C195.742 143.996 194.713 144.434 193.585 144.668L165.426 150.46C160.69 151.431 156.06 148.382 155.085 143.65L144.554 92.4417C143.994 89.7011 144.774 86.9959 146.46 85.0126C147.679 83.5736 149.373 82.5157 151.369 82.1051L179.524 76.3076C184.26 75.338 188.889 78.387 189.864 83.1283Z" fill="black"/>
<path d="M188.014 84.7722L198.545 135.971C199.11 138.717 198.325 141.427 196.644 143.405C195.742 143.996 194.714 144.434 193.586 144.668L165.426 150.461C160.69 151.431 156.06 148.382 155.085 143.65L144.555 92.4418C143.995 89.7013 144.774 86.996 146.461 85.0128C147.363 84.4221 148.391 83.9835 149.52 83.7497L177.674 77.9522C182.41 76.982 187.039 80.031 188.014 84.7722Z" fill="#182125"/>
<path opacity="0.5" d="M188.014 84.7722L198.545 135.971C199.11 138.717 198.325 141.427 196.644 143.405C195.742 143.996 194.714 144.434 193.586 144.668L165.426 150.461C160.69 151.431 156.06 148.382 155.085 143.65L144.555 92.4418C143.995 89.7013 144.774 86.996 146.461 85.0128C147.363 84.4221 148.391 83.9835 149.52 83.7497L177.674 77.9522C182.41 76.982 187.039 80.031 188.014 84.7722Z" fill="#FAFAFA"/>
</svg>
