<svg width="60" height="60" viewBox="0 0 60 60" fill="none" xmlns="http://www.w3.org/2000/svg">
<path d="M1.5 30.1071C1.5 14.3076 14.3076 1.5 30.1071 1.5C45.9066 1.5 58.7143 14.3076 58.7143 30.1071C58.7143 45.9066 45.9066 58.7143 30.1071 58.7143C14.3076 58.7143 1.5 45.9066 1.5 30.1071Z" fill="#00DE93"/>
<path d="M34.5417 11.0358C32.8361 15.4631 31.1305 20.2309 29.0838 24.9988C29.0838 24.9988 29.0838 25.6799 29.7661 25.6799H43.7518C43.7518 25.6799 43.7518 26.0205 44.0929 26.361L23.626 49.1786C23.2849 48.8381 23.2849 48.4975 23.2849 48.1569L30.4483 32.8317V31.4694H16.1215V30.1072L33.5183 11.0358H34.5417Z" fill="white"/>
</svg>
