<svg width="60" height="60" viewBox="0 0 60 60" fill="none" xmlns="http://www.w3.org/2000/svg">
<g clip-path="url(#clip0_45_7060)">
<path d="M57.7031 18.0749C54.8906 15.4781 51 11.5124 47.8313 8.69994L47.6437 8.56869C47.3318 8.31817 46.98 8.1217 46.6031 7.98744C38.9625 6.56244 3.40313 -0.0844333 2.70938 -5.83056e-05C2.51498 0.0271667 2.32917 0.0976466 2.16562 0.206192L1.9875 0.346817C1.76817 0.569567 1.60158 0.83867 1.5 1.13432L1.45312 1.25619V1.92182V2.02494C5.45625 13.1718 21.2625 49.6874 24.375 58.2562C24.5625 58.8374 24.9188 59.9437 25.5844 59.9999H25.7344C26.0906 59.9999 27.6094 57.9937 27.6094 57.9937C27.6094 57.9937 54.7594 25.0687 57.5063 21.5624C57.8618 21.1305 58.1757 20.666 58.4438 20.1749C58.5122 19.7907 58.4799 19.3954 58.3501 19.0274C58.2203 18.6593 57.9974 18.3312 57.7031 18.0749ZM34.575 21.9093L46.1625 12.2999L52.9594 18.5624L34.575 21.9093ZM30.075 21.2812L10.125 4.93119L42.4031 10.8843L30.075 21.2812ZM31.875 25.5656L52.2938 22.2749L28.95 50.3999L31.875 25.5656ZM7.41562 6.56244L28.4062 24.3749L25.3687 50.4187L7.41562 6.56244Z" fill="#00DE93"/>
</g>
<defs>
<clipPath id="clip0_45_7060">
<rect width="60" height="60" fill="white"/>
</clipPath>
</defs>
</svg>
