<svg width="1760" height="820" viewBox="0 0 1760 820" fill="none" xmlns="http://www.w3.org/2000/svg">
<path fill-rule="evenodd" clip-rule="evenodd" d="M5.5 48C10.3647 14.8314 37.9171 7.87098 46.6389 5.6676C47.7779 5.37987 48.5957 5.17326 49 5C52.5 3.5 76 0 90 0H150H180H1580H1610H1670C1684 0 1707.5 3.5 1711 5C1711.4 5.17308 1712.22 5.37946 1713.36 5.66674L1713.36 5.66742L1713.36 5.6676C1722.08 7.87098 1749.64 14.8314 1754.5 48C1760 85.5 1760 112 1760 112V150V224V596V670V708C1760 708 1760 734.5 1754.5 772C1749.64 805.169 1722.08 812.129 1713.36 814.332C1712.22 814.62 1711.4 814.827 1711 815C1707.5 816.5 1684 820 1670 820H1610H1580H180H150H90C76 820 52.5 816.5 49 815C48.5957 814.827 47.7779 814.62 46.6389 814.332C37.9171 812.129 10.3647 805.169 5.5 772C-3.33786e-06 734.5 0 708 0 708V670V596V224V150V112C0 112 -3.33786e-06 85.5 5.5 48Z" fill="#3E0190"/>
</svg>
