<svg width="24" height="22" viewBox="0 0 24 22" fill="none" xmlns="http://www.w3.org/2000/svg">
<path d="M18.7541 9.51805C18.7541 10.143 16.5161 10.666 13.5161 10.798L13.5181 10.799C13.0186 10.8261 12.5184 10.8371 12.0181 10.832C11.2391 10.832 10.6881 10.809 10.4941 10.8C7.48813 10.667 5.24413 10.144 5.24413 9.51805C5.24413 8.89205 7.48813 8.36805 10.4941 8.23405V10.278C10.6901 10.293 11.2531 10.326 12.0311 10.326C12.9641 10.326 13.4311 10.286 13.5161 10.279V8.23605C16.5161 8.36905 18.7541 8.89305 18.7541 9.51805ZM23.9441 10.064L12.1241 21.39C12.0906 21.4221 12.046 21.4401 11.9996 21.4401C11.9532 21.4401 11.9086 21.4221 11.8751 21.39L0.0561291 10.064C0.0283933 10.038 0.00973732 10.0037 0.00289834 9.9663C-0.00394065 9.92887 0.00139732 9.89023 0.0181291 9.85605L4.39413 0.664049C4.40843 0.632961 4.43144 0.606686 4.46037 0.588405C4.4893 0.570125 4.52291 0.560623 4.55713 0.561049H19.4451C19.4788 0.561199 19.5118 0.570972 19.5401 0.589219C19.5685 0.607466 19.591 0.633427 19.6051 0.664049L23.9821 9.85605C23.9989 9.89023 24.0042 9.92887 23.9974 9.9663C23.9905 10.0037 23.9719 10.038 23.9441 10.064ZM19.4661 9.66005C19.4661 8.85405 16.9141 8.18005 13.5191 8.02305V6.19505H17.7051V3.40505H6.30813V6.19505H10.4931V8.02405C7.09113 8.18005 4.53313 8.85405 4.53313 9.66105C4.53313 10.469 7.09113 11.141 10.4931 11.299V17.161H13.5181V11.297C16.9121 11.14 19.4661 10.467 19.4661 9.66005Z" fill="#00DE93"/>
</svg>
