<svg width="262" height="84" viewBox="0 0 262 84" fill="none" xmlns="http://www.w3.org/2000/svg">
<path d="M41.7174 1H220.283C242.802 1 261 19.3003 261 41.8195C261 64.3956 242.745 82.6389 220.283 82.6389H41.7174C19.1977 82.6389 1 64.3386 1 41.8195C1 19.3003 19.2546 1 41.7174 1Z" fill="white"/>
<path d="M41.717 1.79834H220.282C242.347 1.79834 260.203 19.6996 260.203 41.8197C260.203 63.9397 242.347 81.841 220.282 81.841H41.717C19.6523 81.841 1.79578 63.9397 1.79578 41.8197C1.79578 19.6996 19.6523 1.79834 41.717 1.79834Z" stroke="#010202" stroke-opacity="0.25" stroke-width="2.7543"/>
<path d="M95.5714 22.7778V32.0705H98.358C99.8365 32.0705 100.974 31.6144 101.884 30.7593C102.794 29.9041 103.192 28.7639 103.192 27.3957C103.192 26.0274 102.737 24.8872 101.884 24.0321C101.031 23.1769 99.8365 22.7778 98.358 22.7778H95.5714ZM98.358 24.1461C99.3816 24.1461 100.235 24.4311 100.803 25.0582C101.429 25.6284 101.713 26.4265 101.713 27.4527C101.713 28.4219 101.429 29.22 100.803 29.8471C100.178 30.4742 99.3816 30.7593 98.358 30.7593H96.9931V24.1461H98.358Z" fill="#010202"/>
<path d="M107.912 25.0015C106.945 25.0015 106.092 25.3435 105.41 26.0277C104.727 26.7118 104.386 27.5669 104.386 28.5931C104.386 29.6193 104.727 30.4745 105.41 31.1586C106.092 31.8427 106.888 32.1848 107.912 32.2418C108.878 32.2418 109.731 31.8997 110.414 31.2156C111.096 30.5315 111.438 29.6763 111.438 28.6501C111.438 27.6239 111.096 26.7688 110.414 26.0847C109.675 25.3435 108.878 25.0015 107.912 25.0015ZM107.912 26.3697C108.48 26.3697 108.992 26.5978 109.39 27.0538C109.788 27.4529 109.959 28.023 109.959 28.6501C109.959 29.2772 109.731 29.8474 109.39 30.2464C108.992 30.6455 108.48 30.8735 107.912 30.8735C107.343 30.8735 106.831 30.6455 106.433 30.2464C106.035 29.7903 105.864 29.2772 105.864 28.6501C105.864 28.023 106.035 27.4529 106.433 27.0538C106.831 26.5978 107.343 26.3697 107.912 26.3697Z" fill="#010202"/>
<path d="M119.797 29.6193L117.75 25.0015H117.238L115.248 29.6763L113.485 25.1725H111.949L114.907 32.2418H115.418L117.523 27.6239L119.627 32.2418H120.138L123.039 25.1725H121.503L119.797 29.6193Z" fill="#010202"/>
<path d="M127.588 25.0015C126.792 25.0015 126.109 25.2865 125.598 25.8566V25.1725H124.29V32.0708H125.711V27.966C125.711 26.9968 126.337 26.3697 127.247 26.3697C128.1 26.3697 128.668 26.9968 128.668 27.966V32.0708H130.09V27.738C130.09 26.0847 129.123 25.0015 127.588 25.0015Z" fill="#010202"/>
<path d="M132.023 21.5239V32.0709H133.445V21.5239H132.023Z" fill="#010202"/>
<path d="M138.563 25.0015C137.596 25.0015 136.743 25.3435 136.061 26.0277C135.379 26.7118 135.037 27.5669 135.037 28.5931C135.037 29.6193 135.379 30.4745 136.061 31.1586C136.743 31.8427 137.54 32.1848 138.563 32.2418C139.53 32.2418 140.383 31.8997 141.065 31.2156C141.748 30.5315 142.089 29.6763 142.089 28.6501C142.089 27.6239 141.748 26.7688 141.065 26.0847C140.383 25.3435 139.53 25.0015 138.563 25.0015ZM138.62 26.3697C139.189 26.3697 139.701 26.5978 140.099 27.0538C140.497 27.4529 140.667 28.023 140.667 28.6501C140.667 29.2772 140.44 29.8474 140.099 30.2464C139.701 30.6455 139.189 30.8735 138.62 30.8735C138.051 30.8735 137.54 30.6455 137.142 30.2464C136.743 29.7903 136.573 29.2772 136.573 28.6501C136.573 28.023 136.743 27.4529 137.142 27.0538C137.483 26.5978 137.995 26.3697 138.62 26.3697Z" fill="#010202"/>
<path d="M146.297 25.0015C145.103 25.0015 144.193 25.5146 143.511 26.4837L144.307 27.3389C144.875 26.6548 145.501 26.3127 146.127 26.3127C147.036 26.3127 147.548 26.8258 147.548 27.795V28.2511H145.672C144.193 28.2511 143.226 29.0492 143.226 30.2464C143.226 31.4436 144.136 32.2418 145.558 32.2418C146.468 32.2418 147.15 31.9567 147.662 31.3296V32.1278H148.97V27.966C148.97 26.0277 147.889 25.0015 146.297 25.0015ZM145.842 31.1016C145.16 31.1016 144.705 30.7595 144.705 30.1894C144.705 29.6193 145.103 29.3343 145.899 29.3343H147.605V29.4483C147.548 30.4175 146.809 31.1016 145.842 31.1016Z" fill="#010202"/>
<path d="M155.965 26.0276C155.453 25.3435 154.714 25.0014 153.747 25.0014C152.838 25.0014 152.041 25.3435 151.416 26.0276C150.79 26.7118 150.506 27.5669 150.506 28.5931C150.506 29.6193 150.79 30.4744 151.416 31.1586C152.041 31.8427 152.781 32.1848 153.747 32.1848C154.771 32.1848 155.567 31.7857 156.079 31.0445V32.0137H157.387V21.4668H155.965V26.0276ZM154.032 30.8735C153.463 30.8735 152.951 30.6455 152.553 30.2464C152.155 29.8473 151.985 29.2772 151.985 28.5931C151.985 27.909 152.155 27.3959 152.553 26.9968C152.951 26.5977 153.406 26.3697 154.032 26.3697C154.544 26.3697 155.055 26.5407 155.453 26.9398C155.852 27.3389 156.022 27.909 156.022 28.5931C156.022 30.1324 155.112 30.8735 154.032 30.8735Z" fill="#010202"/>
<path d="M166.315 25.0015C165.348 25.0015 164.495 25.3435 163.813 26.0277C163.13 26.7118 162.789 27.5669 162.789 28.5931C162.789 29.6193 163.13 30.4745 163.813 31.1586C164.495 31.8427 165.291 32.1848 166.315 32.2418C167.282 32.2418 168.135 31.8997 168.817 31.2156C169.5 30.5315 169.841 29.6763 169.841 28.6501C169.841 27.6239 169.5 26.7688 168.817 26.0847C168.078 25.3435 167.282 25.0015 166.315 25.0015ZM166.315 26.3697C166.884 26.3697 167.396 26.5978 167.794 27.0538C168.192 27.4529 168.362 28.023 168.362 28.6501C168.362 29.2772 168.135 29.8474 167.794 30.2464C167.396 30.6455 166.884 30.8735 166.315 30.8735C165.746 30.8735 165.235 30.6455 164.836 30.2464C164.438 29.7903 164.268 29.2772 164.268 28.6501C164.268 28.023 164.438 27.4529 164.836 27.0538C165.235 26.5978 165.746 26.3697 166.315 26.3697Z" fill="#010202"/>
<path d="M174.731 25.0015C173.935 25.0015 173.253 25.2865 172.741 25.8566V25.1725H171.433V32.0708H172.855V27.966C172.855 26.9968 173.48 26.3697 174.39 26.3697C175.243 26.3697 175.812 26.9968 175.812 27.966V32.0708H177.233V27.738C177.233 26.0847 176.323 25.0015 174.731 25.0015Z" fill="#010202"/>
<path d="M186.048 30.8735C185.195 30.8735 184.74 30.5885 184.74 29.6763V26.4267H186.73V25.1725H184.74V23.3481H183.318V25.1725H182.238V26.4267H183.318V29.7903C183.318 31.3866 184.228 32.1848 185.764 32.1848C186.105 32.1848 186.503 32.1277 186.958 32.0137V30.7595C186.503 30.8735 186.219 30.8735 186.048 30.8735Z" fill="#010202"/>
<path d="M191.678 25.0016C190.882 25.0016 190.256 25.2866 189.745 25.8567V21.5239H188.323V32.0709H189.745V27.9661C189.745 26.9969 190.37 26.3698 191.28 26.3698C192.133 26.3698 192.702 26.9969 192.702 27.9661V32.0709H194.123V27.7381C194.123 26.1418 193.213 25.0016 191.678 25.0016Z" fill="#010202"/>
<path d="M202.198 28.1941C202.198 27.2819 201.914 26.5407 201.345 25.9136C200.777 25.2865 200.037 25.0015 199.184 25.0015C198.218 25.0015 197.422 25.3435 196.739 26.0847C196.057 26.7688 195.772 27.6239 195.772 28.6501C195.772 29.6763 196.114 30.5315 196.796 31.2156C197.478 31.8997 198.331 32.2418 199.355 32.2418C200.379 32.2418 201.232 31.8997 201.971 31.1016L201.289 30.0754C200.72 30.6455 200.037 30.8735 199.355 30.8735C198.218 30.8735 197.365 30.1894 197.194 29.0492H202.142C202.142 28.7642 202.198 28.4791 202.198 28.1941ZM199.071 26.2557C200.037 26.2557 200.777 26.9398 200.777 27.966H197.194C197.365 26.9398 198.104 26.2557 199.071 26.2557Z" fill="#010202"/>
<path d="M110.527 56.8704L103.134 39.1401H102.225L94.8886 56.8704H97.732L98.9262 53.9628H106.433L107.627 56.8704H110.527ZM99.893 51.5684L102.68 44.3281L105.409 51.5684H99.893Z" fill="#010202"/>
<path d="M119.285 43.5869C117.465 43.5869 115.873 44.3851 114.963 45.7533V43.929H112.461V61.6592H115.134V55.3311C116.101 56.5853 117.522 57.1554 119.285 57.1554C121.048 57.1554 122.527 56.5283 123.664 55.217C124.801 53.9058 125.37 52.3095 125.37 50.3712C125.37 48.4328 124.801 46.8365 123.664 45.5253C122.527 44.214 121.048 43.5869 119.285 43.5869ZM118.83 54.5899C117.807 54.5899 116.897 54.2479 116.157 53.5067C115.418 52.7656 115.077 51.7394 115.077 50.3141C115.077 47.5206 116.783 46.0954 118.83 46.0954C119.911 46.0954 120.821 46.4944 121.56 47.2926C122.299 48.0907 122.64 49.1169 122.64 50.3712C122.64 51.6254 122.299 52.5946 121.56 53.3927C120.821 54.1909 119.911 54.5899 118.83 54.5899Z" fill="#010202"/>
<path d="M134.697 43.5869C132.877 43.5869 131.285 44.3851 130.375 45.7533V43.929H127.872V61.6592H130.545V55.3311C131.512 56.5853 132.934 57.1554 134.697 57.1554C136.459 57.1554 137.938 56.5283 139.075 55.217C140.213 53.9058 140.781 52.3095 140.781 50.3712C140.781 48.4328 140.213 46.8365 139.075 45.5253C137.938 44.214 136.459 43.5869 134.697 43.5869ZM134.299 54.5899C133.275 54.5899 132.365 54.2479 131.626 53.5067C130.886 52.7656 130.545 51.7394 130.545 50.3141C130.545 47.5206 132.251 46.0954 134.299 46.0954C135.379 46.0954 136.289 46.4944 137.028 47.2926C137.767 48.0907 138.109 49.1169 138.109 50.3712C138.109 51.6254 137.767 52.5946 137.028 53.3927C136.232 54.1909 135.379 54.5899 134.299 54.5899Z" fill="#010202"/>
<path d="M155.168 39.1401C153.69 39.1401 152.439 39.5962 151.415 40.4514C150.392 41.3065 149.88 42.4467 149.88 43.872C149.88 46.0954 151.301 47.5207 153.747 48.7179L155.567 49.63C157.329 50.4852 158.012 50.9983 158.012 52.2525C158.012 53.7348 156.875 54.704 155.112 54.704C153.406 54.704 151.984 53.7918 150.733 51.9105L148.856 53.3927C150.164 55.7302 152.439 57.1554 155.168 57.1554C156.761 57.1554 158.126 56.6993 159.149 55.7872C160.23 54.875 160.742 53.6208 160.742 52.1385C160.742 49.8581 159.434 48.4898 156.761 47.1786L154.884 46.2664C153.178 45.4113 152.553 44.9552 152.553 43.758C152.553 42.3897 153.69 41.6486 155.055 41.6486C156.476 41.6486 157.671 42.3897 158.581 43.758L160.457 42.2757C159.49 40.3944 157.5 39.1401 155.168 39.1401Z" fill="#010202"/>
<path d="M169.158 54.6468C167.566 54.6468 166.713 54.0767 166.713 52.4234V46.2662H170.409V43.8718H166.713V40.4512H164.04V43.8718H161.993V46.2662H164.04V52.5944C164.04 55.6159 165.746 57.0982 168.589 57.0982C169.215 57.0982 169.954 56.9842 170.807 56.8132V54.4757C170.068 54.5897 169.556 54.6468 169.158 54.6468Z" fill="#010202"/>
<path d="M178.485 43.5869C176.665 43.5869 175.073 44.271 173.822 45.5253C172.571 46.8365 171.945 48.4328 171.945 50.3141C171.945 52.1955 172.571 53.8488 173.822 55.103C175.073 56.4143 176.608 57.0414 178.485 57.0984C180.305 57.0984 181.84 56.4143 183.148 55.16C184.456 53.8488 185.082 52.2525 185.082 50.3141C185.082 48.4328 184.399 46.7795 183.148 45.5253C181.897 44.271 180.305 43.5869 178.485 43.5869ZM178.542 46.1524C179.622 46.1524 180.532 46.5515 181.271 47.4066C182.011 48.2048 182.409 49.1739 182.409 50.4282C182.409 51.6254 182.011 52.5946 181.271 53.4497C180.532 54.2479 179.622 54.6469 178.542 54.6469C177.404 54.6469 176.495 54.2479 175.812 53.4497C175.073 52.6516 174.732 51.6254 174.732 50.4282C174.732 49.2309 175.073 48.2048 175.812 47.4066C176.495 46.5515 177.404 46.1524 178.542 46.1524Z" fill="#010202"/>
<path d="M193.726 43.7578C192.19 43.7578 190.996 44.3849 190.086 45.5821V43.8718H187.584V56.8132H190.257V49.9149C190.257 47.6345 191.792 46.3233 193.896 46.3233H194.692V43.8718C194.465 43.8148 194.124 43.7578 193.726 43.7578Z" fill="#010202"/>
<path d="M207.772 49.5159C207.772 47.8056 207.203 46.3803 206.122 45.2401C205.042 44.0999 203.677 43.5298 202.028 43.5298C200.208 43.5298 198.673 44.2139 197.478 45.5251C196.227 46.8364 195.659 48.4327 195.659 50.314C195.659 52.2524 196.284 53.8487 197.535 55.1599C198.786 56.4712 200.379 57.0983 202.312 57.0983C204.189 57.0983 205.838 56.4141 207.26 54.9889L206.009 53.1075C204.871 54.1337 203.677 54.6468 202.369 54.6468C200.208 54.6468 198.673 53.3926 198.331 51.2262H207.601C207.658 50.6561 207.772 50.086 207.772 49.5159ZM201.914 45.9242C203.734 45.9242 205.099 47.1785 205.099 49.1168H198.331C198.73 47.1785 200.151 45.9242 201.914 45.9242Z" fill="#010202"/>
<path d="M82.5487 40.679C82.4918 35.7191 86.8707 33.3247 87.0413 33.2107C84.5959 29.8471 80.7289 29.391 79.421 29.334C76.2364 28.9919 73.1086 31.1583 71.4595 31.1583C69.8103 31.1583 67.2512 29.391 64.5784 29.448C61.1095 29.505 57.8112 31.3863 56.0483 34.3509C52.3518 40.337 55.0815 49.1736 58.6642 54.0195C60.4271 56.4139 62.4743 59.0364 65.204 58.9794C67.8768 58.8654 68.8435 57.3831 72.0281 57.3831C75.2127 57.3831 76.1226 58.9794 78.9091 58.9224C81.7525 58.8654 83.5723 56.5279 85.2784 54.1335C87.3256 51.397 88.1217 48.7175 88.1786 48.6035C88.0649 48.5465 82.6056 46.6081 82.5487 40.679ZM77.3169 26.1984C78.7385 24.5451 79.7053 22.2647 79.421 19.9272C77.3737 19.9843 74.7578 21.2385 73.2792 22.8918C71.9713 24.317 70.777 26.7115 71.1182 28.9349C73.4498 29.1059 75.8383 27.7947 77.3169 26.1984Z" fill="#010202"/>
</svg>
