<svg width="734" height="715" viewBox="0 0 734 715" fill="none" xmlns="http://www.w3.org/2000/svg">
<path fill-rule="evenodd" clip-rule="evenodd" d="M4.79573 41.8537C9.03754 12.9323 33.0618 6.86311 40.6669 4.94187C41.66 4.69098 42.3731 4.51083 42.7256 4.35976C45.7774 3.05183 66.2683 0 78.4756 0H150H156.951H577H584H655.476C667.683 0 688.174 3.05183 691.226 4.35976C691.578 4.51083 692.291 4.69098 693.284 4.94187C700.889 6.86311 724.914 12.9323 729.156 41.8537C733.951 74.5518 733.951 97.6585 733.951 97.6585V146.137C733.984 147.421 734 148.709 734 150V565C734 566.291 733.984 567.579 733.951 568.863V617.341C733.951 617.341 733.951 640.448 729.156 673.146C724.914 702.068 700.889 708.137 693.284 710.058C692.291 710.309 691.578 710.489 691.226 710.64C688.174 711.948 667.683 715 655.476 715H584H577H156.951H150H78.4756C66.2683 715 45.7774 711.948 42.7256 710.64C42.3731 710.489 41.66 710.309 40.6669 710.058C33.0619 708.137 9.03754 702.068 4.79573 673.146C-2.91045e-06 640.448 0 617.341 0 617.341V565V519.683V195.317V150V97.6585C0 97.6585 -2.91045e-06 74.5518 4.79573 41.8537Z" fill="#3E0190"/>
</svg>
