<svg width="980" height="715" viewBox="0 0 980 715" fill="none" xmlns="http://www.w3.org/2000/svg">
<path fill-rule="evenodd" clip-rule="evenodd" d="M4.79573 41.8537C9.03754 12.9323 33.0618 6.86311 40.6669 4.94187C41.66 4.69098 42.3731 4.51083 42.7256 4.35976C45.7774 3.05183 66.2683 0 78.4756 0H150H156.951H823H830H901.476C913.683 0 934.174 3.05183 937.226 4.35976C937.578 4.51083 938.291 4.69098 939.284 4.94187C946.889 6.86311 970.914 12.9323 975.156 41.8537C979.951 74.5518 979.951 97.6585 979.951 97.6585V146.137C979.984 147.421 980 148.709 980 150V565C980 566.291 979.984 567.579 979.951 568.863V617.341C979.951 617.341 979.951 640.448 975.156 673.146C970.914 702.068 946.889 708.137 939.284 710.058C938.291 710.309 937.578 710.489 937.226 710.64C934.174 711.948 913.683 715 901.476 715H830H823H156.951H150H78.4756C66.2683 715 45.7774 711.948 42.7256 710.64C42.3731 710.489 41.66 710.309 40.6669 710.058C33.0619 708.137 9.03754 702.068 4.79573 673.146C-2.91045e-06 640.448 0 617.341 0 617.341V565V519.683V195.317V150V97.6585C0 97.6585 -2.91045e-06 74.5518 4.79573 41.8537Z" fill="#3E0190"/>
</svg>
