<svg width="262" height="83" viewBox="0 0 262 83" fill="none" xmlns="http://www.w3.org/2000/svg">
<path d="M41.7174 0.638672H220.283C242.802 0.638672 261 18.939 261 41.4581C261 64.0343 242.745 82.2776 220.283 82.2776H41.7174C19.1977 82.2776 1 63.9772 1 41.4581C1 18.882 19.2546 0.638672 41.7174 0.638672Z" fill="white"/>
<path d="M41.717 1.37988H220.282C242.347 1.37988 260.203 19.2812 260.203 41.4012C260.203 63.5213 242.347 81.4225 220.282 81.4225H41.717C19.6523 81.4225 1.79578 63.5213 1.79578 41.4012C1.79578 19.3382 19.6523 1.37988 41.717 1.37988Z" stroke="#010202" stroke-opacity="0.25" stroke-width="2.7543"/>
<path d="M67.7059 40.6028L48.3139 22.4165C48.1433 22.8726 47.9727 23.3287 47.9727 23.9558V57.4209C47.9727 58.048 48.1433 58.5041 48.3139 58.9602L67.7059 40.6028Z" fill="#010202"/>
<path d="M69.9807 40.6031L76.4636 46.6463L83.5721 42.8836C85.8468 41.6863 85.8468 39.691 83.5721 38.4938L76.293 34.5601L69.9807 40.6031Z" fill="#010202"/>
<path d="M68.8433 39.5199L74.8144 33.7618L52.0104 21.6756C51.0437 21.2195 50.0769 21.0485 49.4514 21.3905L68.8433 39.5199Z" fill="#010202"/>
<path d="M68.8433 41.6294L49.4514 59.9297C50.0769 60.2148 51.0436 60.1008 52.181 59.6447L75.0988 47.5585L68.8433 41.6294Z" fill="#010202"/>
<path d="M99.6658 23.6709C98.3579 23.6709 97.2205 24.127 96.3106 25.0391C95.4007 25.9513 94.9458 27.0915 94.9458 28.4598C94.9458 29.828 95.4007 30.9682 96.3106 31.8804C97.2205 32.7926 98.3579 33.2486 99.6658 33.2486C101.486 33.2486 103.021 32.2795 103.817 30.7972V28.1747H99.609V29.486H102.339V30.5121C101.713 31.4813 100.86 31.9374 99.6658 31.9374C98.6991 31.9374 97.9029 31.5953 97.2774 30.9682C96.6518 30.2841 96.3675 29.486 96.3675 28.4598C96.3675 27.4906 96.6518 26.6354 97.2774 26.0083C97.8461 25.3812 98.6422 25.0391 99.609 25.0391C100.746 25.0391 101.599 25.5522 102.282 26.5214L103.305 25.6092C102.509 24.355 101.258 23.6709 99.6658 23.6709Z" fill="#010202"/>
<path d="M105.637 23.8418V33.1345H111.665V31.8233H107.059V28.8587H110.414V27.5475H107.059V25.153H111.495V23.8418H105.637Z" fill="#010202"/>
<path d="M112.405 23.8418V25.153H115.419V33.1345H116.84V25.153H119.854V23.8418H112.405Z" fill="#010202"/>
<path d="M124.346 23.8418V33.1345H125.768V23.8418H124.346Z" fill="#010202"/>
<path d="M127.133 23.8418V25.153H130.147V33.1345H131.569V25.153H134.583V23.8418H127.133Z" fill="#010202"/>
<path d="M143.17 23.6709C141.862 23.6709 140.724 24.127 139.815 25.0391C138.905 25.9513 138.45 27.0915 138.45 28.4598C138.45 29.828 138.905 30.9682 139.815 31.8804C140.724 32.7926 141.805 33.2486 143.17 33.2486C144.478 33.2486 145.558 32.7926 146.468 31.8804C147.378 30.9682 147.833 29.828 147.833 28.4598C147.833 27.0915 147.378 25.9513 146.468 25.0391C145.615 24.127 144.478 23.6709 143.17 23.6709ZM143.17 25.0391C144.08 25.0391 144.876 25.3812 145.444 26.0083C146.07 26.6354 146.354 27.4906 146.354 28.4598C146.354 29.486 146.07 30.2841 145.444 30.9112C144.819 31.5383 144.08 31.8804 143.17 31.8804C142.26 31.8804 141.464 31.5383 140.895 30.9112C140.269 30.2271 139.985 29.4289 139.985 28.4598C139.985 27.4906 140.269 26.6354 140.895 26.0083C141.521 25.3812 142.26 25.0391 143.17 25.0391Z" fill="#010202"/>
<path d="M155.51 30.1131L150.108 23.6709H149.596V33.1346H151.017V26.8635L156.477 33.3057H156.989V23.8419H155.567V30.1131H155.51Z" fill="#010202"/>
<path d="M103.192 40.0327C100.86 40.0327 98.9266 40.8309 97.3343 42.4842C95.7419 44.0805 94.9458 46.0758 94.9458 48.4703C94.9458 50.8647 95.7419 52.8601 97.3343 54.4564C98.9266 56.0527 100.86 56.8508 103.192 56.8508C106.319 56.8508 109.106 55.1405 110.471 52.575V48.0142H103.135V50.3516H107.969V52.1189C106.888 53.7722 105.353 54.5704 103.305 54.5704C101.599 54.5704 100.235 54.0003 99.154 52.8601C98.0735 51.7199 97.5617 50.2376 97.5617 48.4703C97.5617 46.76 98.0735 45.3347 99.0971 44.1945C100.121 43.0543 101.486 42.4842 103.135 42.4842C105.068 42.4842 106.661 43.3393 107.798 45.0496L109.618 43.5104C108.139 41.1729 105.978 40.0327 103.192 40.0327Z" fill="#010202"/>
<path d="M117.636 44.1948C115.93 44.1948 114.452 44.8219 113.257 46.0191C112.063 47.2164 111.494 48.7557 111.494 50.523C111.494 52.2903 112.063 53.8296 113.257 55.0268C114.452 56.224 115.873 56.8511 117.636 56.8511C119.342 56.8511 120.764 56.224 122.015 55.0268C123.209 53.7726 123.835 52.2903 123.835 50.523C123.835 48.7557 123.209 47.2164 122.015 46.0191C120.821 44.8219 119.342 44.1948 117.636 44.1948ZM117.693 46.5893C118.717 46.5893 119.57 46.9883 120.252 47.7295C120.934 48.4706 121.276 49.3828 121.276 50.523C121.276 51.6062 120.934 52.5754 120.252 53.3165C119.57 54.0576 118.717 54.3997 117.693 54.3997C116.669 54.3997 115.816 54.0576 115.134 53.3165C114.452 52.5754 114.11 51.6062 114.11 50.523C114.11 49.3828 114.452 48.4706 115.134 47.7295C115.759 46.9313 116.612 46.5893 117.693 46.5893Z" fill="#010202"/>
<path d="M130.886 44.1948C129.18 44.1948 127.701 44.8219 126.507 46.0191C125.313 47.2164 124.744 48.7557 124.744 50.523C124.744 52.2903 125.313 53.8296 126.507 55.0268C127.701 56.224 129.123 56.8511 130.886 56.8511C132.592 56.8511 134.014 56.224 135.265 55.0268C136.459 53.7726 137.085 52.2903 137.085 50.523C137.085 48.7557 136.459 47.2164 135.265 46.0191C134.071 44.8219 132.592 44.1948 130.886 44.1948ZM130.943 46.5893C131.967 46.5893 132.82 46.9883 133.502 47.7295C134.184 48.4706 134.526 49.3828 134.526 50.523C134.526 51.6062 134.184 52.5754 133.502 53.3165C132.82 54.0576 131.967 54.3997 130.943 54.3997C129.919 54.3997 129.066 54.0576 128.384 53.3165C127.701 52.5754 127.36 51.6062 127.36 50.523C127.36 49.3828 127.701 48.4706 128.384 47.7295C129.009 46.9313 129.862 46.5893 130.943 46.5893Z" fill="#010202"/>
<path d="M147.89 46.1902C146.98 44.8789 145.615 44.1948 143.795 44.1948C142.146 44.1948 140.838 44.7649 139.757 45.9051C138.677 47.0453 138.165 48.4706 138.165 50.2949C138.165 52.0623 138.734 53.5445 139.757 54.6847C140.838 55.8249 142.146 56.3951 143.795 56.3951C145.501 56.3951 146.752 55.8249 147.719 54.6847V55.5399C147.719 57.8203 146.354 59.0175 144.25 59.0175C142.885 59.0175 141.52 58.4474 140.156 57.3072L138.791 59.1315C140.326 60.6708 142.203 61.412 144.364 61.412C147.89 61.412 150.164 59.2456 150.164 55.4259V44.5939H147.89V46.1902ZM144.193 54.0576C143.17 54.0576 142.373 53.7156 141.634 53.0314C140.952 52.2903 140.61 51.3781 140.61 50.2949C140.61 49.2117 140.952 48.2996 141.634 47.5584C142.317 46.8743 143.17 46.5323 144.193 46.5323C146.127 46.5323 147.719 47.7865 147.719 50.2379C147.719 51.4922 147.378 52.4043 146.695 53.0885C145.956 53.7156 145.16 54.0576 144.193 54.0576Z" fill="#010202"/>
<path d="M152.553 38.0947V56.5661H155.055V38.0947H152.553Z" fill="#010202"/>
<path d="M168.135 49.7247C168.135 48.1284 167.623 46.8172 166.6 45.734C165.576 44.6508 164.325 44.1377 162.789 44.1377C161.083 44.1377 159.662 44.7648 158.524 45.962C157.387 47.1593 156.818 48.6985 156.818 50.4659C156.818 52.2902 157.387 53.7725 158.581 54.9697C159.775 56.1669 161.254 56.794 163.074 56.794C164.837 56.794 166.372 56.1669 167.737 54.8556L166.543 53.0883C165.519 54.0575 164.382 54.5136 163.131 54.5136C161.14 54.5136 159.662 53.3164 159.321 51.321H167.964C168.078 50.8079 168.135 50.2378 168.135 49.7247ZM162.676 46.4181C164.382 46.4181 165.633 47.5583 165.633 49.3827H159.321C159.719 47.5583 161.027 46.4181 162.676 46.4181Z" fill="#010202"/>
<path d="M175.414 40.3179V56.5658H177.916V50.2947H181.101C182.693 50.2947 183.944 49.8386 184.968 48.9264C185.934 48.0143 186.446 46.7601 186.446 45.2778C186.446 43.7955 185.934 42.5983 184.968 41.6861C184.001 40.774 182.693 40.3179 181.101 40.3179H175.414ZM181.101 42.5983C182.864 42.5983 183.887 43.6815 183.887 45.2778C183.887 46.8741 182.864 47.9573 181.101 47.9573H177.973V42.5983H181.101Z" fill="#010202"/>
<path d="M187.868 38.0947V56.5661H190.37V38.0947H187.868Z" fill="#010202"/>
<path d="M197.251 44.1948C195.147 44.1948 193.498 45.05 192.361 46.7603L193.782 48.2996C194.749 47.1023 195.83 46.4752 197.024 46.4752C198.616 46.4752 199.526 47.3874 199.526 49.0407V49.8389H196.228C193.612 49.8389 191.963 51.2071 191.963 53.3165C191.963 55.4259 193.555 56.7941 196 56.7941C197.592 56.7941 198.844 56.224 199.697 55.1408V56.5091H202.028V49.2117C202.028 46.0192 200.151 44.1948 197.251 44.1948ZM196.512 54.8558C195.318 54.8558 194.465 54.2857 194.465 53.2595C194.465 52.2903 195.147 51.7772 196.512 51.7772H199.469V52.0052C199.526 53.6585 198.161 54.8558 196.512 54.8558Z" fill="#010202"/>
<path d="M208.966 53.3161L205.611 44.4795H202.938L207.601 56.0526L207.146 57.1928C206.578 58.5611 205.781 58.9601 204.587 58.9601C204.417 58.9601 203.962 58.9601 203.222 58.8461V61.0125C203.848 61.1835 204.53 61.2406 205.156 61.2406C207.146 61.2406 208.454 60.2144 209.421 57.934L215.108 44.4795H212.435L208.966 53.3161Z" fill="#010202"/>
</svg>
