<svg width="172" height="172" viewBox="0 0 172 172" fill="none" xmlns="http://www.w3.org/2000/svg">
<path d="M146.811 146.811C132.644 160.978 113.976 169.754 94.029 171.624C74.0818 173.495 54.1074 168.342 37.554 157.056C21.0006 145.77 8.90701 129.059 3.36088 109.807C-2.18526 90.5553 -0.835873 69.9712 7.1761 51.6083L22.9409 58.4866C16.5313 73.177 15.4518 89.6442 19.8887 105.046C24.3256 120.447 34.0005 133.816 47.2432 142.845C60.4859 151.874 76.4654 155.996 92.4232 154.5C108.381 153.003 123.316 145.982 134.649 134.649L146.811 146.811Z" fill="#00DE93"/>
<path d="M6.87023 52.318C15.5344 31.9631 31.7091 15.7299 52.0326 6.99231C72.356 -1.74526 95.2649 -2.31506 115.998 5.40134L109.998 21.5211C93.4119 15.348 75.0848 15.8038 58.8261 22.7938C42.5673 29.7839 29.6275 42.7705 22.6962 59.0544L6.87023 52.318Z" fill="#3E0190"/>
<path d="M115.466 5.20551C129.082 10.1714 141.223 18.4981 150.76 29.4121C160.296 40.3261 166.92 53.4733 170.016 67.6326C173.111 81.7918 172.578 96.5037 168.466 110.402C164.353 124.3 156.795 136.933 146.493 147.128L134.394 134.902C142.636 126.746 148.682 116.64 151.972 105.521C155.262 94.4029 155.689 82.6334 153.213 71.306C150.736 59.9787 145.437 49.4609 137.808 40.7297C130.178 31.9985 120.466 25.3372 109.573 21.3644L115.466 5.20551Z" fill="#BBFFE8"/>
</svg>
