<svg width="685" height="220" viewBox="0 0 685 220" fill="none" xmlns="http://www.w3.org/2000/svg">
<path d="M331.39 171.769C326.303 171.901 321.255 170.853 316.64 168.707C312.696 166.869 309.373 163.919 307.079 160.219C304.826 156.4 303.679 152.028 303.767 147.593C303.767 146.788 303.767 145.982 303.834 145.136C303.901 144.289 303.941 143.43 304.035 142.543C297.998 142.261 292.069 140.835 286.562 138.339C281.352 135.973 276.666 132.589 272.777 128.387C268.833 124.101 265.767 119.082 263.752 113.613C261.605 107.812 260.528 101.668 260.574 95.4811C260.529 89.2261 261.7 83.022 264.021 77.2149C266.276 71.5602 269.662 66.4273 273.971 62.1319C278.394 57.7321 283.645 54.2536 289.418 51.8974C295.763 49.3492 302.55 48.0847 309.385 48.177C316.199 48.0855 322.969 49.2839 329.339 51.7094C335.098 53.9154 340.356 57.2588 344.8 61.5409C349.129 65.7477 352.535 70.8112 354.803 76.409C357.197 82.3847 358.391 88.7743 358.317 95.2125V144.625C358.35 149.27 357.332 153.862 355.34 158.056C353.382 162.178 350.27 165.64 346.382 168.022C341.835 170.655 336.64 171.954 331.39 171.769ZM307.789 121.551C308.406 121.551 308.996 121.551 309.573 121.551C310.181 121.505 310.783 121.397 311.37 121.228C313.159 118.694 315.108 116.276 317.203 113.989C319.469 111.493 321.906 109.16 324.498 107.005C327.131 104.808 329.923 102.811 332.852 101.028V94.0171C332.883 90.6625 332.302 87.3304 331.135 84.1856C330.049 81.2793 328.404 78.6145 326.295 76.3419C324.192 74.1171 321.666 72.3361 318.866 71.1038C315.91 69.7963 312.71 69.1368 309.479 69.1697C306.284 69.1472 303.124 69.8353 300.226 71.1844C297.42 72.4926 294.914 74.3673 292.865 76.6911C290.723 79.1502 289.059 81.988 287.957 85.0586C286.747 88.4032 286.143 91.9373 286.173 95.4945C286.138 98.9214 286.673 102.33 287.756 105.581C288.722 108.523 290.232 111.257 292.208 113.64C294.088 115.884 296.412 117.713 299.033 119.012C301.777 120.374 304.743 121.234 307.789 121.551ZM330.331 150.777C331.037 150.794 331.738 150.641 332.373 150.33C333.008 150.019 333.558 149.56 333.978 148.99C334.958 147.571 335.43 145.863 335.319 144.142V123.995C333.576 125.385 332.017 126.992 330.68 128.777C329.508 130.36 328.489 132.051 327.636 133.827C326.842 135.474 326.261 137.216 325.906 139.011C325.56 140.718 325.38 142.454 325.369 144.195C325.337 145.432 325.59 146.659 326.107 147.781C326.518 148.662 327.129 149.435 327.89 150.038C328.599 150.549 329.458 150.809 330.331 150.777Z" fill="white"/>
<path d="M370.264 142.946V95.1184C370.264 88.7432 372.097 83.7155 375.762 80.0354C379.428 76.3553 384.532 74.5197 391.076 74.5287H412.035V92.5934H398.116C397.481 92.5606 396.845 92.6618 396.251 92.8905C395.657 93.1192 395.118 93.4702 394.668 93.9209C394.218 94.3717 393.867 94.912 393.639 95.507C393.411 96.1019 393.31 96.7383 393.342 97.3748V142.946H370.264Z" fill="white"/>
<path d="M455.281 144.531C448.737 144.624 442.276 143.048 436.508 139.951C431 136.977 426.374 132.598 423.098 127.259C419.681 121.671 417.932 115.221 418.056 108.67C417.943 102.159 419.693 95.7506 423.098 90.2027C426.412 84.8507 431.08 80.4718 436.628 77.5104C442.433 74.5103 448.87 72.9449 455.402 72.9449C461.934 72.9449 468.371 74.5103 474.175 77.5104C479.693 80.4707 484.322 84.8522 487.585 90.2027C490.945 95.7668 492.67 102.168 492.56 108.67C492.685 115.076 491.035 121.391 487.791 126.913C484.548 132.436 479.839 136.949 474.188 139.951C468.375 143.058 461.869 144.633 455.281 144.531ZM455.281 124.076C457.912 124.129 460.505 123.44 462.764 122.088C464.924 120.773 466.653 118.855 467.738 116.568C468.879 114.077 469.469 111.37 469.469 108.63C469.469 105.89 468.879 103.183 467.738 100.692C466.625 98.4634 464.899 96.5995 462.764 95.3199C460.506 93.9627 457.913 93.2692 455.281 93.3187C452.723 93.2399 450.195 93.8961 447.997 95.2099C445.799 96.5236 444.023 98.44 442.877 100.733C441.694 103.211 441.08 105.923 441.08 108.67C441.08 111.417 441.694 114.13 442.877 116.608C444 118.926 445.769 120.868 447.97 122.2C450.171 123.533 452.71 124.198 455.281 124.116V124.076Z" fill="white"/>
<path d="M531.273 144.665C526.561 144.7 521.898 143.705 517.609 141.751C513.441 139.866 509.883 136.851 507.337 133.048C504.588 128.709 503.223 123.636 503.421 118.502V74.5287H526.365V120.879C526.345 121.789 526.577 122.686 527.036 123.471C527.476 124.226 528.117 124.845 528.886 125.258C529.611 125.684 530.433 125.915 531.273 125.929C532.116 125.938 532.945 125.705 533.66 125.258C534.374 124.813 534.968 124.2 535.39 123.471C535.839 122.683 536.066 121.787 536.047 120.879V99.1074C535.883 94.0456 537.223 89.0489 539.895 84.7497C542.387 80.9137 545.904 77.8561 550.046 75.9255C554.38 73.8961 559.115 72.8723 563.898 72.9304C568.748 72.8553 573.552 73.8792 577.952 75.9255C582.088 77.86 585.6 80.917 588.089 84.7497C590.766 89.047 592.106 94.045 591.938 99.1074V120.879C591.924 121.788 592.155 122.684 592.608 123.471C593.039 124.211 593.653 124.826 594.392 125.258C595.09 125.687 595.892 125.92 596.712 125.929C597.599 125.951 598.473 125.718 599.233 125.258C599.947 124.813 600.541 124.2 600.962 123.471C601.411 122.683 601.638 121.787 601.619 120.879V74.5287H624.697V118.502C624.894 123.634 623.534 128.705 620.795 133.048C618.241 136.85 614.679 139.863 610.51 141.751C606.181 143.714 601.477 144.708 596.725 144.665C592.057 144.688 587.44 143.694 583.195 141.751C578.734 139.789 574.975 136.514 572.417 132.362C569.859 128.209 568.623 123.375 568.873 118.502V96.5824C568.914 95.6426 568.686 94.7107 568.216 93.8962C567.781 93.1929 567.189 92.6 566.486 92.1636C565.726 91.7083 564.851 91.48 563.965 91.5055C563.147 91.5104 562.345 91.7379 561.646 92.1636C560.918 92.5858 560.306 93.1808 559.862 93.8962C559.382 94.707 559.149 95.6407 559.192 96.5824V118.502C559.429 123.364 558.195 128.185 555.652 132.333C553.108 136.481 549.374 139.764 544.937 141.751C540.653 143.72 535.987 144.716 531.273 144.665Z" fill="white"/>
<path d="M632.931 92.5934V74.5287H685.067V92.5934H632.931ZM664.376 142.946C657.913 142.946 652.848 141.106 649.183 137.426C645.509 133.759 643.685 128.723 643.685 122.357V58.1831H666.629V120.624C666.618 121.086 666.708 121.545 666.891 121.969C667.073 122.393 667.346 122.773 667.688 123.082C668.365 123.734 669.271 124.091 670.209 124.076H685.067V142.946H664.376Z" fill="white"/>
<path d="M164.321 0H55.3278C24.7711 0 0 24.8107 0 55.4164V164.584C0 195.189 24.7711 220 55.3278 220H164.321C194.877 220 219.648 195.189 219.648 164.584V55.4164C219.648 24.8107 194.877 0 164.321 0Z" fill="#00DE93"/>
<path d="M33.4836 53.6569L33.4836 166.33C33.4836 177.449 42.4831 186.463 53.5846 186.463C64.686 186.463 73.6855 177.449 73.6855 166.33V53.6569C73.6855 42.5377 64.686 33.5238 53.5846 33.5238C42.4831 33.5238 33.4836 42.5377 33.4836 53.6569Z" fill="white"/>
<path d="M89.7233 53.6703L89.7233 166.343C89.7233 177.462 98.7228 186.476 109.824 186.476C120.926 186.476 129.925 177.462 129.925 166.343V53.6703C129.925 42.5511 120.926 33.5372 109.824 33.5372C98.7228 33.5372 89.7233 42.5511 89.7233 53.6703Z" fill="white"/>
<path d="M89.7233 120.06V166.33C89.7233 177.449 98.7228 186.463 109.824 186.463C120.926 186.463 129.925 177.449 129.925 166.33V120.06C129.925 108.941 120.926 99.9267 109.824 99.9267C98.7228 99.9267 89.7233 108.941 89.7233 120.06Z" fill="#3E0190"/>
<path d="M53.5712 146.21C42.4697 146.21 33.4702 155.224 33.4702 166.343C33.4702 177.462 42.4697 186.476 53.5712 186.476C64.6726 186.476 73.6721 177.462 73.6721 166.343C73.6721 155.224 64.6726 146.21 53.5712 146.21Z" fill="#3E0190"/>
<path d="M145.963 53.6569V166.33C145.963 177.449 154.962 186.463 166.064 186.463C177.165 186.463 186.165 177.449 186.165 166.33V53.6569C186.165 42.5377 177.165 33.5238 166.064 33.5238C154.962 33.5238 145.963 42.5377 145.963 53.6569Z" fill="#3E0190"/>
</svg>
