<svg width="80" height="26" viewBox="0 0 80 26" fill="none" xmlns="http://www.w3.org/2000/svg">
<path d="M38.7023 20.0286C38.1082 20.044 37.5186 19.9217 36.9796 19.6715C36.519 19.4572 36.131 19.1133 35.863 18.6817C35.5999 18.2365 35.4659 17.7267 35.4761 17.2096C35.4761 17.1157 35.4761 17.0217 35.484 16.923C35.4918 16.8244 35.4965 16.7241 35.5075 16.6208C34.8024 16.5879 34.11 16.4216 33.4669 16.1306C32.8584 15.8546 32.3111 15.4601 31.8569 14.9701C31.3963 14.4704 31.0382 13.8851 30.803 13.2474C30.5521 12.571 30.4264 11.8546 30.4318 11.1332C30.4265 10.4039 30.5632 9.68049 30.8343 9.00337C31.0976 8.34403 31.4931 7.74552 31.9963 7.24467C32.513 6.73164 33.1262 6.32605 33.8004 6.05132C34.5415 5.75418 35.334 5.60675 36.1323 5.61751C36.9281 5.60684 37.7188 5.74658 38.4627 6.02939C39.1353 6.28661 39.7494 6.67646 40.2684 7.17576C40.7739 7.66629 41.1718 8.2567 41.4366 8.90941C41.7162 9.60618 41.8556 10.3512 41.847 11.1019V16.8635C41.8509 17.4051 41.732 17.9405 41.4993 18.4296C41.2707 18.9102 40.9072 19.3139 40.4531 19.5916C39.9221 19.8987 39.3153 20.0501 38.7023 20.0286ZM35.946 14.173C36.018 14.173 36.0869 14.173 36.1543 14.173C36.2253 14.1677 36.2956 14.1551 36.3641 14.1354C36.5731 13.8399 36.8007 13.558 37.0454 13.2913C37.31 13.0003 37.5947 12.7282 37.8973 12.4769C38.2048 12.2208 38.531 11.9879 38.873 11.78V10.9625C38.8767 10.5714 38.8087 10.1829 38.6725 9.81617C38.5456 9.47729 38.3536 9.16657 38.1072 8.90158C37.8616 8.64216 37.5666 8.4345 37.2396 8.29081C36.8944 8.13835 36.5206 8.06146 36.1433 8.06529C35.7702 8.06267 35.4011 8.1429 35.0627 8.3002C34.735 8.45274 34.4422 8.67134 34.2029 8.9423C33.9528 9.22904 33.7585 9.55992 33.6297 9.91796C33.4884 10.3079 33.4179 10.72 33.4215 11.1348C33.4174 11.5344 33.4798 11.9319 33.6063 12.3109C33.7192 12.654 33.8955 12.9727 34.1262 13.2506C34.3458 13.5122 34.6172 13.7255 34.9233 13.877C35.2438 14.0358 35.5902 14.1361 35.946 14.173ZM38.5786 17.5808C38.6611 17.5828 38.7429 17.565 38.817 17.5287C38.8912 17.4925 38.9555 17.4389 39.0045 17.3725C39.1189 17.2071 39.1741 17.0079 39.1611 16.8071V14.458C38.9576 14.6201 38.7755 14.8075 38.6193 15.0155C38.4824 15.2002 38.3634 15.3973 38.2638 15.6044C38.1711 15.7965 38.1032 15.9997 38.0617 16.2089C38.0213 16.4079 38.0003 16.6104 37.9991 16.8134C37.9954 16.9576 38.0248 17.1006 38.0852 17.2316C38.1333 17.3342 38.2046 17.4243 38.2935 17.4947C38.3763 17.5542 38.4766 17.5846 38.5786 17.5808Z" fill="#252626"/>
<path d="M43.2427 16.6678V11.091C43.2427 10.3476 43.4567 9.76139 43.8848 9.33228C44.3128 8.90318 44.909 8.68915 45.6732 8.69019H48.121V10.7966H46.4954C46.4212 10.7927 46.347 10.8045 46.2776 10.8312C46.2082 10.8579 46.1452 10.8988 46.0927 10.9514C46.0401 11.0039 45.9992 11.0669 45.9725 11.1363C45.9459 11.2057 45.9341 11.2799 45.9379 11.3541V16.6678H43.2427Z" fill="#252626"/>
<path d="M53.1714 16.8527C52.4071 16.8635 51.6526 16.6797 50.9789 16.3187C50.3357 15.9718 49.7954 15.4613 49.4128 14.8387C49.0138 14.1872 48.8095 13.4351 48.824 12.6713C48.8108 11.912 49.0151 11.1648 49.4128 10.5179C49.7998 9.89385 50.3449 9.38326 50.993 9.03795C51.6709 8.68814 52.4227 8.50562 53.1855 8.50562C53.9483 8.50562 54.7001 8.68814 55.378 9.03795C56.0224 9.38313 56.563 9.89402 56.9441 10.5179C57.3366 11.1667 57.538 11.9131 57.5251 12.6713C57.5398 13.4182 57.347 14.1545 56.9682 14.7984C56.5895 15.4423 56.0395 15.9686 55.3796 16.3187C54.7006 16.6809 53.9408 16.8646 53.1714 16.8527ZM53.1714 14.4675C53.4787 14.4738 53.7815 14.3935 54.0453 14.2358C54.2976 14.0825 54.4996 13.8588 54.6263 13.5921C54.7594 13.3017 54.8284 12.986 54.8284 12.6666C54.8284 12.3471 54.7594 12.0314 54.6263 11.741C54.4962 11.4811 54.2947 11.2638 54.0453 11.1146C53.7817 10.9563 53.4788 10.8755 53.1714 10.8812C52.8726 10.872 52.5774 10.9486 52.3207 11.1017C52.064 11.2549 51.8566 11.4784 51.7228 11.7457C51.5846 12.0347 51.5129 12.3509 51.5129 12.6713C51.5129 12.9916 51.5846 13.3078 51.7228 13.5968C51.8539 13.867 52.0605 14.0935 52.3176 14.2489C52.5746 14.4042 52.8712 14.4818 53.1714 14.4722V14.4675Z" fill="#252626"/>
<path d="M62.0465 16.8683C61.4961 16.8723 60.9516 16.7564 60.4506 16.5285C59.9639 16.3087 59.5484 15.9572 59.251 15.5136C58.93 15.0078 58.7705 14.4162 58.7937 13.8176V8.69023H61.4733V14.0948C61.4709 14.2008 61.498 14.3055 61.5516 14.397C61.603 14.4851 61.6778 14.5571 61.7677 14.6053C61.8523 14.655 61.9484 14.6819 62.0465 14.6836C62.145 14.6847 62.2417 14.6575 62.3252 14.6053C62.4086 14.5535 62.478 14.482 62.5273 14.397C62.5797 14.3051 62.6062 14.2006 62.604 14.0948V11.5562C62.5849 10.9659 62.7413 10.3833 63.0535 9.88202C63.3444 9.43473 63.7552 9.07821 64.239 8.8531C64.7451 8.61647 65.2981 8.49709 65.8567 8.50387C66.4231 8.49511 66.9842 8.6145 67.498 8.8531C67.9811 9.07866 68.3912 9.43512 68.6819 9.88202C68.9946 10.3831 69.151 10.9659 69.1314 11.5562V14.0948C69.1298 14.2007 69.1568 14.3052 69.2097 14.397C69.26 14.4833 69.3317 14.555 69.418 14.6053C69.4996 14.6554 69.5932 14.6825 69.6889 14.6836C69.7925 14.6861 69.8947 14.659 69.9833 14.6053C70.0668 14.5535 70.1361 14.482 70.1854 14.397C70.2378 14.3051 70.2643 14.2006 70.2621 14.0948V8.69023H72.9573V13.8176C72.9803 14.416 72.8214 15.0073 72.5016 15.5136C72.2033 15.9569 71.7873 16.3084 71.3004 16.5285C70.7948 16.7573 70.2454 16.8733 69.6905 16.8683C69.1454 16.8709 68.6062 16.755 68.1103 16.5285C67.5894 16.2997 67.1503 15.9179 66.8516 15.4337C66.5528 14.9494 66.4085 14.3858 66.4377 13.8176V11.2617C66.4425 11.1522 66.4159 11.0435 66.361 10.9485C66.3101 10.8665 66.241 10.7974 66.159 10.7465C66.0702 10.6934 65.968 10.6668 65.8646 10.6698C65.769 10.6703 65.6753 10.6968 65.5936 10.7465C65.5087 10.7957 65.4371 10.8651 65.3853 10.9485C65.3293 11.0431 65.3021 11.1519 65.307 11.2617V13.8176C65.3347 14.3845 65.1906 14.9466 64.8936 15.4303C64.5966 15.914 64.1605 16.2967 63.6423 16.5285C63.1419 16.7581 62.597 16.8742 62.0465 16.8683Z" fill="#252626"/>
<path d="M73.9189 10.7965V8.6901H80.0079V10.7965H73.9189ZM77.5914 16.6677C76.8366 16.6677 76.2451 16.4531 75.817 16.024C75.3879 15.5965 75.1749 15.0092 75.1749 14.2669V6.78418H77.8545V14.0649C77.8533 14.1187 77.8637 14.1722 77.8851 14.2217C77.9064 14.2711 77.9382 14.3154 77.9782 14.3515C78.0572 14.4275 78.163 14.4691 78.2726 14.4674H80.0079V16.6677H77.5914Z" fill="#252626"/>
<path d="M19.1907 0H6.46164C2.89297 0 0 2.89297 0 6.46164V19.1907C0 22.7594 2.89297 25.6524 6.46164 25.6524H19.1907C22.7594 25.6524 25.6524 22.7594 25.6524 19.1907V6.46164C25.6524 2.89297 22.7594 0 19.1907 0Z" fill="#3E0190"/>
<path d="M3.91064 6.25656L3.91064 19.3944C3.91064 20.6909 4.96168 21.7419 6.2582 21.7419C7.55471 21.7419 8.60575 20.6909 8.60575 19.3944V6.25656C8.60575 4.96004 7.55471 3.90901 6.2582 3.90901C4.96168 3.90901 3.91064 4.96004 3.91064 6.25656Z" fill="white"/>
<path d="M10.4785 6.25802L10.4785 19.3959C10.4785 20.6924 11.5296 21.7434 12.8261 21.7434C14.1226 21.7434 15.1736 20.6924 15.1736 19.3959V6.25802C15.1736 4.96151 14.1226 3.91047 12.8261 3.91047C11.5296 3.91047 10.4785 4.96151 10.4785 6.25802Z" fill="white"/>
<path d="M10.4785 13.9993V19.3944C10.4785 20.6909 11.5296 21.7419 12.8261 21.7419C14.1226 21.7419 15.1736 20.6909 15.1736 19.3944V13.9993C15.1736 12.7027 14.1226 11.6517 12.8261 11.6517C11.5296 11.6517 10.4785 12.7027 10.4785 13.9993Z" fill="#00DE93"/>
<path d="M6.25624 17.0483C4.95973 17.0483 3.90869 18.0993 3.90869 19.3959C3.90869 20.6924 4.95973 21.7434 6.25624 21.7434C7.55276 21.7434 8.6038 20.6924 8.6038 19.3959C8.6038 18.0993 7.55276 17.0483 6.25624 17.0483Z" fill="#00DE93"/>
<path d="M17.0469 6.25656V19.3944C17.0469 20.6909 18.0979 21.7419 19.3944 21.7419C20.6909 21.7419 21.742 20.6909 21.742 19.3944V6.25656C21.742 4.96004 20.6909 3.90901 19.3944 3.90901C18.0979 3.90901 17.0469 4.96004 17.0469 6.25656Z" fill="#00DE93"/>
</svg>
