<svg width="220" height="220" viewBox="0 0 220 220" fill="none" xmlns="http://www.w3.org/2000/svg">
<path d="M164.321 0H55.3278C24.7711 0 0 24.8107 0 55.4164V164.584C0 195.189 24.7711 220 55.3278 220H164.321C194.877 220 219.648 195.189 219.648 164.584V55.4164C219.648 24.8107 194.877 0 164.321 0Z" fill="#00DE93"/>
<path d="M33.4836 53.6569L33.4836 166.33C33.4836 177.449 42.4831 186.463 53.5846 186.463C64.686 186.463 73.6855 177.449 73.6855 166.33V53.6569C73.6855 42.5377 64.686 33.5238 53.5846 33.5238C42.4831 33.5238 33.4836 42.5377 33.4836 53.6569Z" fill="white"/>
<path d="M89.7233 53.6703L89.7233 166.343C89.7233 177.462 98.7228 186.476 109.824 186.476C120.926 186.476 129.925 177.462 129.925 166.343V53.6703C129.925 42.5511 120.926 33.5372 109.824 33.5372C98.7228 33.5372 89.7233 42.5511 89.7233 53.6703Z" fill="white"/>
<path d="M89.7233 120.06V166.33C89.7233 177.449 98.7228 186.463 109.824 186.463C120.926 186.463 129.925 177.449 129.925 166.33V120.06C129.925 108.941 120.926 99.9267 109.824 99.9267C98.7228 99.9267 89.7233 108.941 89.7233 120.06Z" fill="#3E0190"/>
<path d="M53.5712 146.21C42.4697 146.21 33.4702 155.224 33.4702 166.343C33.4702 177.462 42.4697 186.476 53.5712 186.476C64.6726 186.476 73.6721 177.462 73.6721 166.343C73.6721 155.224 64.6726 146.21 53.5712 146.21Z" fill="#3E0190"/>
<path d="M145.963 53.6569V166.33C145.963 177.449 154.962 186.463 166.064 186.463C177.165 186.463 186.165 177.449 186.165 166.33V53.6569C186.165 42.5377 177.165 33.5238 166.064 33.5238C154.962 33.5238 145.963 42.5377 145.963 53.6569Z" fill="#3E0190"/>
</svg>
