<svg width="364" height="419" viewBox="0 0 364 419" fill="none" xmlns="http://www.w3.org/2000/svg">
<path d="M162.354 162.255C161.997 168.73 175.275 174.639 191.727 175.546C208.178 176.454 221.805 171.94 222.162 165.466C222.245 163.965 223.043 158.595 221.809 157.203C217.722 152.593 205.658 152.796 193.02 152.099C181.257 151.45 168.783 148.682 164.484 153.184C161.88 155.915 162.455 160.41 162.354 162.255Z" fill="#00DE93"/>
<path opacity="0.2" d="M164.482 153.182C161.617 157.025 162.483 159.936 162.355 162.254C162.221 164.643 163.942 166.949 166.984 168.956C167.345 169.208 167.739 169.444 168.146 169.679C170.252 170.886 172.845 171.971 175.805 172.865C176.18 172.991 176.561 173.092 176.951 173.202C179.87 174.026 183.108 174.661 186.555 175.094C186.927 175.141 187.308 175.18 187.687 175.218C189.002 175.36 190.355 175.479 191.725 175.55C193.085 175.629 194.429 175.661 195.757 175.661C196.136 175.667 196.516 175.658 196.887 175.658C200.235 175.611 203.389 175.332 206.27 174.869C206.647 174.813 207.01 174.741 207.372 174.686C210.409 174.124 213.116 173.342 215.338 172.374C215.721 172.215 216.08 172.048 216.432 171.875C219.916 170.165 222.021 167.959 222.16 165.467C222.248 163.854 223.226 158.687 221.817 157.203C220.399 155.727 218.132 154.753 215.296 154.069C214.93 153.983 214.549 153.897 214.16 153.819C208.46 152.672 200.785 152.529 193.025 152.101C183.872 151.597 173.268 150.542 167.034 152.205C166.649 152.301 166.289 152.42 165.936 152.546C165.403 152.734 164.927 152.943 164.482 153.182Z" fill="black"/>
<g opacity="0.2">
<path d="M214.096 152.754L214.161 153.819L215.338 172.374C215.721 172.214 216.081 172.048 216.432 171.875L215.296 154.07L215.209 152.69L214.096 152.754Z" fill="black"/>
</g>
<g opacity="0.2">
<path d="M205.056 155.755L206.27 174.87C206.647 174.814 207.01 174.742 207.372 174.686L206.168 155.673L205.056 155.755Z" fill="black"/>
</g>
<g opacity="0.2">
<path d="M185.405 156.998L186.556 175.095C186.928 175.142 187.309 175.18 187.688 175.218L186.525 156.923L185.405 156.998Z" fill="black"/>
</g>
<g opacity="0.2">
<path d="M194.541 156.421L195.758 175.663C196.137 175.67 196.517 175.66 196.888 175.66L195.661 156.348L194.541 156.421Z" fill="black"/>
</g>
<g opacity="0.2">
<path d="M174.681 155.257L175.805 172.865C176.179 172.991 176.561 173.092 176.95 173.201L175.801 155.183L174.681 155.257Z" fill="black"/>
</g>
<path d="M162.888 156.665C162.531 163.14 175.579 169.124 192.031 170.032C208.482 170.939 222.109 166.427 222.467 159.952C222.824 153.477 209.776 147.493 193.325 146.585C176.873 145.679 163.246 150.191 162.888 156.665Z" fill="#00DE93"/>
<path opacity="0.2" d="M168.481 156.975C168.228 161.55 178.578 165.84 191.599 166.558C204.619 167.277 215.378 164.151 215.63 159.576C215.883 155.001 205.533 150.71 192.513 149.992C179.492 149.274 168.733 152.4 168.481 156.975Z" fill="white"/>
<path d="M116.315 80.1147C110.52 83.0253 111.999 97.4837 119.394 112.207C126.789 126.931 137.483 136.508 143.277 133.598C144.621 132.923 149.676 130.944 150.269 129.182C152.235 123.343 146.059 112.979 140.378 101.668C135.089 91.1402 131.287 78.9419 125.243 77.4526C121.579 76.5498 117.966 79.2852 116.315 80.1147Z" fill="#00DE93"/>
<path opacity="0.2" d="M125.245 77.4477C120.486 76.874 118.392 79.0741 116.318 80.1162C114.179 81.1889 113.034 83.8287 112.806 87.4654C112.766 87.9048 112.758 88.3626 112.757 88.8337C112.758 91.2614 113.106 94.0507 113.802 97.0639C113.879 97.4512 113.981 97.8332 114.08 98.2247C114.817 101.167 115.876 104.292 117.216 107.498C117.361 107.845 117.516 108.193 117.672 108.543C118.202 109.755 118.773 110.988 119.392 112.21C120 113.43 120.641 114.611 121.301 115.763C121.484 116.095 121.68 116.42 121.866 116.741C123.572 119.624 125.383 122.22 127.217 124.49C127.454 124.79 127.696 125.068 127.924 125.354C129.922 127.709 131.947 129.669 133.892 131.114C134.22 131.368 134.544 131.597 134.869 131.815C138.085 133.986 141.046 134.716 143.277 133.597C144.721 132.871 149.689 131.149 150.276 129.188C150.851 127.224 150.569 124.774 149.751 121.972C149.644 121.613 149.529 121.238 149.403 120.862C147.563 115.348 143.87 108.617 140.38 101.673C136.266 93.4817 131.907 83.7586 127.363 79.1767C127.089 78.8907 126.805 78.6363 126.52 78.3944C126.092 78.0251 125.674 77.7146 125.245 77.4477Z" fill="black"/>
<g opacity="0.2">
<path d="M150.294 120.277L149.402 120.863L133.891 131.114C134.219 131.367 134.543 131.597 134.868 131.814L149.75 121.973L150.904 121.21L150.294 120.277Z" fill="black"/>
</g>
<g opacity="0.2">
<path d="M143.194 113.927L127.216 124.488C127.452 124.788 127.694 125.066 127.922 125.352L143.818 114.851L143.194 113.927Z" fill="black"/>
</g>
<g opacity="0.2">
<path d="M132.341 97.4955L117.215 107.495C117.359 107.842 117.515 108.19 117.671 108.54L132.963 98.4305L132.341 97.4955Z" fill="black"/>
</g>
<g opacity="0.2">
<path d="M137.388 105.136L121.302 115.762C121.484 116.095 121.681 116.419 121.866 116.74L138.009 106.071L137.388 105.136Z" fill="black"/>
</g>
<g opacity="0.2">
<path d="M128.519 87.3305L113.802 97.0633C113.88 97.4507 113.982 97.8326 114.08 98.2241L129.14 88.2655L128.519 87.3305Z" fill="black"/>
</g>
<path d="M124.336 109.73C116.941 95.0062 115.643 80.7109 121.437 77.8005C127.232 74.8901 137.924 84.4668 145.319 99.1906C152.715 113.914 154.013 128.21 148.218 131.12C142.424 134.031 131.732 124.454 124.336 109.73Z" fill="#00DE93"/>
<path opacity="0.2" d="M123.943 82.8049C119.849 84.8617 121.275 95.9745 127.127 107.627C132.979 119.279 141.043 127.058 145.138 125.001C149.232 122.944 147.807 111.832 141.954 100.179C136.101 88.5265 128.038 80.7486 123.943 82.8049Z" fill="white"/>
<path d="M175.327 81.7262C173.334 88.9218 186.82 98.8332 205.106 103.899C223.391 108.963 239.831 107.236 241.825 100.039C242.287 98.3703 244.505 92.5243 243.459 90.6569C239.995 84.4666 226.371 81.73 212.325 77.8392C199.252 74.2178 185.898 68.0377 179.957 72.0475C176.352 74.477 175.895 79.675 175.327 81.7262Z" fill="#455A64"/>
<path opacity="0.2" d="M179.952 72.0413C175.785 75.6617 176.043 79.1485 175.33 81.7249C174.592 84.3797 175.962 87.3966 178.89 90.4017C179.234 90.7744 179.618 91.1365 180.02 91.5008C182.093 93.3759 184.743 95.2336 187.854 96.9675C188.244 97.201 188.648 97.4084 189.06 97.6276C192.141 99.273 195.627 100.783 199.4 102.118C199.807 102.262 200.225 102.399 200.644 102.535C202.088 103.019 203.582 103.485 205.104 103.9C206.615 104.323 208.119 104.689 209.612 105.016C210.037 105.117 210.466 105.201 210.884 105.29C214.662 106.061 218.28 106.521 221.635 106.709C222.074 106.739 222.498 106.747 222.919 106.773C226.474 106.889 229.711 106.673 232.448 106.129C232.918 106.045 233.364 105.946 233.802 105.836C238.141 104.77 241.051 102.806 241.821 100.036C242.317 98.2426 244.686 92.6703 243.465 90.6545C242.233 88.6458 239.923 86.9931 236.9 85.5266C236.51 85.3399 236.102 85.1497 235.684 84.9655C229.553 82.2757 220.954 80.2262 212.329 77.8393C202.155 75.0216 190.485 71.2285 183.064 71.5678C182.607 71.5807 182.172 71.6266 181.744 71.683C181.099 71.7641 180.511 71.8817 179.952 72.0413Z" fill="black"/>
<g opacity="0.2">
<path d="M235.873 83.7543L235.683 84.9676L232.448 106.132C232.918 106.047 233.364 105.948 233.802 105.838L236.9 85.5287L237.141 83.9537L235.873 83.7543Z" fill="black"/>
</g>
<g opacity="0.2">
<path d="M224.968 84.9098L221.636 106.712C222.075 106.742 222.499 106.75 222.92 106.776L226.238 85.0906L224.968 84.9098Z" fill="black"/>
</g>
<g opacity="0.2">
<path d="M202.552 81.4759L199.399 102.118C199.806 102.263 200.224 102.399 200.643 102.535L203.831 81.6681L202.552 81.4759Z" fill="black"/>
</g>
<g opacity="0.2">
<path d="M212.972 83.0721L209.613 105.018C210.038 105.118 210.467 105.202 210.884 105.292L214.251 83.2643L212.972 83.0721Z" fill="black"/>
</g>
<g opacity="0.2">
<path d="M190.916 76.884L187.852 96.9687C188.242 97.2023 188.647 97.4096 189.058 97.6288L192.193 77.0757L190.916 76.884Z" fill="black"/>
</g>
<path d="M177.312 75.5766C179.305 68.3808 195.744 66.6535 214.029 71.7187C232.314 76.7838 245.522 86.7234 243.528 93.9192C241.535 101.115 225.096 102.842 206.811 97.7772C188.526 92.712 175.319 82.7725 177.312 75.5766Z" fill="#455A64"/>
<path opacity="0.2" d="M183.519 77.2912C182.111 82.3757 192.699 89.7463 207.171 93.7542C221.642 97.7621 234.514 96.8894 235.922 91.8054C237.331 86.7214 226.742 79.3503 212.271 75.3414C197.799 71.3345 184.926 72.2067 183.519 77.2912Z" fill="white"/>
<path d="M6.35657 208.888L107.158 264.542C110.731 266.514 113.918 269.122 116.557 272.234L205.059 376.551C208.272 380.337 208.434 385.805 205.449 389.692L144.7 468.777C140.531 474.204 132.278 474.161 128.02 468.689L43.4119 359.994L-57.5736 307.402C-62.8789 304.639 -64.5959 297.891 -61.2268 293.048L-7.15774 215.35C-4.36535 211.337 1.9511 206.618 6.35657 208.888Z" fill="#00DE93"/>
<path opacity="0.1" d="M6.35657 208.888L107.158 264.542C110.731 266.514 113.918 269.122 116.557 272.234L205.059 376.551C208.272 380.337 208.434 385.805 205.449 389.692L144.7 468.777C140.531 474.204 132.278 474.161 128.02 468.689L43.4119 359.994L-57.5736 307.402C-62.8789 304.639 -64.5959 297.891 -61.2268 293.048L-7.15774 215.35C-4.36535 211.337 1.9511 206.618 6.35657 208.888Z" fill="black"/>
<path d="M241.913 251.208L272.328 327.404L123.995 386.614L93.5796 310.418L241.913 251.208Z" fill="#00DE93"/>
<path opacity="0.5" d="M93.5706 310.405L123.985 386.601L272.317 327.398L252.36 277.391L241.907 251.193L237.169 253.081L93.5706 310.405Z" fill="#FAFAFA"/>
<path d="M238.459 257.516L265.298 324.753L126.543 380.14L99.7037 312.903L238.459 257.516Z" stroke="#00DE93" stroke-miterlimit="10"/>
<path d="M166.069 325.35C162.992 317.64 168.336 308.261 178.005 304.403C187.674 300.544 198.007 303.666 201.084 311.376C204.161 319.086 198.817 328.465 189.148 332.324C179.478 336.182 169.146 333.06 166.069 325.35Z" fill="#00DE93"/>
<path opacity="0.1" d="M145.137 343.891L161.276 359.823L252.359 277.392L241.906 251.194L237.168 253.082L145.137 343.891Z" fill="black"/>
<path d="M215.374 187.493L272.878 246.009L158.962 357.953L101.458 299.437L215.374 187.493Z" fill="#00DE93"/>
<path opacity="0.5" d="M215.374 187.493L272.878 246.009L158.962 357.953L101.458 299.437L215.374 187.493Z" fill="#FAFAFA"/>
<path d="M214.627 194.644L265.369 246.281L158.809 350.996L108.066 299.36L214.627 194.644Z" stroke="#00DE93" stroke-miterlimit="10"/>
<path d="M174.117 285.202C168.299 279.281 169.602 268.567 177.027 261.27C184.452 253.974 195.187 252.858 201.005 258.779C206.824 264.7 205.521 275.414 198.096 282.711C190.671 290.007 179.935 291.122 174.117 285.202Z" fill="#00DE93"/>
<path d="M3.97048 212.143L103.483 266.846C107.01 268.786 110.151 271.359 112.745 274.437L199.743 377.645C202.901 381.392 203.025 386.832 200.041 390.719L139.313 469.821C135.146 475.249 126.969 475.261 122.786 469.845L39.6766 362.254L-60.0397 310.598C-65.2782 307.884 -66.9345 301.181 -63.5628 296.34L-9.4644 218.664C-6.67099 214.651 -0.37983 209.912 3.97048 212.143Z" fill="#00DE93"/>
<path opacity="0.2" d="M91.9414 280.278L6.7832 232.878" stroke="black" stroke-width="2" stroke-miterlimit="10" stroke-linecap="round" stroke-linejoin="round"/>
<path opacity="0.2" d="M101.368 287.575L50.0952 353.536" stroke="black" stroke-width="2" stroke-miterlimit="10" stroke-linecap="round" stroke-linejoin="round"/>
<path opacity="0.2" d="M176.435 405.2L138.024 456.432C138.024 456.432 140.114 429.809 176.435 405.2Z" fill="#FAFAFA"/>
<path opacity="0.2" d="M174.634 405.155C173.752 406.003 94.282 315.191 94.282 315.191C94.282 315.191 76.9772 344.851 98.9977 376.14C121.019 407.428 174.634 405.155 174.634 405.155Z" fill="#FAFAFA"/>
<path d="M107.396 375.029C105.003 373.884 103.991 371.016 105.136 368.623C106.282 366.231 109.15 365.219 111.542 366.364C113.935 367.509 114.947 370.377 113.802 372.77C112.656 375.163 109.788 376.175 107.396 375.029Z" fill="#00DE93"/>
<path opacity="0.2" d="M94.2285 315.166C94.2285 315.166 72.8916 327.893 60.671 361.135L94.2285 315.166Z" fill="black"/>
<g opacity="0.2">
<path d="M191.867 385.245L190.05 383.124" stroke="#FAFAFA" stroke-linecap="round" stroke-linejoin="round"/>
<path d="M186.273 378.715L112.628 292.732" stroke="#FAFAFA" stroke-linecap="round" stroke-linejoin="round" stroke-dasharray="5.2 5.2"/>
<path d="M110.74 290.526L108.923 288.406" stroke="#FAFAFA" stroke-linecap="round" stroke-linejoin="round"/>
</g>
<path opacity="0.2" d="M81.0771 295.42L-4.08108 248.021" stroke="black" stroke-width="2" stroke-miterlimit="10" stroke-linecap="round" stroke-linejoin="round"/>
<path opacity="0.2" d="M67.2514 314.173L-17.9072 266.775" stroke="black" stroke-width="2" stroke-miterlimit="10" stroke-linecap="round" stroke-linejoin="round"/>
<path d="M53.8109 151.477L39.6591 235.681C38.6574 241.633 41.48 247.337 46.3227 250.278C47.8298 251.189 49.5349 251.844 51.3904 252.158L97.7028 259.942C105.491 261.245 112.869 255.993 114.18 248.211L128.329 163.99C129.081 159.483 127.648 155.113 124.776 151.976C122.702 149.699 119.873 148.073 116.591 147.521L70.286 139.729C62.4969 138.427 55.1204 143.679 53.8109 151.477Z" fill="#182125"/>
<path opacity="0.2" d="M53.8109 151.477L39.6591 235.681C38.6574 241.633 41.48 247.337 46.3227 250.278C47.8298 251.189 49.5349 251.844 51.3904 252.158L97.7028 259.942C105.491 261.245 112.869 255.993 114.18 248.211L128.329 163.99C129.081 159.483 127.648 155.113 124.776 151.976C122.702 149.699 119.873 148.073 116.591 147.521L70.286 139.729C62.4969 138.427 55.1204 143.679 53.8109 151.477Z" fill="black"/>
<path d="M56.9286 154.051L42.7767 238.256C42.0185 242.772 43.4607 247.148 46.3217 250.279C47.8288 251.189 49.5338 251.844 51.3894 252.159L97.7018 259.943C105.49 261.245 112.868 255.994 114.179 248.211L128.328 163.991C129.08 159.484 127.647 155.114 124.775 151.977C123.268 151.066 121.563 150.411 119.708 150.096L73.4032 142.304C65.6146 141.001 58.2381 146.254 56.9286 154.051Z" fill="#182125"/>
<path opacity="0.5" d="M56.9286 154.051L42.7767 238.256C42.0185 242.772 43.4607 247.148 46.3217 250.279C47.8288 251.189 49.5338 251.844 51.3894 252.159L97.7018 259.943C105.49 261.245 112.868 255.994 114.179 248.211L128.328 163.991C129.08 159.484 127.647 155.114 124.775 151.977C123.268 151.066 121.563 150.411 119.708 150.096L73.4032 142.304C65.6146 141.001 58.2381 146.254 56.9286 154.051Z" fill="#FAFAFA"/>
<path d="M111.123 187.697L116.066 188.555L105.124 251.657L100.18 250.799L111.123 187.697Z" fill="#FAFAFA"/>
<path d="M93.0926 249.601L98.0418 250.432L108.983 187.343L104.034 186.511L93.0926 249.601Z" fill="#FAFAFA"/>
<path d="M85.8915 248.392L90.8396 249.223L101.781 186.134L96.8314 185.302L85.8915 248.392Z" fill="#FAFAFA"/>
<path opacity="0.5" d="M67.985 180.441L72.9287 181.298L61.9861 244.4L57.0424 243.543L67.985 180.441Z" fill="black"/>
<path d="M76.075 165.008L74.6297 173.591L77.5562 174.1C80.5078 174.609 83.3114 172.632 83.83 169.685L84.8159 164.002L78.8931 163C77.5603 162.784 76.3018 163.68 76.075 165.008Z" fill="#FAFAFA"/>
<path d="M79.0851 161.904L85.0079 162.906L86.0886 156.637C86.6072 153.69 84.6201 150.882 81.6733 150.363L78.6315 149.836L77.0779 159.086C76.8462 160.424 77.7423 161.683 79.0851 161.904Z" fill="#FAFAFA"/>
<path d="M72.965 162.01L67.0071 161.004L66.0396 166.596C65.521 169.543 67.4933 172.357 70.4448 172.865L73.5317 173.401L74.9722 164.828C75.199 163.5 74.3029 162.241 72.965 162.01Z" fill="#FAFAFA"/>
<path d="M68.2983 153.547L67.1992 159.906L73.157 160.912C74.4898 161.129 75.7483 160.233 75.9751 158.905L77.5288 149.655L74.5672 149.142C71.6205 148.623 68.8168 150.6 68.2983 153.547Z" fill="#FAFAFA"/>
</svg>
