<?xml version="1.0" encoding="utf-8"?><svg viewBox="0 0 768 768" xmlns="http://www.w3.org/2000/svg" xmlns:xlink="http://www.w3.org/1999/xlink"><style>:root>svg{display:none}:root>svg:target{display:block}</style><svg viewBox="0 0 18 18" id="account-icon" xmlns="http://www.w3.org/2000/svg"><path d="M6.25 10H1.752c-.97 0-1.75.79-1.75 1.75v4.499c0 .96.78 1.75 1.75 1.75h4.5c.96 0 1.75-.79 1.75-1.75v-4.5A1.761 1.761 0 006.25 10zm.25 6.249c0 .14-.11.25-.25.25H1.751c-.14 0-.25-.11-.25-.25v-4.5c0-.14.11-.25.25-.25h4.5c.14 0 .25.11.25.25v4.5zM6.25 0H1.752C.782 0 .002.79.002 1.75v4.5c0 .96.78 1.75 1.75 1.75h4.5C7.21 8 8 7.21 8 6.25v-4.5C8 .79 7.21 0 6.25 0zm.25 6.25c0 .14-.11.25-.25.25H1.751c-.14 0-.25-.11-.25-.25v-4.5c0-.14.11-.25.25-.25h4.5c.14 0 .25.11.25.25v4.5zM16.25 0h-4.5C10.78 0 10 .79 10 1.75v4.5c0 .96.79 1.75 1.75 1.75h4.5C17.21 8 18 7.21 18 6.25v-4.5C18 .79 17.21 0 16.25 0zm.25 6.25c0 .14-.11.25-.25.25h-4.5c-.14 0-.25-.11-.25-.25v-4.5c0-.14.11-.25.25-.25h4.5c.14 0 .25.11.25.25v4.5zM11.75 10h4.5c.959 0 1.749.79 1.749 1.75v4.499c0 .96-.79 1.75-1.75 1.75h-4.5c-.97 0-1.749-.79-1.749-1.75v-4.5c0-.96.78-1.75 1.75-1.75z"/></svg><svg viewBox="0 0 14 14" id="add" xmlns="http://www.w3.org/2000/svg"><path d="M6 12.333a1 1 0 102 0V8h4.334a1 1 0 000-2H8V1.667a1 1 0 00-2 0V6H1.667a1 1 0 000 2H6v4.333z"/></svg><svg viewBox="0 0 10 7" id="arrow" xmlns="http://www.w3.org/2000/svg"><path d="M.227.97a.75.75 0 011.06 0L5 4.682 8.713.97a.75.75 0 011.06 1.06L5.531 6.273a.75.75 0 01-1.06 0L.226 2.03a.75.75 0 010-1.06z"/></svg><svg viewBox="0 0 7 10" id="arrow-left" xmlns="http://www.w3.org/2000/svg"><path d="M6.03.227a.75.75 0 010 1.06L2.318 5 6.03 8.713a.75.75 0 01-1.06 1.06L.727 5.53a.75.75 0 010-1.06L4.97.227a.75.75 0 011.06 0z"/></svg><svg viewBox="0 0 13 16" id="arrow-recieve" xmlns="http://www.w3.org/2000/svg"><path d="M10.73 9.193a.924.924 0 111.308 1.307l-5.23 5.23-.005.004a.927.927 0 01-.062.056l-.035.026a.337.337 0 01-.038.028c-.013.01-.027.017-.041.025l-.037.022-.042.02-.04.019-.042.015-.043.015-.043.011-.045.011c-.017.004-.034.006-.05.008l-.039.005a.931.931 0 01-.183 0c-.012 0-.025-.003-.037-.005-.017-.002-.035-.004-.052-.008l-.043-.01-.045-.012-.041-.014-.045-.016-.037-.018c-.015-.007-.03-.013-.044-.021l-.035-.02-.043-.027c-.013-.008-.025-.018-.038-.027l-.034-.027a.92.92 0 01-.068-.06L.27 10.5a.924.924 0 011.307-1.308l3.652 3.652V.924a.924.924 0 011.849 0v11.92l3.651-3.651z"/></svg><svg viewBox="0 0 13 16" id="arrow-send" xmlns="http://www.w3.org/2000/svg"><path d="M10.73 6.807A.924.924 0 1012.038 5.5L6.808.27 6.803.267A.93.93 0 006.741.21L6.706.184a.337.337 0 00-.038-.028C6.655.146 6.64.139 6.627.13L6.59.109 6.548.09l-.04-.02-.042-.015L6.423.04 6.38.029 6.335.018 6.285.01l-.04-.005a.927.927 0 00-.183 0c-.012 0-.025.003-.037.005-.017.002-.035.004-.052.008l-.043.01-.045.012-.041.014L5.8.07l-.037.018c-.015.007-.03.013-.044.021l-.035.02c-.015.01-.029.017-.043.027-.013.008-.025.018-.038.027C5.592.193 5.58.2 5.57.21a.911.911 0 00-.07.061L.27 5.5a.924.924 0 001.307 1.307L5.23 3.156v11.92a.924.924 0 001.849 0V3.156l3.651 3.651z"/></svg><svg viewBox="0 0 60 60" id="binance" xmlns="http://www.w3.org/2000/svg"><g clip-path="url(#aga)"><path d="M41.56 34.8l6.795 6.79-18.382 18.382-18.383-18.38 6.793-6.792 11.59 11.65L41.56 34.8zm11.593-11.59L60 30l-6.788 6.79L46.42 30l6.733-6.79zm-23.18 0l6.79 6.73-6.793 6.793L23.18 30l6.793-6.79zm-23.183 0L13.525 30l-6.73 6.73L0 30l6.79-6.79zM29.975.03L48.35 18.35l-6.793 6.787L29.975 13.55 18.385 25.2l-6.793-6.79L29.975.03z"/></g><defs><clipPath id="aga"><path d="M0 0h60v60H0z"/></clipPath></defs></svg><svg viewBox="0 0 60 60" id="bitcoin" xmlns="http://www.w3.org/2000/svg"><path d="M36.723 25.675c-.93 3.72-6.72 1.83-8.521 1.32l1.65-6.54c1.86.54 7.83 1.32 6.87 5.22zm-9.331 4.68l-1.8 7.23c2.22.57 9.09 2.76 10.11-1.32 1.08-4.26-6.09-5.37-8.31-5.91zm31.712 6.9c-4.02 16.082-20.281 25.862-36.362 21.842C6.66 55.077-3.111 38.815.9 22.734A29.99 29.99 0 0137.263.893c16.05 4.02 25.831 20.281 21.841 36.362zm-22.471-19.11l1.35-5.401-3.3-.75-1.32 5.19c-.87-.21-1.74-.42-2.64-.6l1.32-5.31-3.271-.78-1.35 5.37c-.72-.18-1.44-.33-2.1-.51l-4.53-1.14-.9 3.51s2.46.57 2.4.6c1.35.33 1.59 1.17 1.53 1.92l-3.69 14.791c-.15.42-.63.96-1.5.81.03.03-2.4-.6-2.4-.6l-1.621 3.75 4.26 1.08c.81.21 1.59.42 2.37.6l-1.38 5.461 3.3.84 1.35-5.43c.9.24 1.77.45 2.61.69l-1.35 5.37 3.301.84 1.38-5.46c5.55 1.05 9.81.63 11.551-4.44 1.5-4.05 0-6.45-3-7.981 2.16-.57 3.78-1.92 4.23-4.86.6-3.99-2.46-6.12-6.6-7.56z"/></svg><svg viewBox="0 0 60 60" id="bitcoin_lightning" xmlns="http://www.w3.org/2000/svg"><path d="M1.5 30.107C1.5 14.307 14.308 1.5 30.107 1.5c15.8 0 28.607 12.808 28.607 28.607 0 15.8-12.807 28.607-28.607 28.607-15.8 0-28.607-12.807-28.607-28.607z"/><path d="M34.542 11.036c-1.706 4.427-3.412 9.195-5.458 13.963 0 0 0 .68.682.68h13.986s0 .341.34.682L23.627 49.179c-.341-.34-.341-.681-.341-1.022l7.163-15.325v-1.363H16.122v-1.362l17.396-19.071h1.024z"/></svg><svg viewBox="0 0 16 14" id="clip" xmlns="http://www.w3.org/2000/svg"><path d="M3.857 13.325a3.312 3.312 0 01-2.358-.977 3.338 3.338 0 010-4.715l2.946-2.947c1.3-1.3 3.416-1.3 4.716 0 .531.532.86 1.207.952 1.952a.626.626 0 11-1.243.152 2.085 2.085 0 00-3.54-1.218L2.384 8.518a2.085 2.085 0 001.473 3.555c.556 0 1.079-.217 1.472-.61l.774-.773a.626.626 0 11.885.885l-.774.773c-.63.63-1.467.977-2.357.977z"/><path d="M9.197 10.34a3.324 3.324 0 01-2.358-.975 3.302 3.302 0 01-.952-1.951.626.626 0 111.243-.152 2.085 2.085 0 003.54 1.218l2.946-2.946c.393-.394.61-.916.61-1.473 0-.556-.217-1.079-.61-1.472a2.069 2.069 0 00-1.473-.61c-.556 0-1.079.217-1.472.61l-.774.773a.626.626 0 01-.885-.885l.774-.773a3.313 3.313 0 012.357-.977c.89 0 1.728.347 2.358.977.63.63.977 1.467.977 2.357 0 .891-.347 1.728-.977 2.358l-2.946 2.946c-.65.65-1.504.975-2.358.975z"/></svg><svg viewBox="0 0 24 24" id="close" xmlns="http://www.w3.org/2000/svg"><path d="M12 1.5C6.15 1.5 1.5 6.15 1.5 12S6.15 22.5 12 22.5 22.5 17.85 22.5 12 17.85 1.5 12 1.5zM12 21c-4.95 0-9-4.05-9-9s4.05-9 9-9 9 4.05 9 9-4.05 9-9 9z"/><path d="M16.05 17.25L12 13.2l-4.05 4.05-1.2-1.2L10.8 12 6.75 7.95l1.2-1.2L12 10.8l4.05-4.05 1.2 1.2L13.2 12l4.05 4.05-1.2 1.2z"/></svg><svg viewBox="0 0 18 19" id="copy" xmlns="http://www.w3.org/2000/svg"><path d="M3-.001H1.75C.785-.001 0 .785 0 1.75V3a.751.751 0 101.502 0V1.75c0-.135.114-.249.25-.249H3A.751.751 0 103 0zm6 1.502h1.25c.135 0 .25.114.25.25V3a.751.751 0 101.502 0V1.75c0-.966-.786-1.752-1.752-1.752H9A.751.751 0 109 1.5zm7.25 3.507h-8.5c-.966 0-1.752.786-1.752 1.751v9.5c0 .966.786 1.752 1.752 1.752h8.5c.966 0 1.751-.786 1.751-1.752v-9.5c0-.965-.785-1.75-1.751-1.75zm.249 11.251a.249.249 0 01-.249.25h-8.5a.249.249 0 01-.25-.25v-9.5a.25.25 0 01.25-.249h8.5a.249.249 0 01.249.25v9.5zM3 11.5H1.75a.252.252 0 01-.249-.249V10A.751.751 0 000 10v1.25c0 .966.786 1.751 1.751 1.751H3A.751.751 0 103 11.5z"/></svg><svg viewBox="0 0 60 60" id="dogecoin" xmlns="http://www.w3.org/2000/svg"><path d="M30.72 19.77h-4.287v8.45h6.742v3.538h-6.742v8.45h4.497c1.155 0 9.485.13 9.473-9.833-.013-9.96-8.08-10.605-9.683-10.605zM30 0C13.432 0 0 13.432 0 30c0 16.568 13.432 30 30 30 16.568 0 30-13.432 30-30C60 13.432 46.568 0 30 0zm1.18 46.203H20.315V31.757h-3.83V28.22h3.83V13.778h9.325c2.205 0 16.818-.458 16.818 16.484-.003 17.22-15.278 15.94-15.278 15.94z"/></svg><svg viewBox="0 0 18 14" id="edit" xmlns="http://www.w3.org/2000/svg"><path d="M16.708 12.416H5.796l7.746-7.746a1.57 1.57 0 000-2.216L11.879.791a1.569 1.569 0 00-2.216 0L.848 9.606a.626.626 0 00-.183.442v2.994c0 .346.28.626.626.626h15.417a.626.626 0 100-1.252zm-6.16-10.74a.315.315 0 01.445 0l1.663 1.664a.315.315 0 010 .445l-1.553 1.553L8.995 3.23l1.553-1.553zm-8.631 8.632L8.11 4.115l2.108 2.108-6.193 6.193H1.917v-2.108z"/></svg><svg viewBox="0 0 18 14" id="email" xmlns="http://www.w3.org/2000/svg"><path d="M17.334.949l-.002-.034-.002-.03-.005-.03-.005-.03-.007-.028-.01-.031c-.002-.01-.006-.018-.01-.027l-.01-.03-.014-.028-.013-.026c-.005-.01-.011-.018-.017-.027l-.015-.025-.019-.024-.019-.025-.02-.02a.587.587 0 00-.023-.025l-.007-.007c-.004-.005-.009-.008-.014-.012a.572.572 0 00-.075-.058.637.637 0 00-.32-.099H1.273A.624.624 0 00.877.49L.864.502.857.509a.625.625 0 00-.024.024l-.02.021L.796.58l-.02.023-.015.025-.017.027-.013.027-.014.027L.706.74l-.01.027-.009.031L.68.825l-.005.03-.005.03-.002.03-.002.034v12.093c0 .345.28.626.626.626h15.416c.346 0 .626-.28.626-.626V.948zm-2.07.635l-4.907 5.24A1.842 1.842 0 019 7.416c-.518 0-1-.21-1.357-.592l-4.907-5.24h12.528zM1.918 12.416V2.543L6.729 7.68A3.082 3.082 0 009 8.668a3.08 3.08 0 002.271-.988l4.812-5.137v9.873H1.918z"/></svg><svg viewBox="0 0 37 60" id="ethereum" xmlns="http://www.w3.org/2000/svg"><path d="M18.293 0L0 30.732l18.293 10.975 18.292-10.975L18.293 0zM0 34.39L18.293 60l18.292-25.61-18.292 10.976L0 34.39z"/></svg><svg viewBox="0 0 18 18" id="exit-icon" xmlns="http://www.w3.org/2000/svg"><path d="M17.831 9.477l.022-.03.022-.03a.19.19 0 00.02-.034l.018-.028.017-.035.014-.032.013-.034.012-.036c.004-.01.006-.022.009-.033l.01-.038.005-.038.005-.035A.758.758 0 0018 9.01v-.017a.758.758 0 00-.003-.066l-.005-.035c-.002-.013-.003-.025-.006-.037-.002-.013-.006-.026-.01-.039-.002-.01-.004-.022-.008-.033l-.013-.036-.011-.033-.016-.033-.016-.034-.018-.03-.02-.033-.024-.033-.02-.026a.758.758 0 00-.05-.055l-4.25-4.25a.751.751 0 10-1.06 1.06l2.968 2.968H5.75a.751.751 0 000 1.502h9.687l-2.967 2.97a.751.751 0 001.062 1.062l4.25-4.25.007-.007a.76.76 0 00.042-.047z"/><path d="M10.25 16.499h-7.5a1.25 1.25 0 01-1.249-1.25V2.75c0-.688.56-1.248 1.25-1.248h7.5a.751.751 0 100-1.502h-7.5A2.754 2.754 0 00-.002 2.75v12.5A2.754 2.754 0 002.75 18h7.5a.751.751 0 100-1.502z"/></svg><svg viewBox="0 0 768 768" id="eye" xmlns="http://www.w3.org/2000/svg"><path d="M3.392 369.696c-4.352 8.768-4.672 19.296 0 28.608 0 0 12.672 25.248 35.84 58.976 14.432 20.992 33.216 45.824 56.224 70.976 28.608 31.328 64.128 63.584 106.208 89.6C252.704 649.408 313.856 672 384 672s131.296-22.592 182.336-54.144c42.08-26.016 77.6-58.272 106.208-89.6 22.976-25.152 41.792-49.984 56.224-70.976 23.168-33.728 35.84-58.976 35.84-58.976 4.352-8.768 4.672-19.296 0-28.608 0 0-12.672-25.248-35.84-58.976-14.432-20.992-33.216-45.824-56.224-70.976-28.608-31.328-64.128-63.584-106.208-89.6C515.296 118.592 454.144 96 384 96s-131.296 22.592-182.336 54.144c-42.08 26.016-77.6 58.272-106.208 89.6-23.008 25.152-41.792 49.952-56.224 70.976-23.168 33.728-35.84 58.976-35.84 58.976zM68.48 384c5.216-8.992 13.024-21.792 23.488-37.056 13.12-19.072 30.08-41.472 50.72-64.032 25.76-28.192 56.8-56.192 92.608-78.336C278.496 177.888 328.128 160 384 160s105.504 17.888 148.672 44.576c35.808 22.144 66.848 50.144 92.608 78.336 20.608 22.56 37.6 44.96 50.72 64.032 10.496 15.264 18.304 28.032 23.488 37.056-5.216 8.992-13.024 21.792-23.488 37.056-13.12 19.072-30.08 41.472-50.72 64.032-25.76 28.192-56.8 56.192-92.608 78.336C489.504 590.112 439.872 608 384 608s-105.504-17.888-148.672-44.576c-35.808-22.144-66.848-50.144-92.608-78.336-20.608-22.56-37.6-44.96-50.72-64.032C81.504 405.792 73.696 392.992 68.48 384zM512 384c0-35.328-14.368-67.392-37.504-90.496S419.328 256 384 256s-67.392 14.368-90.496 37.504S256 348.672 256 384s14.368 67.392 37.504 90.496S348.672 512 384 512s67.392-14.368 90.496-37.504S512 419.328 512 384zm-64 0c0 17.696-7.136 33.632-18.752 45.248S401.696 448 384 448s-33.632-7.136-45.248-18.752S320 401.696 320 384s7.136-33.632 18.752-45.248S366.304 320 384 320s33.632 7.136 45.248 18.752S448 366.304 448 384z"/></svg><svg viewBox="0 0 768 768" id="eye-off" xmlns="http://www.w3.org/2000/svg"><path d="M324.096 166.848c20.832-4.864 41.472-7.072 59.52-6.848 56.256 0 105.888 17.888 149.056 44.576 35.808 22.144 66.848 50.144 92.608 78.336 20.608 22.56 37.6 44.96 50.72 64.032 10.464 15.2 18.24 27.968 23.456 36.96-17.472 30.496-37.12 58.272-56.896 81.344-11.488 13.408-9.952 33.632 3.456 45.12s33.632 9.952 45.12-3.456c26.176-30.528 51.552-67.584 73.056-107.84 4.736-8.928 5.216-19.776.416-29.408 0 0-12.672-25.248-35.84-58.976-14.432-20.992-33.216-45.824-56.224-70.976-28.608-31.328-64.128-63.584-106.208-89.6C515.296 118.592 454.144 96 384.384 96c-23.488-.288-49.28 2.528-74.88 8.512-17.216 4.032-27.904 21.248-23.872 38.464s21.248 27.904 38.464 23.872zm-3.232 199.296l80.992 80.992c-5.824 1.952-11.904 3.008-18.016 3.232-16.416.576-32.96-5.088-45.888-17.152s-19.744-28.16-20.32-44.576c-.256-7.616.8-15.232 3.232-22.528zm-129.408-129.44l81.696 81.696c-13.888 22.112-20.352 47.488-19.456 72.512 1.152 32.704 14.816 65.056 40.672 89.12s59.072 35.424 91.776 34.272c22.144-.768 44.128-7.296 63.488-19.456l74.304 74.304C479.84 594.72 431.296 607.424 383.648 608c-55.488 0-105.12-17.888-148.288-44.576-35.808-22.144-66.848-50.144-92.608-78.336-20.608-22.56-37.6-44.96-50.72-64.032-10.432-15.2-18.24-27.936-23.424-36.928C102.208 325.824 144.64 276 191.52 236.704zM9.376 54.624l136.672 136.672C90.656 238.624 41.44 298.752 3.808 368.864c-4.736 8.928-5.248 19.808-.416 29.44 0 0 12.672 25.248 35.84 58.976 14.432 20.992 33.216 45.824 56.224 70.976 28.608 31.328 64.128 63.584 106.208 89.6C252.704 649.408 313.856 672 384.384 672c63.776-.768 128.608-19.232 186.08-56.288l142.912 142.912c12.512 12.512 32.768 12.512 45.248 0s12.512-32.768 0-45.248L474.592 429.344l-.224-.224L339.68 294.4c-.256-.224-.512-.512-.768-.768L54.624 9.376c-12.512-12.512-32.768-12.512-45.248 0s-12.512 32.768 0 45.248z"/></svg><svg viewBox="0 0 20 20" id="facebook" xmlns="http://www.w3.org/2000/svg"><path d="M20 10c0-5.52-4.48-10-10-10S0 4.48 0 10c0 4.84 3.44 8.87 8 9.8V13H6v-3h2V7.5C8 5.57 9.57 4 11.5 4H14v3h-2c-.55 0-1 .45-1 1v2h3v3h-3v6.95c5.05-.5 9-4.76 9-9.95z"/></svg><svg viewBox="0 0 20 20" id="faq-icon" xmlns="http://www.w3.org/2000/svg"><path d="M10 12.5a.75.75 0 01-.75-.75v-.002c0-1.15.618-2.225 1.654-2.876a1.867 1.867 0 00.782-2.055c-.15-.597-.637-1.1-1.212-1.252a1.71 1.71 0 00-1.513.292c-.451.347-.71.879-.71 1.46a.751.751 0 11-1.502 0c0-1.051.472-2.017 1.296-2.65a3.224 3.224 0 012.814-.554c1.104.292 2 1.21 2.284 2.337.362 1.44-.216 2.925-1.44 3.694-.596.374-.951.974-.951 1.604a.752.752 0 01-.752.753zm0 3.485a1.084 1.084 0 01-.192-.02 1.069 1.069 0 01-.271-.097.986.986 0 01-.446-.491 1.008 1.008 0 01-.056-.57 1.094 1.094 0 01.098-.27.946.946 0 01.404-.404 1.013 1.013 0 01.56-.112 1.123 1.123 0 01.19.038.892.892 0 01.177.074 1.018 1.018 0 01.297.244.867.867 0 01.107.16.992.992 0 01-.322 1.281.892.892 0 01-.17.091.997.997 0 01-.376.075z"/><path d="M10 20.002C4.486 20.002 0 15.514 0 10-.001 4.486 4.486 0 10 0c5.515 0 10.002 4.487 10.002 10.001 0 5.515-4.487 10.002-10.002 10.002zm0-18.5c-4.686 0-8.499 3.812-8.499 8.498 0 4.687 3.813 8.5 8.5 8.5 4.686 0 8.498-3.813 8.498-8.5 0-4.686-3.812-8.499-8.499-8.499z"/></svg><svg viewBox="0 0 19 19" id="history-icon" xmlns="http://www.w3.org/2000/svg"><path d="M18.874 9.274a9.315 9.315 0 00-2.906-6.562A9.314 9.314 0 009.274.127a9.315 9.315 0 00-6.562 2.905c-.377.397-.72.825-1.023 1.281V1.404a.783.783 0 00-1.565 0v4.71c0 .433.35.783.783.783h4.45a.782.782 0 100-1.565H2.893c.276-.437.595-.846.952-1.22a7.76 7.76 0 015.467-2.42 7.757 7.757 0 015.577 2.153 7.76 7.76 0 012.42 5.466 7.76 7.76 0 01-2.153 5.578 7.76 7.76 0 01-5.467 2.42 7.76 7.76 0 01-5.577-2.154 7.756 7.756 0 01-2.284-4.183.783.783 0 00-1.537.293 9.312 9.312 0 002.741 5.023 9.31 9.31 0 006.695 2.586 9.315 9.315 0 006.562-2.906 9.315 9.315 0 002.585-6.694z"/><path d="M9.5 5.332a.782.782 0 00-.782.783v4.372a.42.42 0 00.003.05l.001.027a.78.78 0 00.008.055l.004.021c.03.144.1.277.201.383l.013.014.006.005 2.995 2.924a.78.78 0 001.107-.013.783.783 0 00-.014-1.106l-2.76-2.694V6.115a.783.783 0 00-.782-.783z"/></svg><svg viewBox="0 0 60 60" id="litecoin" xmlns="http://www.w3.org/2000/svg"><path d="M30 0a30 30 0 100 60 30 30 0 000-60zm-.655 9.195h6.46a.857.857 0 01.825 1.088l-5.075 17.295 4.763-1.456-1.02 3.463-4.81 1.4-3.12 10.535h16.69a.857.857 0 01.82 1.092l-1.456 5a1.147 1.147 0 01-1.1.825h-25.49l4.308-14.554-4.765 1.45 1.05-3.403 4.775-1.45 6.055-20.45a1.14 1.14 0 011.093-.835"/></svg><svg viewBox="0 0 14 18" id="location" xmlns="http://www.w3.org/2000/svg"><path d="M7 17.334a.627.627 0 01-.479-.222l-4.658-5.534a6.502 6.502 0 01-1.384-2.88 6.079 6.079 0 01-.146-1.365A6.675 6.675 0 017 .666a6.675 6.675 0 016.668 6.667c0 .483-.048.93-.147 1.364a6.497 6.497 0 01-1.381 2.878l-4.66 5.537a.627.627 0 01-.48.223zM7 1.918a5.422 5.422 0 00-5.415 5.415 4.841 4.841 0 00.121 1.113 5.24 5.24 0 001.117 2.329L7 15.736l4.18-4.964a5.237 5.237 0 001.118-2.345 4.79 4.79 0 00.118-1.094A5.422 5.422 0 007 1.918z"/><path d="M7 10.668a3.338 3.338 0 01-3.334-3.335A3.338 3.338 0 017 4a3.338 3.338 0 013.335 3.334A3.338 3.338 0 017 10.668zM7 5.25a2.085 2.085 0 00-2.082 2.082c0 1.149.934 2.083 2.082 2.083a2.085 2.085 0 002.082-2.083A2.085 2.085 0 007 5.251z"/></svg><svg viewBox="0 0 16 20" id="notification" xmlns="http://www.w3.org/2000/svg"><path d="M5.001 15.087L5 17c0 1.65 1.35 3 3 3s2.999-1.35 2.999-3L11 15.087H5.001zM9.499 17c0 .83-.67 1.5-1.5 1.5s-1.5-.67-1.5-1.5l.002-1.456h3L9.498 17z"/><path d="M14.128 11.34c-.08-.18-.13-.37-.13-.56V8c0-3.05-2.29-5.579-5.249-5.949v-1.3c0-.41-.34-.75-.75-.75s-.75.34-.75.75v1.3A6.005 6.005 0 002 8.001v2.779c0 .19-.05.39-.13.56L.08 14.92c-.12.23-.1.51.03.73.14.22.38.35.64.35h14.498c.26 0 .5-.13.64-.36.14-.22.15-.5.03-.73l-1.79-3.57zM1.96 14.5l1.25-2.49a2.75 2.75 0 00.29-1.23V8c0-2.48 2.02-4.499 4.5-4.499a4.507 4.507 0 014.499 4.5v2.779c0 .42.1.85.29 1.23l1.25 2.49H1.96z"/></svg><svg viewBox="0 0 14 18" id="password" xmlns="http://www.w3.org/2000/svg"><path d="M5.98 11.585a.683.683 0 00.015.1 1.193 1.193 0 00.058.191.854.854 0 00.094.178l.03.04a.966.966 0 00.173.183l.024.019v1.099a.626.626 0 001.252 0v-1.1l.023-.018a1.03 1.03 0 00.11-.104c.012-.012.022-.026.033-.039l.031-.04a1.045 1.045 0 00.19-.459l.007-.05a1.06 1.06 0 000-.201l-.007-.05a1.072 1.072 0 00-.11-.332 1.04 1.04 0 00-.08-.128l-.03-.04a1.572 1.572 0 00-.034-.037c-.01-.013-.023-.025-.034-.037l-.037-.035a.79.79 0 00-.12-.092 1.035 1.035 0 00-.669-.168 1.013 1.013 0 00-.382.116 1.052 1.052 0 00-.34.293 1.034 1.034 0 00-.197.711z"/><path d="M13.041 7.332h-1.04V5.458A4.798 4.798 0 007.208.666h-.417A4.798 4.798 0 002 5.458v1.874H.958a.626.626 0 00-.626.626v7.084a2.295 2.295 0 002.293 2.292h8.75a2.295 2.295 0 002.292-2.292V7.958a.626.626 0 00-.626-.626zm-9.79-1.874a3.545 3.545 0 013.54-3.54h.417a3.545 3.545 0 013.54 3.54v1.874H3.252V5.458zm9.164 9.584a1.04 1.04 0 01-1.04 1.04h-8.75a1.041 1.041 0 01-1.041-1.04V8.584h10.831v6.458z"/></svg><svg viewBox="0 0 12 16" id="phone" xmlns="http://www.w3.org/2000/svg"><mask id="baa" maskUnits="userSpaceOnUse" x="0" y="0" width="12" height="16"><path d="M0 0h12v16H0V0z"/></mask><g mask="url(#baa)"><path d="M9.541 16.334H2.458a2.295 2.295 0 01-2.292-2.292V1.958A2.295 2.295 0 012.458-.334h7.083a2.295 2.295 0 012.293 2.292v12.084a2.295 2.295 0 01-2.293 2.292zM2.458.918c-.574 0-1.04.467-1.04 1.04v12.084c0 .574.466 1.04 1.04 1.04h7.083c.574 0 1.041-.466 1.041-1.04V1.958c0-.573-.467-1.04-1.04-1.04H2.457z"/><path d="M6.833 13.834H5.167a.626.626 0 110-1.252h1.666a.626.626 0 110 1.252z"/></g></svg><svg viewBox="0 0 60 60" id="polygon" xmlns="http://www.w3.org/2000/svg"><g clip-path="url(#bba)"><path d="M30 0C13.43 0 0 13.43 0 30s13.43 30 30 30 30-13.43 30-30S46.57 0 30 0zm-9.33 12.535a2.69 2.69 0 011.71.283l8.37 4.867A2.327 2.327 0 0132 19.802v3.28l-3.904 2.327v-3.383a2.543 2.543 0 00-1.27-2.12l-4.551-2.54a2.69 2.69 0 00-2.54 0l-4.55 2.54a2.331 2.331 0 00-1.27 2.119v5.285a2.542 2.542 0 001.27 2.119l4.55 2.648a2.7 2.7 0 002.54 0L28 28.69l4-2.223 5.725-3.385a2.7 2.7 0 012.54 0l8.465 4.864A2.328 2.328 0 0150 30.063v9.844a2.54 2.54 0 01-1.26 2.114l-8.464 4.868a2.694 2.694 0 01-2.542 0l-8.465-4.866A2.33 2.33 0 0128 39.905V36.52l3.8-2.22v3.398a2.54 2.54 0 001.27 2.116l4.55 2.54a2.69 2.69 0 002.54 0l4.55-2.644a2.329 2.329 0 001.27-2.116v-5.186a2.54 2.54 0 00-1.27-2.119l-4.55-2.539a2.7 2.7 0 00-2.54 0l-5.705 3.27L28 33.349l-5.725 3.281a2.7 2.7 0 01-2.54 0l-8.465-4.88A2.328 2.328 0 0110 29.643v-9.84a2.16 2.16 0 011.375-2.119l8.464-4.867c.26-.138.54-.234.831-.282z"/></g><defs><clipPath id="bba"><path d="M0 0h60v60H0z"/></clipPath></defs></svg><svg viewBox="0 0 18 18" id="search" xmlns="http://www.w3.org/2000/svg"><path d="M17.706 16.143l-3.76-3.759A7.695 7.695 0 0015.5 7.75c0-4.272-3.476-7.749-7.749-7.749S.001 3.478.001 7.751c0 4.272 3.477 7.748 7.75 7.748 1.814 0 3.48-.63 4.802-1.68l3.739 3.738a.997.997 0 001.414 0 .999.999 0 000-1.414zM1.5 7.75a6.256 6.256 0 016.25-6.249 6.256 6.256 0 016.248 6.25 6.256 6.256 0 01-6.249 6.248A6.256 6.256 0 011.501 7.75z"/></svg><svg viewBox="0 0 18 18" id="settings" xmlns="http://www.w3.org/2000/svg"><path d="M7.542.675h2.916c.575 0 1.043.468 1.043 1.043v1.115a6.214 6.214 0 011.594.929l.966-.56a1.047 1.047 0 011.43.375l1.46 2.527.008.015a1.043 1.043 0 01-.402 1.41l-.953.551a6.668 6.668 0 010 1.858l.954.55a1.043 1.043 0 01.393 1.426l-1.459 2.525c-.142.244-.37.416-.64.486s-.552.032-.792-.109l-.965-.56a6.212 6.212 0 01-1.594.93V16.3c0 .575-.468 1.042-1.043 1.042H7.542A1.044 1.044 0 016.499 16.3v-1.116a6.212 6.212 0 01-1.594-.928l-.966.56c-.497.29-1.14.122-1.43-.376l-1.46-2.527a1.044 1.044 0 01.393-1.425l.954-.551a6.578 6.578 0 01-.064-.929c0-.32.022-.631.064-.929l-.953-.55a1.043 1.043 0 01-.393-1.426L2.508 3.58c.292-.5.934-.668 1.432-.377l.965.56a6.214 6.214 0 011.595-.93V1.718c0-.575.468-1.043 1.043-1.043zm2.707 1.252H7.751v1.349a.626.626 0 01-.44.598 4.99 4.99 0 00-1.912 1.113.626.626 0 01-.738.08l-1.173-.68L2.24 6.545l1.164.672a.626.626 0 01.297.682c-.078.34-.118.714-.118 1.11 0 .396.04.77.118 1.11a.626.626 0 01-.297.682l-1.164.672 1.247 2.159 1.173-.681a.626.626 0 01.738.08 4.995 4.995 0 001.911 1.113.626.626 0 01.441.598v1.35h2.498v-1.35c0-.274.179-.517.441-.598a4.994 4.994 0 001.912-1.113.626.626 0 01.737-.08l1.173.68 1.247-2.158-1.164-.672a.625.625 0 01-.297-.682 4.98 4.98 0 00.118-1.11c0-.396-.04-.77-.118-1.11a.626.626 0 01.297-.682l1.164-.672-1.247-2.158-1.173.68a.626.626 0 01-.738-.08 4.996 4.996 0 00-1.91-1.113.626.626 0 01-.442-.598v-1.35zM3.31 13.735h.001zM9 5.675a3.423 3.423 0 01.878.117c.203.06.505.16.79.336a3.21 3.21 0 011.213 1.212 3.297 3.297 0 01.342.812c.074.286.111.574.111.857a3.42 3.42 0 01-.117.878 3.3 3.3 0 01-.336.79 3.208 3.208 0 01-1.212 1.213 3.292 3.292 0 01-.812.342 3.421 3.421 0 01-.857.112 3.42 3.42 0 01-.878-.118 3.296 3.296 0 01-.79-.336 3.208 3.208 0 01-1.213-1.212 3.295 3.295 0 01-.341-.812 3.418 3.418 0 01-.112-.857 3.417 3.417 0 01.117-.878c.06-.203.16-.505.336-.79a3.208 3.208 0 011.212-1.212 3.298 3.298 0 01.812-.343c.286-.074.574-.111.857-.111zm.533 1.32A2.166 2.166 0 009 6.928a1.991 1.991 0 00-1.044.287 1.956 1.956 0 00-.767.777 1.99 1.99 0 00-.271 1.018 1.99 1.99 0 00.287 1.044 1.956 1.956 0 00.777.767 1.992 1.992 0 001.018.27 1.992 1.992 0 001.044-.287 1.955 1.955 0 00.767-.777 1.99 1.99 0 00.271-1.018 1.99 1.99 0 00-.287-1.044 1.956 1.956 0 00-.777-.767 1.99 1.99 0 00-.485-.202z"/></svg><svg viewBox="0 0 20 21" id="settings-icon" xmlns="http://www.w3.org/2000/svg"><path d="M8.25.01h3.5c.69 0 1.25.56 1.25 1.25V2.6a7.45 7.45 0 011.913 1.114l1.159-.673a1.257 1.257 0 011.716.451l1.751 3.033a1.252 1.252 0 01-.472 1.71l-1.144.661c.051.357.077.73.077 1.115s-.026.758-.077 1.114l1.145.661a1.252 1.252 0 01.471 1.71l-1.75 3.03c-.17.294-.443.5-.768.584a1.25 1.25 0 01-.95-.13l-1.158-.672A7.46 7.46 0 0113 17.422v1.339c0 .69-.561 1.251-1.251 1.251h-3.5c-.69 0-1.251-.561-1.251-1.251v-1.339a7.46 7.46 0 01-1.913-1.114l-1.16.673a1.256 1.256 0 01-1.715-.452L.46 13.497a1.252 1.252 0 01.472-1.71l1.144-.662A7.893 7.893 0 012 10.011c0-.385.025-.758.076-1.115l-1.144-.66a1.252 1.252 0 01-.472-1.71l1.75-3.03c.35-.6 1.12-.803 1.72-.454l1.157.672A7.457 7.457 0 017 2.6V1.26C7 .571 7.561.01 8.25.01zm3.249 1.502H8.5v1.619a.751.751 0 01-.53.718c-.84.26-1.611.709-2.293 1.335a.751.751 0 01-.885.097l-1.408-.817-1.496 2.59 1.397.806a.751.751 0 01.356.819 5.99 5.99 0 00-.14 1.332c0 .476.047.924.14 1.332a.751.751 0 01-.356.818l-1.397.807 1.496 2.59 1.408-.817a.752.752 0 01.885.097 5.995 5.995 0 002.294 1.335.751.751 0 01.53.718v1.619h2.997v-1.62a.75.75 0 01.529-.717c.84-.26 1.612-.71 2.294-1.335a.751.751 0 01.885-.097l1.408.817 1.496-2.59-1.397-.807a.751.751 0 01-.356-.818c.093-.408.14-.856.14-1.332a5.99 5.99 0 00-.14-1.332.75.75 0 01.356-.819l1.397-.806-1.496-2.59-1.408.817a.751.751 0 01-.885-.097 5.994 5.994 0 00-2.294-1.335.751.751 0 01-.53-.718V1.512zM3.17 15.682h.001zM10 6.01a4.107 4.107 0 011.053.14c.244.073.606.193.95.404a3.85 3.85 0 011.454 1.454 3.957 3.957 0 01.41.974c.089.343.134.69.134 1.029a4.106 4.106 0 01-.14 1.054 3.956 3.956 0 01-.404.948 3.849 3.849 0 01-1.455 1.455 3.956 3.956 0 01-.974.41 4.1 4.1 0 01-1.028.134 4.105 4.105 0 01-1.054-.14 3.956 3.956 0 01-.949-.404 3.85 3.85 0 01-1.454-1.455 3.955 3.955 0 01-.41-.973 4.101 4.101 0 01-.134-1.03 4.1 4.1 0 01.14-1.053c.073-.244.193-.606.404-.948a3.85 3.85 0 011.454-1.455 3.957 3.957 0 01.975-.41c.343-.09.689-.134 1.028-.134zm.64 1.585a2.6 2.6 0 00-.64-.083 2.389 2.389 0 00-1.253.344 2.348 2.348 0 00-.92.933 2.388 2.388 0 00-.326 1.222 2.386 2.386 0 00.344 1.253 2.347 2.347 0 00.933.92A2.386 2.386 0 0010 12.51a2.387 2.387 0 001.253-.344 2.346 2.346 0 00.92-.933 2.386 2.386 0 00.326-1.222 2.384 2.384 0 00-.344-1.253 2.348 2.348 0 00-.933-.92 2.388 2.388 0 00-.583-.243z"/></svg><svg viewBox="0 0 16 16" id="share" xmlns="http://www.w3.org/2000/svg"><path d="M12.166 9.666a2.9 2.9 0 00-2.255 1.09L5.82 8.711c.058-.23.098-.464.098-.711 0-.247-.04-.482-.098-.71l4.09-2.047a2.9 2.9 0 002.256 1.09 2.92 2.92 0 002.916-2.917A2.92 2.92 0 0012.166.501 2.92 2.92 0 009.25 3.417c0 .247.04.482.097.711L5.255 6.174a2.9 2.9 0 00-2.254-1.09A2.92 2.92 0 00.084 8a2.92 2.92 0 002.917 2.916 2.9 2.9 0 002.254-1.09l4.092 2.046a2.923 2.923 0 00-.097.71 2.92 2.92 0 002.916 2.917 2.92 2.92 0 002.916-2.916 2.92 2.92 0 00-2.916-2.917zm0-7.915a1.667 1.667 0 010 3.333 1.668 1.668 0 01-1.667-1.667c0-.919.748-1.666 1.667-1.666zM3 9.666A1.668 1.668 0 011.334 8a1.667 1.667 0 111.667 1.666zm9.165 4.583a1.668 1.668 0 01-1.667-1.666c0-.92.748-1.667 1.667-1.667s1.666.748 1.666 1.667-.747 1.666-1.666 1.666z"/></svg><svg viewBox="0 0 20 20" id="stake-btn" xmlns="http://www.w3.org/2000/svg"><path d="M10-.001c-5.515 0-10.001 4.486-10.001 10 0 5.515 4.486 10.002 10 10.002 5.515 0 10.002-4.487 10.002-10.001C20.001 4.485 15.514-.001 10-.001zm0 18.5c-4.687 0-8.5-3.813-8.5-8.5 0-4.686 3.813-8.498 8.5-8.498 4.686 0 8.499 3.812 8.499 8.499 0 4.686-3.813 8.499-8.5 8.499z"/><path d="M9.996 6.501h.007a1.376 1.376 0 011.371 1.374.751.751 0 101.502 0 2.88 2.88 0 00-2.125-2.776v-1.35a.751.751 0 10-1.502 0v1.33c-1.267.28-2.125 1.272-2.125 2.56 0 1.484.983 2.054 1.773 2.511l.258.151.079.047c1.817 1.087 2.14 1.335 2.14 2.011 0 .84-.737 1.138-1.37 1.14h-.007c-.633-.002-1.37-.3-1.37-1.14a.751.751 0 00-1.503 0c0 1.29.858 2.281 2.125 2.562v1.329a.751.751 0 101.502 0v-1.33c1.267-.28 2.125-1.271 2.125-2.561 0-.766-.262-1.373-.825-1.91-.467-.445-1.13-.842-2.046-1.39l-.08-.047a23.152 23.152 0 00-.275-.162c-.76-.44-1.024-.623-1.024-1.21 0-.84.738-1.138 1.37-1.139z"/></svg><svg viewBox="0 0 21 21" id="stake-icon" xmlns="http://www.w3.org/2000/svg"><path d="M10.5.082C4.755.082.082 4.755.082 10.5c0 5.744 4.673 10.418 10.418 10.418 5.744 0 10.418-4.674 10.418-10.418C20.918 4.755 16.244.082 10.5.082zm0 19.27c-4.882 0-8.853-3.97-8.853-8.852S5.618 1.647 10.5 1.647s8.853 3.971 8.853 8.853-3.972 8.853-8.853 8.853z"/><path d="M10.496 6.856h.008a1.433 1.433 0 011.428 1.43.782.782 0 101.564 0 3 3 0 00-2.213-2.891V3.99a.782.782 0 10-1.565 0v1.384c-1.32.293-2.214 1.325-2.214 2.668 0 1.545 1.024 2.138 1.847 2.615l.269.157.082.05c1.893 1.131 2.23 1.39 2.23 2.094 0 .874-.768 1.186-1.428 1.187h-.007c-.66-.001-1.428-.313-1.428-1.187a.782.782 0 10-1.565 0c0 1.343.894 2.376 2.214 2.668v1.385a.782.782 0 101.565 0v-1.385c1.32-.292 2.213-1.325 2.213-2.668 0-.798-.273-1.43-.86-1.99-.486-.464-1.176-.877-2.13-1.448l-.083-.049a23.043 23.043 0 00-.287-.168c-.793-.46-1.067-.65-1.067-1.261 0-.874.768-1.185 1.427-1.186z"/></svg><svg viewBox="0 0 19 19" id="swap-icon" xmlns="http://www.w3.org/2000/svg"><path d="M18.647 13.114a.783.783 0 00-1.107 0l-3.091 3.09V6.115a.782.782 0 00-1.565 0v10.09l-3.091-3.09a.782.782 0 10-1.107 1.107l4.427 4.426.004.004a.8.8 0 00.053.048l.03.022.032.024.035.021.03.018.037.018.033.015.036.013.036.013.036.01.038.008.042.007.034.005a.797.797 0 00.154 0l.035-.005.041-.007c.013-.002.026-.006.039-.01l.035-.008.037-.013.036-.013.033-.015.036-.018.03-.018.036-.021.032-.024.03-.022a.763.763 0 00.057-.052l4.427-4.427a.783.783 0 000-1.107zm-9.44-7.228a.783.783 0 001.106-1.106L5.887.353 5.882.35A.79.79 0 005.83.301L5.801.28 5.768.256C5.757.248 5.745.242 5.733.235l-.03-.019L5.665.2 5.633.184 5.597.17C5.585.166 5.573.16 5.561.158l-.037-.01L5.486.14C5.472.136 5.458.135 5.443.133L5.411.128a.785.785 0 00-.155 0c-.01 0-.02.003-.031.004L5.18.14l-.036.009-.038.01C5.094.16 5.083.166 5.07.17l-.037.014-.032.014-.038.018-.03.018L4.9.256l-.032.023-.03.022a.772.772 0 00-.057.052L.353 4.78a.783.783 0 001.106 1.107l3.092-3.091v10.09a.782.782 0 001.565 0V2.796l3.09 3.09z"/></svg><svg viewBox="0 0 20 20" id="telegram" xmlns="http://www.w3.org/2000/svg"><path d="M10 0C4.48 0 0 4.48 0 10s4.48 10 10 10 10-4.48 10-10S15.52 0 10 0zm4.64 6.8c-.15 1.58-.8 5.42-1.13 7.19-.14.75-.42 1-.68 1.03-.58.05-1.02-.38-1.58-.75-.88-.58-1.38-.94-2.23-1.5-.99-.65-.35-1.01.22-1.59.15-.15 2.71-2.48 2.76-2.69a.2.2 0 00-.05-.18c-.06-.05-.14-.03-.21-.02-.09.02-1.49.95-4.22 2.79-.4.27-.76.41-1.08.4-.36-.01-1.04-.2-1.55-.37-.63-.2-1.12-.31-1.08-.66.02-.18.27-.36.74-.55 2.92-1.27 4.86-2.11 5.83-2.51 2.78-1.16 3.35-1.36 3.73-1.36.08 0 .27.02.39.12.1.08.13.19.14.27-.01.06.01.24 0 .38z"/></svg><svg viewBox="0 0 60 60" id="tron" xmlns="http://www.w3.org/2000/svg"><g clip-path="url(#bka)"><path d="M57.703 18.075C54.891 15.478 51 11.512 47.831 8.7l-.187-.131a3.58 3.58 0 00-1.04-.582C38.961 6.562 3.403-.084 2.708 0c-.194.027-.38.098-.543.206l-.178.14a2.09 2.09 0 00-.488.788l-.047.122v.769c4.003 11.147 19.81 47.662 22.922 56.231.188.581.544 1.688 1.21 1.744h.15c.356 0 1.874-2.006 1.874-2.006s27.15-32.925 29.897-36.432c.356-.431.67-.896.938-1.387a2.26 2.26 0 00-.74-2.1zm-23.128 3.834l11.587-9.61 6.797 6.263-18.384 3.347zm-4.5-.628l-19.95-16.35 32.278 5.953-12.328 10.397zm1.8 4.285l20.419-3.291L28.95 50.4l2.925-24.834zM7.415 6.562l20.991 17.813-3.037 26.044L7.416 6.562z"/></g><defs><clipPath id="bka"><path d="M0 0h60v60H0z"/></clipPath></defs></svg><svg viewBox="0 0 24 24" id="twitter" xmlns="http://www.w3.org/2000/svg"><path d="M12 .48C5.638.48.48 5.638.48 12c0 6.362 5.158 11.52 11.52 11.52 6.362 0 11.52-5.158 11.52-11.52C23.52 5.638 18.362.48 12 .48zm4.686 9.437c.005.098.006.197.006.293 0 3-2.281 6.457-6.455 6.457a6.403 6.403 0 01-3.477-1.02c.176.021.357.03.54.03a4.544 4.544 0 002.818-.971A2.274 2.274 0 018 13.132c.34.064.69.05 1.024-.04a2.27 2.27 0 01-1.82-2.225v-.027c.305.169.656.272 1.028.284a2.268 2.268 0 01-.702-3.031 6.451 6.451 0 004.676 2.372 2.27 2.27 0 013.867-2.07c.507-.1.994-.287 1.44-.55a2.28 2.28 0 01-.998 1.256 4.56 4.56 0 001.304-.359 4.602 4.602 0 01-1.132 1.175z"/></svg><svg viewBox="0 0 60 60" id="usdt" xmlns="http://www.w3.org/2000/svg"><path fill-rule="evenodd" clip-rule="evenodd" d="M30 60C13.43 60 0 46.57 0 30S13.43 0 30 0s30 13.43 30 30-13.43 30-30 30zm3.604-34.138v-4.436h10.151V14.66h-27.64v6.765h10.152v4.434c-8.25.379-14.454 2.014-14.454 3.971 0 1.958 6.204 3.59 14.454 3.972v14.216h7.337v-14.22c8.237-.379 14.426-2.012 14.426-3.968 0-1.955-6.19-3.588-14.426-3.97zm0 6.731v-.004c-.206.015-1.27.08-3.642.08-1.893 0-3.226-.057-3.695-.08v.006c-7.29-.32-12.731-1.59-12.731-3.109 0-1.517 5.44-2.786 12.73-3.112v4.957a55.11 55.11 0 003.728.115c2.264 0 3.398-.094 3.61-.113v-4.955c7.275.324 12.703 1.593 12.703 3.108 0 1.519-5.428 2.785-12.703 3.107z"/></svg><svg viewBox="0 0 24 24" id="vk" xmlns="http://www.w3.org/2000/svg"><path d="M12 .48C5.638.48.48 5.638.48 12c0 6.362 5.158 11.52 11.52 11.52 6.362 0 11.52-5.158 11.52-11.52C23.52 5.638 18.362.48 12 .48zm4.43 12.997s1.02 1.006 1.27 1.473c.007.01.01.019.013.024.102.171.126.304.076.404-.084.166-.372.247-.47.254h-1.8c-.125 0-.387-.032-.704-.25-.243-.17-.483-.45-.717-.723-.35-.405-.652-.756-.957-.756a.365.365 0 00-.114.018c-.23.075-.525.403-.525 1.28 0 .273-.216.43-.369.43h-.824c-.281 0-1.744-.098-3.04-1.465-1.586-1.674-3.014-5.032-3.026-5.063-.09-.217.096-.333.299-.333H7.36c.242 0 .321.147.376.278.065.152.303.758.693 1.44.632 1.111 1.02 1.562 1.33 1.562a.36.36 0 00.167-.043c.406-.225.33-1.671.312-1.971 0-.057 0-.647-.208-.93-.15-.206-.402-.284-.556-.312a.66.66 0 01.239-.203c.278-.14.78-.16 1.278-.16h.277c.54.007.68.042.875.091.396.095.404.35.37 1.226a18.71 18.71 0 00-.022.86c0 .072-.004.149-.004.23-.012.446-.026.95.288 1.158a.26.26 0 00.137.04c.11 0 .438 0 1.328-1.528.275-.491.514-1.002.714-1.528.018-.032.071-.128.134-.165a.319.319 0 01.148-.035h2.138c.232 0 .392.035.422.125.053.143-.01.579-.985 1.9l-.436.575c-.884 1.159-.884 1.218.055 2.097z"/></svg></svg>