<svg width="84" height="84" viewBox="0 0 84 84" fill="none" xmlns="http://www.w3.org/2000/svg">
<path d="M57.1631 30.3759L36.4165 51.1223L28.1677 42.9153C26.9597 41.7071 24.9599 41.7071 23.7517 42.9153C22.5437 44.1233 22.5437 46.1231 23.7517 47.3313L34.2085 57.7463C34.8333 58.3711 35.6249 58.6627 36.4165 58.6627C37.2081 58.6627 37.9995 58.3711 38.6245 57.7463L61.5789 34.7917C62.8287 33.5837 62.8287 31.6257 61.5789 30.3757C60.3709 29.1677 58.4129 29.1677 57.1629 30.3757L57.1631 30.3759Z" fill="white"/>
<path d="M40.9999 0.338945C18.0453 0.922145 -0.201723 20.0441 0.339877 42.9989C0.589877 54.1219 5.21408 64.4953 13.2545 72.1609C21.0865 79.6179 31.2099 83.659 41.9583 83.659H42.9997C54.1229 83.409 64.4963 78.7847 72.1617 70.7443C79.8271 62.7039 83.9097 52.1223 83.6599 40.9991C83.4099 29.8759 78.7857 19.5025 70.7453 11.8371C62.6633 4.17174 52.1233 0.0891454 41.0001 0.338945H40.9999ZM67.6207 66.4117C61.0801 73.2437 52.2899 77.16 42.8331 77.3683C33.3347 77.6183 24.4193 74.1187 17.5455 67.6197C10.6715 61.1209 6.79708 52.2889 6.58888 42.8321C6.13068 23.2935 21.6281 7.04615 41.1249 6.58795H41.9999C51.1235 6.58795 59.7471 10.0457 66.4127 16.3779C73.2449 22.9187 77.1609 31.7089 77.3693 41.1657C77.6193 50.5809 74.1613 59.5795 67.6207 66.4117Z" fill="white"/>
</svg>
