<svg width="178" height="189" viewBox="0 0 178 189" fill="none" xmlns="http://www.w3.org/2000/svg">
<path d="M106.188 74.4628C86.346 79.0262 73.9805 98.8371 78.5438 118.679C83.1072 138.521 102.918 150.886 122.76 146.323C142.602 141.759 154.967 121.948 150.404 102.107C145.84 82.265 126.029 69.8995 106.188 74.4628Z" fill="#661FC6"/>
<path opacity="0.1" fill-rule="evenodd" clip-rule="evenodd" d="M153.626 101.385C158.626 123 145.105 144.583 123.481 149.545C101.866 154.546 80.2832 141.024 75.3208 119.401C70.3204 97.7854 83.804 76.2111 105.466 71.2401C127.081 66.2397 148.655 79.7233 153.626 101.385ZM147.037 102.9C142.92 84.8701 124.957 73.6436 106.973 77.7908C88.9507 81.9466 77.7242 99.9097 81.8715 117.894C86.0188 135.878 103.982 147.104 121.966 142.957C139.958 138.847 151.185 120.884 147.037 102.9Z" fill="#661FC6"/>
<path fill-rule="evenodd" clip-rule="evenodd" d="M157.637 100.447C163.139 124.299 148.272 148.055 124.42 153.556C100.568 159.057 76.7744 144.199 71.3109 120.339C65.8095 96.4865 80.6675 72.6932 104.52 67.1918C128.38 61.7283 152.136 76.5948 157.637 100.447ZM150.404 102.107C145.841 82.265 126.03 69.8995 106.188 74.4629C86.3462 79.0263 73.9807 98.8371 78.5441 118.679C83.1074 138.521 102.918 150.886 122.76 146.323C142.602 141.759 154.967 121.949 150.404 102.107Z" fill="#3E0190"/>
<path d="M105.166 123.945C103.916 122.632 103.157 120.134 105.744 119.236C107.883 118.478 110.494 119.646 112.716 120.143C114.534 120.559 116.429 120.546 118.401 120.104C120.524 119.629 122.114 118.729 123.171 117.404C124.203 116.084 124.532 114.59 124.158 112.922C123.773 111.203 122.996 110.103 121.826 109.622C120.626 109.121 118.774 109.151 116.272 109.711L114.642 110.076C110.547 110.994 107.248 110.843 104.746 109.625C102.212 108.388 100.583 106.151 99.8586 102.916C99.1509 99.7561 99.6508 97.0694 101.358 94.8554C103.034 92.6219 105.768 91.0805 109.56 90.2314C111.102 89.886 112.728 89.8004 114.44 89.9746C118.014 90.2889 123.832 91.7332 123.678 95.3114C123.434 100.98 116.176 95.2396 113.925 94.7882C112.599 94.5544 111.126 94.6186 109.509 94.9809C107.638 95.3999 106.232 96.2324 105.29 97.4786C104.379 98.7444 104.096 100.148 104.442 101.69C104.776 103.181 105.598 104.125 106.908 104.522C108.243 104.913 110.868 104.724 114.783 103.953C118.976 103.12 122.215 103.297 124.498 104.485C126.781 105.672 128.302 107.959 129.061 111.346C129.785 114.582 129.304 117.41 127.617 119.832C125.929 122.254 123.291 123.867 119.702 124.671C118.564 124.925 117.26 125.085 115.788 125.149C112.758 125.31 108.398 126.287 105.794 124.441C105.547 124.284 105.337 124.118 105.166 123.945Z" fill="#3E0190"/>
<path d="M120.438 133.464L120.362 133.481C119.149 133.753 117.87 132.845 117.547 131.404L107.612 87.0443C107.29 85.6036 108.05 84.1989 109.263 83.9272L109.339 83.9102C110.552 83.6385 111.839 84.5846 112.162 86.0253L122.097 130.385C122.42 131.826 121.651 133.193 120.438 133.464Z" fill="#3E0190"/>
<path opacity="0.1" d="M45.3782 25.8887C21.526 31.3901 6.66802 55.1834 12.1609 78.9977C17.6623 102.85 41.4262 117.754 65.2784 112.253C89.1306 106.751 103.989 82.9581 98.5335 59.1354C93.0322 35.2832 69.2304 20.3873 45.3782 25.8887Z" fill="#661FC6"/>
<path d="M44.9827 31.2331C25.1409 35.7965 12.7754 55.6073 17.3388 75.4491C21.9021 95.2908 41.713 107.656 61.5547 103.093C81.388 98.4917 93.762 78.7187 89.1986 58.877C84.6353 39.0352 64.8244 26.6697 44.9827 31.2331Z" fill="#1CCA8F"/>
<path opacity="0.1" fill-rule="evenodd" clip-rule="evenodd" d="M92.4131 58.1174C97.422 79.7706 83.9384 101.345 62.2768 106.316C40.6615 111.316 19.0787 97.7947 14.1163 76.171C9.1159 54.5558 22.6374 32.973 44.2526 27.9726C65.8763 23.0101 87.4507 36.4937 92.4131 58.1174ZM85.8709 59.6623C81.7151 41.6405 63.752 30.414 45.7681 34.5612C27.7842 38.7085 16.5577 56.6716 20.667 74.664C24.8143 92.648 42.7774 103.874 60.7613 99.7272C78.7831 95.5715 89.9802 77.6547 85.8709 59.6623Z" fill="#661FC6"/>
<path fill-rule="evenodd" clip-rule="evenodd" d="M96.4321 57.2172C101.933 81.0694 87.067 104.825 63.2148 110.326C39.3626 115.828 15.5693 100.97 10.1058 77.1089C4.60445 53.2568 19.4624 29.4634 43.3146 23.9621C67.1753 18.4986 90.9686 33.3565 96.4321 57.2172ZM89.1989 58.877C84.6355 39.0353 64.8247 26.6698 44.9829 31.2332C25.1412 35.7965 12.7757 55.6074 17.339 75.4491C21.9024 95.2909 41.7133 107.656 61.555 103.093C81.3882 98.4917 93.7622 78.7188 89.1989 58.877Z" fill="#00DE93"/>
<path fill-rule="evenodd" clip-rule="evenodd" d="M70.9413 71.0488C71.3489 72.8687 71.2802 74.636 70.7352 76.3507C70.1649 78.0711 69.1687 79.6081 67.7465 80.9619C66.8853 81.7387 65.889 82.3866 64.7576 82.9054C63.6066 83.4552 61.919 83.9792 59.6946 84.4774L57.1249 85.0927L56.3287 85.271C56.671 86.6808 57.0035 88.1061 57.3262 89.5469C57.6234 90.8739 55.2348 91.4089 54.9376 90.0818C54.6206 88.6664 54.2881 87.2411 53.9401 85.806L52.3856 86.1542C52.7336 87.5893 53.0689 89.0272 53.3916 90.4679C53.6803 91.757 51.3381 92.3214 51.003 91.0029C50.6803 89.5621 50.3604 88.134 50.0434 86.7185L43.6064 88.2C42.8987 88.3585 42.3283 88.3005 41.8952 88.0259C41.4564 87.726 41.1577 87.2222 40.9992 86.5145C40.8181 85.7056 40.9084 85.1014 41.2701 84.7018C41.6628 84.3219 42.6905 83.9325 44.3531 83.5336L45.3388 83.3128L39.0902 56.1241L38.0665 56.3534C36.5303 56.724 35.4979 56.796 34.9693 56.5693C34.4717 56.3622 34.1323 55.8542 33.9512 55.0454C33.7674 54.3433 33.8226 53.7602 34.1168 53.2962C34.3858 52.8378 34.8615 52.5322 35.5439 52.3793L41.7914 50.9403C41.4687 49.4995 41.1362 48.0742 40.7939 46.6644C40.4967 45.3374 42.8768 44.7645 43.174 46.0915C43.4967 47.5323 43.8292 48.9576 44.1715 50.3674L45.726 50.0192C45.3837 48.6094 45.0512 47.1841 44.7285 45.7434C44.4313 44.4164 46.8199 43.8814 47.1171 45.2084C47.4341 46.6239 47.754 48.052 48.0767 49.4928L49.6312 49.1446C53.8972 48.1626 57.339 48.2412 59.9566 49.3803C62.5741 50.5194 64.2367 52.6688 64.9444 55.8283C65.3263 57.415 65.3091 58.8788 64.8927 60.2197C64.4763 61.5605 63.686 62.7727 62.5219 63.8563C64.8655 64.1278 66.7266 64.8523 68.1052 66.0301C69.4782 67.1825 70.4235 68.8554 70.9413 71.0488ZM49.0911 53.8444C49.9429 57.5291 50.7975 61.2264 51.655 64.9364L52.6787 64.7071C55.5293 64.0422 57.5351 63.1018 58.6962 61.8862C59.8826 60.6649 60.2509 59.1092 59.801 57.2191C59.3991 55.4245 58.4587 54.1885 56.9797 53.511C55.5317 52.8532 53.6324 52.7875 51.2817 53.314L49.0911 53.8444ZM45.1944 54.757C46.0209 58.4473 46.8629 62.1475 47.7204 65.8575L49.2749 65.5093C48.4174 61.7993 47.5628 58.102 46.711 54.4173L45.1944 54.757ZM53.027 81.5511C52.0789 77.4367 51.1309 73.3223 50.1829 69.2079L48.6284 69.5561C49.5764 73.6705 50.5245 77.7849 51.4725 81.8992L53.027 81.5511ZM65.7301 72.1363C65.2009 69.8924 64.086 68.4698 62.3852 67.8686C60.6845 67.2673 57.9791 67.3955 54.2692 68.2529L52.563 68.635C53.5167 72.7747 54.4676 76.9017 55.4156 81.0161L56.8184 80.7019C60.6042 79.8275 63.1605 78.7373 64.4872 77.4315C65.8083 76.1004 66.2226 74.3353 65.7301 72.1363Z" fill="#00DE93"/>
<path d="M25.0751 124.921C26.1202 137.587 32.2753 149.069 42.3863 157.237C43.838 158.385 45.4033 159.507 46.9811 160.508C51.2041 163.185 55.8011 165.221 60.6328 166.528C65.1273 167.751 69.7598 168.346 74.4924 168.322L73.0954 177.195L72.6949 179.674L74.6392 178.044L89.9746 165.093L90.9761 164.232L89.8245 163.534L72.5037 153.398L70.2468 152.032L71.1655 154.534L73.8156 161.744C65.4839 161.699 57.4349 159.361 50.4825 154.985C49.0903 154.103 47.7569 153.127 46.4909 152.097C37.7936 145.086 32.522 135.237 31.6021 124.375L31.5121 123.439L30.6061 123.483L25.9204 123.895L25.5243 123.904L25.2804 124.238L25.0281 124.533L25.0751 124.921Z" fill="#3E0190"/>
<path d="M156.369 62.4277C155.324 49.7613 149.168 38.2791 139.057 30.1118C137.597 28.9258 136.04 27.8411 134.454 26.8028C130.24 24.1632 125.643 22.1269 120.811 20.8201C116.317 19.597 111.646 19.0105 106.951 19.0268L108.311 10.1618L108.702 7.64526L106.805 9.30463L91.4692 22.2554L90.4677 23.1167L91.5729 23.785L108.902 33.959L111.189 35.2785L110.278 32.8146L107.59 25.6126C115.96 25.6493 124.009 27.9875 130.961 32.363C132.316 33.2542 133.64 34.1918 134.944 35.2137C143.65 42.2624 148.922 52.1108 149.842 62.9737L149.894 63.9177L150.829 63.8276L155.485 63.4617L155.919 63.4441L156.163 63.1107L156.416 62.8153L156.369 62.4277Z" fill="#00DE93"/>
</svg>
